<svg width="167" height="246" viewBox="0 0 167 246" fill="none" xmlns="http://www.w3.org/2000/svg">
<g style="mix-blend-mode:multiply" opacity="0.3">
<g style="mix-blend-mode:multiply" opacity="0.3">
<path d="M157.114 71.3749L126.503 47.7532C121.431 43.8395 114.332 45.0336 110.647 50.4205L9.82483 197.81C6.13995 203.197 7.26427 210.736 12.3361 214.65L42.9471 238.272C48.0189 242.185 55.1176 240.991 58.8025 235.604L159.625 88.215C163.31 82.8282 162.186 75.2886 157.114 71.3749Z" fill="#2D2D2D"/>
<path d="M157.114 71.3749L126.503 47.7532C121.431 43.8395 114.332 45.0336 110.647 50.4205L9.82483 197.81C6.13995 203.197 7.26427 210.736 12.3361 214.65L42.9471 238.272C48.0189 242.185 55.1176 240.991 58.8025 235.604L159.625 88.215C163.31 82.8282 162.186 75.2886 157.114 71.3749Z" stroke="#2D2D2D" stroke-width="8" stroke-linecap="round" stroke-linejoin="round"/>
</g>
<g style="mix-blend-mode:multiply" opacity="0.3">
<path d="M56.9278 13.3953H19.0905C12.8214 13.3953 7.73926 18.793 7.73926 25.4515V207.635C7.73926 214.293 12.8214 219.691 19.0905 219.691H56.9278C63.1969 219.691 68.279 214.293 68.279 207.635V25.4515C68.279 18.793 63.1969 13.3953 56.9278 13.3953Z" fill="#2D2D2D"/>
<path d="M56.9278 13.3953H19.0905C12.8214 13.3953 7.73926 18.793 7.73926 25.4515V207.635C7.73926 214.293 12.8214 219.691 19.0905 219.691H56.9278C63.1969 219.691 68.279 214.293 68.279 207.635V25.4515C68.279 18.793 63.1969 13.3953 56.9278 13.3953Z" stroke="#2D2D2D" stroke-width="8" stroke-linecap="round" stroke-linejoin="round"/>
</g>
<g style="mix-blend-mode:multiply" opacity="0.3">
<path d="M105.85 31.5551L69.4789 20.4779C63.4526 18.6426 57.1666 22.3435 55.4386 28.744L8.15866 203.87C6.43066 210.27 9.91508 216.947 15.9413 218.782L52.3129 229.859C58.3392 231.695 64.6252 227.994 66.3532 221.593L113.633 46.4675C115.361 40.0669 111.877 33.3904 105.85 31.5551Z" fill="#2D2D2D"/>
<path d="M105.85 31.5551L69.4789 20.4779C63.4526 18.6426 57.1666 22.3435 55.4386 28.744L8.15866 203.87C6.43066 210.27 9.91508 216.947 15.9413 218.782L52.3129 229.859C58.3392 231.695 64.6252 227.994 66.3532 221.593L113.633 46.4675C115.361 40.0669 111.877 33.3904 105.85 31.5551Z" stroke="#2D2D2D" stroke-width="8" stroke-linecap="round" stroke-linejoin="round"/>
</g>
</g>
<path d="M153.961 60.6581L123.35 37.0364C118.279 33.1227 111.18 34.3168 107.495 39.7037L6.67249 187.093C2.98761 192.48 4.11193 200.02 9.18374 203.933L39.7948 227.555C44.8666 231.469 51.9653 230.274 55.6502 224.888L156.473 77.4982C160.158 72.1114 159.033 64.5718 153.961 60.6581Z" fill="white"/>
<path d="M46.4482 232.531C43.5249 232.534 40.6764 231.551 38.3132 229.723L7.70218 206.101C4.72819 203.802 2.73428 200.344 2.15794 196.485C1.5816 192.626 2.46989 188.683 4.62789 185.519L105.453 38.1291C107.619 34.9712 110.875 32.8546 114.508 32.2435C118.141 31.6323 121.854 32.5766 124.832 34.8693L155.444 58.4908C158.417 60.7907 160.41 64.2493 160.985 68.1078C161.561 71.9663 160.672 75.9097 158.513 79.0728L57.6904 226.462C56.4016 228.346 54.7107 229.878 52.7565 230.933C50.8023 231.988 48.6404 232.536 46.4482 232.531ZM41.2771 225.387C42.2152 226.111 43.2784 226.632 44.4059 226.919C45.5334 227.206 46.7031 227.255 47.8483 227.062C48.9935 226.869 50.0917 226.439 51.0802 225.795C52.0688 225.152 52.9283 224.308 53.6096 223.311L154.431 75.9235C155.804 73.9103 156.37 71.4007 156.003 68.9452C155.637 66.4898 154.368 64.289 152.476 62.8257L121.864 39.2042C119.969 37.7456 117.606 37.1451 115.295 37.5344C112.983 37.9236 110.911 39.2709 109.533 41.2805L8.71243 188.667C7.33902 190.68 6.77353 193.189 7.14003 195.645C7.50652 198.1 8.77505 200.301 10.6673 201.764L41.2784 225.386L41.2771 225.387Z" fill="#1F2120"/>
<path d="M89.7497 177.715C89.2174 177.715 88.6988 177.536 88.2683 177.204L39.2911 139.409C39.023 139.202 38.7959 138.942 38.6227 138.642C38.4496 138.342 38.3339 138.008 38.282 137.661C38.2302 137.313 38.2433 136.958 38.3207 136.616C38.3981 136.274 38.5382 135.951 38.7329 135.666L105.453 38.1294C107.618 34.9714 110.875 32.8546 114.508 32.2434C118.141 31.6323 121.854 32.5767 124.832 34.8695L155.444 58.4911C158.417 60.791 160.41 64.2495 160.985 68.1081C161.56 71.9666 160.671 75.91 158.513 79.0731L91.7923 176.611C91.558 176.953 91.2508 177.232 90.8958 177.423C90.5408 177.615 90.148 177.715 89.7497 177.715ZM44.2944 136.649L89.1947 171.293L154.433 75.9238C155.806 73.9106 156.372 71.401 156.005 68.9455C155.639 66.4901 154.37 64.2893 152.478 62.826L121.867 39.2044C119.971 37.7461 117.609 37.1457 115.297 37.5349C112.985 37.9242 110.913 39.2713 109.535 41.2808L44.2944 136.649Z" fill="#1F2120"/>
<path d="M123.35 37.0364L153.961 60.6581C156.397 62.5375 158.03 65.3676 158.501 68.5257C158.972 71.6839 158.242 74.9114 156.473 77.4983L138.68 103.508L89.7027 65.7136L107.495 39.7037C109.264 37.1168 111.929 35.3825 114.903 34.8823C117.876 34.3821 120.915 35.157 123.35 37.0364Z" fill="#97B7B4"/>
<path d="M138.679 106.188C138.146 106.188 137.628 106.009 137.197 105.676L88.2195 67.8813C87.6783 67.4637 87.3154 66.8348 87.2108 66.133C87.1061 65.4312 87.2682 64.714 87.6614 64.1392L105.454 38.1291C107.619 34.9712 110.876 32.8546 114.509 32.2435C118.142 31.6323 121.855 32.5766 124.833 34.8693L155.444 58.4908C158.418 60.7907 160.411 64.2493 160.986 68.1078C161.561 71.9663 160.672 75.9097 158.514 79.0729L140.721 105.083C140.487 105.425 140.18 105.704 139.825 105.896C139.47 106.088 139.077 106.188 138.679 106.188ZM93.2253 65.1211L138.123 99.7661L154.432 75.9215C155.805 73.9083 156.371 71.3987 156.004 68.9433C155.638 66.4878 154.369 64.287 152.477 62.8237L121.865 39.2021C119.97 37.7438 117.607 37.1434 115.295 37.5326C112.984 37.9219 110.912 39.269 109.534 41.2785L93.2253 65.1211Z" fill="#1F2120"/>
<path d="M114.216 139.272L65.2383 101.477L40.774 137.241L89.7517 175.035L114.216 139.272Z" fill="#5A7875"/>
<path d="M138.679 103.509L89.7012 65.7144L65.2369 101.478L114.215 139.273L138.679 103.509Z" fill="#799491"/>
<path d="M114.216 141.951C113.683 141.951 113.164 141.772 112.733 141.439L63.7546 103.645C63.2134 103.227 62.8506 102.598 62.7459 101.896C62.6413 101.194 62.8033 100.477 63.1965 99.9024L87.6609 64.1389C87.8556 63.8541 88.1012 63.6129 88.3837 63.4291C88.6662 63.2452 88.98 63.1222 89.3073 63.0672C89.6345 63.0121 89.9687 63.0261 90.2909 63.1082C90.613 63.1904 90.9168 63.3392 91.1848 63.5461L140.163 101.34C140.704 101.758 141.067 102.387 141.171 103.089C141.276 103.791 141.114 104.508 140.721 105.083L116.256 140.849C115.863 141.424 115.271 141.81 114.611 141.921C114.48 141.942 114.348 141.952 114.216 141.951ZM68.7624 100.884L113.66 135.53L135.159 104.101L90.2616 69.4557L68.7624 100.884Z" fill="#1F2120"/>
<path d="M89.7497 177.714C89.2174 177.715 88.6988 177.536 88.2683 177.203L39.2911 139.409C39.023 139.202 38.7959 138.941 38.6227 138.641C38.4496 138.341 38.3339 138.008 38.282 137.66C38.2302 137.313 38.2433 136.958 38.3207 136.615C38.3981 136.273 38.5382 135.951 38.7329 135.666L63.1967 99.9025C63.3914 99.6178 63.637 99.3766 63.9195 99.1927C64.202 99.0088 64.5158 98.8859 64.843 98.8308C65.1703 98.7758 65.5045 98.7897 65.8267 98.8719C66.1488 98.9541 66.4526 99.1029 66.7206 99.3098L115.699 137.104C115.967 137.311 116.194 137.572 116.367 137.872C116.54 138.172 116.656 138.505 116.708 138.853C116.759 139.2 116.746 139.555 116.669 139.897C116.592 140.24 116.451 140.562 116.257 140.847L91.7923 176.61C91.558 176.953 91.2508 177.231 90.8958 177.423C90.5408 177.615 90.148 177.715 89.7497 177.714ZM44.2944 136.649L89.1947 171.293L110.694 139.864L65.7986 105.219L44.2944 136.649Z" fill="#1F2120"/>
<path d="M20.4191 201.605C18.7197 201.602 17.0707 200.991 15.7377 199.872C14.4047 198.752 13.4654 197.189 13.0709 195.433C12.6765 193.677 12.8499 191.832 13.5633 190.193C14.2767 188.555 15.4884 187.22 17.0034 186.402C18.5184 185.584 20.2485 185.332 21.9149 185.686C23.5814 186.039 25.0872 186.979 26.1899 188.352C27.2925 189.725 27.9279 191.453 27.9935 193.257C28.0592 195.06 27.5514 196.835 26.5519 198.295C25.8486 199.322 24.9261 200.157 23.8601 200.733C22.794 201.308 21.6148 201.607 20.4191 201.605ZM20.4348 190.893C20.3007 190.893 20.1668 190.904 20.0344 190.926C19.3934 191.035 18.817 191.403 18.4258 191.953C18.0346 192.504 17.8591 193.193 17.9358 193.878C18.0126 194.562 18.3359 195.189 18.8378 195.626C19.3397 196.063 19.9814 196.277 20.6285 196.223C21.2756 196.169 21.8779 195.851 22.3092 195.336C22.7405 194.82 22.9674 194.148 22.9424 193.459C22.9174 192.77 22.6423 192.118 22.1749 191.64C21.7075 191.162 21.0839 190.894 20.4348 190.893Z" fill="#1F2120"/>
<g style="mix-blend-mode:overlay" opacity="0.3">
<path d="M107.113 23.5184L70.7423 12.4447C69.3093 12.0083 67.8095 11.8758 66.3283 12.055C64.8472 12.2342 63.4138 12.7215 62.11 13.489C60.8062 14.2566 59.6575 15.2894 58.7295 16.5285C57.8015 17.7676 57.1124 19.1887 56.7015 20.7106L9.42117 195.834C8.59139 198.907 8.94517 202.205 10.4047 205.002C11.8642 207.798 14.3098 209.865 17.2037 210.746L50.3795 208.728C50.6727 208.817 53.4815 208.913 53.7754 208.976H56.7916L61.6348 208.422C64.1553 208.133 66.5368 207.049 68.4723 205.311C70.4078 203.572 71.8088 201.257 72.4948 198.665L114.896 38.4327C115.307 36.9106 115.432 35.3175 115.263 33.7442C115.095 32.1709 114.636 30.6483 113.913 29.2634C113.191 27.8784 112.218 26.6582 111.051 25.6725C109.885 24.6868 108.547 23.9548 107.113 23.5184Z" fill="#2D2D2D"/>
<path d="M107.113 23.5184L70.7423 12.4447C69.3093 12.0083 67.8095 11.8758 66.3283 12.055C64.8472 12.2342 63.4138 12.7215 62.11 13.489C60.8062 14.2566 59.6575 15.2894 58.7295 16.5285C57.8015 17.7676 57.1124 19.1887 56.7015 20.7106L9.42117 195.834C8.59139 198.907 8.94517 202.205 10.4047 205.002C11.8642 207.798 14.3098 209.865 17.2037 210.746L50.3795 208.728C50.6727 208.817 53.4815 208.913 53.7754 208.976H56.7916L61.6348 208.422C64.1553 208.133 66.5368 207.049 68.4723 205.311C70.4078 203.572 71.8088 201.257 72.4948 198.665L114.896 38.4327C115.307 36.9106 115.432 35.3175 115.263 33.7442C115.095 32.1709 114.636 30.6483 113.913 29.2634C113.191 27.8784 112.218 26.6582 111.051 25.6725C109.885 24.6868 108.547 23.9548 107.113 23.5184Z" stroke="#2D2D2D" stroke-width="8" stroke-linecap="round" stroke-linejoin="round"/>
</g>
<path d="M102.7 20.8393L66.3285 9.76212C60.3022 7.92679 54.0162 11.6276 52.2882 18.0282L5.00827 193.154C3.28027 199.555 6.76469 206.231 12.7909 208.066L49.1625 219.144C55.1888 220.979 61.4748 217.278 63.2028 210.878L110.483 35.7517C112.211 29.3511 108.726 22.6746 102.7 20.8393Z" fill="white"/>
<path d="M52.3101 222.297C51.0087 222.296 49.7138 222.102 48.4633 221.719L12.0941 210.642C8.55757 209.565 5.56873 207.04 3.78488 203.622C2.00103 200.205 1.56827 196.175 2.58175 192.418L49.862 17.2905C50.8762 13.5339 53.2539 10.3591 56.472 8.4644C59.69 6.5697 63.485 6.11036 67.0219 7.1874L103.393 18.2644C105.144 18.7978 106.78 19.6923 108.206 20.8969C109.632 22.1015 110.82 23.5927 111.703 25.2851C112.587 26.9776 113.147 28.8383 113.354 30.761C113.56 32.6837 113.408 34.6306 112.905 36.4908L65.6257 211.616C64.7945 214.688 63.0469 217.39 60.6457 219.316C58.2444 221.242 55.3193 222.288 52.3101 222.297ZM63.1852 11.9704C61.2702 11.9759 59.4086 12.6416 57.8804 13.8674C56.3522 15.0931 55.24 16.8126 54.7109 18.7674L7.43124 193.892C7.11164 195.076 7.01471 196.315 7.14599 197.538C7.27727 198.762 7.63418 199.946 8.19635 201.023C8.75852 202.1 9.51496 203.049 10.4224 203.816C11.3299 204.582 12.3706 205.151 13.4852 205.491L49.857 216.568C50.9715 216.907 52.1381 217.01 53.29 216.87C54.442 216.731 55.5568 216.352 56.5708 215.755C57.5848 215.158 58.4781 214.354 59.1998 213.39C59.9215 212.427 60.4574 211.321 60.7769 210.138L108.057 35.0172C108.376 33.8335 108.473 32.5944 108.342 31.3708C108.211 30.1473 107.854 28.9631 107.291 27.8861C106.729 26.809 105.973 25.8601 105.065 25.0935C104.158 24.327 103.117 23.7578 102.003 23.4185L65.6314 12.3381C64.8361 12.095 64.0128 11.9712 63.1852 11.9704Z" fill="#1F2120"/>
<path d="M66.1243 9.88319L102.486 20.9749C105.379 21.8575 107.824 23.9245 109.282 26.7213C110.74 29.5182 111.093 32.8157 110.262 35.8885L101.907 66.7847L43.7284 49.0379L52.0829 18.1417C52.9138 15.0689 54.8599 12.4725 57.4932 10.9238C60.1265 9.37498 63.2312 9.00067 66.1243 9.88319Z" fill="#FFF0F0"/>
<path d="M79.1941 154.324C78.9594 154.324 78.7259 154.288 78.5004 154.219L20.3059 136.496C19.6628 136.3 19.1194 135.841 18.795 135.22C18.4706 134.598 18.3918 133.866 18.5761 133.183L49.8626 17.2905C50.8767 13.5339 53.2544 10.3591 56.4725 8.4644C59.6906 6.5697 63.4855 6.11036 67.0224 7.1874L103.394 18.2644C105.145 18.7978 106.78 19.6923 108.206 20.8969C109.632 22.1015 110.821 23.5927 111.704 25.2851C112.587 26.9776 113.148 28.8383 113.354 30.761C113.56 32.6837 113.408 34.6306 112.906 36.4908L81.6175 152.383C81.4667 152.942 81.1486 153.434 80.7114 153.784C80.2743 154.134 79.7417 154.324 79.1941 154.324ZM24.118 132.087L77.4649 148.331L108.057 35.0172C108.377 33.8335 108.474 32.5944 108.342 31.3708C108.211 30.1473 107.854 28.9631 107.292 27.8861C106.73 26.809 105.973 25.8601 105.066 25.0935C104.158 24.327 103.118 23.7578 102.003 23.4185L65.6319 12.3381C64.5173 11.9987 63.3507 11.8957 62.1987 12.0351C61.0467 12.1746 59.9318 12.5537 58.9178 13.1508C57.9037 13.7478 57.0103 14.5512 56.2886 15.5151C55.5668 16.4789 55.0309 17.5843 54.7114 18.7681L24.118 132.087Z" fill="#1F2120"/>
<path d="M101.91 66.781L43.7314 49.0342L32.244 91.5164L90.4227 109.263L101.91 66.781Z" fill="#EBDADA"/>
<path d="M90.6675 111.829C90.4318 111.829 90.1972 111.794 89.9707 111.725L31.7762 94.0016C31.4578 93.9045 31.1604 93.7419 30.9012 93.5228C30.642 93.3038 30.4259 93.0326 30.2654 92.7249C30.1048 92.4171 30.0029 92.0788 29.9654 91.7292C29.9279 91.3796 29.9557 91.0256 30.047 90.6874L41.5199 48.1938C41.7043 47.5108 42.1365 46.9336 42.7216 46.589C43.3066 46.2445 43.9965 46.1609 44.6396 46.3566L102.835 64.0799C103.153 64.177 103.45 64.3396 103.71 64.5587C103.969 64.7778 104.185 65.0489 104.346 65.3566C104.506 65.6644 104.608 66.0027 104.646 66.3523C104.683 66.7019 104.655 67.0559 104.564 67.3941L93.0916 109.888C92.9407 110.448 92.6226 110.939 92.1853 111.29C91.7479 111.64 91.2152 111.829 90.6675 111.829ZM35.5915 89.5923L88.9371 105.839L99.0188 68.4959L45.6732 52.2494L35.5915 89.5923Z" fill="#1F2120"/>
<path d="M90.6653 109.15L32.4707 91.4263L20.9984 133.92L79.1929 151.644L90.6653 109.15Z" fill="#D3C3C3"/>
<path d="M79.1941 154.323C78.9594 154.323 78.7258 154.288 78.5004 154.219L20.3059 136.495C19.6628 136.299 19.1194 135.84 18.795 135.219C18.4706 134.598 18.3918 133.865 18.5761 133.182L30.049 90.6875C30.2334 90.0045 30.6656 89.4272 31.2506 89.0827C31.8357 88.7381 32.5256 88.6545 33.1687 88.8502L91.3632 106.574C91.6817 106.671 91.979 106.834 92.2383 107.053C92.4977 107.272 92.7138 107.543 92.8744 107.851C93.0351 108.159 93.137 108.497 93.1745 108.847C93.2121 109.196 93.1843 109.55 93.093 109.888L81.6201 152.382C81.4691 152.942 81.1507 153.434 80.713 153.784C80.2753 154.134 79.7421 154.323 79.1941 154.323ZM24.118 132.086L77.4649 148.33L87.5473 110.987L34.2017 94.7397L24.118 132.086Z" fill="#1F2120"/>
<path d="M20.0309 202.284C18.3518 202.288 16.7192 201.698 15.3902 200.609C14.0611 199.519 13.1111 197.99 12.6896 196.264C12.2681 194.538 12.3991 192.712 13.062 191.073C13.7249 189.435 14.882 188.077 16.3512 187.214C17.3612 186.62 18.4856 186.28 19.6384 186.219C20.7912 186.158 21.9419 186.378 23.0024 186.862C24.0629 187.346 25.005 188.081 25.7568 189.011C26.5086 189.942 27.0502 191.042 27.3399 192.229C27.6297 193.416 27.66 194.657 27.4285 195.858C27.1971 197.059 26.7101 198.188 26.0048 199.158C25.2994 200.129 24.3944 200.915 23.3589 201.457C22.3235 201.998 21.1851 202.281 20.0309 202.284ZM20.0164 191.563C19.377 191.563 18.7614 191.82 18.2938 192.284C17.8263 192.747 17.5415 193.381 17.4969 194.059C17.4523 194.736 17.6512 195.406 18.0535 195.934C18.4558 196.462 19.0316 196.808 19.6648 196.903C20.2979 196.997 20.9413 196.834 21.4652 196.444C21.9891 196.055 22.3546 195.469 22.4878 194.805C22.621 194.141 22.5122 193.448 22.1832 192.865C21.8542 192.283 21.3296 191.855 20.7151 191.667C20.4873 191.598 20.2514 191.563 20.0145 191.563H20.0164Z" fill="#1F2120"/>
<g style="mix-blend-mode:overlay" opacity="0.3">
<path d="M58.8214 5.3584H20.984C14.7149 5.3584 9.63281 10.7562 9.63281 17.4146V199.598C9.63281 206.256 14.7149 211.654 20.984 211.654H58.8214C65.0905 211.654 70.1726 206.256 70.1726 199.598V17.4146C70.1726 10.7562 65.0905 5.3584 58.8214 5.3584Z" fill="#2D2D2D"/>
<path d="M58.8214 5.3584H20.984C14.7149 5.3584 9.63281 10.7562 9.63281 17.4146V199.598C9.63281 206.256 14.7149 211.654 20.984 211.654H58.8214C65.0905 211.654 70.1726 206.256 70.1726 199.598V17.4146C70.1726 10.7562 65.0905 5.3584 58.8214 5.3584Z" stroke="#2D2D2D" stroke-width="8" stroke-linecap="round" stroke-linejoin="round"/>
</g>
<path d="M53.7755 2.67944H15.9381C9.66902 2.67944 4.58691 8.07721 4.58691 14.7357V196.919C4.58691 203.578 9.66902 208.975 15.9381 208.975H53.7755C60.0446 208.975 65.1267 203.578 65.1267 196.919V14.7357C65.1267 8.07721 60.0446 2.67944 53.7755 2.67944Z" fill="white"/>
<path d="M53.7745 211.654H15.9372C12.2589 211.65 8.7325 210.096 6.13158 207.333C3.53066 204.571 2.06765 200.825 2.06348 196.919V14.7354C2.06765 10.8287 3.53066 7.08326 6.13158 4.3208C8.7325 1.55833 12.2589 0.0044319 15.9372 0H53.7745C57.4528 0.0044319 60.9792 1.55833 63.5801 4.3208C66.181 7.08326 67.6441 10.8287 67.6482 14.7354V196.919C67.6441 200.825 66.181 204.571 63.5801 207.333C60.9792 210.096 57.4528 211.65 53.7745 211.654ZM15.9372 5.35833C13.5964 5.36099 11.3522 6.34979 9.69708 8.10775C8.04191 9.86572 7.11096 12.2493 7.10846 14.7354V196.919C7.11096 199.405 8.04191 201.788 9.69708 203.546C11.3522 205.304 13.5964 206.293 15.9372 206.296H53.7745C56.1152 206.293 58.3593 205.304 60.0145 203.546C61.6696 201.788 62.6006 199.405 62.6033 196.919V14.7354C62.6006 12.2493 61.6696 9.86589 60.0145 8.10796C58.3593 6.35003 56.1152 5.36117 53.7745 5.35833H15.9372Z" fill="#1F2120"/>
<path d="M65.1258 137.977H4.58597C3.91696 137.977 3.27535 137.695 2.8023 137.192C2.32924 136.69 2.06348 136.008 2.06348 135.298V14.7354C2.06765 10.8287 3.53066 7.08326 6.13158 4.3208C8.7325 1.55833 12.2589 0.0044319 15.9372 0H53.7745C57.4528 0.0044319 60.9792 1.55833 63.5801 4.3208C66.181 7.08326 67.6441 10.8287 67.6482 14.7354V135.298C67.6482 136.008 67.3825 136.69 66.9094 137.192C66.4364 137.695 65.7948 137.977 65.1258 137.977ZM7.10846 132.619H62.6033V14.7354C62.6006 12.2493 61.6696 9.86589 60.0145 8.10796C58.3593 6.35003 56.1152 5.36117 53.7745 5.35833H15.9372C13.5964 5.36099 11.3522 6.34979 9.69708 8.10775C8.04191 9.86572 7.11096 12.2493 7.10846 14.7354V132.619Z" fill="#1F2120"/>
<path d="M15.9381 2.67944H53.7755C56.786 2.67944 59.6732 3.94966 61.802 6.21065C63.9307 8.47163 65.1267 11.5382 65.1267 14.7357V46.8857H4.58691V14.7357C4.58691 11.5382 5.78285 8.47163 7.91162 6.21065C10.0404 3.94966 12.9276 2.67944 15.9381 2.67944Z" fill="#D0A4BB"/>
<path d="M65.1258 49.5653H4.58597C3.91696 49.5653 3.27535 49.283 2.8023 48.7806C2.32924 48.2782 2.06348 47.5967 2.06348 46.8861V14.7361C2.06765 10.8294 3.53066 7.084 6.13158 4.32153C8.7325 1.55906 12.2589 0.00516432 15.9372 0.000732422H53.7745C57.4528 0.00516432 60.9792 1.55906 63.5801 4.32153C66.181 7.084 67.6441 10.8294 67.6482 14.7361V46.8861C67.6482 47.5967 67.3825 48.2782 66.9094 48.7806C66.4364 49.283 65.7948 49.5653 65.1258 49.5653ZM7.10846 44.207H62.6033V14.7361C62.6006 12.2501 61.6696 9.86662 60.0145 8.10869C58.3593 6.35076 56.1152 5.3619 53.7745 5.35907H15.9372C13.5964 5.36172 11.3522 6.35052 9.69708 8.10849C8.04191 9.86645 7.11096 12.25 7.10846 14.7361V44.207Z" fill="#1F2120"/>
<path d="M65.1267 46.8857H4.58691V91.092H65.1267V46.8857Z" fill="#FF0000"/>
<path d="M63 47H5V91H63V47Z" fill="#A2798F" stroke="#1F2120" stroke-width="5" stroke-linecap="round" stroke-linejoin="round"/>
<path d="M65.1267 91.0918H4.58691V135.298H65.1267V91.0918Z" fill="#795368"/>
<path d="M65.1258 137.977H4.58597C3.91696 137.977 3.27535 137.694 2.8023 137.192C2.32924 136.69 2.06348 136.008 2.06348 135.298V91.0913C2.06348 90.3807 2.32924 89.6993 2.8023 89.1968C3.27535 88.6944 3.91696 88.4121 4.58597 88.4121H65.1258C65.7948 88.4121 66.4364 88.6944 66.9094 89.1968C67.3825 89.6993 67.6482 90.3807 67.6482 91.0913V135.298C67.6482 136.008 67.3825 136.69 66.9094 137.192C66.4364 137.694 65.7948 137.977 65.1258 137.977ZM7.10846 132.618H62.6033V93.7704H7.10846V132.618Z" fill="#1F2120"/>
<path d="M19.3028 201.608C17.8061 201.608 16.343 201.136 15.0986 200.253C13.8541 199.37 12.8842 198.115 12.3114 196.646C11.7386 195.177 11.5888 193.561 11.8808 192.002C12.1728 190.443 12.8935 189.011 13.9518 187.887C15.0101 186.763 16.3585 185.997 17.8265 185.687C19.2944 185.377 20.816 185.536 22.1988 186.145C23.5815 186.753 24.7634 187.783 25.595 189.105C26.4265 190.427 26.8703 191.981 26.8703 193.57C26.8681 195.701 26.0701 197.744 24.6514 199.251C23.2327 200.758 21.3092 201.605 19.3028 201.608ZM19.3028 190.891C18.8039 190.891 18.3162 191.048 17.9014 191.343C17.4866 191.637 17.1633 192.055 16.9724 192.545C16.7814 193.035 16.7315 193.573 16.8288 194.093C16.9261 194.613 17.1664 195.09 17.5191 195.465C17.8719 195.839 18.3214 196.095 18.8107 196.198C19.3 196.301 19.8072 196.248 20.2681 196.045C20.7291 195.843 21.123 195.499 21.4002 195.059C21.6774 194.618 21.8253 194.1 21.8253 193.57C21.8253 192.86 21.5595 192.178 21.0865 191.676C20.6134 191.173 19.9718 190.891 19.3028 190.891Z" fill="#1F2120"/>
</svg>
