<svg width="60" height="75" viewBox="0 0 60 75" fill="none" xmlns="http://www.w3.org/2000/svg">
<path d="M59.0791 37.4707L57.1895 60.5127C56.7061 66.4746 47.8291 65.6543 48.3125 59.7949L49.7773 41.8506L43.7568 42.1875C45.2363 45.2197 46.0713 48.6182 46.0713 52.2217C46.0713 58.2568 43.7129 63.75 39.875 67.8223L34.1182 62.0654C42.5996 52.7344 36.0371 37.5732 23.2783 37.5732C19.4844 37.5732 16.0273 39.0234 13.4346 41.3818L7.67773 35.625C10.9004 32.5928 15.0166 30.4834 19.6016 29.7363L30.6318 17.1826L24.3916 13.5498L16.833 20.2881C12.4385 24.2139 6.49121 17.5781 10.9004 13.6377L20.8613 4.74609C22.2969 3.45703 24.3916 3.25195 26.0615 4.21875C26.0615 4.21875 46.4668 16.0693 46.4961 16.0986C48.8691 17.5781 49.5283 21.3721 47.3896 23.8037L38.835 33.5449L54.377 32.6807C57.0869 32.5195 59.2988 34.79 59.0791 37.4707ZM49.5723 14.9121C53.6885 14.9121 57.0283 11.5723 57.0283 7.45605C57.0283 3.33984 53.6885 0 49.5723 0C45.4561 0 42.1162 3.33984 42.1162 7.45605C42.1162 11.5723 45.4561 14.9121 49.5723 14.9121V14.9121ZM23.293 66.8701C11.4863 66.8701 4.63086 53.5986 11.1787 44.0039L5.36328 38.1885C2.31641 42.041 0.5 46.9189 0.5 52.207C0.5 71.3525 22.5752 81.709 37.3262 70.1514L31.5107 64.3359C29.167 65.9326 26.3398 66.8701 23.293 66.8701Z" fill="#A2798F"/>
</svg>
