<svg width="20" height="21" viewBox="0 0 20 21" fill="none" xmlns="http://www.w3.org/2000/svg">
<path d="M17.0341 9.25277L17.8599 10.0786C18.2096 10.4282 18.2096 10.9936 17.8599 11.3396L10.6323 18.5709C10.2826 18.9206 9.71721 18.9206 9.37127 18.5709L2.13993 11.3396C1.79027 10.9899 1.79027 10.4245 2.13993 10.0786L2.96573 9.25277C3.31912 8.89938 3.89569 8.90682 4.24163 9.26765L8.51199 13.75V3.05926C8.51199 2.56453 8.91001 2.1665 9.40475 2.1665H10.5951C11.0898 2.1665 11.4878 2.56453 11.4878 3.05926V13.75L15.7582 9.26765C16.1042 8.9031 16.6807 8.89566 17.0341 9.25277V9.25277Z" fill="#464545"/>
</svg>
