<svg width="1000" height="1000" viewBox="0 0 1000 1000" fill="none" xmlns="http://www.w3.org/2000/svg">
<path d="M947.664 706.385H52.9804C45.8115 706.385 40 712.197 40 719.366C40 726.535 45.8115 732.346 52.9804 732.346H947.664C954.833 732.346 960.644 726.535 960.644 719.366C960.644 712.197 954.833 706.385 947.664 706.385Z" fill="#C9C9C9"/>
<path d="M221.336 598.195C214.735 598.145 208.422 595.488 203.772 590.803C199.122 586.117 196.513 579.784 196.513 573.183C196.513 566.582 199.122 560.248 203.772 555.563C208.422 550.878 214.735 548.221 221.336 548.17H362.727V598.195H221.336Z" fill="#CECECE"/>
<path d="M221.336 539.51H370.912V606.843H221.336C212.408 606.843 203.845 603.296 197.531 596.982C191.218 590.669 187.671 582.106 187.671 573.177V573.177C187.671 568.756 188.541 564.378 190.233 560.293C191.925 556.209 194.405 552.497 197.531 549.371C200.657 546.245 204.368 543.765 208.453 542.073C212.537 540.381 216.915 539.51 221.336 539.51V539.51Z" fill="white"/>
<path d="M362.727 568.309H212.189C211.424 568.309 210.691 568.005 210.15 567.464C209.609 566.923 209.305 566.189 209.305 565.424C209.305 564.659 209.609 563.925 210.15 563.384C210.691 562.843 211.424 562.54 212.189 562.54H362.727C363.492 562.54 364.226 562.843 364.767 563.384C365.308 563.925 365.612 564.659 365.612 565.424C365.612 566.189 365.308 566.923 364.767 567.464C364.226 568.005 363.492 568.309 362.727 568.309Z" fill="#1F3969"/>
<path d="M362.727 583.584H212.189C211.424 583.584 210.691 583.28 210.15 582.739C209.609 582.198 209.305 581.464 209.305 580.699C209.305 579.934 209.609 579.2 210.15 578.659C210.691 578.118 211.424 577.814 212.189 577.814H362.727C363.492 577.814 364.226 578.118 364.767 578.659C365.308 579.2 365.612 579.934 365.612 580.699C365.612 581.464 365.308 582.198 364.767 582.739C364.226 583.28 363.492 583.584 362.727 583.584Z" fill="#1F3969"/>
<path d="M362.728 601.08H221.337C213.973 601.027 206.928 598.064 201.74 592.838C196.551 587.612 193.64 580.547 193.64 573.183C193.64 565.818 196.551 558.753 201.74 553.527C206.928 548.301 213.973 545.339 221.337 545.286H362.728C363.493 545.286 364.227 545.59 364.768 546.13C365.309 546.671 365.613 547.405 365.613 548.17V598.195C365.613 598.96 365.309 599.694 364.768 600.235C364.227 600.776 363.493 601.08 362.728 601.08ZM221.337 551.049C215.499 551.096 209.916 553.448 205.805 557.593C201.694 561.738 199.387 567.339 199.387 573.177C199.387 579.015 201.694 584.616 205.805 588.761C209.916 592.906 215.499 595.258 221.337 595.305H359.844V551.049H221.337Z" fill="#1F3969"/>
<path d="M221.336 598.195C214.735 598.145 208.422 595.488 203.772 590.802C199.122 586.117 196.513 579.784 196.513 573.183C196.513 566.582 199.122 560.248 203.772 555.563C208.422 550.878 214.735 548.22 221.336 548.17H365.143L370.912 539.517H221.336C212.408 539.517 203.845 543.064 197.531 549.377C191.218 555.69 187.671 564.253 187.671 573.182C187.671 577.603 188.541 581.981 190.233 586.066C191.925 590.15 194.405 593.862 197.531 596.988C200.657 600.114 204.368 602.594 208.453 604.286C212.537 605.978 216.915 606.849 221.336 606.849H370.912L365.143 598.195H221.336Z" fill="#FF3E3E"/>
<path d="M370.912 609.734H221.335C211.681 609.673 202.443 605.795 195.638 598.947C188.833 592.099 185.014 582.837 185.014 573.183C185.014 563.529 188.833 554.267 195.638 547.419C202.443 540.571 211.681 536.693 221.335 536.632H370.912C371.434 536.632 371.946 536.774 372.394 537.042C372.841 537.311 373.208 537.695 373.454 538.156C373.701 538.616 373.817 539.134 373.792 539.656C373.767 540.177 373.601 540.682 373.312 541.116L367.542 549.77C367.279 550.165 366.922 550.489 366.504 550.713C366.085 550.938 365.617 551.055 365.143 551.055H221.335C215.498 551.102 209.915 553.454 205.804 557.599C201.692 561.744 199.385 567.345 199.385 573.183C199.385 579.021 201.692 584.622 205.804 588.767C209.915 592.912 215.498 595.264 221.335 595.311H365.143C365.617 595.311 366.085 595.428 366.504 595.653C366.922 595.877 367.279 596.201 367.542 596.596L373.312 605.25C373.601 605.684 373.767 606.189 373.792 606.71C373.817 607.232 373.701 607.75 373.454 608.21C373.208 608.671 372.841 609.055 372.394 609.324C371.946 609.592 371.434 609.734 370.912 609.734ZM221.335 542.396C213.208 542.451 205.433 545.719 199.705 551.485C193.978 557.252 190.764 565.05 190.764 573.177C190.764 581.305 193.978 589.102 199.705 594.869C205.433 600.636 213.208 603.903 221.335 603.959H365.528L363.604 601.074H221.335C213.971 601.021 206.927 598.059 201.739 592.833C196.55 587.607 193.638 580.541 193.638 573.177C193.638 565.813 196.55 558.748 201.739 553.522C206.927 548.296 213.971 545.333 221.335 545.28H363.604L365.528 542.396H221.335Z" fill="#1F3969"/>
<g opacity="0.28">
<path opacity="0.28" d="M338.757 539.516H312.232V606.848H338.757V539.516Z" fill="#1F3969"/>
<path opacity="0.28" d="M338.757 609.733H312.232C311.467 609.733 310.733 609.429 310.193 608.888C309.652 608.347 309.348 607.614 309.348 606.849V539.511C309.348 538.745 309.652 538.012 310.193 537.471C310.733 536.93 311.467 536.626 312.232 536.626H338.757C339.522 536.626 340.256 536.93 340.797 537.471C341.338 538.012 341.641 538.745 341.641 539.511V606.843C341.642 607.222 341.568 607.598 341.424 607.948C341.279 608.299 341.067 608.618 340.799 608.886C340.531 609.155 340.212 609.368 339.862 609.513C339.512 609.658 339.136 609.733 338.757 609.733ZM315.117 603.964H335.872V542.395H315.117V603.964Z" fill="#1F3969"/>
</g>
<path d="M355.531 606.849H81.6389C76.2534 606.849 71.8877 611.215 71.8877 616.6V652.707C71.8877 658.093 76.2534 662.459 81.6389 662.459H355.531C360.917 662.459 365.282 658.093 365.282 652.707V616.6C365.282 611.215 360.917 606.849 355.531 606.849Z" fill="#50B56F"/>
<path d="M355.532 665.343H81.645C78.2948 665.339 75.0829 664.007 72.7139 661.638C70.3448 659.269 69.012 656.057 69.0078 652.707V616.6C69.012 613.25 70.3448 610.038 72.7139 607.669C75.0829 605.301 78.2948 603.968 81.645 603.964H355.532C358.882 603.968 362.093 605.301 364.462 607.669C366.831 610.038 368.164 613.25 368.167 616.6V652.707C368.164 656.057 366.831 659.269 364.462 661.638C362.093 664.007 358.882 665.339 355.532 665.343V665.343ZM81.645 609.733C79.8243 609.735 78.0787 610.459 76.7911 611.747C75.5036 613.034 74.7792 614.779 74.7769 616.6V652.707C74.7792 654.528 75.5036 656.273 76.7911 657.561C78.0787 658.848 79.8243 659.572 81.645 659.574H355.532C357.352 659.572 359.097 658.847 360.385 657.56C361.672 656.273 362.396 654.528 362.398 652.707V616.6C362.396 614.78 361.672 613.034 360.385 611.747C359.097 610.46 357.352 609.736 355.532 609.733H81.645Z" fill="#1F3969"/>
<g opacity="0.28">
<path opacity="0.28" d="M355.531 606.849H312.232V628.483C312.232 631.714 312.869 634.914 314.105 637.899C315.342 640.885 317.154 643.598 319.439 645.883C321.724 648.168 324.437 649.98 327.422 651.216C330.408 652.453 333.608 653.089 336.839 653.089H365.263C365.263 652.964 365.282 652.84 365.282 652.713V616.6C365.282 614.014 364.255 611.533 362.426 609.705C360.597 607.876 358.117 606.849 355.531 606.849Z" fill="#1F3969"/>
<path opacity="0.28" d="M365.263 655.97H336.839C329.55 655.961 322.562 653.062 317.408 647.908C312.255 642.754 309.356 635.766 309.348 628.477V606.843C309.348 606.078 309.652 605.344 310.193 604.803C310.733 604.262 311.467 603.958 312.232 603.958H355.531C358.881 603.962 362.092 605.295 364.461 607.664C366.83 610.032 368.162 613.244 368.166 616.594V652.701C368.166 652.846 368.159 652.99 368.149 653.125C368.104 653.872 367.784 654.576 367.252 655.101C366.719 655.626 366.01 655.936 365.263 655.97ZM315.117 609.733V628.483C315.123 634.242 317.413 639.764 321.486 643.836C325.558 647.909 331.079 650.2 336.839 650.206H362.393V616.601C362.391 614.781 361.666 613.036 360.379 611.749C359.092 610.461 357.347 609.737 355.526 609.735L315.117 609.733Z" fill="#1F3969"/>
</g>
<path d="M432.627 673.623H115.403C119.309 684.195 119.309 695.814 115.403 706.386H432.627C428.723 695.814 428.723 684.195 432.627 673.623V673.623Z" fill="#CECECE"/>
<path d="M441.23 664.906H106.812V673.623H441.23V664.906Z" fill="#5F5AFF"/>
<path d="M441.231 676.508H106.812C106.047 676.508 105.314 676.204 104.773 675.663C104.232 675.122 103.928 674.388 103.928 673.623V664.906C103.928 664.141 104.232 663.407 104.773 662.866C105.314 662.325 106.047 662.021 106.812 662.021H441.231C441.996 662.021 442.73 662.325 443.271 662.866C443.812 663.407 444.115 664.141 444.115 664.906V673.623C444.115 674.388 443.812 675.122 443.271 675.663C442.73 676.204 441.996 676.508 441.231 676.508ZM109.697 670.738H438.346V667.791H109.697V670.738Z" fill="#1F3969"/>
<path d="M441.23 706.385H106.812V715.102H441.23V706.385Z" fill="#F6F9FD"/>
<path d="M441.23 706.385H106.812V715.102H441.23V706.385Z" fill="#5F5AFF"/>
<path d="M441.231 717.987H106.812C106.047 717.987 105.314 717.683 104.773 717.142C104.232 716.601 103.928 715.868 103.928 715.103V706.381C103.928 705.616 104.232 704.882 104.773 704.341C105.314 703.801 106.047 703.497 106.812 703.497H441.231C441.996 703.497 442.73 703.801 443.271 704.341C443.812 704.882 444.115 705.616 444.115 706.381V715.098C444.116 715.477 444.042 715.853 443.897 716.203C443.752 716.554 443.54 716.872 443.272 717.141C443.004 717.409 442.686 717.622 442.336 717.767C441.985 717.912 441.61 717.987 441.231 717.987ZM109.697 712.218H438.346V709.266H109.697V712.218Z" fill="#1F3969"/>
<path d="M607.489 684.314L603.143 635.779H531.884L527.542 684.314C526.533 695.587 519.754 706.381 509.115 715L509.102 715.104H625.935L625.922 715C615.283 706.381 608.498 695.584 607.489 684.314Z" fill="#BFCFE2"/>
<g opacity="0.28">
<path opacity="0.28" d="M531.883 635.776L529.274 664.906H605.751L603.143 635.776H531.883Z" fill="#1F3969"/>
<path opacity="0.28" d="M605.752 667.791H529.273C528.873 667.791 528.477 667.707 528.11 667.546C527.743 667.384 527.415 667.148 527.144 666.852C526.874 666.557 526.668 666.208 526.54 665.828C526.412 665.449 526.364 665.047 526.4 664.648L529.009 635.514C529.074 634.797 529.404 634.129 529.936 633.643C530.468 633.157 531.162 632.888 531.882 632.888H603.142C603.862 632.888 604.556 633.157 605.088 633.643C605.62 634.129 605.95 634.797 606.015 635.514L608.624 664.648C608.66 665.047 608.612 665.449 608.484 665.828C608.356 666.208 608.15 666.557 607.88 666.852C607.61 667.148 607.281 667.384 606.914 667.546C606.548 667.707 606.152 667.791 605.751 667.791H605.752ZM532.429 662.022H602.597L600.505 638.657H534.522L532.429 662.022Z" fill="#1F3969"/>
</g>
<path d="M625.93 717.987H509.096C508.688 717.987 508.284 717.9 507.912 717.732C507.54 717.565 507.207 717.32 506.937 717.014C506.666 716.709 506.464 716.349 506.342 715.959C506.221 715.57 506.184 715.158 506.233 714.753C506.326 713.979 506.704 713.267 507.293 712.756C517.584 704.422 523.752 694.228 524.664 684.055L529.011 635.521C529.075 634.803 529.406 634.136 529.938 633.65C530.469 633.164 531.163 632.895 531.884 632.895H603.142C603.862 632.895 604.557 633.164 605.088 633.65C605.62 634.136 605.951 634.803 606.015 635.521L610.363 684.055C611.274 694.228 617.442 704.421 627.733 712.756C628.314 713.227 628.69 713.905 628.781 714.648C628.831 715.06 628.794 715.478 628.674 715.875C628.554 716.272 628.353 716.64 628.083 716.956C627.817 717.269 627.487 717.523 627.116 717.701C626.745 717.878 626.341 717.976 625.93 717.987ZM516.47 712.218H618.55C610.366 703.903 605.478 694.283 604.61 684.568L600.497 638.662H534.522L530.41 684.57C529.54 694.285 524.658 703.905 516.47 712.218Z" fill="#1F3969"/>
<path d="M795.392 311.266H339.635C330.077 311.266 322.328 319.015 322.328 328.573V625.68C322.328 635.239 330.077 642.988 339.635 642.988H795.392C804.95 642.988 812.699 635.239 812.699 625.68V328.573C812.699 319.015 804.95 311.266 795.392 311.266Z" fill="white"/>
<path d="M795.392 311.266H339.635C330.077 311.266 322.328 319.015 322.328 328.573V625.68C322.328 635.239 330.077 642.988 339.635 642.988H795.392C804.95 642.988 812.699 635.239 812.699 625.68V328.573C812.699 319.015 804.95 311.266 795.392 311.266Z" fill="#BFCFE2"/>
<path d="M795.392 645.873H339.635C334.282 645.867 329.15 643.738 325.364 639.953C321.579 636.167 319.449 631.035 319.443 625.682V328.575C319.449 323.221 321.578 318.089 325.364 314.303C329.149 310.518 334.282 308.389 339.635 308.383H795.392C800.745 308.389 805.878 310.518 809.663 314.303C813.448 318.089 815.578 323.221 815.583 328.575V625.682C815.577 631.035 813.448 636.167 809.663 639.953C805.877 643.738 800.745 645.867 795.392 645.873V645.873ZM339.635 314.152C335.811 314.156 332.145 315.677 329.441 318.381C326.738 321.085 325.217 324.751 325.212 328.575V625.682C325.217 629.506 326.738 633.172 329.441 635.875C332.145 638.579 335.811 640.1 339.635 640.104H795.392C799.215 640.1 802.881 638.579 805.585 635.875C808.289 633.171 809.81 629.505 809.814 625.682V328.575C809.81 324.751 808.289 321.085 805.585 318.381C802.882 315.677 799.216 314.156 795.392 314.152H339.635Z" fill="#1F3969"/>
<path d="M788.181 587.592V335.785H346.847V587.592H788.181Z" fill="#F6F9FD"/>
<g opacity="0.28">
<path opacity="0.28" d="M362.731 311.266V511.154C362.731 514.214 363.947 517.149 366.111 519.313C368.275 521.477 371.209 522.692 374.27 522.692H646.962C650.022 522.692 652.957 521.477 655.121 519.313C657.285 517.149 658.5 514.214 658.5 511.154V311.266H362.731Z" fill="#1F3969"/>
<path opacity="0.28" d="M646.962 525.577H374.269C370.446 525.573 366.779 524.052 364.076 521.348C361.372 518.644 359.851 514.978 359.847 511.154V311.266C359.847 310.501 360.151 309.767 360.692 309.226C361.232 308.685 361.966 308.381 362.731 308.381H658.5C659.265 308.381 659.999 308.685 660.54 309.226C661.081 309.767 661.384 310.501 661.384 311.266V511.154C661.38 514.978 659.859 518.644 657.156 521.348C654.452 524.052 650.786 525.573 646.962 525.577ZM365.616 314.15V511.154C365.618 513.448 366.531 515.648 368.153 517.27C369.776 518.892 371.975 519.805 374.269 519.808H646.962C649.256 519.805 651.456 518.893 653.078 517.271C654.701 515.648 655.613 513.448 655.615 511.154V314.15H365.616Z" fill="#1F3969"/>
</g>
<path d="M788.18 590.477H346.846C346.081 590.477 345.348 590.173 344.807 589.633C344.266 589.092 343.962 588.358 343.962 587.593V335.784C343.962 335.019 344.266 334.286 344.807 333.745C345.348 333.204 346.081 332.9 346.846 332.9H788.18C788.945 332.9 789.679 333.204 790.22 333.745C790.761 334.286 791.065 335.019 791.065 335.784V587.593C791.065 588.358 790.761 589.092 790.22 589.633C789.679 590.173 788.945 590.477 788.18 590.477ZM349.731 584.708H785.296V338.669H349.731V584.708Z" fill="#1F3969"/>
<path d="M586.905 618.04H548.121C547.356 618.04 546.622 617.736 546.081 617.195C545.54 616.654 545.236 615.92 545.236 615.155C545.236 614.39 545.54 613.656 546.081 613.115C546.622 612.574 547.356 612.271 548.121 612.271H586.905C587.67 612.271 588.404 612.574 588.945 613.115C589.485 613.656 589.789 614.39 589.789 615.155C589.789 615.92 589.485 616.654 588.945 617.195C588.404 617.736 587.67 618.04 586.905 618.04V618.04Z" fill="#1F3969"/>
<path d="M659.944 269.885H387.25C380.878 269.885 375.712 275.051 375.712 281.423V495.291C375.712 501.663 380.878 506.829 387.25 506.829H659.944C666.316 506.829 671.482 501.663 671.482 495.291V281.423C671.482 275.051 666.316 269.885 659.944 269.885Z" fill="#2D425E"/>
<path d="M671.48 300.827H375.712C374.947 300.827 374.213 300.523 373.672 299.982C373.131 299.441 372.827 298.707 372.827 297.942V281.423C372.831 277.599 374.352 273.933 377.056 271.229C379.76 268.525 383.426 267.004 387.25 267H659.942C663.766 267.004 667.432 268.525 670.136 271.229C672.84 273.933 674.361 277.599 674.365 281.423V297.942C674.365 298.707 674.061 299.441 673.52 299.982C672.979 300.523 672.245 300.827 671.48 300.827ZM378.595 295.058H668.596V281.423C668.594 279.128 667.681 276.929 666.059 275.306C664.436 273.684 662.237 272.771 659.942 272.769H387.25C384.956 272.772 382.756 273.684 381.134 275.307C379.511 276.929 378.599 279.128 378.596 281.423L378.595 295.058Z" fill="#1F3969"/>
<path d="M387.25 269.885H659.942C663.003 269.885 665.937 271.1 668.101 273.264C670.265 275.428 671.481 278.363 671.481 281.423V303.438H375.712V281.423C375.712 278.363 376.928 275.428 379.091 273.264C381.255 271.1 384.19 269.885 387.25 269.885Z" fill="#D0DDF0"/>
<path d="M671.48 306.322H375.712C374.947 306.322 374.213 306.018 373.672 305.477C373.131 304.936 372.827 304.202 372.827 303.437V281.423C372.831 277.599 374.352 273.933 377.056 271.229C379.76 268.525 383.426 267.004 387.25 267H659.942C663.766 267.004 667.432 268.525 670.136 271.229C672.84 273.933 674.361 277.599 674.365 281.423V303.437C674.365 304.202 674.061 304.936 673.52 305.477C672.979 306.018 672.245 306.322 671.48 306.322ZM378.595 300.553H668.596V281.423C668.594 279.128 667.681 276.929 666.059 275.306C664.436 273.684 662.237 272.771 659.942 272.769H387.25C384.956 272.772 382.756 273.684 381.134 275.307C379.511 276.929 378.599 279.128 378.596 281.423L378.595 300.553Z" fill="#1F3969"/>
<path d="M671.48 306.322H375.712C374.947 306.322 374.213 306.018 373.672 305.477C373.131 304.936 372.827 304.202 372.827 303.437V281.423C372.831 277.599 374.352 273.933 377.056 271.229C379.76 268.525 383.426 267.004 387.25 267H659.942C663.766 267.004 667.432 268.525 670.136 271.229C672.84 273.933 674.361 277.599 674.365 281.423V303.437C674.365 304.202 674.061 304.936 673.52 305.477C672.979 306.018 672.245 306.322 671.48 306.322ZM378.595 300.553H668.596V281.423C668.594 279.128 667.681 276.929 666.059 275.306C664.436 273.684 662.237 272.771 659.942 272.769H387.25C384.956 272.772 382.756 273.684 381.134 275.307C379.511 276.929 378.599 279.128 378.596 281.423L378.595 300.553Z" fill="#1F3969"/>
<path d="M659.942 509.712H387.25C383.426 509.708 379.76 508.187 377.056 505.483C374.352 502.779 372.831 499.113 372.827 495.289V281.423C372.831 277.599 374.352 273.933 377.056 271.229C379.76 268.525 383.426 267.004 387.25 267H659.942C663.766 267.004 667.432 268.525 670.136 271.229C672.84 273.933 674.361 277.599 674.365 281.423V495.289C674.361 499.113 672.84 502.779 670.136 505.483C667.432 508.187 663.766 509.708 659.942 509.712ZM387.25 272.769C384.956 272.772 382.756 273.684 381.134 275.307C379.511 276.929 378.599 279.128 378.596 281.423V495.289C378.599 497.584 379.511 499.783 381.134 501.405C382.756 503.028 384.956 503.94 387.25 503.943H659.942C662.237 503.941 664.436 503.028 666.059 501.406C667.681 499.783 668.594 497.584 668.596 495.289V281.423C668.594 279.128 667.681 276.929 666.059 275.306C664.436 273.684 662.237 272.771 659.942 272.769H387.25Z" fill="#1F3969"/>
<g opacity="0.28">
<path opacity="0.28" d="M802.279 357.497H634.953C628.581 357.497 623.415 362.662 623.415 369.035V546.354C623.415 552.727 628.581 557.892 634.953 557.892H802.279C808.652 557.892 813.818 552.727 813.818 546.354V369.035C813.818 362.662 808.652 357.497 802.279 357.497Z" fill="#1F3969"/>
<path opacity="0.28" d="M802.279 560.778H634.953C631.129 560.774 627.464 559.253 624.76 556.549C622.056 553.845 620.535 550.179 620.53 546.356V369.034C620.534 365.211 622.055 361.545 624.759 358.841C627.463 356.137 631.129 354.616 634.953 354.612H802.279C806.103 354.616 809.769 356.137 812.473 358.841C815.177 361.545 816.698 365.211 816.702 369.034V546.356C816.697 550.179 815.176 553.845 812.472 556.549C809.769 559.253 806.103 560.774 802.279 560.778V560.778ZM634.953 360.381C632.659 360.383 630.459 361.296 628.837 362.918C627.214 364.54 626.302 366.74 626.299 369.034V546.356C626.302 548.65 627.215 550.849 628.837 552.472C630.459 554.094 632.659 555.006 634.953 555.009H802.279C804.573 555.006 806.773 554.094 808.395 552.472C810.017 550.849 810.93 548.65 810.933 546.356V369.034C810.93 366.74 810.018 364.54 808.396 362.918C806.773 361.296 804.574 360.383 802.279 360.381H634.953Z" fill="#1F3969"/>
</g>
<path d="M813.816 347.401H646.49C640.118 347.401 634.952 352.567 634.952 358.939V536.259C634.952 542.631 640.118 547.797 646.49 547.797H813.816C820.189 547.797 825.355 542.631 825.355 536.259V358.939C825.355 352.567 820.189 347.401 813.816 347.401Z" fill="#2AA1FF"/>
<path d="M813.816 550.683H646.49C642.666 550.678 639.001 549.157 636.297 546.453C633.593 543.749 632.072 540.084 632.067 536.26V358.939C632.072 355.115 633.593 351.449 636.296 348.745C639 346.041 642.666 344.52 646.49 344.516H813.816C817.64 344.52 821.306 346.041 824.01 348.745C826.714 351.449 828.235 355.115 828.239 358.939V536.26C828.234 540.084 826.713 543.749 824.009 546.453C821.306 549.157 817.64 550.678 813.816 550.683ZM646.49 350.285C644.196 350.287 641.996 351.2 640.374 352.822C638.751 354.445 637.839 356.644 637.836 358.939V536.26C637.839 538.554 638.752 540.754 640.374 542.376C641.996 543.998 644.196 544.911 646.49 544.913H813.816C816.111 544.911 818.31 543.998 819.932 542.376C821.555 540.754 822.467 538.554 822.47 536.26V358.939C822.468 356.644 821.555 354.445 819.933 352.822C818.31 351.2 816.111 350.287 813.816 350.285H646.49Z" fill="#1F3969"/>
<g style="mix-blend-mode:screen" opacity="0.34">
<path d="M788.92 376.158H671.275C667.16 376.158 663.823 379.495 663.823 383.61V394.86C663.823 398.976 667.16 402.312 671.275 402.312H788.92C793.036 402.312 796.372 398.976 796.372 394.86V383.61C796.372 379.495 793.036 376.158 788.92 376.158Z" stroke="white" stroke-width="2" stroke-linecap="round" stroke-linejoin="round"/>
</g>
<g style="mix-blend-mode:screen" opacity="0.34">
<g style="mix-blend-mode:screen" opacity="0.34">
<path d="M737.22 418.427H671.391C667.275 418.427 663.938 421.763 663.938 425.879V437.129C663.938 441.244 667.275 444.581 671.391 444.581H737.22C741.336 444.581 744.672 441.244 744.672 437.129V425.879C744.672 421.763 741.336 418.427 737.22 418.427Z" stroke="white" stroke-width="2" stroke-linecap="round" stroke-linejoin="round"/>
</g>
<g style="mix-blend-mode:screen" opacity="0.34">
<path d="M789.035 418.427H763.572C759.457 418.427 756.12 421.763 756.12 425.879V437.129C756.12 441.244 759.457 444.581 763.572 444.581H789.035C793.151 444.581 796.488 441.244 796.488 437.129V425.879C796.488 421.763 793.151 418.427 789.035 418.427Z" stroke="white" stroke-width="2" stroke-linecap="round" stroke-linejoin="round"/>
</g>
</g>
<path d="M663.823 488.498H796.372" stroke="white" stroke-width="2" stroke-linecap="round" stroke-linejoin="round"/>
<path d="M663.823 504.062H796.372" stroke="white" stroke-width="2" stroke-linecap="round" stroke-linejoin="round"/>
<path d="M663.823 519.623H744.557" stroke="white" stroke-width="2" stroke-linecap="round" stroke-linejoin="round"/>
<path d="M404.662 292.43C407.848 292.43 410.431 289.847 410.431 286.661C410.431 283.475 407.848 280.892 404.662 280.892C401.475 280.892 398.893 283.475 398.893 286.661C398.893 289.847 401.475 292.43 404.662 292.43Z" fill="#1F3969"/>
<path d="M424.688 292.43C427.874 292.43 430.457 289.847 430.457 286.661C430.457 283.475 427.874 280.892 424.688 280.892C421.502 280.892 418.919 283.475 418.919 286.661C418.919 289.847 421.502 292.43 424.688 292.43Z" fill="#1F3969"/>
<path d="M444.716 292.43C447.903 292.43 450.485 289.847 450.485 286.661C450.485 283.475 447.903 280.892 444.716 280.892C441.53 280.892 438.947 283.475 438.947 286.661C438.947 289.847 441.53 292.43 444.716 292.43Z" fill="#1F3969"/>
<path d="M545.63 330.063H564.276" stroke="white" stroke-width="4" stroke-linecap="round" stroke-linejoin="round"/>
<path d="M450.485 330.063H531.795" stroke="#7BFFA0" stroke-width="4" stroke-linecap="round" stroke-linejoin="round"/>
<path d="M410.431 330.063H438.947" stroke="#9169FF" stroke-width="4" stroke-linecap="round" stroke-linejoin="round"/>
<path d="M447.602 472.212H509.703" stroke="#9169FF" stroke-width="4" stroke-linecap="round" stroke-linejoin="round"/>
<path d="M410.431 472.212H430.457" stroke="#7BFFA0" stroke-width="4" stroke-linecap="round" stroke-linejoin="round"/>
<path d="M531.796 347.832H543.356" stroke="white" stroke-width="4" stroke-linecap="round" stroke-linejoin="round"/>
<path d="M478.62 347.832H517.889" stroke="#9169FF" stroke-width="4" stroke-linecap="round" stroke-linejoin="round"/>
<path d="M424.688 347.832H464.703" stroke="#FFC47D" stroke-width="4" stroke-linecap="round" stroke-linejoin="round"/>
<path d="M486.625 365.601H521.006" stroke="white" stroke-width="4" stroke-linecap="round" stroke-linejoin="round"/>
<path d="M443.271 365.601H475.696" stroke="#FF5757" stroke-width="4" stroke-linecap="round" stroke-linejoin="round"/>
<path d="M491.21 383.37H498.332" stroke="white" stroke-width="4" stroke-linecap="round" stroke-linejoin="round"/>
<path d="M462.625 383.37H478.62" stroke="#9169FF" stroke-width="4" stroke-linecap="round" stroke-linejoin="round"/>
<path d="M424.688 383.37H450.485" stroke="#7BFFA0" stroke-width="4" stroke-linecap="round" stroke-linejoin="round"/>
<path d="M480.075 401.138H526.075" stroke="#FFC47D" stroke-width="4" stroke-linecap="round" stroke-linejoin="round"/>
<path d="M424.688 401.138H465.976" stroke="#FF5757" stroke-width="4" stroke-linecap="round" stroke-linejoin="round"/>
<path d="M533.285 418.907H558.298" stroke="#9169FF" stroke-width="4" stroke-linecap="round" stroke-linejoin="round"/>
<path d="M480.075 418.907H520.097" stroke="#FF5757" stroke-width="4" stroke-linecap="round" stroke-linejoin="round"/>
<path d="M443.271 418.907H465.978" stroke="#7BFFA0" stroke-width="4" stroke-linecap="round" stroke-linejoin="round"/>
<path d="M498.255 436.676H520.097" stroke="white" stroke-width="4" stroke-linecap="round" stroke-linejoin="round"/>
<path d="M443.271 436.676H483.285" stroke="#9169FF" stroke-width="4" stroke-linecap="round" stroke-linejoin="round"/>
<path d="M554.953 454.444H579.893" stroke="white" stroke-width="4" stroke-linecap="round" stroke-linejoin="round"/>
<path d="M478.62 454.444H541.458" stroke="#FFC47D" stroke-width="4" stroke-linecap="round" stroke-linejoin="round"/>
<path d="M424.688 454.444H464.703" stroke="white" stroke-width="4" stroke-linecap="round" stroke-linejoin="round"/>
<path d="M429.699 686.51H118.949C118.184 686.51 117.45 686.206 116.909 685.665C116.368 685.124 116.064 684.39 116.064 683.625C116.064 682.86 116.368 682.127 116.909 681.586C117.45 681.045 118.184 680.741 118.949 680.741H429.699C430.464 680.741 431.197 681.045 431.738 681.586C432.279 682.127 432.583 682.86 432.583 683.625C432.583 684.39 432.279 685.124 431.738 685.665C431.197 686.206 430.464 686.51 429.699 686.51Z" fill="#1F3969"/>
<path d="M429.699 698.073H118.949C118.184 698.073 117.45 697.769 116.909 697.228C116.368 696.687 116.064 695.953 116.064 695.188C116.064 694.423 116.368 693.69 116.909 693.149C117.45 692.608 118.184 692.304 118.949 692.304H429.699C430.464 692.304 431.197 692.608 431.738 693.149C432.279 693.69 432.583 694.423 432.583 695.188C432.583 695.953 432.279 696.687 431.738 697.228C431.197 697.769 430.464 698.073 429.699 698.073Z" fill="#1F3969"/>
<path d="M432.627 709.266H115.403C114.933 709.266 114.469 709.151 114.054 708.931C113.638 708.711 113.282 708.393 113.018 708.004C112.753 707.615 112.588 707.167 112.536 706.699C112.484 706.232 112.548 705.759 112.72 705.321C116.357 695.43 116.357 684.569 112.72 674.678C112.548 674.24 112.485 673.767 112.537 673.3C112.589 672.833 112.754 672.385 113.019 671.996C113.283 671.608 113.639 671.289 114.054 671.07C114.47 670.85 114.933 670.734 115.403 670.734H432.627C433.097 670.735 433.56 670.85 433.975 671.07C434.391 671.289 434.746 671.607 435.01 671.996C435.275 672.385 435.44 672.832 435.492 673.299C435.545 673.766 435.482 674.239 435.31 674.676C431.673 684.568 431.673 695.431 435.31 705.323C435.482 705.76 435.545 706.233 435.493 706.7C435.441 707.168 435.276 707.615 435.011 708.004C434.747 708.393 434.391 708.711 433.976 708.931C433.56 709.151 433.097 709.266 432.627 709.266ZM119.413 703.497H428.619C426.211 694.66 426.211 685.34 428.619 676.503H119.413C121.818 685.34 121.818 694.66 119.413 703.497V703.497Z" fill="#1F3969"/>
<path d="M859.416 556.124L845.358 557.774L857.574 661.84L871.632 660.19L859.416 556.124Z" fill="#FFA364"/>
<path d="M859.416 556.124L845.358 557.774L846.601 568.36L860.659 566.709L859.416 556.124Z" fill="#2AA1FF"/>
<path d="M846.601 571.241C845.894 571.24 845.212 570.981 844.684 570.511C844.156 570.041 843.819 569.394 843.737 568.692L842.493 558.106C842.449 557.73 842.479 557.348 842.582 556.984C842.686 556.619 842.86 556.279 843.094 555.981C843.329 555.684 843.62 555.436 843.951 555.251C844.282 555.066 844.645 554.948 845.022 554.904L859.079 553.254C859.456 553.21 859.837 553.24 860.201 553.343C860.566 553.446 860.907 553.62 861.204 553.855C861.501 554.09 861.75 554.381 861.934 554.712C862.119 555.042 862.237 555.406 862.281 555.782L863.523 566.369C863.612 567.128 863.396 567.892 862.922 568.492C862.447 569.092 861.754 569.48 860.995 569.569L846.937 571.22C846.825 571.234 846.713 571.24 846.601 571.241V571.241ZM848.56 560.298L849.129 565.154L857.457 564.176L856.889 559.32L848.56 560.298Z" fill="#1F3969"/>
<path d="M857.574 664.726C856.867 664.726 856.185 664.466 855.657 663.996C855.129 663.526 854.792 662.879 854.709 662.177L842.493 558.112C842.449 557.736 842.479 557.354 842.582 556.99C842.686 556.625 842.86 556.285 843.094 555.987C843.329 555.69 843.62 555.442 843.951 555.257C844.282 555.072 844.645 554.954 845.022 554.91L859.079 553.26C859.456 553.216 859.837 553.246 860.201 553.349C860.566 553.452 860.907 553.626 861.204 553.861C861.501 554.096 861.75 554.387 861.934 554.717C862.119 555.048 862.237 555.412 862.281 555.788L874.497 659.854C874.542 660.23 874.511 660.611 874.408 660.976C874.305 661.34 874.131 661.681 873.896 661.978C873.662 662.276 873.371 662.524 873.04 662.709C872.709 662.893 872.345 663.011 871.969 663.056L857.911 664.705C857.799 664.719 857.687 664.725 857.574 664.726V664.726ZM848.56 560.305L860.098 658.641L868.427 657.664L856.889 559.328L848.56 560.305Z" fill="#1F3969"/>
<path d="M898.126 577.316L884.055 575.787L872.731 679.954L886.803 681.483L898.126 577.316Z" fill="#FF5252"/>
<path d="M886.812 684.36C886.706 684.36 886.601 684.36 886.496 684.344L872.423 682.814C871.664 682.731 870.969 682.351 870.49 681.756C870.011 681.161 869.787 680.401 869.868 679.641L881.19 575.475C881.272 574.716 881.653 574.02 882.248 573.541C882.843 573.062 883.603 572.838 884.363 572.919L898.435 574.448C899.194 574.53 899.89 574.911 900.37 575.506C900.849 576.1 901.073 576.861 900.992 577.621L889.669 681.787C889.592 682.492 889.258 683.145 888.731 683.619C888.204 684.094 887.521 684.358 886.812 684.36ZM875.914 677.39L884.25 678.297L894.95 579.866L886.614 578.959L875.914 677.39Z" fill="#1F3969"/>
<path d="M898.126 577.316L884.055 575.787L882.903 586.383L896.974 587.912L898.126 577.316Z" fill="#2D425E"/>
<path d="M896.985 590.79C896.881 590.79 896.776 590.79 896.671 590.774L882.599 589.244C881.839 589.162 881.143 588.781 880.664 588.186C880.185 587.592 879.961 586.831 880.042 586.071L881.195 575.475C881.278 574.716 881.659 574.02 882.254 573.541C882.848 573.062 883.609 572.838 884.368 572.919L898.441 574.448C899.2 574.53 899.896 574.911 900.375 575.506C900.855 576.1 901.079 576.861 900.998 577.621L899.844 588.217C899.767 588.923 899.433 589.575 898.906 590.05C898.379 590.524 897.695 590.788 896.985 590.79V590.79ZM886.089 583.82L894.425 584.727L894.955 579.866L886.618 578.959L886.089 583.82Z" fill="#1F3969"/>
<path d="M906.672 715.428H850.047L840.838 628.628H915.881L906.672 715.428Z" fill="#6567C3"/>
<g style="mix-blend-mode:overlay">
<path d="M840.838 628.628L841.007 630.222H898.181L889.141 715.428H906.672L915.881 628.628H840.838Z" fill="#6567C3"/>
</g>
<path d="M906.67 718.313H850.047C849.334 718.313 848.647 718.05 848.117 717.573C847.587 717.097 847.252 716.441 847.177 715.733L837.969 628.931C837.927 628.529 837.969 628.122 838.094 627.737C838.218 627.353 838.423 626.998 838.693 626.698C838.964 626.397 839.294 626.156 839.664 625.992C840.033 625.827 840.433 625.742 840.838 625.742H915.881C916.285 625.742 916.685 625.827 917.054 625.992C917.424 626.156 917.755 626.397 918.025 626.698C918.296 626.998 918.5 627.353 918.625 627.737C918.749 628.122 918.792 628.529 918.749 628.931L909.54 715.731C909.465 716.44 909.131 717.096 908.601 717.573C908.071 718.049 907.383 718.313 906.67 718.313ZM852.64 712.544H904.077L912.673 631.513H844.044L852.64 712.544Z" fill="#1F3969"/>
</svg>
