<svg width="1000" height="1000" viewBox="0 0 1000 1000" fill="none" xmlns="http://www.w3.org/2000/svg">
<path d="M251.623 395.87H297.718V773.595C297.718 775.525 296.952 777.375 295.587 778.739C294.223 780.104 292.372 780.87 290.443 780.87H258.9C256.971 780.87 255.12 780.104 253.756 778.739C252.392 777.375 251.625 775.525 251.625 773.595V395.87H251.623Z" fill="#543889" stroke="#543889" stroke-width="8" stroke-linecap="round" stroke-linejoin="round"/>
<path d="M289.268 330.87H260.073L258.392 395.87H290.949L289.268 330.87Z" fill="#543889" stroke="#543889" stroke-width="8" stroke-linecap="round" stroke-linejoin="round"/>
<path d="M280.665 323.87H268.674L260.072 330.87H289.267L280.665 323.87Z" fill="#543889" stroke="#543889" stroke-width="8" stroke-linecap="round" stroke-linejoin="round"/>
<path d="M281.622 297.87H267.719V325.037H281.622V297.87Z" fill="#543889" stroke="#543889" stroke-width="8" stroke-linecap="round" stroke-linejoin="round"/>
<path d="M274.67 279.37V296.995" stroke="#543889" stroke-width="8" stroke-linecap="round" stroke-linejoin="round"/>
<path d="M239.331 387.87H285.426V765.595C285.426 767.525 284.66 769.375 283.295 770.739C281.931 772.104 280.081 772.87 278.151 772.87H246.606C244.677 772.87 242.826 772.104 241.462 770.739C240.098 769.375 239.331 767.525 239.331 765.595V387.87Z" fill="#FFA124"/>
<g style="mix-blend-mode:multiply" opacity="0.34">
<path d="M270.876 387.87H285.426V765.595C285.426 767.525 284.659 769.375 283.295 770.739C281.931 772.104 280.08 772.87 278.151 772.87V772.87C276.222 772.87 274.371 772.104 273.007 770.739C271.642 769.375 270.876 767.525 270.876 765.595V387.87V387.87Z" fill="#3F4545"/>
</g>
<g style="mix-blend-mode:screen" opacity="0.78">
<path d="M239.331 387.87H254.678V765.595C254.678 767.525 253.912 769.375 252.547 770.739C251.183 772.104 249.333 772.87 247.403 772.87H246.603C244.674 772.87 242.823 772.104 241.459 770.739C240.095 769.375 239.328 767.525 239.328 765.595V387.87H239.331Z" fill="#3F4545"/>
</g>
<path d="M278.151 776.87H246.606C243.618 776.867 240.753 775.678 238.639 773.566C236.525 771.453 235.336 768.588 235.331 765.6V387.87C235.331 386.809 235.752 385.792 236.503 385.042C237.253 384.292 238.27 383.87 239.331 383.87H285.431C286.492 383.87 287.509 384.292 288.259 385.042C289.01 385.792 289.431 386.809 289.431 387.87V765.6C289.426 768.589 288.236 771.455 286.121 773.568C284.007 775.68 281.14 776.868 278.151 776.87V776.87ZM243.331 391.87V765.6C243.332 766.468 243.678 767.301 244.291 767.915C244.905 768.529 245.738 768.874 246.606 768.875H278.151C279.019 768.874 279.852 768.529 280.466 767.915C281.08 767.301 281.425 766.468 281.426 765.6V391.87H243.331Z" fill="#1F2120"/>
<path d="M276.976 322.87H247.781L246.1 387.87H278.657L276.976 322.87Z" fill="#B5B4B4"/>
<g style="mix-blend-mode:multiply" opacity="0.39">
<path d="M276.976 322.87H266.916L268.596 387.87H278.657L276.976 322.87Z" fill="#B5B4B4"/>
</g>
<path opacity="0.5" d="M247.781 322.87L246.1 387.87H256.855L258.536 322.87H247.781Z" fill="white"/>
<path d="M278.657 391.87H246.1C245.566 391.87 245.038 391.764 244.546 391.556C244.054 391.349 243.608 391.046 243.236 390.663C242.863 390.281 242.57 389.828 242.375 389.332C242.18 388.835 242.087 388.304 242.1 387.77L243.78 322.77C243.806 321.727 244.239 320.735 244.986 320.006C245.734 319.277 246.736 318.87 247.78 318.87H276.975C278.019 318.87 279.021 319.277 279.769 320.006C280.516 320.735 280.949 321.727 280.975 322.77L282.655 387.77C282.668 388.304 282.575 388.835 282.38 389.332C282.185 389.828 281.892 390.281 281.519 390.663C281.146 391.046 280.701 391.349 280.209 391.556C279.717 391.764 279.189 391.87 278.655 391.87H278.657ZM250.205 383.87H274.552L273.078 326.87H251.678L250.205 383.87Z" fill="#1F2120"/>
<path d="M285.4 729H239.305V749H285.4V729Z" fill="#FF1A1A"/>
<g style="mix-blend-mode:multiply" opacity="0.63">
<path d="M285.421 730H276.065V750H285.421V730Z" fill="#E02F2F"/>
</g>
<path d="M256.854 729.25H239.321V749.25H256.854V729.25Z" fill="#EA4949"/>
<path d="M285.4 753H239.305C238.244 753 237.226 752.579 236.476 751.828C235.726 751.078 235.305 750.061 235.305 749V729C235.305 727.939 235.726 726.922 236.476 726.172C237.226 725.421 238.244 725 239.305 725H285.4C286.461 725 287.478 725.421 288.228 726.172C288.978 726.922 289.4 727.939 289.4 729V749C289.4 750.061 288.978 751.078 288.228 751.828C287.478 752.579 286.461 753 285.4 753ZM243.306 745H281.4V733H243.305L243.306 745Z" fill="#1F2120"/>
<path d="M285.416 426.87H239.321V446.87H285.416V426.87Z" fill="#E02F2F"/>
<g style="mix-blend-mode:multiply" opacity="0.63">
<path d="M285.417 426.87H276.061V446.87H285.417V426.87Z" fill="#E02F2F"/>
</g>
<path d="M256.854 426.87H239.321V446.87H256.854V426.87Z" fill="#EA4949"/>
<path d="M285.416 450.87H239.321C238.26 450.87 237.243 450.449 236.493 449.699C235.743 448.948 235.321 447.931 235.321 446.87V426.87C235.321 425.809 235.743 424.792 236.493 424.042C237.243 423.292 238.26 422.87 239.321 422.87H285.416C286.477 422.87 287.495 423.292 288.245 424.042C288.995 424.792 289.416 425.809 289.416 426.87V446.87C289.416 447.395 289.313 447.916 289.112 448.401C288.911 448.886 288.616 449.327 288.245 449.699C287.873 450.07 287.432 450.365 286.947 450.566C286.462 450.767 285.942 450.87 285.416 450.87ZM243.321 442.87H281.416V430.87H243.321V442.87Z" fill="#1F2120"/>
<path d="M276.975 326.87H247.78C246.955 326.87 246.15 326.614 245.476 326.137C244.801 325.661 244.291 324.988 244.014 324.21C243.738 323.433 243.709 322.588 243.931 321.794C244.153 320.999 244.616 320.292 245.255 319.77L253.855 312.77C254.568 312.189 255.46 311.871 256.38 311.87H268.371C269.291 311.871 270.183 312.189 270.896 312.77L279.496 319.77C280.136 320.292 280.599 320.999 280.821 321.794C281.043 322.588 281.014 323.433 280.737 324.21C280.461 324.988 279.95 325.661 279.276 326.137C278.602 326.614 277.797 326.87 276.971 326.87H276.975Z" fill="#1F2120"/>
<path d="M269.33 289.87H255.427V317.037H269.33V289.87Z" fill="#B5B4B4"/>
<path d="M269.33 321.037H255.43C254.369 321.037 253.351 320.616 252.601 319.866C251.851 319.115 251.43 318.098 251.43 317.037V289.87C251.43 288.809 251.851 287.792 252.601 287.042C253.351 286.292 254.369 285.87 255.43 285.87H269.33C270.391 285.87 271.408 286.292 272.158 287.042C272.908 287.792 273.33 288.809 273.33 289.87V317.037C273.33 318.098 272.908 319.115 272.158 319.866C271.408 320.616 270.391 321.037 269.33 321.037V321.037ZM259.43 313.037H265.33V293.87H259.43V313.037Z" fill="#1F2120"/>
<path d="M262.378 294C261.052 294 259.78 293.473 258.842 292.536C257.905 291.598 257.378 290.326 257.378 289V271.37C257.378 270.044 257.905 268.772 258.842 267.835C259.78 266.897 261.052 266.37 262.378 266.37C263.704 266.37 264.976 266.897 265.913 267.835C266.851 268.772 267.378 270.044 267.378 271.37V289C267.378 290.326 266.851 291.598 265.913 292.536C264.976 293.473 263.704 294 262.378 294Z" fill="#1F2120"/>
<path d="M454.55 768.718H448.016C446.955 768.718 445.937 768.297 445.187 767.547C444.437 766.796 444.016 765.779 444.016 764.718C444.016 763.657 444.437 762.64 445.187 761.89C445.937 761.14 446.955 760.718 448.016 760.718H454.55C461.089 760.709 467.358 758.108 471.982 753.484C476.606 748.86 479.208 742.591 479.217 736.051V641.631L470.259 628.656C469.895 628.129 469.663 627.523 469.582 626.887C469.501 626.252 469.574 625.606 469.795 625.005L479.462 598.672C479.785 597.79 480.409 597.05 481.224 596.582C482.039 596.114 482.992 595.948 483.917 596.112C484.842 596.277 485.68 596.762 486.283 597.482C486.886 598.202 487.217 599.112 487.217 600.051V640.327C487.217 640.362 487.217 640.398 487.217 640.434V736.051C487.208 744.712 483.763 753.016 477.639 759.141C471.515 765.265 463.211 768.709 454.55 768.718V768.718ZM478.02 625.818L479.22 627.553V622.553L478.02 625.818Z" fill="#543889"/>
<path d="M457.156 669.4H411.477C401.543 590.762 410.062 445.068 418.954 386.87H449.68C458.572 445.068 467.09 590.762 457.156 669.4Z" fill="#543889" stroke="#543889" stroke-width="8" stroke-linecap="round" stroke-linejoin="round"/>
<path d="M465.353 712.585C458.894 765.972 443.488 798.485 434.317 798.485C425.146 798.485 409.739 765.976 403.281 712.585C398.191 665.778 399.642 618.885 401.581 572.342H467.052C468.991 618.888 470.442 665.778 465.353 712.585Z" fill="#543889" stroke="#543889" stroke-width="8" stroke-linecap="round" stroke-linejoin="round"/>
<path d="M457.378 331.43C443.033 311.169 434.317 271.37 434.317 271.37C434.317 271.37 425.6 311.17 411.255 331.43C410.919 331.903 410.736 332.467 410.731 333.048C410.725 333.628 410.898 334.195 411.226 334.674C416.226 342.293 419.618 350.853 421.195 359.828C422.771 368.804 422.5 378.007 420.397 386.874H448.237C446.134 378.007 445.863 368.804 447.44 359.828C449.016 350.853 452.409 342.293 457.408 334.674C457.736 334.195 457.909 333.628 457.903 333.047C457.898 332.467 457.715 331.903 457.378 331.43V331.43Z" fill="#543889" stroke="#543889" stroke-width="8" stroke-linecap="round" stroke-linejoin="round"/>
<path d="M441.55 761.718H435.016C433.955 761.718 432.937 761.297 432.187 760.547C431.437 759.796 431.016 758.779 431.016 757.718C431.016 756.657 431.437 755.64 432.187 754.89C432.937 754.14 433.955 753.718 435.016 753.718H441.55C448.089 753.709 454.358 751.108 458.982 746.484C463.606 741.86 466.208 735.591 466.217 729.051V634.631L457.259 621.656C456.895 621.129 456.663 620.523 456.582 619.887C456.501 619.252 456.574 618.606 456.795 618.005L466.462 591.672C466.785 590.79 467.409 590.05 468.224 589.582C469.039 589.114 469.992 588.948 470.917 589.112C471.842 589.277 472.68 589.762 473.283 590.482C473.886 591.202 474.217 592.112 474.217 593.051V633.327C474.217 633.362 474.217 633.398 474.217 633.434V729.051C474.208 737.712 470.763 746.016 464.639 752.141C458.515 758.265 450.211 761.709 441.55 761.718V761.718ZM465.02 618.818L466.22 620.553V615.553L465.02 618.818Z" fill="#1F2120"/>
<path d="M444.156 662.4H398.477C388.543 583.762 397.062 438.068 405.954 379.87H436.68C445.572 438.068 454.09 583.762 444.156 662.4Z" fill="#FF1A1A"/>
<g style="mix-blend-mode:difference" opacity="0.2">
<path d="M436.679 379.87H430.234C435.015 441.5 445.334 583.762 435.405 662.4H444.155C454.089 583.762 445.571 438.068 436.679 379.87Z" fill="#FF1A1A"/>
</g>
<g style="mix-blend-mode:lighten" opacity="0.68">
<path d="M425.777 657.927C416.146 581.69 417.089 454.25 421.317 379.87H405.954C397.062 438.07 388.543 583.762 398.477 662.4H444.156C444.341 660.935 444.518 659.438 444.69 657.927H425.777Z" fill="#3F4545"/>
</g>
<path d="M444.155 666.4H398.476C397.502 666.4 396.561 666.044 395.831 665.4C395.1 664.756 394.63 663.867 394.508 662.9C384.755 585.7 392.558 441.056 401.999 379.265C402.143 378.319 402.621 377.456 403.346 376.832C404.071 376.209 404.996 375.865 405.953 375.865H436.679C437.636 375.865 438.561 376.209 439.286 376.832C440.012 377.456 440.49 378.319 440.633 379.265C450.074 441.056 457.876 585.697 448.124 662.9C448.002 663.867 447.532 664.756 446.801 665.4C446.07 666.045 445.13 666.4 444.155 666.4V666.4ZM402.02 658.4H440.611C449.458 582.477 442.233 446.011 433.229 383.87H409.399C400.399 446.011 393.173 582.477 402.02 658.4Z" fill="#1F2120"/>
<path d="M452.353 705.585C445.894 758.972 430.488 791.485 421.317 791.485C412.146 791.485 396.739 758.976 390.281 705.585C385.191 658.778 386.642 611.885 388.581 565.342H454.052C455.991 611.888 457.442 658.778 452.353 705.585Z" fill="#FF1A1A"/>
<g style="mix-blend-mode:difference" opacity="0.2">
<path d="M454.051 565.342H442.899C444.838 611.888 446.289 658.778 441.199 705.585C435.923 749.195 424.679 778.863 415.737 788.271C417.737 790.38 419.632 791.481 421.312 791.481C430.483 791.481 445.889 758.972 452.348 705.581C457.441 658.778 455.99 611.888 454.051 565.342Z" fill="#FF1A1A"/>
</g>
<g style="mix-blend-mode:lighten" opacity="0.68">
<path d="M390.281 705.585C392.183 722.283 395.48 738.793 400.14 754.94C419.559 750.81 426.531 685.728 426.531 598.692C426.531 589.355 426.181 574.248 425.839 565.342H388.581C386.642 611.888 385.191 658.778 390.281 705.585Z" fill="#3F4545"/>
</g>
<path d="M421.317 795.48C407.527 795.48 392.477 757.042 386.311 706.065C381.239 659.432 382.601 612.813 384.585 565.176C384.627 564.144 385.068 563.169 385.813 562.454C386.559 561.74 387.552 561.341 388.585 561.342H454.056C455.088 561.341 456.081 561.74 456.827 562.454C457.572 563.169 458.013 564.144 458.056 565.176C460.04 612.813 461.402 659.432 456.336 706.018V706.065C450.157 757.039 435.107 795.48 421.317 795.48ZM392.417 569.342C390.536 615.33 389.385 660.363 394.255 705.152C397.125 728.873 402.149 750.792 408.397 766.823C415.013 783.795 420.271 787.435 421.317 787.48C422.359 787.435 427.617 783.795 434.232 766.823C440.478 750.797 445.501 728.889 448.376 705.128C453.244 660.347 452.093 615.321 450.212 569.342H392.417Z" fill="#1F2120"/>
<path d="M444.378 324.43C430.033 304.169 421.317 264.37 421.317 264.37C421.317 264.37 412.6 304.17 398.255 324.43C397.919 324.903 397.736 325.467 397.731 326.048C397.725 326.628 397.898 327.195 398.226 327.674C403.226 335.293 406.618 343.853 408.195 352.828C409.771 361.804 409.5 371.007 407.397 379.874H435.237C433.134 371.007 432.863 361.804 434.44 352.828C436.016 343.853 439.409 335.293 444.408 327.674C444.736 327.195 444.909 326.628 444.903 326.047C444.898 325.467 444.715 324.903 444.378 324.43V324.43Z" fill="#EAEAEA"/>
<g style="mix-blend-mode:multiply" opacity="0.37">
<path d="M444.377 324.43C430.032 304.169 421.316 264.37 421.316 264.37C421.316 264.37 419.283 273.65 415.566 285.529C419.547 298.25 425.459 313.952 432.877 324.429C433.214 324.902 433.397 325.466 433.403 326.046C433.408 326.627 433.235 327.194 432.907 327.673C427.908 335.292 424.516 343.852 422.939 352.827C421.362 361.803 421.633 371.006 423.736 379.873H435.236C433.133 371.006 432.862 361.803 434.439 352.827C436.016 343.852 439.408 335.292 444.407 327.673C444.735 327.194 444.908 326.627 444.902 326.047C444.897 325.467 444.714 324.903 444.377 324.43V324.43Z" fill="#B5B4B4"/>
</g>
<path d="M435.237 383.87H407.4C406.791 383.87 406.19 383.731 405.643 383.464C405.096 383.196 404.617 382.808 404.243 382.327C403.869 381.847 403.61 381.288 403.485 380.692C403.36 380.096 403.372 379.479 403.522 378.889C405.499 370.569 405.755 361.932 404.274 353.509C402.793 345.086 399.607 337.054 394.91 329.907C394.125 328.756 393.712 327.393 393.727 326C393.742 324.607 394.184 323.253 394.993 322.119C408.693 302.763 417.327 263.904 417.413 263.513C417.608 262.622 418.102 261.825 418.813 261.254C419.523 260.682 420.408 260.371 421.32 260.371C422.231 260.371 423.116 260.682 423.827 261.254C424.537 261.825 425.031 262.622 425.227 263.513C425.313 263.904 433.942 302.764 447.646 322.118C448.454 323.252 448.896 324.606 448.911 325.999C448.926 327.392 448.513 328.755 447.729 329.906C443.032 337.053 439.845 345.085 438.364 353.508C436.883 361.931 437.139 370.568 439.117 378.888C439.266 379.478 439.278 380.095 439.153 380.691C439.028 381.287 438.769 381.846 438.395 382.326C438.021 382.807 437.542 383.195 436.995 383.463C436.448 383.73 435.847 383.869 435.239 383.869L435.237 383.87ZM412.319 375.87H430.319C427.542 358.569 431.224 340.852 440.663 326.089C431.82 313.265 425.195 293.804 421.321 280.344C417.446 293.804 410.821 313.265 401.979 326.089C411.415 340.853 415.095 358.57 412.319 375.87V375.87Z" fill="#1F2120"/>
<path d="M421.316 326.12C420.256 326.12 419.238 325.699 418.488 324.949C417.738 324.198 417.316 323.181 417.316 322.12V264.37C417.316 263.309 417.738 262.292 418.488 261.542C419.238 260.792 420.256 260.37 421.316 260.37C422.377 260.37 423.395 260.792 424.145 261.542C424.895 262.292 425.316 263.309 425.316 264.37V322.12C425.316 323.181 424.895 324.198 424.145 324.949C423.395 325.699 422.377 326.12 421.316 326.12Z" fill="#1F2120"/>
<path d="M421.337 332.113C425.634 332.113 429.118 328.629 429.118 324.332C429.118 320.035 425.634 316.551 421.337 316.551C417.039 316.551 413.556 320.035 413.556 324.332C413.556 328.629 417.039 332.113 421.337 332.113Z" fill="#1F2120"/>
<path d="M785.505 373.989H731.508V722.853H785.505V373.989Z" fill="#543889" stroke="#543889" stroke-width="8" stroke-linecap="round" stroke-linejoin="round"/>
<path d="M785.506 373.989H731.508L758.507 293.36L785.506 373.989Z" fill="#543889" stroke="#543889" stroke-width="8" stroke-linecap="round" stroke-linejoin="round"/>
<path d="M731.508 722.853H785.508V740.743C785.508 746.124 783.37 751.285 779.565 755.09C775.76 758.895 770.599 761.033 765.218 761.033H751.8C746.419 761.033 741.258 758.895 737.453 755.09C733.648 751.285 731.51 746.124 731.51 740.743V722.853H731.508Z" fill="#543889" stroke="#543889" stroke-width="8" stroke-linecap="round" stroke-linejoin="round"/>
<path d="M772.505 364.989H718.508V713.853H772.505V364.989Z" fill="#47A942"/>
<path d="M772.506 717.853H718.506C717.445 717.853 716.428 717.432 715.677 716.682C714.927 715.932 714.506 714.914 714.506 713.853V364.989C714.506 363.928 714.927 362.911 715.677 362.161C716.428 361.411 717.445 360.989 718.506 360.989H772.506C773.567 360.989 774.584 361.411 775.334 362.161C776.084 362.911 776.506 363.928 776.506 364.989V713.853C776.506 714.914 776.084 715.932 775.334 716.682C774.584 717.432 773.567 717.853 772.506 717.853ZM722.506 709.853H768.506V368.989H722.506V709.853Z" fill="#1F2120"/>
<path d="M755.506 717.853H735.506C734.445 717.853 733.428 717.432 732.677 716.682C731.927 715.932 731.506 714.914 731.506 713.853V364.989C731.506 363.928 731.927 362.911 732.677 362.161C733.428 361.411 734.445 360.989 735.506 360.989H755.506C756.567 360.989 757.584 361.411 758.334 362.161C759.084 362.911 759.506 363.928 759.506 364.989V713.853C759.506 714.914 759.084 715.932 758.334 716.682C757.584 717.432 756.567 717.853 755.506 717.853ZM739.506 709.853H751.506V368.989H739.506V709.853Z" fill="#1F2120"/>
<path d="M772.506 364.989H718.508L745.507 284.36L772.506 364.989Z" fill="#C4C4C4"/>
<path d="M772.506 368.989H718.506C717.872 368.989 717.246 368.838 716.682 368.549C716.117 368.26 715.63 367.841 715.259 367.326C714.889 366.811 714.646 366.216 714.551 365.589C714.456 364.961 714.511 364.321 714.713 363.719L741.713 283.09C741.979 282.295 742.489 281.604 743.169 281.114C743.85 280.624 744.667 280.36 745.506 280.36C746.344 280.36 747.162 280.624 747.842 281.114C748.523 281.604 749.033 282.295 749.299 283.09L776.299 363.719C776.5 364.321 776.556 364.961 776.461 365.589C776.366 366.216 776.123 366.811 775.752 367.326C775.382 367.841 774.894 368.26 774.33 368.549C773.765 368.838 773.14 368.989 772.506 368.989ZM724.066 360.989H766.948L745.507 296.958L724.066 360.989Z" fill="#1F2120"/>
<path d="M718.508 713.853H772.508V731.743C772.508 737.124 770.37 742.285 766.565 746.09C762.76 749.895 757.599 752.033 752.218 752.033H738.8C733.419 752.033 728.258 749.895 724.453 746.09C720.648 742.285 718.51 737.124 718.51 731.743V713.853H718.508Z" fill="#C4C4C4"/>
<path d="M752.216 756.033H738.8C732.36 756.026 726.186 753.464 721.633 748.91C717.079 744.357 714.518 738.183 714.511 731.743V713.853C714.511 712.792 714.932 711.775 715.682 711.025C716.432 710.274 717.45 709.853 718.511 709.853H772.511C773.572 709.853 774.589 710.274 775.339 711.025C776.089 711.775 776.511 712.792 776.511 713.853V731.743C776.503 738.184 773.941 744.358 769.386 748.912C764.832 753.466 758.656 756.027 752.216 756.033V756.033ZM722.509 717.853V731.743C722.513 736.062 724.231 740.203 727.285 743.256C730.338 746.31 734.479 748.028 738.798 748.033H752.216C756.535 748.028 760.675 746.31 763.729 743.257C766.783 740.203 768.501 736.062 768.506 731.743V717.853H722.509Z" fill="#1F2120"/>
<path d="M772.505 678.411H718.508V713.852H772.505V678.411Z" fill="#CCCC00"/>
<path d="M772.506 717.853H718.506C717.445 717.853 716.428 717.432 715.677 716.682C714.927 715.931 714.506 714.914 714.506 713.853V678.411C714.506 677.35 714.927 676.333 715.677 675.583C716.428 674.833 717.445 674.411 718.506 674.411H772.506C773.567 674.411 774.584 674.833 775.334 675.583C776.084 676.333 776.506 677.35 776.506 678.411V713.853C776.506 714.914 776.084 715.931 775.334 716.682C774.584 717.432 773.567 717.853 772.506 717.853ZM722.506 709.853H768.506V682.411H722.506V709.853Z" fill="#1F2120"/>
<path d="M745.506 284.36L734.612 316.893H756.4L745.506 284.36Z" fill="#1F2120"/>
<path d="M624.573 776.343H583.538C581.422 776.343 579.392 775.505 577.893 774.012C576.393 772.519 575.547 770.493 575.538 768.377L574.056 409.4H634.056L632.573 768.381C632.563 770.496 631.715 772.521 630.216 774.013C628.717 775.506 626.688 776.343 624.573 776.343V776.343Z" fill="#543889" stroke="#543889" stroke-width="8" stroke-linecap="round" stroke-linejoin="round"/>
<path d="M629.056 405.396H579.056L581.41 387.203H626.701L629.056 405.396Z" fill="#543889" stroke="#543889" stroke-width="8" stroke-linecap="round" stroke-linejoin="round"/>
<path d="M623.531 387.203H584.581L587.159 339.37H620.953L623.531 387.203Z" fill="#543889" stroke="#543889" stroke-width="8" stroke-linecap="round" stroke-linejoin="round"/>
<path d="M615.28 339.37H592.53V311.12L615.28 291.12V339.37Z" fill="#543889" stroke="#543889" stroke-width="8" stroke-linecap="round" stroke-linejoin="round"/>
<path d="M611.573 764.343H570.538C568.422 764.343 566.392 763.505 564.893 762.012C563.393 760.519 562.547 758.493 562.538 756.377L561.056 397.4H621.056L619.573 756.381C619.563 758.496 618.715 760.521 617.216 762.013C615.717 763.506 613.688 764.343 611.573 764.343V764.343Z" fill="#00B3C6"/>
<g style="mix-blend-mode:screen">
<path d="M582.013 756.376L580.531 397.4H561.056L562.539 756.38C562.547 758.496 563.394 760.523 564.893 762.016C566.393 763.509 568.423 764.347 570.539 764.347H590.014C587.897 764.347 585.866 763.509 584.366 762.015C582.867 760.521 582.02 758.493 582.013 756.376Z" fill="#00B3C6"/>
</g>
<g style="mix-blend-mode:multiply" opacity="0.53">
<path d="M600.1 756.376L601.583 397.396H621.058L619.575 756.376C619.566 758.492 618.719 760.518 617.22 762.012C615.721 763.505 613.691 764.343 611.575 764.343H592.1C594.216 764.343 596.246 763.505 597.745 762.012C599.244 760.518 600.091 758.492 600.1 756.376V756.376Z" fill="#00B3C6"/>
</g>
<path d="M611.573 768.344H570.538C567.366 768.338 564.325 767.078 562.077 764.84C559.829 762.602 558.557 759.566 558.538 756.394L557.056 397.413C557.053 396.886 557.155 396.364 557.355 395.877C557.555 395.39 557.85 394.947 558.221 394.574C558.593 394.2 559.035 393.904 559.521 393.702C560.007 393.5 560.529 393.396 561.056 393.396H621.056C621.582 393.396 622.104 393.5 622.59 393.702C623.077 393.904 623.518 394.2 623.89 394.574C624.262 394.947 624.556 395.39 624.756 395.877C624.956 396.364 625.058 396.886 625.056 397.413L623.573 756.394C623.553 759.566 622.281 762.602 620.033 764.84C617.786 767.078 614.745 768.338 611.573 768.344V768.344ZM565.072 401.4L566.538 756.364C566.544 757.421 566.968 758.434 567.717 759.18C568.466 759.926 569.48 760.346 570.538 760.348H611.573C612.63 760.346 613.644 759.926 614.393 759.18C615.142 758.434 615.566 757.421 615.573 756.364L617.039 401.4H565.072Z" fill="#1F2120"/>
<path d="M616.056 397.396H566.056L568.41 379.203H613.701L616.056 397.396Z" fill="#414141"/>
<path d="M616.056 401.4H566.056C565.487 401.4 564.925 401.279 564.407 401.044C563.889 400.81 563.427 400.468 563.051 400.041C562.676 399.614 562.396 399.112 562.23 398.568C562.064 398.024 562.016 397.451 562.089 396.887L564.443 378.694C564.567 377.73 565.039 376.844 565.769 376.203C566.499 375.561 567.438 375.207 568.41 375.207H613.7C614.672 375.207 615.611 375.561 616.341 376.203C617.071 376.844 617.542 377.73 617.667 378.694L620.021 396.887C620.094 397.451 620.046 398.024 619.88 398.568C619.714 399.111 619.434 399.613 619.058 400.04C618.683 400.468 618.221 400.81 617.703 401.044C617.185 401.279 616.623 401.4 616.055 401.4H616.056ZM570.606 393.4H611.506L610.186 383.2H571.926L570.606 393.4Z" fill="#1F2120"/>
<path d="M610.531 379.203H571.581L574.159 331.37H607.953L610.531 379.203Z" fill="#00B3C6"/>
<g style="mix-blend-mode:screen">
<path d="M574.159 331.37L571.581 379.203H585.247L585.506 331.37H574.159Z" fill="#00B3C6"/>
</g>
<g style="mix-blend-mode:multiply" opacity="0.53">
<path d="M608.962 331.37L611.539 379.203H597.873L596.506 331.37H608.962Z" fill="#00B3C6"/>
</g>
<path d="M610.53 383.2H571.581C571.037 383.2 570.5 383.089 570.001 382.875C569.501 382.66 569.051 382.346 568.678 381.951C568.304 381.557 568.014 381.091 567.827 380.581C567.639 380.071 567.558 379.528 567.587 378.985L570.164 331.151C570.219 330.129 570.664 329.167 571.407 328.463C572.15 327.76 573.134 327.367 574.158 327.367H607.953C608.976 327.367 609.961 327.76 610.704 328.463C611.447 329.167 611.892 330.129 611.947 331.151L614.524 378.985C614.553 379.528 614.471 380.071 614.284 380.581C614.096 381.091 613.807 381.557 613.433 381.951C613.059 382.346 612.609 382.66 612.11 382.875C611.611 383.089 611.073 383.2 610.53 383.2V383.2ZM575.803 375.2H606.309L604.163 335.367H577.948L575.803 375.2Z" fill="#1F2120"/>
<path d="M610.53 383.2H571.581C571.037 383.2 570.5 383.089 570.001 382.875C569.501 382.66 569.051 382.346 568.678 381.951C568.304 381.557 568.014 381.091 567.827 380.581C567.639 380.071 567.558 379.528 567.587 378.985L570.164 331.151C570.219 330.129 570.664 329.167 571.407 328.463C572.15 327.76 573.134 327.367 574.158 327.367H607.953C608.976 327.367 609.961 327.76 610.704 328.463C611.447 329.167 611.892 330.129 611.947 331.151L614.524 378.985C614.553 379.528 614.471 380.071 614.284 380.581C614.096 381.091 613.807 381.557 613.433 381.951C613.059 382.346 612.609 382.66 612.11 382.875C611.611 383.089 611.073 383.2 610.53 383.2V383.2ZM575.803 375.2H606.309L604.163 335.367H577.948L575.803 375.2Z" fill="#1F2120"/>
<path d="M610.53 383.2H571.581C571.037 383.2 570.5 383.089 570.001 382.875C569.501 382.66 569.051 382.346 568.678 381.951C568.304 381.557 568.014 381.091 567.827 380.581C567.639 380.071 567.558 379.528 567.587 378.985L570.164 331.151C570.219 330.129 570.664 329.167 571.407 328.463C572.15 327.76 573.134 327.367 574.158 327.367H607.953C608.976 327.367 609.961 327.76 610.704 328.463C611.447 329.167 611.892 330.129 611.947 331.151L614.524 378.985C614.553 379.528 614.471 380.071 614.284 380.581C614.096 381.091 613.807 381.557 613.433 381.951C613.059 382.346 612.609 382.66 612.11 382.875C611.611 383.089 611.073 383.2 610.53 383.2V383.2ZM575.803 375.2H606.309L604.163 335.367H577.948L575.803 375.2Z" fill="#1F2120"/>
<path d="M610.53 383.2H571.581C571.037 383.2 570.5 383.089 570.001 382.875C569.501 382.66 569.051 382.346 568.678 381.951C568.304 381.557 568.014 381.091 567.827 380.581C567.639 380.071 567.558 379.528 567.587 378.985L570.164 331.151C570.219 330.129 570.664 329.167 571.407 328.463C572.15 327.76 573.134 327.367 574.158 327.367H607.953C608.976 327.367 609.961 327.76 610.704 328.463C611.447 329.167 611.892 330.129 611.947 331.151L614.524 378.985C614.553 379.528 614.471 380.071 614.284 380.581C614.096 381.091 613.807 381.557 613.433 381.951C613.059 382.346 612.609 382.66 612.11 382.875C611.611 383.089 611.073 383.2 610.53 383.2V383.2ZM575.803 375.2H606.309L604.163 335.367H577.948L575.803 375.2Z" fill="#1F2120"/>
<path d="M602.28 331.37H579.53V303.12L602.28 283.12V331.37Z" fill="#FFC41D"/>
<path d="M602.279 335.37H579.529C578.468 335.37 577.451 334.949 576.701 334.199C575.951 333.448 575.529 332.431 575.529 331.37V303.12C575.53 302.552 575.652 301.991 575.886 301.474C576.121 300.956 576.463 300.495 576.889 300.12L599.639 280.12C600.217 279.613 600.928 279.283 601.689 279.169C602.449 279.056 603.226 279.164 603.926 279.48C604.627 279.797 605.221 280.308 605.639 280.954C606.056 281.599 606.278 282.351 606.279 283.12V331.37C606.279 332.431 605.858 333.448 605.108 334.199C604.358 334.949 603.34 335.37 602.279 335.37ZM583.529 327.37H598.279V291.962L583.529 304.929V327.37Z" fill="#1F2120"/>
<path d="M562.435 731.332L562.535 756.376C562.543 758.492 563.39 760.518 564.889 762.012C566.389 763.505 568.419 764.343 570.535 764.343H611.57C613.686 764.343 615.715 763.505 617.215 762.012C618.714 760.518 619.561 758.492 619.57 756.376L619.67 731.332H562.435Z" fill="#414141"/>
<g style="mix-blend-mode:multiply" opacity="0.4">
<path d="M600.342 731.332L600.242 756.376C600.233 758.492 599.387 760.518 597.887 762.012C596.388 763.505 594.358 764.343 592.242 764.343H611.575C613.691 764.343 615.721 763.505 617.22 762.012C618.72 760.518 619.566 758.492 619.575 756.376L619.675 731.332H600.342Z" fill="#414141"/>
</g>
<g style="mix-blend-mode:screen">
<path d="M582.538 756.376L582.438 731.332H562.438L562.538 756.376C562.547 758.492 563.394 760.518 564.893 762.012C566.393 763.505 568.422 764.343 570.538 764.343H590.538C588.422 764.343 586.393 763.505 584.893 762.012C583.394 760.518 582.547 758.492 582.538 756.376V756.376Z" fill="#414141"/>
</g>
<path d="M611.573 768.344H570.538C567.366 768.338 564.324 767.078 562.077 764.84C559.829 762.602 558.557 759.566 558.538 756.394L558.438 731.349C558.435 730.822 558.537 730.3 558.737 729.813C558.937 729.326 559.231 728.883 559.603 728.51C559.975 728.136 560.416 727.84 560.903 727.638C561.389 727.436 561.911 727.332 562.438 727.332H619.68C620.206 727.332 620.728 727.436 621.214 727.638C621.701 727.84 622.142 728.136 622.514 728.51C622.886 728.883 623.18 729.326 623.38 729.813C623.58 730.3 623.682 730.822 623.68 731.349L623.58 756.394C623.56 759.567 622.287 762.604 620.038 764.843C617.789 767.081 614.746 768.34 611.573 768.344V768.344ZM566.451 735.332L566.538 756.36C566.544 757.417 566.968 758.43 567.717 759.176C568.466 759.922 569.48 760.342 570.538 760.344H611.573C612.63 760.342 613.644 759.922 614.393 759.176C615.142 758.43 615.566 757.417 615.573 756.36L615.66 735.332H566.451Z" fill="#1F2120"/>
</svg>
