<svg width="1000" height="1000" viewBox="0 0 1000 1000" fill="none" xmlns="http://www.w3.org/2000/svg">
<g style="mix-blend-mode:multiply" opacity="0.3">
<g style="mix-blend-mode:multiply" opacity="0.3">
<path d="M697.537 371.017L615.992 311.771C602.481 301.955 583.571 304.95 573.755 318.461L305.174 688.13C295.358 701.641 298.353 720.551 311.863 730.367L393.408 789.613C406.919 799.429 425.829 796.434 435.645 782.924L704.226 413.254C714.042 399.743 711.047 380.833 697.537 371.017Z" fill="#2D2D2D"/>
<path d="M697.537 371.017L615.992 311.771C602.481 301.955 583.571 304.95 573.755 318.461L305.174 688.13C295.358 701.641 298.353 720.551 311.863 730.367L393.408 789.613C406.919 799.429 425.829 796.434 435.645 782.924L704.226 413.254C714.042 399.743 711.047 380.833 697.537 371.017Z" stroke="#2D2D2D" stroke-width="8" stroke-linecap="round" stroke-linejoin="round"/>
</g>
<g style="mix-blend-mode:multiply" opacity="0.3">
<path d="M430.653 225.598H329.858C313.157 225.598 299.619 239.136 299.619 255.837V712.774C299.619 729.474 313.157 743.012 329.858 743.012H430.653C447.353 743.012 460.891 729.474 460.891 712.774V255.837C460.891 239.136 447.353 225.598 430.653 225.598Z" fill="#2D2D2D"/>
<path d="M430.653 225.598H329.858C313.157 225.598 299.619 239.136 299.619 255.837V712.774C299.619 729.474 313.157 743.012 329.858 743.012H430.653C447.353 743.012 460.891 729.474 460.891 712.774V255.837C460.891 239.136 447.353 225.598 430.653 225.598Z" stroke="#2D2D2D" stroke-width="8" stroke-linecap="round" stroke-linejoin="round"/>
</g>
<g style="mix-blend-mode:multiply" opacity="0.3">
<path d="M560.979 271.146L464.089 243.363C448.035 238.759 431.29 248.042 426.687 264.095L300.738 703.331C296.135 719.384 305.417 736.13 321.47 740.733L418.36 768.516C434.414 773.119 451.159 763.837 455.762 747.784L581.711 308.547C586.314 292.494 577.032 275.749 560.979 271.146Z" fill="#2D2D2D"/>
<path d="M560.979 271.146L464.089 243.363C448.035 238.759 431.29 248.042 426.687 264.095L300.738 703.331C296.135 719.384 305.417 736.13 321.47 740.733L418.36 768.516C434.414 773.119 451.159 763.837 455.762 747.784L581.711 308.547C586.314 292.494 577.032 275.749 560.979 271.146Z" stroke="#2D2D2D" stroke-width="8" stroke-linecap="round" stroke-linejoin="round"/>
</g>
</g>
<path d="M689.136 344.138L607.591 284.892C594.081 275.076 575.17 278.071 565.354 291.582L296.773 661.252C286.957 674.763 289.952 693.673 303.463 703.489L385.008 762.735C398.519 772.551 417.429 769.556 427.245 756.045L695.826 386.375C705.642 372.865 702.647 353.954 689.136 344.138Z" fill="white"/>
<path d="M402.732 775.216C394.945 775.222 387.357 772.756 381.061 768.172V768.172L299.516 708.925C291.594 703.158 286.283 694.485 284.747 684.807C283.212 675.129 285.578 665.238 291.327 657.303L559.915 287.632C565.684 279.712 574.359 274.403 584.036 272.87C593.714 271.337 603.605 273.706 611.539 279.456L693.085 338.702C701.006 344.47 706.314 353.145 707.847 362.822C709.38 372.5 707.012 382.39 701.261 390.324L432.68 759.994C429.247 764.718 424.742 768.561 419.537 771.207C414.331 773.853 408.572 775.227 402.732 775.216V775.216ZM388.957 757.298C391.456 759.113 394.288 760.419 397.291 761.139C400.295 761.86 403.411 761.982 406.462 761.499C409.512 761.015 412.438 759.935 415.071 758.321C417.705 756.707 419.994 754.589 421.809 752.09L690.387 382.425C694.046 377.376 695.553 371.081 694.576 364.923C693.6 358.764 690.221 353.244 685.18 349.574L603.633 290.329C598.584 286.67 592.29 285.164 586.132 286.14C579.974 287.117 574.454 290.496 570.784 295.536L302.208 665.198C298.549 670.247 297.043 676.541 298.019 682.7C298.995 688.858 302.375 694.378 307.415 698.047L388.96 757.295L388.957 757.298Z" fill="#330E00"/>
<path d="M518.083 637.729C516.665 637.73 515.283 637.281 514.137 636.447L383.666 541.655C382.952 541.136 382.347 540.482 381.886 539.729C381.425 538.977 381.116 538.141 380.978 537.269C380.84 536.397 380.875 535.507 381.081 534.649C381.287 533.79 381.661 532.981 382.179 532.267L559.914 287.633C565.683 279.712 574.358 274.403 584.036 272.87C593.714 271.337 603.605 273.706 611.538 279.457L693.085 338.702C701.005 344.471 706.314 353.145 707.847 362.823C709.379 372.5 707.011 382.391 701.261 390.324L523.524 634.96C522.9 635.819 522.082 636.517 521.136 636.998C520.19 637.48 519.144 637.73 518.083 637.729V637.729ZM396.995 534.732L516.605 621.624L690.392 382.426C694.051 377.376 695.557 371.082 694.581 364.923C693.604 358.765 690.225 353.245 685.184 349.575L603.639 290.329C598.59 286.671 592.296 285.166 586.138 286.142C579.98 287.118 574.461 290.497 570.79 295.537L396.995 534.732Z" fill="#330E00"/>
<path d="M607.59 284.892L689.135 344.138C695.623 348.852 699.973 355.95 701.228 363.871C702.482 371.792 700.539 379.887 695.825 386.375L648.428 451.611L517.957 356.818L565.353 291.582C570.067 285.094 577.165 280.744 585.086 279.49C593.007 278.235 601.102 280.178 607.59 284.892V284.892Z" fill="#8C6239"/>
<path d="M648.425 458.332C647.006 458.332 645.625 457.882 644.479 457.047L514.006 362.254C512.564 361.207 511.598 359.629 511.319 357.869C511.04 356.109 511.472 354.31 512.519 352.868L559.917 287.632C565.685 279.712 574.36 274.403 584.038 272.87C593.716 271.337 603.607 273.706 611.54 279.456L693.087 338.702C701.007 344.47 706.316 353.145 707.849 362.822C709.382 372.5 707.013 382.39 701.263 390.324L653.866 455.56C653.242 456.419 652.424 457.118 651.478 457.6C650.533 458.081 649.486 458.332 648.425 458.332ZM527.341 355.331L646.943 442.225L690.389 382.42C694.048 377.371 695.554 371.076 694.578 364.918C693.602 358.759 690.222 353.239 685.181 349.569L603.635 290.323C598.585 286.666 592.292 285.16 586.134 286.136C579.976 287.112 574.456 290.491 570.786 295.531L527.341 355.331Z" fill="#330E00"/>
<path d="M583.26 541.31L452.788 446.517L387.618 536.216L518.089 631.009L583.26 541.31Z" fill="#42210B"/>
<path d="M648.429 451.612L517.957 356.819L452.787 446.518L583.258 541.311L648.429 451.612Z" fill="#603813"/>
<path d="M583.26 548.03C581.84 548.03 580.457 547.581 579.309 546.747L448.836 451.953C447.395 450.905 446.428 449.328 446.149 447.568C445.87 445.807 446.302 444.009 447.35 442.567L512.52 352.868C513.039 352.154 513.693 351.549 514.446 351.088C515.198 350.626 516.034 350.318 516.906 350.18C517.778 350.042 518.668 350.077 519.526 350.283C520.384 350.489 521.194 350.862 521.908 351.381L652.38 446.174C653.822 447.221 654.788 448.798 655.067 450.559C655.346 452.319 654.914 454.118 653.867 455.559L588.696 545.267C587.649 546.709 586.072 547.676 584.311 547.955C583.963 548.007 583.612 548.032 583.26 548.03ZM462.177 445.03L581.778 531.925L639.05 453.097L519.448 366.203L462.177 445.03Z" fill="#330E00"/>
<path d="M518.083 637.728C516.665 637.729 515.283 637.28 514.137 636.447L383.666 541.654C382.952 541.135 382.347 540.481 381.886 539.728C381.425 538.976 381.116 538.14 380.978 537.268C380.84 536.397 380.875 535.506 381.081 534.648C381.287 533.79 381.661 532.981 382.179 532.267L447.348 442.568C447.867 441.853 448.521 441.248 449.274 440.787C450.026 440.326 450.862 440.018 451.734 439.88C452.606 439.742 453.496 439.777 454.354 439.983C455.213 440.189 456.022 440.562 456.736 441.081L587.208 535.873C587.922 536.392 588.527 537.046 588.988 537.799C589.449 538.551 589.758 539.387 589.896 540.259C590.034 541.131 589.999 542.021 589.793 542.879C589.587 543.738 589.214 544.547 588.695 545.261L523.524 634.96C522.9 635.818 522.082 636.516 521.136 636.998C520.19 637.479 519.144 637.729 518.083 637.728V637.728ZM396.995 534.731L516.605 621.623L573.876 542.796L454.28 455.903L396.995 534.731Z" fill="#330E00"/>
<path d="M333.395 697.648C328.868 697.641 324.475 696.109 320.924 693.301C317.373 690.493 314.871 686.572 313.82 682.168C312.769 677.765 313.231 673.136 315.132 669.027C317.032 664.918 320.26 661.568 324.296 659.517C328.332 657.467 332.94 656.834 337.38 657.721C341.819 658.608 345.83 660.964 348.768 664.409C351.705 667.853 353.398 672.186 353.572 676.71C353.747 681.234 352.395 685.685 349.732 689.346V689.346C347.858 691.922 345.401 694.018 342.561 695.461C339.721 696.904 336.58 697.653 333.395 697.648ZM333.437 670.781C333.08 670.782 332.723 670.81 332.37 670.865C330.663 671.138 329.127 672.061 328.085 673.441C327.043 674.821 326.575 676.551 326.78 678.268C326.984 679.985 327.845 681.556 329.182 682.652C330.519 683.749 332.229 684.285 333.953 684.149C335.676 684.014 337.281 683.216 338.43 681.924C339.579 680.632 340.183 678.945 340.117 677.217C340.05 675.49 339.317 673.855 338.072 672.655C336.827 671.455 335.166 670.784 333.437 670.781V670.781Z" fill="#330E00"/>
<g style="mix-blend-mode:overlay" opacity="0.3">
<path d="M564.338 250.987L467.449 223.213C463.631 222.119 459.636 221.786 455.69 222.236C451.745 222.685 447.926 223.907 444.453 225.832C440.98 227.758 437.92 230.348 435.448 233.456C432.975 236.564 431.14 240.128 430.045 243.945L304.095 683.174C301.885 690.883 302.827 699.154 306.715 706.169C310.603 713.183 317.118 718.365 324.827 720.576L413.204 715.514C413.985 715.738 421.468 715.978 422.25 716.136H430.285L443.187 714.746C449.902 714.022 456.245 711.305 461.401 706.943C466.558 702.582 470.29 696.776 472.117 690.275L585.069 288.394C586.165 284.577 586.497 280.581 586.048 276.635C585.599 272.689 584.377 268.87 582.452 265.396C580.527 261.923 577.936 258.862 574.828 256.39C571.72 253.918 568.155 252.082 564.338 250.987V250.987Z" fill="#2D2D2D"/>
<path d="M564.338 250.987L467.449 223.213C463.631 222.119 459.636 221.786 455.69 222.236C451.745 222.685 447.926 223.907 444.453 225.832C440.98 227.758 437.92 230.348 435.448 233.456C432.975 236.564 431.14 240.128 430.045 243.945L304.095 683.174C301.885 690.883 302.827 699.154 306.715 706.169C310.603 713.183 317.118 718.365 324.827 720.576L413.204 715.514C413.985 715.738 421.468 715.978 422.25 716.136H430.285L443.187 714.746C449.902 714.022 456.245 711.305 461.401 706.943C466.558 702.582 470.29 696.776 472.117 690.275L585.069 288.394C586.165 284.577 586.497 280.581 586.048 276.635C585.599 272.689 584.377 268.87 582.452 265.396C580.527 261.923 577.936 258.862 574.828 256.39C571.72 253.918 568.155 252.082 564.338 250.987V250.987Z" stroke="#2D2D2D" stroke-width="8" stroke-linecap="round" stroke-linejoin="round"/>
</g>
<path d="M552.579 244.267L455.689 216.484C439.636 211.881 422.89 221.163 418.287 237.217L292.338 676.453C287.735 692.506 297.017 709.251 313.071 713.854L409.961 741.637C426.014 746.241 442.76 736.958 447.363 720.905L573.312 281.669C577.915 265.616 568.633 248.87 552.579 244.267Z" fill="white"/>
<path d="M418.35 749.545C414.883 749.544 411.433 749.056 408.102 748.096L311.218 720.313C301.797 717.612 293.835 711.279 289.083 702.707C284.331 694.136 283.178 684.028 285.878 674.606L411.828 235.365C414.53 225.943 420.864 217.981 429.436 213.228C438.009 208.476 448.118 207.324 457.54 210.026L554.43 237.808C559.095 239.146 563.451 241.389 567.25 244.411C571.048 247.432 574.214 251.172 576.567 255.417C578.92 259.662 580.414 264.329 580.964 269.151C581.513 273.973 581.107 278.856 579.769 283.522L453.821 722.756C451.607 730.46 446.952 737.237 440.555 742.068C434.158 746.899 426.366 749.523 418.35 749.545V749.545ZM447.32 222.022C442.218 222.036 437.259 223.705 433.188 226.78C429.117 229.854 426.155 234.167 424.745 239.07L298.797 678.302C297.945 681.271 297.687 684.379 298.037 687.448C298.387 690.517 299.337 693.486 300.835 696.188C302.333 698.889 304.348 701.269 306.765 703.192C309.182 705.114 311.955 706.542 314.924 707.393L411.815 735.176C414.784 736.027 417.891 736.285 420.96 735.935C424.029 735.585 426.998 734.634 429.7 733.137C432.401 731.639 434.781 729.624 436.703 727.207C438.626 724.79 440.053 722.017 440.904 719.048L566.853 279.826C567.704 276.857 567.962 273.749 567.612 270.68C567.263 267.612 566.312 264.642 564.814 261.94C563.317 259.239 561.302 256.859 558.884 254.936C556.467 253.014 553.695 251.586 550.725 250.735L453.836 222.944C451.718 222.334 449.524 222.024 447.32 222.022V222.022Z" fill="#330E00"/>
<path d="M455.149 216.788L552.013 244.607C559.72 246.821 566.232 252.005 570.116 259.02C574.001 266.035 574.94 274.305 572.726 282.012L550.471 359.503L395.489 314.992L417.744 237.501C419.957 229.794 425.142 223.282 432.157 219.398C439.171 215.513 447.442 214.574 455.149 216.788Z" fill="#BD3F3A"/>
<path d="M489.965 579.061C489.34 579.06 488.718 578.972 488.117 578.799L333.093 534.347C331.38 533.856 329.932 532.704 329.068 531.146C328.203 529.587 327.994 527.749 328.485 526.036L411.829 235.365C414.53 225.943 420.864 217.981 429.437 213.228C438.009 208.476 448.119 207.324 457.541 210.026L554.43 237.808C559.095 239.146 563.452 241.389 567.25 244.411C571.048 247.432 574.215 251.172 576.568 255.417C578.921 259.662 580.414 264.329 580.964 269.151C581.513 273.973 581.108 278.856 579.77 283.522L496.421 574.193C496.019 575.595 495.172 576.828 494.007 577.706C492.842 578.585 491.423 579.06 489.965 579.061ZM343.248 523.288L485.358 564.029L566.853 279.826C567.704 276.857 567.962 273.749 567.613 270.68C567.263 267.612 566.312 264.642 564.815 261.94C563.317 259.239 561.302 256.859 558.885 254.936C556.467 253.014 553.695 251.586 550.726 250.735L453.836 222.944C450.867 222.093 447.76 221.835 444.691 222.184C441.622 222.534 438.652 223.485 435.951 224.982C433.249 226.48 430.869 228.495 428.947 230.912C427.024 233.33 425.597 236.102 424.745 239.071L343.248 523.288Z" fill="#330E00"/>
<path d="M550.477 359.494L395.495 314.983L364.894 421.534L519.876 466.045L550.477 359.494Z" fill="#A33500"/>
<path d="M520.527 472.481C519.899 472.481 519.274 472.393 518.67 472.219L363.646 427.766C362.798 427.523 362.006 427.115 361.315 426.566C360.625 426.016 360.049 425.336 359.621 424.564C359.194 423.792 358.922 422.944 358.822 422.067C358.723 421.19 358.797 420.302 359.04 419.454L389.603 312.875C390.094 311.162 391.245 309.714 392.804 308.85C394.362 307.986 396.2 307.776 397.913 308.267L552.939 352.72C553.787 352.963 554.579 353.371 555.27 353.92C555.96 354.47 556.536 355.15 556.964 355.922C557.391 356.693 557.663 357.542 557.763 358.419C557.863 359.296 557.789 360.184 557.545 361.032L526.984 467.612C526.582 469.015 525.735 470.248 524.57 471.127C523.405 472.005 521.986 472.48 520.527 472.481V472.481ZM373.81 416.708L515.917 457.456L542.774 363.795L400.666 323.047L373.81 416.708Z" fill="#330E00"/>
<path d="M520.523 465.759L365.499 421.307L334.938 527.886L489.962 572.339L520.523 465.759Z" fill="#6D2300"/>
<path d="M489.965 579.06C489.34 579.061 488.717 578.972 488.117 578.798L333.093 534.346C331.38 533.855 329.932 532.704 329.068 531.145C328.203 529.587 327.994 527.749 328.485 526.035L359.047 419.455C359.538 417.742 360.69 416.294 362.248 415.43C363.807 414.566 365.645 414.356 367.358 414.847L522.382 459.301C523.231 459.544 524.023 459.952 524.713 460.501C525.404 461.051 525.98 461.731 526.408 462.502C526.836 463.274 527.107 464.123 527.207 465C527.307 465.877 527.233 466.765 526.99 467.613L496.427 574.192C496.025 575.595 495.177 576.829 494.011 577.708C492.845 578.586 491.425 579.061 489.965 579.06ZM343.248 523.287L485.358 564.028L512.217 470.368L370.11 429.618L343.248 523.287Z" fill="#330E00"/>
<path d="M332.362 699.351C327.889 699.36 323.54 697.882 320 695.148C316.459 692.415 313.928 688.582 312.806 684.252C311.683 679.923 312.032 675.342 313.798 671.233C315.564 667.123 318.646 663.718 322.56 661.553C325.25 660.064 328.246 659.211 331.317 659.058C334.388 658.905 337.453 659.456 340.278 660.67C343.103 661.884 345.613 663.728 347.616 666.061C349.618 668.394 351.061 671.155 351.833 674.131C352.605 677.108 352.685 680.221 352.069 683.233C351.452 686.246 350.155 689.077 348.276 691.511C346.397 693.945 343.986 695.917 341.228 697.275C338.469 698.634 335.437 699.344 332.362 699.351ZM332.324 672.46C330.62 672.461 328.98 673.107 327.735 674.269C326.489 675.43 325.731 677.021 325.612 678.72C325.493 680.42 326.023 682.101 327.095 683.424C328.166 684.748 329.7 685.617 331.387 685.854C333.074 686.091 334.787 685.681 336.183 684.704C337.579 683.728 338.552 682.258 338.907 680.592C339.262 678.926 338.972 677.188 338.096 675.727C337.219 674.267 335.822 673.193 334.185 672.722C333.578 672.549 332.95 672.46 332.318 672.46H332.324Z" fill="#330E00"/>
<g style="mix-blend-mode:overlay" opacity="0.3">
<path d="M435.692 205.439H334.897C318.196 205.439 304.658 218.978 304.658 235.678V692.615C304.658 709.315 318.196 722.853 334.897 722.853H435.692C452.392 722.853 465.93 709.315 465.93 692.615V235.678C465.93 218.978 452.392 205.439 435.692 205.439Z" fill="#2D2D2D"/>
<path d="M435.692 205.439H334.897C318.196 205.439 304.658 218.978 304.658 235.678V692.615C304.658 709.315 318.196 722.853 334.897 722.853H435.692C452.392 722.853 465.93 709.315 465.93 692.615V235.678C465.93 218.978 452.392 205.439 435.692 205.439Z" stroke="#2D2D2D" stroke-width="8" stroke-linecap="round" stroke-linejoin="round"/>
</g>
<path d="M422.252 198.72H321.457C304.757 198.72 291.219 212.258 291.219 228.958V685.895C291.219 702.595 304.757 716.134 321.457 716.134H422.252C438.952 716.134 452.491 702.595 452.491 685.895V228.958C452.491 212.258 438.952 198.72 422.252 198.72Z" fill="white"/>
<path d="M422.252 722.853H321.457C311.659 722.842 302.265 718.945 295.336 712.016C288.407 705.088 284.51 695.694 284.499 685.895V228.958C284.51 219.16 288.407 209.766 295.336 202.837C302.265 195.908 311.659 192.011 321.457 192H422.252C432.051 192.011 441.445 195.908 448.373 202.837C455.302 209.766 459.199 219.16 459.21 228.958V685.895C459.199 695.694 455.302 705.088 448.373 712.016C441.445 718.945 432.051 722.842 422.252 722.853ZM321.457 205.439C315.222 205.446 309.243 207.926 304.834 212.335C300.425 216.744 297.945 222.723 297.938 228.958V685.895C297.945 692.131 300.425 698.109 304.834 702.518C309.243 706.927 315.222 709.407 321.457 709.414H422.252C428.487 709.407 434.465 706.927 438.875 702.518C443.284 698.109 445.764 692.131 445.771 685.895V228.958C445.764 222.723 443.284 216.745 438.875 212.336C434.465 207.927 428.487 205.446 422.252 205.439H321.457Z" fill="#330E00"/>
<path d="M452.491 538.063H291.219C289.437 538.063 287.727 537.355 286.467 536.094C285.207 534.834 284.499 533.125 284.499 531.343V228.958C284.51 219.16 288.407 209.766 295.336 202.837C302.265 195.908 311.659 192.011 321.457 192H422.252C432.051 192.011 441.445 195.908 448.373 202.837C455.302 209.766 459.199 219.16 459.21 228.958V531.343C459.21 533.125 458.502 534.834 457.242 536.094C455.982 537.355 454.273 538.063 452.491 538.063ZM297.938 524.623H445.771V228.958C445.764 222.723 443.284 216.745 438.875 212.336C434.465 207.927 428.487 205.446 422.252 205.439H321.457C315.222 205.446 309.243 207.926 304.834 212.335C300.425 216.744 297.945 222.723 297.938 228.958V524.623Z" fill="#330E00"/>
<path d="M321.457 198.72H422.252C430.272 198.72 437.963 201.906 443.634 207.576C449.305 213.247 452.491 220.938 452.491 228.958V309.594H291.219V228.958C291.219 220.938 294.405 213.247 300.075 207.576C305.746 201.906 313.437 198.72 321.457 198.72V198.72Z" fill="#FF9999"/>
<path d="M452.491 316.316H291.219C289.437 316.316 287.727 315.608 286.467 314.348C285.207 313.087 284.499 311.378 284.499 309.596V228.96C284.51 219.162 288.407 209.768 295.336 202.839C302.265 195.91 311.659 192.013 321.457 192.002H422.252C432.051 192.013 441.445 195.91 448.373 202.839C455.302 209.768 459.199 219.162 459.21 228.96V309.596C459.21 311.378 458.502 313.087 457.242 314.348C455.982 315.608 454.273 316.316 452.491 316.316ZM297.938 302.876H445.771V228.96C445.764 222.725 443.284 216.747 438.875 212.338C434.465 207.929 428.487 205.448 422.252 205.441H321.457C315.222 205.448 309.243 207.928 304.834 212.337C300.425 216.746 297.945 222.725 297.938 228.96V302.876Z" fill="#330E00"/>
<path d="M452.491 309.594H291.219V420.469H452.491V309.594Z" fill="#FF0000"/>
<path d="M452.491 309.594H291.219V420.469H452.491V309.594Z" fill="#FF3333" stroke="#330E00" stroke-width="8" stroke-linecap="round" stroke-linejoin="round"/>
<path d="M452.491 420.468H291.219V531.343H452.491V420.468Z" fill="#BF0000"/>
<path d="M452.491 538.062H291.219C289.437 538.062 287.727 537.354 286.467 536.094C285.207 534.834 284.499 533.125 284.499 531.343V420.468C284.499 418.686 285.207 416.977 286.467 415.717C287.727 414.456 289.437 413.749 291.219 413.749H452.491C454.273 413.749 455.982 414.456 457.242 415.717C458.502 416.977 459.21 418.686 459.21 420.468V531.343C459.21 533.125 458.502 534.834 457.242 536.094C455.982 537.354 454.273 538.062 452.491 538.062ZM297.938 524.623H445.771V427.188H297.938V524.623Z" fill="#330E00"/>
<path d="M330.418 697.654C326.431 697.654 322.533 696.472 319.218 694.257C315.903 692.042 313.319 688.894 311.793 685.21C310.268 681.526 309.868 677.473 310.646 673.563C311.424 669.652 313.344 666.06 316.163 663.241C318.982 660.422 322.575 658.502 326.485 657.724C330.395 656.946 334.449 657.345 338.132 658.871C341.816 660.397 344.964 662.981 347.179 666.296C349.394 669.611 350.577 673.508 350.577 677.495C350.571 682.84 348.445 687.964 344.666 691.744C340.887 695.523 335.762 697.649 330.418 697.654ZM330.418 670.776C329.089 670.776 327.79 671.17 326.685 671.908C325.579 672.647 324.718 673.696 324.21 674.924C323.701 676.152 323.568 677.503 323.827 678.806C324.086 680.11 324.726 681.307 325.666 682.247C326.606 683.187 327.803 683.827 329.107 684.086C330.41 684.345 331.761 684.212 332.989 683.704C334.217 683.195 335.267 682.334 336.005 681.229C336.743 680.124 337.137 678.824 337.137 677.495C337.137 675.713 336.429 674.004 335.169 672.744C333.909 671.484 332.2 670.776 330.418 670.776Z" fill="#330E00"/>
</svg>
