<svg width="518" height="336" viewBox="0 0 518 336" fill="none" xmlns="http://www.w3.org/2000/svg">
<path fill-rule="evenodd" clip-rule="evenodd" d="M213.748 129.989C209.704 129.989 205.826 131.596 202.966 134.456C200.106 137.317 198.5 141.196 198.5 145.241V206.248C198.5 210.293 200.106 214.173 202.966 217.033C205.826 219.893 209.704 221.5 213.748 221.5H305.237C309.281 221.5 313.159 219.893 316.019 217.033C318.878 214.173 320.485 210.293 320.485 206.248V145.241C320.485 141.196 318.878 137.317 316.019 134.456C313.159 131.596 309.281 129.989 305.237 129.989H293.145C291.123 129.989 289.184 129.185 287.755 127.755L279.208 119.206C276.349 116.346 272.472 114.738 268.428 114.737H250.557C246.513 114.738 242.636 116.346 239.777 119.206L231.23 127.755C229.801 129.185 227.862 129.989 225.84 129.989H213.748ZM259.492 198.622C262.496 198.622 265.47 198.03 268.245 196.881C271.02 195.731 273.542 194.046 275.666 191.922C277.789 189.797 279.474 187.275 280.624 184.499C281.773 181.724 282.365 178.749 282.365 175.745C282.365 172.74 281.773 169.765 280.624 166.99C279.474 164.214 277.789 161.692 275.666 159.568C273.542 157.443 271.02 155.758 268.245 154.608C265.47 153.459 262.496 152.867 259.492 152.867C253.426 152.867 247.609 155.277 243.319 159.568C239.03 163.858 236.62 169.677 236.62 175.745C236.62 181.812 239.03 187.631 243.319 191.922C247.609 196.212 253.426 198.622 259.492 198.622Z" fill="#979797"/>
<path d="M186.873 56.7144H408.293C411.967 56.7144 415.491 58.1758 418.089 60.7771C420.687 63.3784 422.147 66.9065 422.147 70.5853V220.741H173.019V70.5853C173.019 66.9065 174.479 63.3784 177.077 60.7771C179.675 58.1758 183.199 56.7144 186.873 56.7144Z" fill="#040404"/>
<g clip-path="url(#clip0_361_568)">
<path d="M409.608 71.811H186.534C186.053 71.811 185.664 72.2012 185.664 72.6824V205.982C185.664 206.464 186.053 206.854 186.534 206.854H409.608C410.088 206.854 410.478 206.464 410.478 205.982V72.6824C410.478 72.2012 410.088 71.811 409.608 71.811Z" fill="white"/>
<path d="M447.543 71.6406H185.406V207.094H447.543V71.6406Z" fill="#333333"/>
<path d="M236.654 89.5259H185.406V207.095H236.654V89.5259Z" fill="#4D4D4D"/>
<path d="M446.816 71.9111H236.215V76.781H446.816V71.9111Z" fill="#646464"/>
<path d="M249.556 86.0762H243.168C242.773 86.0762 242.453 86.3964 242.453 86.7914V87.2001C242.453 87.5951 242.773 87.9154 243.168 87.9154H249.556C249.951 87.9154 250.271 87.5951 250.271 87.2001V86.7914C250.271 86.3964 249.951 86.0762 249.556 86.0762Z" fill="#AB37C8"/>
<path d="M260.938 86.0762H255.156C254.761 86.0762 254.44 86.3964 254.44 86.7914V87.2001C254.44 87.5951 254.761 87.9154 255.156 87.9154H260.938C261.333 87.9154 261.653 87.5951 261.653 87.2001V86.7914C261.653 86.3964 261.333 86.0762 260.938 86.0762Z" fill="#D4AA00"/>
<path d="M292.087 86.0762H267.252C266.857 86.0762 266.537 86.3964 266.537 86.7914V87.2001C266.537 87.5951 266.857 87.9154 267.252 87.9154H292.087C292.482 87.9154 292.802 87.5951 292.802 87.2001V86.7914C292.802 86.3964 292.482 86.0762 292.087 86.0762Z" fill="#D4AA00"/>
<path d="M305.583 86.0762H299.196C298.801 86.0762 298.481 86.3964 298.481 86.7914V87.2001C298.481 87.5951 298.801 87.9154 299.196 87.9154H305.583C305.979 87.9154 306.299 87.5951 306.299 87.2001V86.7914C306.299 86.3964 305.979 86.0762 305.583 86.0762Z" fill="#D4AA00"/>
<path d="M249.556 92.0308H243.168C242.773 92.0308 242.453 92.351 242.453 92.746V93.1547C242.453 93.5497 242.773 93.87 243.168 93.87H249.556C249.951 93.87 250.271 93.5497 250.271 93.1547V92.746C250.271 92.351 249.951 92.0308 249.556 92.0308Z" fill="#AB37C8"/>
<path d="M260.938 92.0308H255.156C254.761 92.0308 254.44 92.351 254.44 92.746V93.1547C254.44 93.5497 254.761 93.87 255.156 93.87H260.938C261.333 93.87 261.653 93.5497 261.653 93.1547V92.746C261.653 92.351 261.333 92.0308 260.938 92.0308Z" fill="#D4AA00"/>
<path d="M277.48 92.0308H267.252C266.857 92.0308 266.537 92.351 266.537 92.746V93.1547C266.537 93.5497 266.857 93.87 267.252 93.87H277.48C277.876 93.87 278.196 93.5497 278.196 93.1547V92.746C278.196 92.351 277.876 92.0308 277.48 92.0308Z" fill="#D4AA00"/>
<path d="M317.883 92.0308H303.295C302.9 92.0308 302.58 92.351 302.58 92.746V93.1547C302.58 93.5497 302.9 93.87 303.295 93.87H317.883C318.278 93.87 318.598 93.5497 318.598 93.1547V92.746C318.598 92.351 318.278 92.0308 317.883 92.0308Z" fill="#D4AA00"/>
<path d="M295.42 92.0308H282.885C282.49 92.0308 282.17 92.351 282.17 92.746V93.1547C282.17 93.5497 282.49 93.87 282.885 93.87H295.42C295.815 93.87 296.135 93.5497 296.135 93.1547V92.746C296.135 92.351 295.815 92.0308 295.42 92.0308Z" fill="#D4AA00"/>
<path d="M249.556 97.9858H243.168C242.773 97.9858 242.453 98.3061 242.453 98.7011V99.1098C242.453 99.5048 242.773 99.825 243.168 99.825H249.556C249.951 99.825 250.271 99.5048 250.271 99.1098V98.7011C250.271 98.3061 249.951 97.9858 249.556 97.9858Z" fill="#AB37C8"/>
<path d="M265.038 97.9858H255.156C254.761 97.9858 254.44 98.3061 254.44 98.7011V99.1098C254.44 99.5048 254.761 99.825 255.156 99.825H265.038C265.433 99.825 265.754 99.5048 265.754 99.1098V98.7011C265.754 98.3061 265.433 97.9858 265.038 97.9858Z" fill="#D4AA00"/>
<path d="M259.806 103.94H253.418C253.023 103.94 252.703 104.26 252.703 104.655V105.064C252.703 105.459 253.023 105.779 253.418 105.779H259.806C260.201 105.779 260.521 105.459 260.521 105.064V104.655C260.521 104.26 260.201 103.94 259.806 103.94Z" fill="#D4AA00"/>
<path d="M271.188 103.94H265.406C265.011 103.94 264.69 104.26 264.69 104.655V105.064C264.69 105.459 265.011 105.779 265.406 105.779H271.188C271.583 105.779 271.903 105.459 271.903 105.064V104.655C271.903 104.26 271.583 103.94 271.188 103.94Z" fill="#D4AA00"/>
<path d="M287.73 103.94H277.502C277.107 103.94 276.787 104.26 276.787 104.655V105.064C276.787 105.459 277.107 105.779 277.502 105.779H287.73C288.125 105.779 288.446 105.459 288.446 105.064V104.655C288.446 104.26 288.125 103.94 287.73 103.94Z" fill="#D4AA00"/>
<path d="M259.806 109.896H253.418C253.023 109.896 252.703 110.216 252.703 110.611V111.019C252.703 111.414 253.023 111.735 253.418 111.735H259.806C260.201 111.735 260.521 111.414 260.521 111.019V110.611C260.521 110.216 260.201 109.896 259.806 109.896Z" fill="#D4AA00"/>
<path d="M276.698 109.896H268.609C268.214 109.896 267.894 110.216 267.894 110.611V111.019C267.894 111.414 268.214 111.735 268.609 111.735H276.698C277.093 111.735 277.413 111.414 277.413 111.019V110.611C277.413 110.216 277.093 109.896 276.698 109.896Z" fill="#D4AA00"/>
<path d="M290.934 109.896H282.115C281.72 109.896 281.4 110.216 281.4 110.611V111.019C281.4 111.414 281.72 111.735 282.115 111.735H290.934C291.329 111.735 291.65 111.414 291.65 111.019V110.611C291.65 110.216 291.329 109.896 290.934 109.896Z" fill="#D4AA00"/>
<path d="M331.681 109.896H296.211C295.816 109.896 295.496 110.216 295.496 110.611V111.019C295.496 111.414 295.816 111.735 296.211 111.735H331.681C332.076 111.735 332.396 111.414 332.396 111.019V110.611C332.396 110.216 332.076 109.896 331.681 109.896Z" fill="#D4AA00"/>
<path d="M267.234 115.849H260.847C260.452 115.849 260.132 116.169 260.132 116.564V116.973C260.132 117.368 260.452 117.688 260.847 117.688H267.234C267.629 117.688 267.95 117.368 267.95 116.973V116.564C267.95 116.169 267.629 115.849 267.234 115.849Z" fill="#D4AA00"/>
<path d="M281.59 115.849H273.501C273.106 115.849 272.786 116.169 272.786 116.564V116.973C272.786 117.368 273.106 117.688 273.501 117.688H281.59C281.985 117.688 282.305 117.368 282.305 116.973V116.564C282.305 116.169 281.985 115.849 281.59 115.849Z" fill="#D4AA00"/>
<path d="M289.564 115.849H285.28C284.885 115.849 284.565 116.169 284.565 116.564V116.973C284.565 117.368 284.885 117.688 285.28 117.688H289.564C289.959 117.688 290.279 117.368 290.279 116.973V116.564C290.279 116.169 289.959 115.849 289.564 115.849Z" fill="#D4AA00"/>
<path d="M267.234 121.805H260.847C260.452 121.805 260.132 122.125 260.132 122.52V122.929C260.132 123.324 260.452 123.644 260.847 123.644H267.234C267.629 123.644 267.95 123.324 267.95 122.929V122.52C267.95 122.125 267.629 121.805 267.234 121.805Z" fill="#D4AA00"/>
<path d="M281.59 121.805H273.501C273.106 121.805 272.786 122.125 272.786 122.52V122.929C272.786 123.324 273.106 123.644 273.501 123.644H281.59C281.985 123.644 282.305 123.324 282.305 122.929V122.52C282.305 122.125 281.985 121.805 281.59 121.805Z" fill="#D4AA00"/>
<path d="M267.234 127.758H260.847C260.452 127.758 260.132 128.079 260.132 128.474V128.882C260.132 129.277 260.452 129.598 260.847 129.598H267.234C267.629 129.598 267.95 129.277 267.95 128.882V128.474C267.95 128.079 267.629 127.758 267.234 127.758Z" fill="#D4AA00"/>
<path d="M301.703 127.758H273.501C273.106 127.758 272.786 128.079 272.786 128.474V128.882C272.786 129.277 273.106 129.598 273.501 129.598H301.703C302.098 129.598 302.418 129.277 302.418 128.882V128.474C302.418 128.079 302.098 127.758 301.703 127.758Z" fill="#D4AA00"/>
<path d="M249.556 133.714H243.168C242.773 133.714 242.453 134.034 242.453 134.429V134.838C242.453 135.233 242.773 135.553 243.168 135.553H249.556C249.951 135.553 250.271 135.233 250.271 134.838V134.429C250.271 134.034 249.951 133.714 249.556 133.714Z" fill="#AB37C8"/>
<path d="M265.038 133.714H255.156C254.761 133.714 254.44 134.034 254.44 134.429V134.838C254.44 135.233 254.761 135.553 255.156 135.553H265.038C265.433 135.553 265.754 135.233 265.754 134.838V134.429C265.754 134.034 265.433 133.714 265.038 133.714Z" fill="#D4AA00"/>
<path d="M277.634 139.669H284.022C284.417 139.669 284.737 139.99 284.737 140.385V140.793C284.737 141.188 284.417 141.509 284.022 141.509H277.634C277.239 141.509 276.919 141.188 276.919 140.793V140.385C276.919 139.99 277.239 139.669 277.634 139.669Z" fill="#5AA02C"/>
<path d="M243.166 139.669H271.368C271.763 139.669 272.083 139.99 272.083 140.385V140.793C272.083 141.188 271.763 141.509 271.368 141.509H243.166C242.771 141.509 242.451 141.188 242.451 140.793V140.385C242.451 139.99 242.771 139.669 243.166 139.669Z" fill="#5AA02C"/>
<path d="M281.734 145.623H288.122C288.517 145.623 288.837 145.943 288.837 146.338V146.747C288.837 147.142 288.517 147.462 288.122 147.462H281.734C281.339 147.462 281.019 147.142 281.019 146.747V146.338C281.019 145.943 281.339 145.623 281.734 145.623Z" fill="#5AA02C"/>
<path d="M243.166 145.623H258.043C258.438 145.623 258.758 145.943 258.758 146.338V146.747C258.758 147.142 258.438 147.462 258.043 147.462H243.166C242.771 147.462 242.451 147.142 242.451 146.747V146.338C242.451 145.943 242.771 145.623 243.166 145.623Z" fill="#5AA02C"/>
<path d="M262.642 145.623H277.519C277.914 145.623 278.234 145.943 278.234 146.338V146.747C278.234 147.142 277.914 147.462 277.519 147.462H262.642C262.247 147.462 261.927 147.142 261.927 146.747V146.338C261.927 145.943 262.247 145.623 262.642 145.623Z" fill="#5AA02C"/>
<path d="M249.556 151.577H243.168C242.773 151.577 242.453 151.897 242.453 152.292V152.701C242.453 153.096 242.773 153.416 243.168 153.416H249.556C249.951 153.416 250.271 153.096 250.271 152.701V152.292C250.271 151.897 249.951 151.577 249.556 151.577Z" fill="#AB37C8"/>
<path d="M265.038 151.577H255.156C254.761 151.577 254.44 151.897 254.44 152.292V152.701C254.44 153.096 254.761 153.416 255.156 153.416H265.038C265.433 153.416 265.754 153.096 265.754 152.701V152.292C265.754 151.897 265.433 151.577 265.038 151.577Z" fill="#D4AA00"/>
<path d="M262.621 157.533H256.234C255.839 157.533 255.519 157.853 255.519 158.248V158.657C255.519 159.052 255.839 159.372 256.234 159.372H262.621C263.016 159.372 263.336 159.052 263.336 158.657V158.248C263.336 157.853 263.016 157.533 262.621 157.533Z" fill="#D4AA00"/>
<path d="M276.976 157.533H268.888C268.493 157.533 268.172 157.853 268.172 158.248V158.657C268.172 159.052 268.493 159.372 268.888 159.372H276.976C277.371 159.372 277.692 159.052 277.692 158.657V158.248C277.692 157.853 277.371 157.533 276.976 157.533Z" fill="#D4AA00"/>
<path d="M284.95 157.533H280.667C280.272 157.533 279.952 157.853 279.952 158.248V158.657C279.952 159.052 280.272 159.372 280.667 159.372H284.95C285.345 159.372 285.666 159.052 285.666 158.657V158.248C285.666 157.853 285.345 157.533 284.95 157.533Z" fill="#D4AA00"/>
<path d="M249.555 163.488H243.168C242.773 163.488 242.453 163.808 242.453 164.203V164.612C242.453 165.007 242.773 165.327 243.168 165.327H249.555C249.95 165.327 250.27 165.007 250.27 164.612V164.203C250.27 163.808 249.95 163.488 249.555 163.488Z" fill="#AB37C8"/>
<path d="M221.462 97.2578H189.531C189.197 97.2578 188.927 97.5283 188.927 97.8619V98.2071C188.927 98.5407 189.197 98.8112 189.531 98.8112H221.462C221.796 98.8112 222.067 98.5407 222.067 98.2071V97.8619C222.067 97.5283 221.796 97.2578 221.462 97.2578Z" fill="#CCCCCC"/>
<path d="M221.462 103.477H189.531C189.197 103.477 188.927 103.747 188.927 104.081V104.426C188.927 104.76 189.197 105.03 189.531 105.03H221.462C221.796 105.03 222.067 104.76 222.067 104.426V104.081C222.067 103.747 221.796 103.477 221.462 103.477Z" fill="#CCCCCC"/>
<path d="M221.462 109.696H189.531C189.197 109.696 188.927 109.966 188.927 110.3V110.645C188.927 110.979 189.197 111.249 189.531 111.249H221.462C221.796 111.249 222.067 110.979 222.067 110.645V110.3C222.067 109.966 221.796 109.696 221.462 109.696Z" fill="#CCCCCC"/>
<path d="M221.462 115.915H189.531C189.197 115.915 188.927 116.185 188.927 116.519V116.864C188.927 117.197 189.197 117.468 189.531 117.468H221.462C221.796 117.468 222.067 117.197 222.067 116.864V116.519C222.067 116.185 221.796 115.915 221.462 115.915Z" fill="#CCCCCC"/>
<path d="M221.462 122.134H189.531C189.197 122.134 188.927 122.404 188.927 122.738V123.083C188.927 123.417 189.197 123.687 189.531 123.687H221.462C221.796 123.687 222.067 123.417 222.067 123.083V122.738C222.067 122.404 221.796 122.134 221.462 122.134Z" fill="#CCCCCC"/>
<path d="M221.462 128.353H189.531C189.197 128.353 188.927 128.623 188.927 128.957V129.302C188.927 129.636 189.197 129.906 189.531 129.906H221.462C221.796 129.906 222.067 129.636 222.067 129.302V128.957C222.067 128.623 221.796 128.353 221.462 128.353Z" fill="#CCCCCC"/>
<path d="M221.462 134.571H189.531C189.197 134.571 188.927 134.842 188.927 135.175V135.521C188.927 135.854 189.197 136.125 189.531 136.125H221.462C221.796 136.125 222.067 135.854 222.067 135.521V135.175C222.067 134.842 221.796 134.571 221.462 134.571Z" fill="#CCCCCC"/>
<path d="M221.462 140.791H189.531C189.197 140.791 188.927 141.061 188.927 141.395V141.74C188.927 142.073 189.197 142.344 189.531 142.344H221.462C221.796 142.344 222.067 142.073 222.067 141.74V141.395C222.067 141.061 221.796 140.791 221.462 140.791Z" fill="#CCCCCC"/>
<path d="M221.462 147.009H189.531C189.197 147.009 188.927 147.28 188.927 147.613V147.959C188.927 148.292 189.197 148.563 189.531 148.563H221.462C221.796 148.563 222.067 148.292 222.067 147.959V147.613C222.067 147.28 221.796 147.009 221.462 147.009Z" fill="#CCCCCC"/>
<path d="M221.462 153.229H189.531C189.197 153.229 188.927 153.499 188.927 153.833V154.178C188.927 154.511 189.197 154.782 189.531 154.782H221.462C221.796 154.782 222.067 154.511 222.067 154.178V153.833C222.067 153.499 221.796 153.229 221.462 153.229Z" fill="#CCCCCC"/>
<path d="M221.462 159.449H189.531C189.197 159.449 188.927 159.719 188.927 160.053V160.398C188.927 160.732 189.197 161.002 189.531 161.002H221.462C221.796 161.002 222.067 160.732 222.067 160.398V160.053C222.067 159.719 221.796 159.449 221.462 159.449Z" fill="#CCCCCC"/>
<path d="M221.462 165.668H189.531C189.197 165.668 188.927 165.938 188.927 166.272V166.617C188.927 166.951 189.197 167.221 189.531 167.221H221.462C221.796 167.221 222.067 166.951 222.067 166.617V166.272C222.067 165.938 221.796 165.668 221.462 165.668Z" fill="#CCCCCC"/>
<path d="M221.462 171.887H189.531C189.197 171.887 188.927 172.157 188.927 172.491V172.836C188.927 173.17 189.197 173.44 189.531 173.44H221.462C221.796 173.44 222.067 173.17 222.067 172.836V172.491C222.067 172.157 221.796 171.887 221.462 171.887Z" fill="#CCCCCC"/>
<path d="M221.462 178.105H189.531C189.197 178.105 188.927 178.376 188.927 178.71V179.055C188.927 179.388 189.197 179.659 189.531 179.659H221.462C221.796 179.659 222.067 179.388 222.067 179.055V178.71C222.067 178.376 221.796 178.105 221.462 178.105Z" fill="#CCCCCC"/>
<path d="M221.462 184.324H189.531C189.197 184.324 188.927 184.595 188.927 184.928V185.273C188.927 185.607 189.197 185.878 189.531 185.878H221.462C221.796 185.878 222.067 185.607 222.067 185.273V184.928C222.067 184.595 221.796 184.324 221.462 184.324Z" fill="#CCCCCC"/>
<path d="M221.462 190.543H189.531C189.197 190.543 188.927 190.814 188.927 191.148V191.493C188.927 191.826 189.197 192.097 189.531 192.097H221.462C221.796 192.097 222.067 191.826 222.067 191.493V191.148C222.067 190.814 221.796 190.543 221.462 190.543Z" fill="#CCCCCC"/>
<path d="M249.556 173.326H243.168C242.773 173.326 242.453 173.646 242.453 174.041V174.45C242.453 174.845 242.773 175.165 243.168 175.165H249.556C249.951 175.165 250.271 174.845 250.271 174.45V174.041C250.271 173.646 249.951 173.326 249.556 173.326Z" fill="#AB37C8"/>
<path d="M265.038 173.326H255.156C254.761 173.326 254.44 173.646 254.44 174.041V174.45C254.44 174.845 254.761 175.165 255.156 175.165H265.038C265.433 175.165 265.754 174.845 265.754 174.45V174.041C265.754 173.646 265.433 173.326 265.038 173.326Z" fill="#D4AA00"/>
<path d="M259.806 179.28H253.418C253.023 179.28 252.703 179.6 252.703 179.995V180.404C252.703 180.799 253.023 181.119 253.418 181.119H259.806C260.201 181.119 260.521 180.799 260.521 180.404V179.995C260.521 179.6 260.201 179.28 259.806 179.28Z" fill="#D4AA00"/>
<path d="M271.188 179.28H265.406C265.011 179.28 264.69 179.6 264.69 179.995V180.404C264.69 180.799 265.011 181.119 265.406 181.119H271.188C271.583 181.119 271.903 180.799 271.903 180.404V179.995C271.903 179.6 271.583 179.28 271.188 179.28Z" fill="#D4AA00"/>
<path d="M287.73 179.28H277.502C277.107 179.28 276.787 179.6 276.787 179.995V180.404C276.787 180.799 277.107 181.119 277.502 181.119H287.73C288.125 181.119 288.446 180.799 288.446 180.404V179.995C288.446 179.6 288.125 179.28 287.73 179.28Z" fill="#D4AA00"/>
<path d="M259.806 185.235H253.418C253.023 185.235 252.703 185.556 252.703 185.951V186.359C252.703 186.754 253.023 187.075 253.418 187.075H259.806C260.201 187.075 260.521 186.754 260.521 186.359V185.951C260.521 185.556 260.201 185.235 259.806 185.235Z" fill="#D4AA00"/>
<path d="M276.698 185.235H268.609C268.214 185.235 267.894 185.556 267.894 185.951V186.359C267.894 186.754 268.214 187.075 268.609 187.075H276.698C277.093 187.075 277.413 186.754 277.413 186.359V185.951C277.413 185.556 277.093 185.235 276.698 185.235Z" fill="#D4AA00"/>
<path d="M290.934 185.235H282.115C281.72 185.235 281.4 185.556 281.4 185.951V186.359C281.4 186.754 281.72 187.075 282.115 187.075H290.934C291.329 187.075 291.65 186.754 291.65 186.359V185.951C291.65 185.556 291.329 185.235 290.934 185.235Z" fill="#D4AA00"/>
<path d="M331.681 185.235H296.211C295.816 185.235 295.496 185.556 295.496 185.951V186.359C295.496 186.754 295.816 187.075 296.211 187.075H331.681C332.076 187.075 332.396 186.754 332.396 186.359V185.951C332.396 185.556 332.076 185.235 331.681 185.235Z" fill="#D4AA00"/>
<path d="M249.556 192.545H243.168C242.773 192.545 242.453 192.866 242.453 193.261V193.669C242.453 194.064 242.773 194.385 243.168 194.385H249.556C249.951 194.385 250.271 194.064 250.271 193.669V193.261C250.271 192.866 249.951 192.545 249.556 192.545Z" fill="#AB37C8"/>
<path d="M265.038 192.545H255.156C254.761 192.545 254.44 192.866 254.44 193.261V193.669C254.44 194.064 254.761 194.385 255.156 194.385H265.038C265.433 194.385 265.754 194.064 265.754 193.669V193.261C265.754 192.866 265.433 192.545 265.038 192.545Z" fill="#D4AA00"/>
<path d="M281.734 200.463H288.122C288.517 200.463 288.837 200.783 288.837 201.178V201.587C288.837 201.982 288.517 202.302 288.122 202.302H281.734C281.339 202.302 281.019 201.982 281.019 201.587V201.178C281.019 200.783 281.339 200.463 281.734 200.463Z" fill="#5AA02C"/>
<path d="M243.166 200.463H258.043C258.438 200.463 258.758 200.783 258.758 201.178V201.587C258.758 201.982 258.438 202.302 258.043 202.302H243.166C242.771 202.302 242.451 201.982 242.451 201.587V201.178C242.451 200.783 242.771 200.463 243.166 200.463Z" fill="#5AA02C"/>
<path d="M262.642 200.463H277.519C277.914 200.463 278.234 200.783 278.234 201.178V201.587C278.234 201.982 277.914 202.302 277.519 202.302H262.642C262.247 202.302 261.927 201.982 261.927 201.587V201.178C261.927 200.783 262.247 200.463 262.642 200.463Z" fill="#5AA02C"/>
<path d="M233.417 89.0768H236.654V207.095H233.417V89.0768ZM185.406 71.9111H236.654V89.551H185.406V71.9111Z" fill="#646464"/>
<path d="M219.996 78.6968H190.536C189.854 78.6968 189.301 79.2498 189.301 79.9319V80.6375C189.301 81.3196 189.854 81.8726 190.536 81.8726H219.996C220.678 81.8726 221.231 81.3196 221.231 80.6375V79.9319C221.231 79.2498 220.678 78.6968 219.996 78.6968Z" fill="#CCCCCC"/>
<path d="M236.654 120.167V114.302C236.654 113.607 236.091 113.043 235.396 113.043H234.676C233.981 113.043 233.418 113.607 233.418 114.302V120.167C233.418 120.863 233.981 121.426 234.676 121.426H235.396C236.091 121.426 236.654 120.863 236.654 120.167Z" fill="#9A9A9A"/>
</g>
<path d="M449.17 228.8C449.17 231.311 439.273 234.955 437.426 234.955H157.286C155.439 234.955 145.542 231.307 145.542 228.8H449.17Z" fill="#919296"/>
<path d="M142.188 220.689H451.277V222.756C451.277 225.148 450.328 227.443 448.638 229.134C446.948 230.826 444.656 231.777 442.267 231.777H150.977C149.823 231.777 148.68 231.549 147.614 231.107C146.547 230.665 145.578 230.016 144.762 229.199C143.946 228.382 143.298 227.412 142.857 226.344C142.415 225.276 142.188 224.132 142.188 222.976V220.689Z" fill="url(#paint0_linear_361_568)"/>
<path d="M441.766 233.46C441.766 234.545 432.342 236.118 430.586 236.118H163.847C162.09 236.118 152.667 234.541 152.667 233.46H441.766Z" fill="#464142"/>
<path d="M316.693 221.438C316.672 222.612 316.2 223.733 315.374 224.567C314.549 225.402 313.434 225.885 312.262 225.918H277.725C275.228 225.918 273.692 223.678 273.692 221.442L316.693 221.438Z" fill="url(#paint1_linear_361_568)"/>
<path d="M252.521 235.309C253.36 234.659 255.719 234.674 256.321 235.333C255.078 235.689 253.759 235.68 252.521 235.309Z" fill="#1D1E21"/>
<path d="M336.304 235.483C337.143 234.833 339.502 234.848 340.105 235.507C338.862 235.863 337.543 235.854 336.304 235.483V235.483Z" fill="#1D1E21"/>
<path d="M163.737 235.183C164.576 234.533 166.935 234.548 167.537 235.207C166.294 235.563 164.975 235.554 163.737 235.183V235.183Z" fill="#1D1E21"/>
<path d="M423.77 235.401C424.608 234.75 426.967 234.766 427.57 235.424C426.327 235.78 425.008 235.772 423.77 235.401Z" fill="#1D1E21"/>
<path d="M420.894 226.955C420.697 227.045 420.487 227.108 420.272 227.14H411.215C411.103 227.151 410.991 227.139 410.884 227.104C410.778 227.069 410.68 227.013 410.596 226.939C414.026 226.856 417.464 226.833 420.894 226.955V226.955Z" fill="#0D0F12"/>
<path d="M410.419 227.621C410.025 227.136 409.674 226.659 410.584 226.344C412.876 226.549 415.172 226.403 417.464 226.427C418.607 226.499 419.754 226.478 420.894 226.363C421.8 226.809 421.39 227.239 420.894 227.665C420.284 227.925 419.642 227.779 419.02 227.783C416.515 227.803 414.006 227.783 411.498 227.783C411.132 227.775 410.738 227.941 410.419 227.621Z" fill="#1C1E20"/>
<path d="M410.419 227.621L420.887 227.653C420.884 227.715 420.878 227.777 420.867 227.838C417.407 227.856 413.946 227.868 410.486 227.873C410.459 227.873 410.407 227.838 410.407 227.818C410.406 227.752 410.41 227.686 410.419 227.621V227.621Z" fill="#DCDDE0"/>
<path d="M420.894 226.363C420.697 226.454 420.487 226.516 420.272 226.548H411.215C411.103 226.559 410.991 226.547 410.884 226.512C410.778 226.478 410.68 226.422 410.596 226.347C414.026 226.257 417.464 226.233 420.894 226.363V226.363Z" fill="#0D0F12"/>
<path d="M420.894 226.363C420.697 226.454 420.487 226.516 420.272 226.548H411.215C411.103 226.559 410.991 226.547 410.884 226.512C410.778 226.478 410.68 226.422 410.596 226.347C414.026 226.257 417.464 226.233 420.894 226.363V226.363Z" fill="#0D0F12"/>
<path d="M410.419 227.621C410.025 227.136 409.674 226.659 410.584 226.344C412.876 226.549 415.172 226.403 417.464 226.427C418.607 226.499 419.754 226.478 420.894 226.363C421.8 226.809 421.39 227.239 420.894 227.665C420.284 227.925 419.642 227.779 419.02 227.783C416.515 227.803 414.006 227.783 411.498 227.783C411.132 227.775 410.738 227.941 410.419 227.621Z" fill="#1C1E20"/>
<path d="M410.419 227.621L420.887 227.653C420.884 227.715 420.878 227.777 420.867 227.838C417.407 227.856 413.946 227.868 410.486 227.873C410.459 227.873 410.407 227.838 410.407 227.818C410.406 227.752 410.41 227.686 410.419 227.621V227.621Z" fill="#CECECE"/>
<path d="M420.894 226.363C420.697 226.454 420.487 226.516 420.272 226.548H411.215C411.103 226.559 410.991 226.547 410.884 226.512C410.778 226.478 410.68 226.422 410.596 226.347C414.026 226.257 417.464 226.233 420.894 226.363V226.363Z" fill="#0D0F12"/>
<path d="M235.099 99.9321H123.544C115.893 99.9321 109.69 106.142 109.69 113.803V267.129C109.69 274.789 115.893 281 123.544 281H235.099C242.75 281 248.953 274.789 248.953 267.129V113.803C248.953 106.142 242.75 99.9321 235.099 99.9321Z" fill="#040404"/>
<path d="M234.524 116.599H124.115C123.635 116.599 123.245 116.989 123.245 117.47V264.803C123.245 265.284 123.635 265.674 124.115 265.674H234.524C235.005 265.674 235.394 265.284 235.394 264.803V117.47C235.394 116.989 235.005 116.599 234.524 116.599Z" fill="white"/>
<path d="M179.32 110.12C179.835 110.12 180.253 109.702 180.253 109.186C180.253 108.67 179.835 108.251 179.32 108.251C178.804 108.251 178.386 108.67 178.386 109.186C178.386 109.702 178.804 110.12 179.32 110.12Z" fill="#4D4D4D"/>
<path d="M182.426 276.296C183.982 274.578 183.852 271.922 182.136 270.364C180.42 268.806 177.768 268.936 176.212 270.654C174.656 272.372 174.786 275.028 176.502 276.586C178.217 278.144 180.87 278.014 182.426 276.296Z" fill="url(#paint2_radial_361_568)" stroke="url(#paint3_radial_361_568)" stroke-miterlimit="10"/>
<path d="M235.394 128.127H123.245V137.492H235.394V128.127Z" fill="#86328C"/>
<path d="M229.006 142.834H129.514V187.641H229.006V142.834Z" fill="#86328C"/>
<path d="M214.656 162.008H142.117V169.642H214.656V162.008Z" fill="#F7F7F7"/>
<path d="M214.652 162.008H199.203V169.728H214.652V162.008Z" fill="#EC008C"/>
<path d="M193.225 191.599H165.075V209.492H193.225V191.599Z" fill="#0083CA"/>
<path d="M228.9 191.69H200.75V209.583H228.9V191.69Z" fill="#0083CA"/>
<path d="M157.751 191.69H129.601V209.583H157.751V191.69Z" fill="#0083CA"/>
<path d="M193.225 213.005H165.075V214.649H193.225V213.005Z" fill="#999999"/>
<path d="M193.225 216.645H165.075V218.289H193.225V216.645Z" fill="#999999"/>
<path d="M193.225 220.288H165.075V221.932H193.225V220.288Z" fill="#999999"/>
<path d="M193.225 223.927H165.075V225.571H193.225V223.927Z" fill="#999999"/>
<path d="M193.225 227.57H165.075V229.214H193.225V227.57Z" fill="#999999"/>
<path d="M228.9 212.958H200.75V214.602H228.9V212.958Z" fill="#999999"/>
<path d="M228.9 216.601H200.75V218.245H228.9V216.601Z" fill="#999999"/>
<path d="M228.9 220.24H200.75V221.884H228.9V220.24Z" fill="#999999"/>
<path d="M228.9 223.884H200.75V225.528H228.9V223.884Z" fill="#999999"/>
<path d="M228.9 227.522H200.75V229.167H228.9V227.522Z" fill="#999999"/>
<path d="M157.751 212.958H129.601V214.602H157.751V212.958Z" fill="#999999"/>
<path d="M157.751 216.601H129.601V218.245H157.751V216.601Z" fill="#999999"/>
<path d="M157.751 220.24H129.601V221.884H157.751V220.24Z" fill="#999999"/>
<path d="M157.751 223.884H129.601V225.528H157.751V223.884Z" fill="#999999"/>
<path d="M157.751 227.522H129.601V229.167H157.751V227.522Z" fill="#999999"/>
<path d="M229.006 232.794H129.707V255.478H229.006V232.794Z" fill="#ED1164"/>
<path d="M229.006 258.569H129.707V260.205H229.006V258.569Z" fill="#999999"/>
<path d="M229.006 262.212H129.707V263.888H229.006V262.212Z" fill="#999999"/>
<path d="M132.165 120.522H126.864V121.125H132.165V120.522Z" fill="#666666"/>
<path d="M132.165 122.245H126.864V122.848H132.165V122.245Z" fill="#666666"/>
<path d="M132.165 123.972H126.864V124.575H132.165V123.972Z" fill="#666666"/>
<path d="M124.261 160.051H85.6875C81.2223 160.051 77.6025 163.675 77.6025 168.145V255.164C77.6025 259.635 81.2223 263.259 85.6875 263.259H124.261C128.726 263.259 132.346 259.635 132.346 255.164V168.145C132.346 163.675 128.726 160.051 124.261 160.051Z" fill="#040404"/>
<path d="M105.366 259.663C107.13 259.663 108.56 258.099 108.56 256.17C108.56 254.24 107.13 252.676 105.366 252.676C103.602 252.676 102.172 254.24 102.172 256.17C102.172 258.099 103.602 259.663 105.366 259.663Z" fill="url(#paint4_linear_361_568)" stroke="#0C0C0C" stroke-miterlimit="10"/>
<path opacity="0.55" d="M104.736 255.315H105.819C105.924 255.315 106.024 255.356 106.098 255.43C106.171 255.504 106.213 255.604 106.213 255.709V256.62C106.213 256.795 106.143 256.964 106.019 257.088C105.895 257.212 105.727 257.282 105.551 257.282H104.728C104.624 257.282 104.524 257.241 104.45 257.167C104.376 257.093 104.334 256.992 104.334 256.888V255.705C104.335 255.653 104.346 255.601 104.366 255.553C104.387 255.505 104.417 255.462 104.454 255.426C104.491 255.39 104.535 255.361 104.584 255.342C104.632 255.323 104.684 255.313 104.736 255.315V255.315Z" stroke="#424242" stroke-miterlimit="10"/>
<path d="M99.2225 168.185C99.4096 168.185 99.5612 167.955 99.5612 167.672C99.5612 167.389 99.4096 167.16 99.2225 167.16C99.0355 167.16 98.8838 167.389 98.8838 167.672C98.8838 167.955 99.0355 168.185 99.2225 168.185Z" fill="#4D4D4D"/>
<path d="M108.701 167.318H102.444C102.187 167.318 101.979 167.526 101.979 167.783C101.979 168.04 102.187 168.248 102.444 168.248H108.701C108.958 168.248 109.166 168.04 109.166 167.783C109.166 167.526 108.958 167.318 108.701 167.318Z" fill="#191918"/>
<path d="M99.5141 169.198H94.1386C93.945 169.198 93.7881 169.354 93.7881 169.547C93.7881 169.74 93.945 169.896 94.1386 169.896H99.5141C99.7076 169.896 99.8645 169.74 99.8645 169.547C99.8645 169.354 99.7076 169.198 99.5141 169.198Z" fill="#423F43"/>
<path d="M126.821 173.654H83.6711C83.1905 173.654 82.8008 174.044 82.8008 174.525V246.395C82.8008 246.877 83.1905 247.267 83.6711 247.267H126.821C127.302 247.267 127.691 246.877 127.691 246.395V174.525C127.691 174.044 127.302 173.654 126.821 173.654Z" fill="white"/>
<path d="M127.691 179.016H82.8008V183.621H127.691V179.016Z" fill="#86328C"/>
<path d="M127.731 186.247H82.8403V208.28H127.731V186.247Z" fill="#86328C"/>
<path d="M120.024 194.492H87.5264V199.247H120.024V194.492Z" fill="#F7F7F7"/>
<path d="M110.804 210.228H99.5376V219.028H110.804V210.228Z" fill="#0083CA"/>
<path d="M125.1 210.271H113.833V219.071H125.1V210.271Z" fill="#0083CA"/>
<path d="M96.6272 210.271H85.3604V219.071H96.6272V210.271Z" fill="#0083CA"/>
<path d="M110.804 220.755H99.5376V221.563H110.804V220.755Z" fill="#999999"/>
<path d="M110.804 222.545H99.5376V223.353H110.804V222.545Z" fill="#999999"/>
<path d="M110.804 224.335H99.5376V225.143H110.804V224.335Z" fill="#999999"/>
<path d="M110.804 226.125H99.5376V226.933H110.804V226.125Z" fill="#999999"/>
<path d="M110.804 227.915H99.5376V228.723H110.804V227.915Z" fill="#999999"/>
<path d="M125.1 220.731H113.833V221.54H125.1V220.731Z" fill="#999999"/>
<path d="M125.1 222.521H113.833V223.33H125.1V222.521Z" fill="#999999"/>
<path d="M125.1 224.312H113.833V225.12H125.1V224.312Z" fill="#999999"/>
<path d="M125.1 226.102H113.833V226.91H125.1V226.102Z" fill="#999999"/>
<path d="M125.1 227.896H113.833V228.704H125.1V227.896Z" fill="#999999"/>
<path d="M96.6272 220.731H85.3604V221.54H96.6272V220.731Z" fill="#999999"/>
<path d="M96.6272 222.521H85.3604V223.33H96.6272V222.521Z" fill="#999999"/>
<path d="M96.6272 224.312H85.3604V225.12H96.6272V224.312Z" fill="#999999"/>
<path d="M96.6272 226.102H85.3604V226.91H96.6272V226.102Z" fill="#999999"/>
<path d="M96.6272 227.896H85.3604V228.704H96.6272V227.896Z" fill="#999999"/>
<path d="M125.147 230.486H85.3999V241.641H125.147V230.486Z" fill="#ED1164"/>
<path d="M125.147 243.158H85.3999V243.963H125.147V243.158Z" fill="#999999"/>
<path d="M125.147 244.952H85.3999V245.776H125.147V244.952Z" fill="#999999"/>
<path d="M86.3804 175.274H84.2578V175.57H86.3804V175.274Z" fill="#666666"/>
<path d="M86.3804 176.122H84.2578V176.418H86.3804V176.122Z" fill="#666666"/>
<path d="M86.3804 176.969H84.2578V177.265H86.3804V176.969Z" fill="#666666"/>
<path d="M120.091 194.492H113.833V199.337H120.091V194.492Z" fill="#EC008C"/>
<defs>
<linearGradient id="paint0_linear_361_568" x1="142.188" y1="226.233" x2="451.297" y2="226.233" gradientUnits="userSpaceOnUse">
<stop stop-color="#606162"/>
<stop offset="0.12" stop-color="#B7BABB"/>
<stop offset="0.36" stop-color="#A2A5A6"/>
<stop offset="0.51" stop-color="#C9CCCD"/>
<stop offset="0.73" stop-color="#848687"/>
<stop offset="0.88" stop-color="#9C9FA0"/>
<stop offset="1" stop-color="#4C4D4E"/>
</linearGradient>
<linearGradient id="paint1_linear_361_568" x1="295.19" y1="221.438" x2="295.19" y2="225.918" gradientUnits="userSpaceOnUse">
<stop stop-color="#9C9FA0"/>
<stop offset="0.24" stop-color="#A2A5A6"/>
<stop offset="1" stop-color="#4C4D4E"/>
</linearGradient>
<radialGradient id="paint2_radial_361_568" cx="0" cy="0" r="1" gradientUnits="userSpaceOnUse" gradientTransform="translate(179.317 273.473) scale(4.19407 2.5195)">
<stop stop-color="#2A2A2A"/>
<stop offset="1" stop-color="#090909"/>
</radialGradient>
<radialGradient id="paint3_radial_361_568" cx="0" cy="0" r="1" gradientUnits="userSpaceOnUse" gradientTransform="translate(179.315 273.475) scale(4.39097 4.39631)">
<stop offset="0.13" stop-color="#464646"/>
<stop offset="0.37" stop-color="#2B2B2B"/>
<stop offset="1" stop-color="#090909"/>
</radialGradient>
<linearGradient id="paint4_linear_361_568" x1="103.673" y1="259.135" x2="107.105" y2="253.208" gradientUnits="userSpaceOnUse">
<stop stop-color="#0A0A0A"/>
<stop offset="0.57" stop-color="#1B1B1B"/>
<stop offset="1" stop-color="#090909"/>
</linearGradient>
<clipPath id="clip0_361_568">
<rect width="224.814" height="135.043" fill="white" transform="translate(185.664 71.811)"/>
</clipPath>
</defs>
</svg>
