<svg width="518" height="336" viewBox="0 0 518 336" fill="none" xmlns="http://www.w3.org/2000/svg">
<rect width="518" height="336" rx="12" fill="#BFBFBF"/>
<path fill-rule="evenodd" clip-rule="evenodd" d="M213.748 129.989C209.704 129.989 205.826 131.596 202.966 134.456C200.106 137.317 198.5 141.196 198.5 145.241V206.248C198.5 210.293 200.106 214.173 202.966 217.033C205.826 219.893 209.704 221.5 213.748 221.5H305.237C309.281 221.5 313.159 219.893 316.019 217.033C318.878 214.173 320.485 210.293 320.485 206.248V145.241C320.485 141.196 318.878 137.317 316.019 134.456C313.159 131.596 309.281 129.989 305.237 129.989H293.145C291.123 129.989 289.184 129.185 287.755 127.755L279.208 119.206C276.349 116.346 272.472 114.738 268.428 114.737H250.557C246.513 114.738 242.636 116.346 239.777 119.206L231.23 127.755C229.801 129.185 227.862 129.989 225.84 129.989H213.748ZM259.492 198.622C262.496 198.622 265.47 198.03 268.245 196.881C271.02 195.731 273.542 194.046 275.666 191.922C277.789 189.797 279.474 187.275 280.624 184.499C281.773 181.724 282.365 178.749 282.365 175.745C282.365 172.74 281.773 169.765 280.624 166.99C279.474 164.214 277.789 161.692 275.666 159.568C273.542 157.443 271.02 155.758 268.245 154.608C265.47 153.459 262.496 152.867 259.492 152.867C253.426 152.867 247.609 155.277 243.319 159.568C239.03 163.858 236.62 169.677 236.62 175.745C236.62 181.812 239.03 187.631 243.319 191.922C247.609 196.212 253.426 198.622 259.492 198.622Z" fill="#979797"/>
</svg>
