<svg width="124" height="74" viewBox="0 0 124 74" fill="none" xmlns="http://www.w3.org/2000/svg">
<path d="M47.972 58.6855C47.7352 58.6637 47.5024 58.6093 47.2803 58.5239C46.6898 58.3708 46.4367 57.6053 46.4367 56.202C46.4369 55.2819 46.5474 54.3652 46.7657 53.4718C47.4242 50.7811 48.5679 48.2353 50.1399 45.9618V45.9023C50.8822 44.7881 51.5739 44.2012 52.215 44.2012C52.5526 44.2126 52.8765 44.3385 53.1344 44.5584C53.3537 44.7285 53.4634 44.8816 53.4634 45.0092C53.3199 45.399 53.121 45.7657 52.8729 46.0979C52.8048 46.1648 52.7479 46.2423 52.7042 46.3275C51.2054 48.4905 49.9679 50.8261 49.018 53.2847C48.6064 54.3521 48.2764 55.4496 48.031 56.5677V56.6613C47.9868 56.7751 47.9639 56.8962 47.9635 57.0185C47.9679 57.163 48.0024 57.305 48.0648 57.4352C48.2978 57.2718 48.5078 57.0772 48.689 56.8569L48.7902 56.7888C50.0049 55.4961 51.1746 54.1437 52.2993 52.7319C54.1273 50.5232 56.0731 48.4165 58.1282 46.4211C58.3897 46.1404 58.6005 46.0043 58.7524 46.0043C58.9939 46.0885 59.2172 46.2184 59.4103 46.3871C59.8272 46.706 60.1554 47.1278 60.3635 47.6118V47.6798C60.6712 48.4579 61.2102 49.1208 61.9064 49.5776C62.6027 50.0345 63.4221 50.2628 64.2522 50.2314C66.9591 49.9573 69.5809 49.1235 71.9537 47.7819L73.1347 47.2376L75.0748 46.353C75.2404 46.2447 75.4342 46.1885 75.6316 46.1914C75.8256 46.1914 75.9268 46.268 75.9268 46.4126C75.9251 46.4386 75.9183 46.4641 75.9067 46.4875C75.8951 46.5109 75.879 46.5317 75.8593 46.5487C75.7923 46.6057 75.715 46.649 75.6316 46.6762C75.4982 46.7774 75.3539 46.863 75.2014 46.9314C73.9698 47.5778 72.3924 48.3347 70.4607 49.2193C68.9419 49.9976 67.3106 50.5286 65.6272 50.7927C65.2568 50.8586 64.8815 50.8927 64.5053 50.8948C63.5069 50.9097 62.5207 50.6723 61.6367 50.2044C60.7526 49.7364 59.9988 49.0527 59.4441 48.2157C59.272 48.0055 59.1378 47.7666 59.0476 47.5097C58.938 47.2716 58.8536 47.144 58.7861 47.127C58.7186 47.11 58.5921 47.2035 58.4571 47.3481L58.0944 47.7054C55.7663 50.1718 53.798 52.4399 52.1897 54.5095C50.6713 56.3126 49.794 57.3332 49.5578 57.5713C49.3124 57.8034 49.0813 58.0505 48.8661 58.3113C48.7535 58.436 48.615 58.5343 48.4605 58.599C48.3059 58.6636 48.1391 58.6932 47.972 58.6855Z" fill="#464545"/>
<path d="M81.5785 54.4329C81.0284 54.4026 80.4842 54.3026 79.9589 54.1352C79.5296 53.9773 79.1357 53.7351 78.7997 53.4227C78.4638 53.1103 78.1927 52.7338 78.0019 52.3151C77.6554 51.6389 77.4705 50.8904 77.462 50.1293V50.0273C77.4572 49.8498 77.423 49.6745 77.3608 49.5084C77.0073 49.8928 76.6267 50.251 76.222 50.5801C76.0367 50.8103 75.8061 50.9994 75.5448 51.1355C75.2835 51.2716 74.9972 51.3518 74.7037 51.3711C74.4087 51.3611 74.12 51.2825 73.8601 51.1414C73.7046 51.0372 73.579 50.8935 73.4961 50.7248C73.4132 50.556 73.3758 50.3683 73.3878 50.1803V49.8912C73.3604 48.6528 73.6688 47.4304 74.2797 46.3557C74.8907 45.2811 75.781 44.395 76.8547 43.793C77.2939 43.5275 77.7937 43.381 78.3056 43.3677C78.8705 43.3735 79.4215 43.5449 79.8914 43.861C79.955 43.8927 80.0122 43.9359 80.0601 43.9886C80.1224 44.0301 80.1907 44.0617 80.2626 44.0822C80.3298 44.0904 80.3978 44.0904 80.465 44.0822H80.8362C81.002 44.09 81.1637 44.1366 81.3086 44.2182C81.7135 44.4167 81.9159 44.6123 81.9159 44.8051C81.8006 45.3434 81.5575 45.8454 81.2073 46.268C80.1996 47.739 79.637 49.4734 79.5878 51.2605C79.5744 51.8203 79.6779 52.3766 79.8914 52.8935C79.9734 53.1123 80.1241 53.2981 80.3206 53.4225C80.5171 53.5469 80.7485 53.6031 80.9796 53.5824C81.9473 53.5439 82.8923 53.2758 83.738 52.7999C84.8627 52.2329 86.3923 51.3824 88.3268 50.2484C89.7608 49.3809 91.2201 48.5304 92.7048 47.6968C95.5166 46.1716 97.3358 45.409 98.1625 45.409C98.4999 45.409 98.6686 45.4855 98.6686 45.6386V45.7747C97.086 46.0649 95.5686 46.6412 94.1894 47.4757C92.5023 48.4283 90.8152 49.4744 89.0607 50.6056C87.2395 51.8839 85.3248 53.0212 83.3331 54.0077C82.7811 54.2628 82.1852 54.4072 81.5785 54.4329ZM74.7374 50.5546L75.581 49.9337C76.9777 48.6451 78.1697 47.1477 79.1154 45.494L79.2503 45.2389C79.2876 45.1675 79.3105 45.0895 79.3178 45.0092C79.3251 44.9642 79.3251 44.9182 79.3178 44.8731C79.2829 44.7937 79.2375 44.7193 79.1829 44.652C79.1571 44.6018 79.1185 44.5596 79.071 44.5296C79.0235 44.4997 78.9689 44.4832 78.9129 44.4819C78.5132 44.5778 78.1426 44.7705 77.8332 45.0432C76.6007 46.0498 75.65 47.3632 75.0748 48.8535C74.8327 49.3864 74.7171 49.9688 74.7374 50.5546Z" fill="#464545"/>
<path d="M48.3347 52.6553C48.2913 52.6064 48.2379 52.5674 48.1782 52.541C48.1186 52.5145 48.054 52.5013 47.9888 52.5023C46.6113 53.578 45.3196 54.761 44.1254 56.0404C41.2239 58.8649 38.1624 61.5173 34.9562 63.9842C33.0785 65.4345 30.9506 66.5216 28.6803 67.1906C28.2618 67.3197 27.8273 67.3884 27.3897 67.3948C25.3708 67.3948 23.7512 65.9942 22.5309 63.1932L21.738 61.3731C20.856 59.2048 19.7921 57.1163 18.5578 55.1303C18.5033 55.0365 18.4689 54.9322 18.4566 54.8242V54.6711C18.4566 54.603 18.5578 54.569 18.7603 54.569C18.807 54.5834 18.8569 54.5834 18.9037 54.569C25.8994 52.6185 32.9008 48.8876 39.9078 43.3762C43.7757 40.4904 47.2698 37.1274 50.3086 33.3657H47.3562C42.798 38.8949 37.3863 43.6478 31.329 47.4417C27.3243 50.0474 22.9655 52.0529 18.3891 53.3953C18.1616 53.4622 17.9259 53.4966 17.689 53.4974C17.4973 53.491 17.3094 53.442 17.1388 53.3537C16.9681 53.2655 16.819 53.1403 16.702 52.987C15.7951 52.0273 14.7013 51.2668 13.4893 50.7531C12.2773 50.2394 10.9731 49.9836 9.6585 50.0017C9.06803 50.0017 8.50286 50.0017 7.97143 50.0528C7.74268 50.0892 7.5113 50.1063 7.27973 50.1038L8.47755 46.7783C12.0405 37.1733 17.0045 28.1578 23.2057 20.0296C27.1105 14.6824 32.25 10.3762 38.1785 7.48453C40.8087 6.23832 43.6529 5.51632 46.5548 5.35824H47.2381C48.007 5.35899 48.7736 5.44455 49.5241 5.61339C53.8542 6.74741 56.0193 9.64767 56.0193 14.3142V14.816C55.7458 18.3349 54.7429 21.7569 53.0754 24.8605H56.0784C56.2555 24.5458 56.4411 24.2397 56.6098 23.9165C58.2369 20.8549 59.0752 17.4303 59.0476 13.9569V13.7528C59.0266 11.8634 58.4303 10.0261 57.3395 8.48964C56.2487 6.95318 54.716 5.79177 52.9488 5.16262C51.0718 4.49159 49.0947 4.14929 47.1031 4.15051C46.3025 4.15147 45.5025 4.19975 44.7075 4.2951C39.4113 4.97281 34.4028 7.1093 30.2324 10.4698C23.8823 15.427 18.6469 21.6855 14.8716 28.8324C13.9549 30.5335 13.013 32.2005 12.0457 33.8335L10.7551 36.1128L10.6623 36.0618C10.6643 35.8194 10.713 35.5796 10.8057 35.3559C14.1799 22.0368 18.5269 11.8533 23.8468 4.80541C24.957 3.10008 26.4294 1.66495 28.1573 0.603865C28.1643 0.605496 28.1715 0.605309 28.1784 0.603322C28.1853 0.601335 28.1916 0.597613 28.1966 0.592508C28.2017 0.587403 28.2054 0.581082 28.2074 0.574141C28.2093 0.5672 28.2095 0.559868 28.2079 0.552834C28.3766 0.459278 28.461 0.357216 28.461 0.255154C28.461 0.153093 28.3429 0 28.1067 0H27.8367C27.2242 0.0110012 26.6319 0.222996 26.1497 0.603865C23.7219 2.3068 21.6497 4.47414 20.0509 6.98272C15.6099 13.4234 12.1127 20.4758 9.66694 27.9224C4.51011 43.4981 1.30467 58.0051 0.0506122 71.4432L0 72.2937L0.0506122 73.1442C0.101716 73.4033 0.246642 73.6339 0.457158 73.7911C0.667673 73.9484 0.928701 74.021 1.18939 73.9947H1.29061C1.55211 73.9947 1.70395 73.8927 1.73769 73.7906C1.77015 73.6947 1.78724 73.5943 1.7883 73.4929L1.73769 73.0337C1.99051 71.6951 2.33723 70.3763 2.77524 69.0873C3.24246 67.7644 3.62287 66.412 3.91401 65.0388C4.54948 61.7729 5.22712 58.487 5.94694 55.1814C5.93949 55.0097 5.95654 54.8378 5.99755 54.6711C6.00787 54.6125 6.03956 54.5599 6.0864 54.5237C6.13324 54.4875 6.19182 54.4703 6.25061 54.4754C6.37086 54.4835 6.48837 54.5153 6.59646 54.569C8.31225 55.2674 10.1448 55.6283 11.9951 55.6321C13.067 55.626 14.1354 55.5092 15.1837 55.2834L15.538 55.2324C15.7326 55.2424 15.9213 55.3033 16.0855 55.4092C16.2497 55.5151 16.3837 55.6623 16.4743 55.8363C17.8661 58.3028 18.8193 60.1399 19.3507 61.3476C19.8873 62.5764 20.5162 63.762 21.2318 64.8942C21.8542 65.9178 22.7313 66.7593 23.776 67.3352C24.8207 67.9111 25.9968 68.2014 27.1872 68.1772H27.4318C32.4256 67.8143 38.3303 63.8453 45.1461 56.27C47.165 54.2118 48.1913 53.1827 48.225 53.1827C48.3853 53.0126 48.4697 52.8935 48.4697 52.8254C48.4697 52.7574 48.4359 52.7319 48.3347 52.6553ZM11.6493 54.569C10.1139 54.6287 8.59566 54.226 7.28816 53.4123L7.13633 53.2592C6.99964 53.2189 6.87676 53.1411 6.78143 53.0345C6.68609 52.9279 6.62204 52.7966 6.59646 52.6553L6.64707 52.3492C6.67579 52.0883 6.78742 51.8438 6.9653 51.6522C7.14318 51.4606 7.37776 51.3321 7.63401 51.286C8.15284 51.1554 8.68513 51.0869 9.21986 51.0819C10.3659 51.1146 11.4903 51.4041 12.5116 51.9292C13.5329 52.4544 14.4255 53.2021 15.1246 54.1182C13.9894 54.4143 12.8218 54.5657 11.6493 54.569Z" fill="#464545"/>
<path d="M54.9227 38.2136V38.0945C54.9534 38.0971 54.9843 38.0931 55.0134 38.0829C55.0424 38.0726 55.069 38.0563 55.0914 38.035C55.1308 37.9866 55.1622 37.932 55.1842 37.8734C55.2163 37.7955 55.2445 37.716 55.2686 37.6353L56.0109 35.5855H56.0952L56.9388 37.6693C56.9388 37.7203 56.9388 37.7798 57.0063 37.8649C57.0217 37.932 57.0217 38.0019 57.0063 38.069H57.2509V38.2306H56.4073V38.1115C56.4394 38.1154 56.4719 38.112 56.5025 38.1017C56.5331 38.0914 56.5611 38.0745 56.5845 38.052C56.602 38.0054 56.602 37.954 56.5845 37.9074C56.5893 37.8593 56.5893 37.8109 56.5845 37.7628L56.458 37.4226H55.5216L55.3951 37.8139L55.3529 37.9585C55.3529 37.9585 55.3529 38.0265 55.3529 38.069H55.6313V38.2306L54.9227 38.2136ZM55.5807 37.2695H56.4242L56.1712 36.5721C56.1712 36.4956 56.1121 36.419 56.0868 36.3425L56.0024 36.1213L55.9265 36.3255L55.8422 36.5721L55.5807 37.2695Z" fill="#464545"/>
<path d="M60.7347 36.4701C60.727 36.2675 60.6424 36.0757 60.4985 35.9342C60.4311 35.8701 60.3515 35.8204 60.2645 35.7882C60.1775 35.7561 60.0849 35.7421 59.9924 35.7471C59.8665 35.746 59.7422 35.7752 59.6297 35.8322C59.5185 35.8866 59.4206 35.965 59.3429 36.0618C59.254 36.1736 59.1855 36.3002 59.1404 36.436C59.0948 36.5935 59.0721 36.7568 59.0729 36.9208C59.0681 37.1293 59.1114 37.336 59.1995 37.5247C59.2774 37.6915 59.4001 37.8329 59.5537 37.9329C59.6948 38.0322 59.8626 38.0856 60.0346 38.086C60.1925 38.0827 60.3479 38.045 60.4901 37.9755C60.6402 37.907 60.7686 37.7981 60.8612 37.6608L60.954 37.7373C60.8666 37.8682 60.7549 37.9809 60.625 38.069C60.5163 38.1473 60.3929 38.2023 60.2623 38.2306C60.1558 38.242 60.0483 38.242 59.9418 38.2306C59.7706 38.2321 59.6011 38.1973 59.4441 38.1286C59.2969 38.0669 59.1646 37.9741 59.0561 37.8564C58.9521 37.7353 58.8694 37.5972 58.8114 37.4481C58.75 37.2822 58.7185 37.1065 58.7186 36.9293C58.7189 36.7592 58.7445 36.59 58.7946 36.4275C58.8459 36.2668 58.926 36.117 59.0307 35.9853C59.1321 35.8494 59.2655 35.7413 59.4188 35.6706C59.5902 35.5895 59.7777 35.5487 59.9671 35.5515C60.0961 35.5492 60.2245 35.5693 60.3467 35.611C60.47 35.6454 60.5868 35.7 60.6925 35.7726V35.577H60.8865V36.4275L60.7347 36.4701Z" fill="#464545"/>
<path d="M64.6318 36.4701C64.6186 36.2689 64.5349 36.079 64.3956 35.9342C64.2554 35.8058 64.0704 35.7385 63.8811 35.7471C63.7578 35.745 63.6359 35.7743 63.5268 35.8322C63.4126 35.8856 63.3118 35.964 63.2316 36.0618C63.1423 36.172 63.0763 36.2993 63.0376 36.436C62.985 36.5921 62.9594 36.756 62.9616 36.9208C62.9553 37.1304 63.0018 37.3381 63.0966 37.5247C63.169 37.6925 63.2894 37.8346 63.4424 37.9329C63.5835 38.0322 63.7513 38.0856 63.9233 38.086C64.0839 38.0829 64.2421 38.0452 64.3872 37.9755C64.5357 37.9081 64.6617 37.7988 64.7499 37.6608L64.8511 37.7373C64.7586 37.8668 64.6444 37.979 64.5137 38.069C64.4059 38.1488 64.2821 38.204 64.151 38.2306C64.0445 38.2425 63.937 38.2425 63.8305 38.2306C63.6593 38.2321 63.4898 38.1973 63.3328 38.1286C63.1868 38.0647 63.0549 37.9722 62.9448 37.8564C62.8408 37.7353 62.7581 37.5972 62.7001 37.4481C62.6415 37.2817 62.613 37.106 62.6158 36.9293C62.6133 36.7596 62.6361 36.5905 62.6833 36.4275C62.7381 36.2684 62.8179 36.1191 62.9195 35.9853C63.0227 35.8513 63.1556 35.7436 63.3075 35.6706C63.4789 35.5895 63.6664 35.5487 63.8558 35.5515C63.9848 35.5492 64.1132 35.5693 64.2354 35.611C64.3587 35.6454 64.4755 35.7 64.5812 35.7726V35.577H64.7752V36.4275L64.6318 36.4701Z" fill="#464545"/>
<path d="M67.7867 37.2695C67.7941 37.1895 67.7764 37.1092 67.7361 37.0399C67.7236 37.0145 67.7043 36.9931 67.6805 36.9781C67.6567 36.9631 67.6292 36.955 67.6011 36.9548C67.5198 36.9455 67.4377 36.9455 67.3565 36.9548H67.095V37.8054C67.0996 37.8591 67.0996 37.9132 67.095 37.967V38.086H67.7782C67.8707 38.0881 67.9627 38.0707 68.0482 38.035C68.1264 37.9986 68.1892 37.9353 68.2253 37.8564C68.2777 37.7512 68.301 37.6336 68.2928 37.5162H68.4193V38.2306H66.5382V38.1115C66.6047 38.1116 66.6696 38.0908 66.7238 38.052C66.7591 38.0059 66.777 37.9486 66.7744 37.8904C66.779 37.8139 66.779 37.7373 66.7744 37.6608V35.9597C66.7781 35.9173 66.7781 35.8746 66.7744 35.8322H66.5214V35.6706H68.2084V36.3085H68.1578C68.1653 36.1974 68.145 36.0863 68.0988 35.9853C68.0616 35.9131 67.9981 35.8582 67.9216 35.8322C67.8406 35.8185 67.758 35.8185 67.677 35.8322H67.3649C67.2989 35.8256 67.2329 35.8438 67.1793 35.8832C67.1575 35.9007 67.1394 35.9226 67.1264 35.9475C67.1133 35.9724 67.1055 35.9997 67.1034 36.0278C67.0983 36.1071 67.0983 36.1866 67.1034 36.2659V36.8528H67.7782V36.5381H67.9385V37.3121L67.7867 37.2695Z" fill="#464545"/>
<path d="M71.5573 36.4275C71.5518 36.3123 71.5231 36.1995 71.4729 36.0958C71.4276 35.9951 71.358 35.9074 71.2705 35.8407C71.1662 35.7694 71.0421 35.7337 70.9162 35.7386C70.8573 35.7338 70.7981 35.7416 70.7424 35.7613C70.6867 35.7811 70.6357 35.8124 70.5927 35.8533C70.5498 35.8942 70.5158 35.9438 70.4931 35.9987C70.4704 36.0537 70.4593 36.1128 70.4607 36.1724C70.4565 36.265 70.4865 36.356 70.545 36.4275C70.6118 36.5005 70.6885 36.5635 70.7728 36.6146L71.0596 36.7592L71.338 36.8953C71.4238 36.9422 71.5056 36.9963 71.5826 37.0569C71.6598 37.119 71.7219 37.1979 71.7643 37.2878C71.8067 37.3777 71.8282 37.4762 71.8272 37.5757C71.8299 37.7024 71.7946 37.8268 71.726 37.9329C71.6591 38.0429 71.5625 38.1314 71.4476 38.1881C71.301 38.2503 71.1426 38.2793 70.9837 38.2731C70.8722 38.2715 70.7615 38.2544 70.6547 38.2221C70.5455 38.1975 70.4423 38.1512 70.351 38.086V38.2476H70.1823V37.4652H70.3257C70.3253 37.5584 70.3447 37.6506 70.3825 37.7357C70.4204 37.8208 70.4758 37.8967 70.545 37.9585C70.6832 38.0645 70.8523 38.1213 71.0258 38.1201C71.1155 38.1205 71.2043 38.1032 71.2873 38.069C71.3634 38.0344 71.4279 37.9783 71.4729 37.9074C71.5228 37.8354 71.5466 37.7484 71.5404 37.6608C71.5464 37.5627 71.5164 37.4658 71.4561 37.3886C71.3971 37.3111 71.3223 37.2473 71.2367 37.2015C71.1421 37.1409 71.0435 37.0869 70.9415 37.0399L70.68 36.9123C70.5912 36.8706 70.5088 36.8162 70.4354 36.7507C70.361 36.6945 70.3004 36.6217 70.2582 36.5381C70.2122 36.4458 70.189 36.3437 70.1907 36.2404C70.1937 36.0897 70.2439 35.9439 70.3341 35.8237C70.3944 35.754 70.4693 35.6988 70.5535 35.6621C70.6686 35.6151 70.792 35.592 70.9162 35.594C71.0199 35.5832 71.1245 35.5832 71.2283 35.594C71.342 35.6173 71.4488 35.6667 71.5404 35.7386V35.5855H71.7007V36.385L71.5573 36.4275Z" fill="#464545"/>
<path d="M74.9736 36.4275C74.9681 36.3123 74.9394 36.1995 74.8892 36.0958C74.8467 35.9934 74.7766 35.905 74.6868 35.8407C74.5851 35.7706 74.464 35.7349 74.3409 35.7386C74.2814 35.7326 74.2213 35.7394 74.1645 35.7585C74.1078 35.7777 74.0557 35.8089 74.0119 35.8499C73.968 35.8909 73.9333 35.9409 73.91 35.9965C73.8868 36.0521 73.8755 36.1121 73.877 36.1724C73.8728 36.265 73.9029 36.356 73.9614 36.4275C74.0281 36.5005 74.1048 36.5635 74.1891 36.6146C74.2841 36.6696 74.3828 36.7179 74.4844 36.7592L74.7543 36.8953C74.8401 36.9422 74.922 36.9963 74.9989 37.0569C75.0761 37.119 75.1383 37.1979 75.1806 37.2878C75.223 37.3777 75.2445 37.4762 75.2435 37.5757C75.2427 37.7032 75.2067 37.828 75.1397 37.9361C75.0727 38.0442 74.9772 38.1314 74.8639 38.1881C74.7201 38.2496 74.5646 38.2786 74.4084 38.2731C74.2941 38.2722 74.1805 38.255 74.071 38.2221C73.9618 38.1975 73.8586 38.1512 73.7673 38.086V38.2476H73.5818V37.4652H73.7252C73.7248 37.5584 73.7442 37.6506 73.782 37.7357C73.8198 37.8208 73.8752 37.8967 73.9445 37.9585C74.0826 38.0645 74.2517 38.1213 74.4253 38.1201C74.515 38.1212 74.604 38.1038 74.6868 38.069C74.7629 38.0344 74.8274 37.9783 74.8724 37.9074C74.9246 37.8362 74.9514 37.7493 74.9483 37.6608C74.9512 37.5617 74.9182 37.465 74.8555 37.3886C74.7985 37.3092 74.7233 37.245 74.6362 37.2015L74.3494 37.0399C74.2571 37.0025 74.167 36.9599 74.0795 36.9123C73.9918 36.8685 73.9097 36.8143 73.8348 36.7507C73.7604 36.6945 73.6998 36.6217 73.6577 36.5381C73.6116 36.4458 73.5885 36.3437 73.5902 36.2404C73.578 36.1729 73.578 36.1038 73.5902 36.0363C73.6148 35.9598 73.6518 35.8879 73.6999 35.8237C73.7633 35.7538 73.841 35.6987 73.9276 35.6621C74.0421 35.6127 74.1659 35.5894 74.2903 35.594C74.3913 35.5838 74.493 35.5838 74.594 35.594C74.7097 35.619 74.8189 35.6683 74.9146 35.7386V35.5855H75.0748V36.385L74.9736 36.4275Z" fill="#464545"/>
<path d="M77.791 35.7726C77.7577 35.7697 77.7242 35.7735 77.6923 35.7837C77.6605 35.7939 77.6309 35.8104 77.6054 35.8322C77.5708 35.8792 77.5503 35.9353 77.5464 35.9938V37.7798C77.5464 37.8479 77.5464 37.8989 77.5464 37.9499C77.5512 37.9895 77.5512 38.0295 77.5464 38.069H77.8079V38.2306H76.9643V38.1115C77.0311 38.1134 77.0965 38.0925 77.1499 38.052C77.1845 38.005 77.205 37.9489 77.209 37.8904C77.209 37.8224 77.209 37.7458 77.209 37.6608V35.9597C77.209 35.9087 77.209 35.8662 77.209 35.8322H76.9475V35.6706H77.791V35.7726Z" fill="#464545"/>
<path d="M79.5624 38.2136V38.0945C79.6322 38.1 79.7015 38.0787 79.7565 38.035C79.7917 37.9856 79.8095 37.9257 79.8071 37.8649C79.8116 37.7856 79.8116 37.7061 79.8071 37.6268V35.9257C79.811 35.8861 79.811 35.8462 79.8071 35.8067H79.5456V35.6451H80.3891C80.6156 35.633 80.8409 35.6861 81.0386 35.7981C81.1155 35.8497 81.1771 35.921 81.2172 36.0048C81.2573 36.0886 81.2743 36.1818 81.2664 36.2744C81.2637 36.3555 81.2404 36.4346 81.1989 36.5041C81.1499 36.5907 81.0803 36.6638 80.9965 36.7167C80.8988 36.778 80.7897 36.8185 80.6759 36.8358C80.8891 36.8205 81.1002 36.8873 81.2664 37.0229C81.332 37.0812 81.3841 37.1533 81.419 37.2342C81.454 37.315 81.471 37.4025 81.4688 37.4907C81.4726 37.6266 81.4343 37.7604 81.3592 37.8734C81.2822 37.982 81.1772 38.0673 81.0555 38.1201C80.9201 38.18 80.7732 38.2091 80.6253 38.2051L79.5624 38.2136ZM80.1192 38.069H80.4988C80.6705 38.0882 80.8429 38.0394 80.9796 37.9329C81.04 37.8828 81.0876 37.8188 81.1185 37.7463C81.1493 37.6738 81.1624 37.5949 81.1567 37.5162C81.1611 37.397 81.1319 37.279 81.0724 37.176C81.0168 37.094 80.9372 37.0315 80.8446 36.9974C80.7474 36.9617 80.6444 36.9444 80.541 36.9463H80.1361V37.7969C80.141 37.8535 80.141 37.9104 80.1361 37.967L80.1192 38.069ZM80.1192 36.8103H80.3807C80.4926 36.8164 80.6039 36.7898 80.7012 36.7337C80.7779 36.6821 80.8368 36.6078 80.8699 36.5211C80.9029 36.4401 80.9201 36.3535 80.9205 36.2659C80.9278 36.1559 80.8948 36.0469 80.8278 35.9597C80.7769 35.8932 80.7058 35.8454 80.6253 35.8237C80.5471 35.8112 80.4674 35.8112 80.3891 35.8237C80.3307 35.8113 80.2704 35.8113 80.212 35.8237C80.1918 35.8351 80.1745 35.8509 80.1613 35.8701C80.1482 35.8893 80.1395 35.9112 80.1361 35.9342C80.1304 36.005 80.1304 36.0761 80.1361 36.1469L80.1192 36.8103Z" fill="#464545"/>
<path d="M83.1475 38.2136V38.0945C83.2142 38.0964 83.2797 38.0754 83.3331 38.035C83.3677 37.9879 83.3882 37.9319 83.3921 37.8734V36.0618C83.3921 36.0108 83.3921 35.9683 83.3921 35.9257C83.3873 35.8833 83.3873 35.8405 83.3921 35.7981H83.1306V35.6366H83.9741V35.7556C83.9409 35.7527 83.9073 35.7565 83.8755 35.7667C83.8436 35.7769 83.8141 35.7934 83.7886 35.8152C83.7503 35.8601 83.7293 35.9175 83.7295 35.9768C83.7295 36.0448 83.7295 36.1213 83.7295 36.2064V37.9074C83.7344 37.947 83.7344 37.987 83.7295 38.0265H84.4043C84.4678 38.0302 84.5313 38.0191 84.5898 37.994C84.6483 37.9689 84.7003 37.9306 84.7418 37.8819C84.8307 37.7432 84.8722 37.5789 84.8599 37.4141H84.9864V38.1711L83.1475 38.2136Z" fill="#464545"/>
<path d="M87.8544 37.2695C87.8595 37.1906 87.845 37.1117 87.8122 37.0399C87.7979 37.0161 87.7782 36.996 87.7548 36.9812C87.7313 36.9665 87.7048 36.9574 87.6773 36.9548C87.5932 36.9457 87.5083 36.9457 87.4242 36.9548H87.1627V37.9585C87.1627 38.0095 87.1627 38.0435 87.1627 38.0775H87.846C87.9412 38.0796 88.0359 38.0622 88.1244 38.0265C88.2026 37.9901 88.2654 37.9267 88.3015 37.8479C88.3466 37.7405 88.3668 37.6241 88.3605 37.5077H88.4871V38.2221H86.6397V38.103C86.7065 38.1049 86.7719 38.0839 86.8253 38.0435C86.8606 37.9974 86.8785 37.9401 86.8759 37.8819C86.8805 37.8054 86.8805 37.7287 86.8759 37.6523V36.0618C86.8715 36.0166 86.8715 35.971 86.8759 35.9257V35.7981H86.6229V35.6366H88.3099V36.2744H88.1918C88.1971 36.1627 88.1739 36.0514 88.1244 35.9512C88.0872 35.879 88.0237 35.8242 87.9472 35.7981C87.8662 35.7845 87.7836 35.7845 87.7026 35.7981H87.3905C87.3245 35.7916 87.2584 35.8098 87.2049 35.8492C87.1842 35.8671 87.1675 35.8893 87.1558 35.9142C87.1442 35.9391 87.1379 35.9662 87.1374 35.9938C87.1316 36.073 87.1316 36.1526 87.1374 36.2319V36.8188H87.8122V36.5041H87.9725V37.278L87.8544 37.2695Z" fill="#464545"/>
<path d="M93.2615 35.7726C93.1983 35.7674 93.1353 35.7855 93.0843 35.8237C93.0534 35.8566 93.0329 35.898 93.0253 35.9427C93.0217 35.9823 93.0217 36.0222 93.0253 36.0618V36.9889C93.0166 37.1191 93.0166 37.2498 93.0253 37.3801C93.0399 37.5011 93.0741 37.6189 93.1265 37.7288C93.1769 37.8317 93.2561 37.9175 93.3543 37.9755C93.4738 38.038 93.6078 38.0674 93.7423 38.0605C93.8921 38.0692 94.0405 38.0273 94.1641 37.9414C94.2767 37.8526 94.3592 37.7308 94.4003 37.5927C94.4605 37.4326 94.4891 37.2621 94.4846 37.0909V36.0618C94.4802 36.0166 94.4802 35.971 94.4846 35.9257C94.4798 35.8833 94.4798 35.8405 94.4846 35.7981H94.2231V35.6366H94.8895V35.7556C94.8225 35.7515 94.7563 35.7727 94.7039 35.8152C94.6693 35.8622 94.6488 35.9183 94.6449 35.9768V37.0569C94.6457 37.2087 94.6287 37.36 94.5943 37.5077C94.5624 37.6448 94.5051 37.7746 94.4256 37.8904C94.3531 38.0061 94.2511 38.1001 94.1303 38.1626C93.9878 38.229 93.8318 38.261 93.6748 38.2561C93.5113 38.2598 93.3485 38.2339 93.194 38.1796C93.0689 38.133 92.9603 38.0502 92.8819 37.9414C92.7992 37.8181 92.7418 37.6793 92.7132 37.5332C92.6766 37.3398 92.6596 37.1432 92.6626 36.9463V36.2064C92.6626 36.1469 92.6626 36.0703 92.6626 35.9853C92.6626 35.9002 92.6626 35.8322 92.6626 35.7811H92.4095V35.628H93.2531L93.2615 35.7726Z" fill="#464545"/>
<path d="M96.4669 38.2136V38.0945C96.5692 38.0745 96.6632 38.0242 96.7369 37.9499C96.8173 37.8564 96.8906 37.7569 96.9562 37.6523L97.4286 36.9719L97.0405 36.419L96.8212 36.1043L96.7116 35.9427C96.6955 35.8959 96.6757 35.8504 96.6525 35.8067H96.4585V35.6451H97.3864V35.7641H97.2261C97.1418 35.7641 97.0912 35.7811 97.0743 35.8152C97.0661 35.8324 97.0618 35.8513 97.0618 35.8704C97.0618 35.8896 97.0661 35.9085 97.0743 35.9257C97.0743 35.9683 97.0743 36.0108 97.1502 36.0618C97.2261 36.1128 97.2514 36.2319 97.3273 36.3425L97.5888 36.7167L97.9347 36.2064C98.0022 36.1213 98.0528 36.0363 98.1118 35.9512C98.1539 35.8898 98.2019 35.8329 98.2552 35.7811H97.9516V35.6195H98.6939V35.7386C98.6159 35.7481 98.5426 35.7806 98.483 35.8322C98.4101 35.8886 98.3449 35.9543 98.289 36.0278L98.1287 36.2489L97.7238 36.8358L98.483 37.8564C98.5252 37.9111 98.5646 37.9678 98.6011 38.0265H98.812V38.1881H97.9684V38.069C98.029 38.087 98.0934 38.087 98.154 38.069C98.1622 38.0518 98.1665 38.0329 98.1665 38.0137C98.1665 37.9946 98.1622 37.9757 98.154 37.9585C98.1395 37.9164 98.1196 37.8764 98.095 37.8394L97.8672 37.5417L97.5635 37.125L97.3864 37.3886L97.2092 37.6608C97.2092 37.7288 97.1249 37.7969 97.0743 37.8649C97.0256 37.9393 96.9721 38.0103 96.914 38.0775H97.2092V38.2391L96.4669 38.2136Z" fill="#464545"/>
<path d="M102.658 38.0945C102.725 38.0964 102.791 38.0754 102.844 38.035C102.879 37.9889 102.897 37.9316 102.895 37.8734C102.899 37.7969 102.899 37.7202 102.895 37.6438V36.0618C102.89 36.0166 102.89 35.971 102.895 35.9257C102.89 35.8833 102.89 35.8405 102.895 35.7981H102.633V35.6366H103.477C103.676 35.6341 103.875 35.6599 104.067 35.7131C104.238 35.7556 104.397 35.8371 104.531 35.9512C104.666 36.0546 104.771 36.1927 104.835 36.351C104.913 36.5303 104.951 36.725 104.944 36.9208C104.942 37.086 104.914 37.2497 104.86 37.4056C104.802 37.5587 104.713 37.6978 104.599 37.8139C104.476 37.936 104.329 38.0315 104.168 38.0945C103.98 38.1657 103.779 38.2003 103.578 38.1966H102.658V38.0945ZM103.215 37.7798V37.9499C103.22 37.9895 103.22 38.0295 103.215 38.069H103.603C103.746 38.0704 103.888 38.0384 104.017 37.9755C104.143 37.922 104.255 37.8406 104.346 37.7373C104.436 37.6297 104.504 37.5055 104.548 37.3716C104.599 37.224 104.625 37.0687 104.624 36.9123C104.63 36.7065 104.586 36.5023 104.497 36.317C104.421 36.1461 104.29 36.0056 104.126 35.9172C103.925 35.8158 103.702 35.7662 103.477 35.7726C103.407 35.7688 103.338 35.7899 103.283 35.8322C103.25 35.8763 103.232 35.9301 103.232 35.9853C103.228 36.0617 103.228 36.1384 103.232 36.2149L103.215 37.7798Z" fill="#464545"/>
<path d="M107.973 37.2695C107.98 37.1895 107.963 37.1092 107.922 37.0399C107.91 37.0145 107.89 36.9931 107.867 36.9781C107.843 36.9631 107.815 36.955 107.787 36.9548C107.706 36.9455 107.624 36.9455 107.543 36.9548H107.281V37.8054C107.286 37.8591 107.286 37.9132 107.281 37.967V38.086H107.964C108.057 38.0881 108.149 38.0707 108.234 38.035C108.312 37.9986 108.375 37.9353 108.411 37.8564C108.464 37.7512 108.487 37.6336 108.479 37.5162H108.605V38.2306H106.75V38.1115C106.819 38.1128 106.887 38.092 106.944 38.052C106.979 38.0059 106.997 37.9486 106.994 37.8904C106.999 37.8139 106.999 37.7373 106.994 37.6608V35.9597C106.998 35.9173 106.998 35.8746 106.994 35.8322H106.733V35.6706H108.42V36.3085H108.302C108.309 36.1974 108.289 36.0863 108.243 35.9853C108.204 35.9146 108.141 35.8603 108.066 35.8322C107.985 35.8185 107.902 35.8185 107.821 35.8322H107.509C107.443 35.8256 107.377 35.8438 107.323 35.8832C107.301 35.9007 107.283 35.9226 107.27 35.9475C107.257 35.9724 107.249 35.9997 107.247 36.0278C107.242 36.1071 107.242 36.1866 107.247 36.2659V36.8528H107.922V36.5381H108.082V37.3121L107.973 37.2695Z" fill="#464545"/>
<path d="M111.701 36.4275C111.696 36.3123 111.667 36.1995 111.617 36.0958C111.572 35.9951 111.502 35.9074 111.414 35.8407C111.31 35.7694 111.186 35.7337 111.06 35.7386C111.001 35.7338 110.942 35.7416 110.886 35.7613C110.831 35.7811 110.78 35.8124 110.737 35.8533C110.694 35.8942 110.66 35.9438 110.637 35.9987C110.614 36.0537 110.603 36.1128 110.605 36.1724C110.6 36.265 110.63 36.356 110.689 36.4275C110.756 36.5005 110.832 36.5635 110.917 36.6146C111.01 36.6679 111.105 36.7162 111.204 36.7592L111.482 36.8953C111.567 36.9442 111.648 36.9982 111.727 37.0569C111.804 37.119 111.866 37.1979 111.908 37.2878C111.951 37.3777 111.972 37.4762 111.971 37.5757C111.974 37.7024 111.939 37.8268 111.87 37.9329C111.803 38.0429 111.706 38.1314 111.592 38.1881C111.445 38.2503 111.287 38.2793 111.128 38.2731C111.016 38.2715 110.905 38.2544 110.799 38.2221C110.689 38.1975 110.586 38.1512 110.495 38.086V38.2476H110.309V37.4652H110.453C110.452 37.5584 110.472 37.6506 110.51 37.7357C110.547 37.8208 110.603 37.8967 110.672 37.9585C110.81 38.0645 110.979 38.1213 111.153 38.1201C111.243 38.1205 111.331 38.1032 111.414 38.069C111.491 38.0344 111.555 37.9783 111.6 37.9074C111.65 37.8354 111.674 37.7484 111.667 37.6608C111.674 37.5627 111.643 37.4658 111.583 37.3886C111.524 37.3111 111.449 37.2473 111.364 37.2015C111.269 37.1409 111.171 37.0869 111.069 37.0399L110.807 36.9123C110.717 36.8685 110.632 36.8143 110.554 36.7507C110.484 36.6917 110.427 36.6195 110.385 36.5381C110.339 36.4458 110.316 36.3437 110.318 36.2404C110.321 36.0897 110.371 35.9439 110.461 35.8237C110.521 35.754 110.596 35.6988 110.681 35.6621C110.796 35.6151 110.919 35.592 111.043 35.594C111.144 35.5827 111.246 35.5827 111.347 35.594C111.464 35.6154 111.574 35.665 111.667 35.7386V35.5855H111.845V36.385L111.701 36.4275Z" fill="#464545"/>
<path d="M114.519 35.7726C114.485 35.7697 114.452 35.7735 114.42 35.7837C114.388 35.7939 114.359 35.8104 114.333 35.8322C114.295 35.8771 114.274 35.9345 114.274 35.9938C114.269 36.0702 114.269 36.1469 114.274 36.2234V37.9244C114.279 37.964 114.279 38.004 114.274 38.0435H114.536V38.2051H113.692V38.086C113.759 38.0879 113.824 38.0669 113.878 38.0265C113.912 37.9794 113.933 37.9234 113.937 37.8649V36.0618C113.937 36.0108 113.937 35.9683 113.937 35.9257C113.932 35.8833 113.932 35.8405 113.937 35.7981H113.675V35.6366H114.519V35.7726Z" fill="#464545"/>
<path d="M117.454 38.2731C117.234 38.279 117.015 38.2262 116.821 38.1201C116.637 38.0202 116.487 37.8659 116.391 37.6778C116.279 37.4661 116.224 37.2287 116.231 36.9889C116.231 36.8187 116.257 36.6496 116.307 36.4871C116.356 36.323 116.437 36.17 116.543 36.0363C116.646 35.8997 116.779 35.789 116.931 35.7131C117.103 35.632 117.29 35.5913 117.479 35.594C117.566 35.5856 117.654 35.5856 117.741 35.594L117.994 35.6621C118.073 35.6921 118.149 35.7291 118.222 35.7726V35.594H118.424V36.4445H118.298C118.294 36.3044 118.25 36.1684 118.171 36.0533C118.105 35.948 118.012 35.8627 117.901 35.8067C117.782 35.7506 117.653 35.7215 117.522 35.7216C117.398 35.7225 117.276 35.7546 117.167 35.8152C117.052 35.871 116.951 35.9524 116.872 36.0533C116.783 36.1619 116.715 36.2858 116.67 36.419C116.625 36.5708 116.602 36.7284 116.602 36.8868C116.6 37.0969 116.64 37.3053 116.72 37.4992C116.792 37.6694 116.909 37.8164 117.058 37.9244C117.206 38.0288 117.383 38.0825 117.564 38.0775C117.631 38.0857 117.699 38.0857 117.766 38.0775C117.839 38.0656 117.909 38.0457 117.977 38.018L118.18 37.9159V37.1164H117.927V36.9548H118.77V37.0824C118.743 37.0801 118.715 37.0834 118.689 37.0922C118.663 37.1009 118.639 37.115 118.618 37.1335C118.578 37.1648 118.551 37.2104 118.542 37.261C118.535 37.3089 118.535 37.3577 118.542 37.4056C118.539 37.4424 118.539 37.4794 118.542 37.5162V38.0775H118.45C118.396 38.0704 118.342 38.0704 118.289 38.0775L118.061 38.1541C117.976 38.1838 117.889 38.2065 117.8 38.2221L117.454 38.2731Z" fill="#464545"/>
<path d="M122.313 38.2731L120.879 36.3085L120.811 36.2319L120.752 36.1384V37.8904C120.757 37.9499 120.757 38.0096 120.752 38.069H121.014V38.2306H120.356V38.1115C120.385 38.1146 120.414 38.1116 120.441 38.1028C120.469 38.094 120.494 38.0796 120.516 38.0605C120.544 38.0286 120.564 37.9908 120.575 37.9499C120.578 37.9075 120.578 37.8648 120.575 37.8224V35.7981H120.339V35.6366H120.761L122.11 37.4737L122.203 37.6012L122.296 37.7203V35.9257C122.291 35.8833 122.291 35.8405 122.296 35.7981H122.035V35.6366H122.693V35.7556C122.628 35.7511 122.564 35.7725 122.515 35.8152C122.481 35.8622 122.46 35.9183 122.456 35.9768V38.2731H122.313Z" fill="#464545"/>
<path d="M26.9932 31.6306V31.384C27.1272 31.3914 27.2593 31.3491 27.3644 31.2649C27.4332 31.1744 27.4716 31.0642 27.474 30.9502C27.474 30.8141 27.474 30.661 27.474 30.4824V27.327C27.474 27.225 27.474 27.1314 27.474 27.0464C27.474 26.9613 27.474 26.8677 27.474 26.7997H26.9595V26.4765H28.6465C29.0271 26.4732 29.4057 26.5307 29.7684 26.6466C30.0202 26.7232 30.2397 26.8817 30.3927 27.0974C30.5332 27.3016 30.6043 27.5464 30.5951 27.7948C30.6032 27.9935 30.5656 28.1914 30.4854 28.3732C30.4066 28.5839 30.2689 28.767 30.089 28.9005C29.8385 29.0829 29.55 29.2051 29.2454 29.2577C29.3441 29.3304 29.4297 29.4196 29.4985 29.5214L29.7431 29.8871L30.2324 30.6781C30.3083 30.8056 30.3927 30.9247 30.4686 31.0353C30.5383 31.1344 30.6273 31.2183 30.7301 31.2819C30.8442 31.3427 30.9722 31.372 31.1012 31.367V31.6136H30.1986C30.072 31.4969 29.9563 31.3688 29.8528 31.2309C29.7495 31.0916 29.6537 30.9468 29.566 30.7971L29.0852 30.0147L28.8659 29.6659C28.7946 29.5384 28.7066 29.4211 28.6044 29.3172H28.1151V30.7376C28.1151 30.8737 28.1151 30.9842 28.1151 31.0863C28.1206 31.1627 28.1206 31.2395 28.1151 31.3159H28.6297V31.6391L26.9932 31.6306ZM28.5537 29.0791C28.7899 29.07 29.0232 29.0241 29.2454 28.943C29.4391 28.8734 29.6049 28.742 29.7178 28.5688C29.8448 28.3689 29.9068 28.134 29.895 27.8969C29.9001 27.7311 29.8714 27.5661 29.8106 27.4121C29.7695 27.2762 29.6904 27.1551 29.5829 27.0634C29.4669 26.9624 29.3277 26.8922 29.178 26.8592C28.9918 26.8042 28.7983 26.7784 28.6044 26.7827C28.5383 26.7752 28.4714 26.7811 28.4077 26.8001C28.3439 26.8191 28.2846 26.8508 28.2332 26.8933C28.1633 26.9799 28.1247 27.0878 28.1235 27.1994C28.1235 27.327 28.1235 27.4801 28.1235 27.6587V29.0621H28.3344L28.5537 29.0791Z" fill="#464545"/>
<path d="M35.8588 29.768C35.8716 29.6101 35.8425 29.4516 35.7744 29.3087C35.7457 29.2611 35.7063 29.2209 35.6595 29.1914C35.6126 29.1618 35.5595 29.1438 35.5045 29.1386C35.3389 29.1242 35.1724 29.1242 35.0068 29.1386H34.4838V30.8396C34.4838 30.9672 34.4838 31.0778 34.4838 31.1714C34.4885 31.2507 34.4885 31.3302 34.4838 31.4095H35.8503C36.0382 31.4143 36.2249 31.3796 36.3986 31.3074C36.5528 31.2355 36.6779 31.1124 36.7529 30.9587C36.8498 30.7456 36.8961 30.5126 36.8879 30.2783H37.1156L37.065 31.7072H33.3619V31.384C33.4985 31.3912 33.6331 31.349 33.7415 31.2649C33.8108 31.1752 33.8466 31.0638 33.8427 30.9502C33.852 30.7944 33.852 30.6382 33.8427 30.4824V27.327C33.8427 27.225 33.8427 27.1314 33.8427 27.0464C33.8427 26.9613 33.8427 26.8677 33.8427 26.7997H33.3197V26.4765H36.7782V27.7608H36.542C36.5548 27.5353 36.5113 27.3101 36.4155 27.1059C36.3341 26.9692 36.2093 26.8643 36.0612 26.8082C35.9037 26.7546 35.7382 26.7287 35.572 26.7317H34.9562C34.8225 26.7275 34.6905 26.763 34.5766 26.8337C34.495 26.9089 34.4439 27.0119 34.4332 27.1229C34.4224 27.2843 34.4224 27.4463 34.4332 27.6077V28.7729H35.7829L35.7322 28.1435H36.0528V29.768H35.8588Z" fill="#464545"/>
<path d="M39.6969 31.6306V31.384C39.7635 31.3908 39.8309 31.3838 39.8947 31.3633C39.9586 31.3428 40.0175 31.3093 40.068 31.2649C40.1381 31.1687 40.1765 31.0526 40.1777 30.9332C40.1777 30.7886 40.1777 30.627 40.1777 30.4484V27.0464C40.1777 26.9528 40.1777 26.8677 40.1777 26.8082H39.6631V26.485H41.3333C41.7857 26.457 42.2365 26.5603 42.6324 26.7827C42.7903 26.8819 42.9174 27.0237 42.9994 27.1921C43.0814 27.3605 43.115 27.5486 43.0963 27.7353C43.0906 27.9013 43.0411 28.0627 42.9529 28.2031C42.8585 28.3713 42.7254 28.5142 42.5649 28.6198C42.364 28.7452 42.1403 28.8291 41.9069 28.8665C42.3362 28.8336 42.7617 28.9675 43.0963 29.2407C43.2277 29.3553 43.3322 29.4979 43.4022 29.6583C43.4723 29.8186 43.5061 29.9926 43.5012 30.1677C43.5076 30.4395 43.4311 30.7067 43.2819 30.9332C43.1284 31.153 42.9184 31.3265 42.6746 31.435C42.4075 31.5482 42.1207 31.606 41.831 31.6051L39.6969 31.6306ZM40.7935 31.3329H41.5527C41.8742 31.3485 42.1908 31.2491 42.4468 31.0523C42.5664 30.9477 42.66 30.8162 42.7201 30.6685C42.7801 30.5208 42.805 30.3609 42.7927 30.2018C42.8064 29.9564 42.7445 29.7128 42.6155 29.5043C42.5069 29.3433 42.3504 29.2211 42.1684 29.1556C41.9704 29.0866 41.7622 29.0521 41.5527 29.0536H40.8188V30.7036C40.8188 30.8396 40.8188 30.9502 40.8188 31.0438C40.8191 31.1407 40.8106 31.2375 40.7935 31.3329ZM40.7935 28.7814H41.3165C41.5412 28.7916 41.764 28.7354 41.9576 28.6198C42.1061 28.5151 42.223 28.3708 42.295 28.2031C42.3705 28.0381 42.4053 27.8572 42.3962 27.6757C42.4138 27.4619 42.3505 27.2492 42.219 27.0804C42.1124 26.947 41.9684 26.8492 41.8057 26.7997C41.6499 26.7521 41.4877 26.7292 41.3249 26.7317C41.2066 26.7237 41.088 26.7441 40.979 26.7912C40.9405 26.8161 40.9072 26.8485 40.8811 26.8864C40.8551 26.9244 40.8367 26.9672 40.8272 27.0123C40.8114 27.1536 40.8114 27.2963 40.8272 27.4376L40.7935 28.7814Z" fill="#464545"/>
<path d="M48.4612 29.768C48.474 29.6101 48.4449 29.4516 48.3769 29.3087C48.3463 29.2609 48.3054 29.2207 48.2572 29.1913C48.2089 29.1618 48.1547 29.1438 48.0985 29.1386C47.9357 29.1242 47.772 29.1242 47.6092 29.1386H47.0863V30.8396C47.0863 30.9672 47.0863 31.0778 47.0863 31.1714C47.0914 31.2507 47.0914 31.3302 47.0863 31.4095H48.4612C48.6462 31.4134 48.83 31.3786 49.0011 31.3074C49.1562 31.2338 49.2835 31.1114 49.3638 30.9587C49.4575 30.7448 49.5008 30.5119 49.4903 30.2783H49.735V31.7072H45.9644V31.384C46.0982 31.3899 46.2297 31.3477 46.3355 31.2649C46.4043 31.1744 46.4428 31.0642 46.4452 30.9502C46.4452 30.8141 46.4452 30.661 46.4452 30.4824V27.0804C46.4452 26.9868 46.4452 26.9018 46.4452 26.8337H45.9306V26.5105H49.3807V27.7948H49.1445C49.1572 27.5693 49.1137 27.3441 49.018 27.1399C48.9406 26.9998 48.8143 26.8937 48.6637 26.8422C48.5061 26.7886 48.3406 26.7627 48.1744 26.7657H47.5586C47.4249 26.7615 47.2929 26.797 47.179 26.8677C47.0974 26.9429 47.0463 27.046 47.0356 27.1569C47.0256 27.3184 47.0256 27.4803 47.0356 27.6417V28.8069H48.3853L48.3347 28.1775H48.6468V29.768H48.4612Z" fill="#464545"/>
<path d="M56.2639 28.135C56.2355 27.7356 56.0682 27.3591 55.7916 27.0719C55.515 26.8131 55.1479 26.6755 54.7709 26.6891C54.5215 26.6846 54.275 26.7431 54.0539 26.8592C53.8277 26.9695 53.6289 27.1294 53.4718 27.327C53.2938 27.5457 53.1592 27.7969 53.0754 28.067C52.9768 28.3804 52.9284 28.7077 52.932 29.0366C52.9216 29.4572 53.0113 29.8742 53.1935 30.2528C53.3432 30.5943 53.5824 30.8883 53.8852 31.1033C54.1706 31.3005 54.5093 31.4044 54.8552 31.401C55.1732 31.3966 55.4866 31.3241 55.7747 31.1884C56.0718 31.0466 56.3275 30.8298 56.517 30.559L56.7026 30.7121C56.5224 30.9723 56.2966 31.1972 56.0362 31.3755C55.8146 31.5226 55.5691 31.6292 55.3107 31.6902C55.1014 31.7455 54.886 31.7741 54.6697 31.7752C54.3279 31.7819 53.9886 31.7152 53.6743 31.5796C53.3847 31.4522 53.1235 31.267 52.9067 31.0353C52.6844 30.7879 52.5124 30.4989 52.4005 30.1848C52.2832 29.8577 52.226 29.5119 52.2318 29.1641C52.2327 28.8217 52.281 28.481 52.3752 28.152C52.4835 27.8435 52.6433 27.5558 52.8476 27.3015C53.0546 27.0341 53.3202 26.8186 53.6237 26.6721C53.967 26.512 54.3421 26.4334 54.7203 26.4425C54.9768 26.4406 55.2324 26.475 55.4795 26.5446C55.7254 26.6231 55.9584 26.7377 56.1712 26.8848V26.4935H56.517V28.1946L56.2639 28.135Z" fill="#464545"/>
<path d="M63.1472 28.135C63.1188 27.7356 62.9515 27.3591 62.6748 27.0719C62.3982 26.8131 62.0312 26.6755 61.6541 26.6891C61.4048 26.6846 61.1583 26.7431 60.9371 26.8592C60.711 26.9695 60.5122 27.1294 60.3551 27.327C60.177 27.5457 60.0424 27.7969 59.9586 28.067C59.8601 28.3804 59.8117 28.7077 59.8152 29.0366C59.8049 29.4572 59.8946 29.8742 60.0767 30.2528C60.2265 30.5943 60.4656 30.8883 60.7684 31.1033C61.0539 31.3005 61.3925 31.4044 61.7385 31.401C62.0565 31.3966 62.3699 31.3241 62.658 31.1884C62.9551 31.0466 63.2108 30.8298 63.4003 30.559L63.5858 30.7121C63.4057 30.9723 63.1798 31.1972 62.9195 31.3755C62.7001 31.521 62.4575 31.6274 62.2024 31.6902C61.9902 31.7451 61.7721 31.7736 61.5529 31.7752C61.2138 31.7828 60.8771 31.716 60.566 31.5796C60.2726 31.4544 60.0083 31.2691 59.7899 31.0353C59.5677 30.7879 59.3957 30.4989 59.2838 30.1848C59.1664 29.8577 59.1093 29.5119 59.1151 29.1641C59.1148 28.821 59.166 28.4797 59.2669 28.152C59.3689 27.8424 59.5262 27.5542 59.7309 27.3015C59.9378 27.0341 60.2035 26.8186 60.5069 26.6721C60.8371 26.4911 61.203 26.3865 61.5782 26.3659C61.8348 26.3641 62.0903 26.3984 62.3374 26.468C62.5833 26.5465 62.8164 26.6611 63.0291 26.8082V26.417H63.4087V28.118L63.1472 28.135Z" fill="#464545"/>
<path d="M65.5513 31.6306V31.384C65.6107 31.3886 65.6704 31.3812 65.7268 31.3622C65.7833 31.3432 65.8355 31.313 65.8803 31.2734C65.9651 31.1809 66.0285 31.0705 66.0658 30.9502C66.1249 30.8141 66.1839 30.6525 66.2514 30.4739L67.7276 26.3659H67.8963L69.499 30.5335C69.55 30.6608 69.5922 30.7915 69.6256 30.9247C69.6707 31.0558 69.6907 31.1943 69.6846 31.3329H70.1739V31.6561H68.4868V31.384C68.5523 31.3929 68.6189 31.3869 68.6817 31.3663C68.7445 31.3457 68.8019 31.311 68.8495 31.2649C68.8781 31.2248 68.8981 31.1791 68.9082 31.1308C68.9184 31.0825 68.9185 31.0326 68.9086 30.9842C68.9011 30.8849 68.8783 30.7873 68.8411 30.6951L68.588 30.0061H66.7238L66.4707 30.7886C66.4476 30.8846 66.4165 30.9785 66.378 31.0693C66.378 31.1373 66.3273 31.2139 66.2936 31.2904H66.9178V31.6136L65.5513 31.6306ZM66.8756 29.768H68.5627L68.0566 28.3647C68.006 28.2201 67.9469 28.067 67.8879 27.9224L67.7361 27.4716L67.5842 27.8799L67.4324 28.2966L66.8756 29.768Z" fill="#464545"/>
<path d="M78.0188 31.6987L76.3907 27.8118C76.302 27.6157 76.2259 27.414 76.163 27.208C76.127 27.0765 76.0988 26.943 76.0786 26.8082H75.6737V26.485H77.3608V26.7402C77.1246 26.7402 76.9812 26.8252 76.9306 26.9613C76.8869 27.1534 76.9108 27.3548 76.9981 27.5311C77.1162 27.8118 77.2258 28.0925 77.3355 28.3817C77.4452 28.6708 77.5548 28.9345 77.6814 29.2322C77.8079 29.5299 77.9091 29.768 78.0103 30.0232C78.1116 30.2783 78.2044 30.4824 78.2634 30.644C78.314 30.4739 78.3646 30.3123 78.4237 30.1507C78.4827 29.9891 78.5418 29.8105 78.6177 29.5979C78.7611 29.1897 78.8876 28.8409 78.9804 28.5603C79.0732 28.2796 79.166 28.033 79.2419 27.8373L79.419 27.3185C79.419 27.1994 79.495 27.0889 79.5287 27.0038C79.5624 26.9188 79.5962 26.8422 79.6215 26.7827H79.0732V26.4595H80.5325V26.7062C80.354 26.6986 80.1792 26.7594 80.0433 26.8763C79.9018 27.0317 79.7979 27.218 79.7396 27.4206C79.7396 27.4206 79.7396 27.4801 79.7396 27.5226L79.6637 27.7183C79.6637 27.8118 79.5877 27.9479 79.5203 28.135L79.2672 28.8494L78.8539 29.9891C78.6936 30.4484 78.4912 31.0012 78.2634 31.6902L78.0188 31.6987Z" fill="#464545"/>
<path d="M81.899 31.6306V31.384C81.9584 31.3886 82.0181 31.3812 82.0746 31.3622C82.1311 31.3432 82.1833 31.313 82.228 31.2734C82.3159 31.1817 82.3822 31.0713 82.422 30.9502L82.5992 30.4739L84.0754 26.3659H84.2525L85.8468 30.5335C85.8468 30.6355 85.9312 30.7631 85.9818 30.9247C86.0206 31.0571 86.0377 31.195 86.0324 31.3329H86.5216V31.6561H84.8767V31.384C84.9422 31.3929 85.0088 31.3869 85.0716 31.3663C85.1344 31.3457 85.1918 31.311 85.2395 31.2649C85.2959 31.1831 85.3199 31.083 85.3069 30.9842C85.2927 30.8852 85.2673 30.7882 85.231 30.6951L84.978 30.0061H83.1137L82.8607 30.7886C82.8375 30.8846 82.8065 30.9785 82.7679 31.0693C82.7679 31.1373 82.7173 31.2139 82.6835 31.2904H83.2403V31.6136L81.899 31.6306ZM83.2234 29.768H84.9105L84.4043 28.3647C84.3537 28.2201 84.2947 28.067 84.2356 27.9224L84.0838 27.4716L83.932 27.8799C83.8814 28.0159 83.8392 28.152 83.7801 28.2966L83.2234 29.768Z" fill="#464545"/>
<path d="M92.6204 31.7412L89.7608 27.8203L89.5078 27.4801V30.9757C89.5078 31.0948 89.5078 31.2224 89.5078 31.3329H90.0223V31.6561H88.7148V31.384C88.7704 31.391 88.8269 31.3863 88.8806 31.3702C88.9343 31.3541 88.9842 31.3269 89.0269 31.2904C89.0912 31.2286 89.1353 31.1485 89.1535 31.0608C89.1647 30.9761 89.1647 30.8903 89.1535 30.8056V26.7997H88.6727V26.4765H89.5162L92.2071 30.1507L92.3842 30.4059L92.5698 30.6525V27.327C92.5698 27.225 92.5698 27.1314 92.5698 27.0464C92.5647 26.9642 92.5647 26.8818 92.5698 26.7997H92.0468V26.4765H93.3712V26.7232C93.3045 26.7163 93.2372 26.7234 93.1733 26.7439C93.1095 26.7643 93.0505 26.7978 93 26.8422C92.9342 26.9337 92.8987 27.0439 92.8988 27.1569C92.8988 27.293 92.8988 27.4461 92.8988 27.6247V31.7157L92.6204 31.7412Z" fill="#464545"/>
<path d="M99.3434 31.6306V31.384C99.4028 31.3886 99.4625 31.3812 99.519 31.3622C99.5754 31.3432 99.6276 31.313 99.6724 31.2734C99.7572 31.1809 99.8206 31.0705 99.858 30.9502L100.044 30.4739L101.52 26.3659H101.688L103.291 30.5335C103.342 30.6608 103.384 30.7915 103.418 30.9247C103.463 31.0558 103.483 31.1943 103.477 31.3329H104V31.6561H102.313V31.384C102.378 31.3929 102.445 31.3869 102.508 31.3663C102.57 31.3457 102.628 31.311 102.675 31.2649C102.73 31.1823 102.751 31.082 102.734 30.9842C102.727 30.8849 102.704 30.7873 102.667 30.6951L102.414 30.0061H100.55L100.297 30.7886C100.297 30.9077 100.229 31.0012 100.204 31.0693C100.179 31.1373 100.153 31.2139 100.119 31.2904H100.659V31.6136L99.3434 31.6306ZM100.668 29.768H102.355L101.849 28.3647C101.798 28.2201 101.739 28.067 101.68 27.9224C101.621 27.7778 101.579 27.6162 101.52 27.4716L101.368 27.8799L101.216 28.2966L100.668 29.768Z" fill="#464545"/>
<path d="M106.142 31.6306V31.384C106.276 31.3899 106.408 31.3477 106.513 31.2649C106.582 31.1744 106.621 31.0642 106.623 30.9502C106.623 30.8141 106.623 30.661 106.623 30.4824V27.327C106.623 27.225 106.623 27.1314 106.623 27.0464C106.623 26.9613 106.623 26.8677 106.623 26.7997H106.109V26.4765H107.72V26.7232C107.653 26.7163 107.586 26.7234 107.522 26.7439C107.458 26.7643 107.399 26.7978 107.349 26.8422C107.277 26.9319 107.236 27.0421 107.23 27.1569C107.23 27.293 107.23 27.4461 107.23 27.6247V28.8239H107.77L108.673 27.3781C108.732 27.2845 108.808 27.1739 108.901 27.0549C108.985 26.9504 109.078 26.8536 109.179 26.7657H108.74V26.4595H110.284V26.7062C110.1 26.7114 109.918 26.7458 109.744 26.8082C109.577 26.8679 109.424 26.9637 109.297 27.0889C109.115 27.2675 108.959 27.4707 108.833 27.6927L108.158 28.9175C108.287 28.9958 108.402 29.0966 108.496 29.2152L108.749 29.5384L109.592 30.6355C109.729 30.8216 109.876 31.0005 110.031 31.1714C110.122 31.2638 110.231 31.3362 110.352 31.384C110.449 31.4015 110.549 31.4015 110.647 31.384V31.6306H109.803C109.73 31.6181 109.662 31.5824 109.609 31.5286C109.533 31.4605 109.449 31.367 109.356 31.2649L109.078 30.9077L108.234 29.7255L107.964 29.3853C107.888 29.2869 107.797 29.2009 107.694 29.1301H107.34V31.0948C107.346 31.1713 107.346 31.248 107.34 31.3244H107.855V31.6476L106.142 31.6306Z" fill="#464545"/>
<path d="M115.404 29.768C115.413 29.6103 115.384 29.4529 115.32 29.3087C115.289 29.2609 115.249 29.2207 115.2 29.1913C115.152 29.1618 115.098 29.1438 115.042 29.1386C114.876 29.1242 114.71 29.1242 114.544 29.1386H114.021V30.8396C114.021 30.9672 114.021 31.0778 114.021 31.1714C114.026 31.2507 114.026 31.3302 114.021 31.4095H115.387C115.575 31.4143 115.762 31.3796 115.936 31.3074C116.091 31.2338 116.218 31.1114 116.298 30.9587C116.392 30.7448 116.436 30.5119 116.425 30.2783H116.67V31.7072H112.967V31.384C113.1 31.3899 113.232 31.3477 113.338 31.2649C113.407 31.1744 113.445 31.0642 113.447 30.9502C113.447 30.8141 113.447 30.661 113.447 30.4824V27.327C113.447 27.225 113.447 27.1314 113.447 27.0464C113.447 26.9613 113.447 26.8677 113.447 26.7997H112.933V26.4765H116.383V27.7608H116.147C116.159 27.5353 116.116 27.3101 116.02 27.1059C115.943 26.9658 115.816 26.8597 115.666 26.8082C115.508 26.7546 115.343 26.7287 115.177 26.7317H114.561C114.427 26.7275 114.295 26.763 114.181 26.8337C114.1 26.9089 114.049 27.0119 114.038 27.1229C114.027 27.2843 114.027 27.4463 114.038 27.6077V28.7729H115.387L115.337 28.1435H115.657V29.768H115.404Z" fill="#464545"/>
<path d="M123.156 31.7412L120.288 27.8203L120.035 27.4801V30.9757C120.035 31.0948 120.035 31.2224 120.035 31.3329H120.558V31.6561H119.242V31.384C119.298 31.391 119.355 31.3863 119.408 31.3702C119.462 31.3541 119.512 31.3269 119.555 31.2904C119.618 31.2266 119.664 31.1476 119.69 31.0608C119.697 30.9759 119.697 30.8905 119.69 30.8056V26.7997H119.209V26.4765H120.052L122.743 30.1507L122.92 30.4059L123.114 30.6525V27.327C123.114 27.225 123.114 27.1314 123.114 27.0464C123.114 26.9613 123.114 26.8677 123.114 26.7997H122.591V26.4765H124V26.7232C123.935 26.716 123.868 26.7228 123.806 26.7434C123.743 26.7639 123.686 26.7976 123.637 26.8422C123.565 26.9307 123.526 27.0423 123.528 27.1569C123.528 27.293 123.528 27.4461 123.528 27.6247V31.7157L123.156 31.7412Z" fill="#464545"/>
</svg>
