<svg width="117" height="87" viewBox="0 0 117 87" fill="none" xmlns="http://www.w3.org/2000/svg">
<path d="M1.52813 87H1.41058C0.666107 87 0.215506 86.6432 0.0587743 85.9296L0 84.9781L0.0587743 84.0267C1.54772 68.2085 5.34845 51.1415 11.461 32.8257C14.3605 24.0246 18.4355 15.8182 23.686 8.20643C25.6059 5.23308 28.0157 2.73547 30.9152 0.7136C31.5421 0.237867 32.2278 0 32.9723 0H33.3249C33.5992 0 33.7364 0.0991113 33.7364 0.297334C33.7364 0.416268 33.6384 0.535203 33.4425 0.654138C33.4425 0.693779 33.4229 0.7136 33.3837 0.7136C31.307 1.98223 29.6026 3.62748 28.2704 5.64935C21.9619 13.9351 16.8094 25.9077 12.8128 41.5673C12.6952 41.8448 12.6364 42.1224 12.6364 42.3999L12.754 42.4593L14.2821 39.7833C15.4184 37.8407 16.5351 35.8783 17.6322 33.8961C22.1774 25.4122 28.2508 18.2167 35.8522 12.3096C40.9068 8.30554 46.6275 5.88722 53.0143 5.05468C53.9547 4.93575 54.895 4.87628 55.8354 4.87628C58.1864 4.87628 60.4982 5.27273 62.7708 6.06562C67.2768 7.88927 69.6865 11.2591 70 16.175V16.4129C70 20.5755 69.0204 24.4805 67.0613 28.1278C62.1635 37.2461 55.5807 44.8578 47.3132 50.9631C39.0064 57.4648 30.6997 61.8455 22.3929 64.1053C22.3538 64.1449 22.295 64.1647 22.2166 64.1647C21.9815 64.1647 21.864 64.2044 21.864 64.2837C21.864 64.363 21.864 64.4224 21.864 64.4621C21.864 64.5414 21.9032 64.6603 21.9815 64.8189C23.4705 67.1579 24.7439 69.596 25.8018 72.1333L26.7422 74.2741C28.192 77.5646 30.112 79.2098 32.5021 79.2098C32.9723 79.2098 33.4817 79.1306 34.0302 78.972C36.7338 78.1791 39.2024 76.9303 41.4358 75.2256C45.2365 72.3315 48.8609 69.2194 52.309 65.8893C55.1301 63.1538 56.6583 61.7662 56.8934 61.7266C57.0501 61.7266 57.1872 61.7861 57.3048 61.905C57.4223 61.9843 57.4811 62.0636 57.4811 62.1429C57.4811 62.2221 57.3832 62.3609 57.1872 62.5591C57.1481 62.5591 55.9334 63.7683 53.5432 66.1866C45.4716 75.067 38.4775 79.7252 32.5609 80.1613H32.267C29.2891 80.1613 26.9381 78.8729 25.2141 76.296C24.3521 74.9481 23.6076 73.5605 22.9807 72.1333C22.3538 70.7061 21.2175 68.5455 19.5718 65.6514C19.2583 65.1757 18.8861 64.9378 18.4551 64.9378L18.0437 64.9973C16.7506 65.2748 15.4772 65.4135 14.2233 65.4135C12.0683 65.4135 9.93283 64.9973 7.81696 64.1647C7.66023 64.0854 7.52309 64.0458 7.40554 64.0458C7.24881 64.0458 7.15085 64.1251 7.11167 64.2837C7.07249 64.4026 7.0529 64.6008 7.0529 64.8783C6.19088 68.7635 5.38763 72.6288 4.64316 76.4744C4.29051 78.0998 3.83991 79.6856 3.29135 81.2317C2.66443 83.1743 2.25301 84.7204 2.0571 85.8701L2.11587 86.4053C2.11587 86.5243 2.09628 86.6432 2.0571 86.7621C2.01791 86.8811 1.84159 86.9604 1.52813 87ZM20.9824 62.9159C21.2566 62.9159 21.5309 62.8763 21.8052 62.797C27.2516 61.2112 32.365 58.8722 37.1453 55.7799C48.3907 48.6439 56.8542 40.0014 62.5357 29.8524C64.7299 26.0068 66.0034 21.864 66.356 17.4238V16.8291C66.356 11.3185 63.7895 7.90909 58.6566 6.60082C57.7554 6.4026 56.8542 6.30349 55.953 6.30349H55.1889C51.7017 6.50171 48.3907 7.33425 45.2561 8.80109C38.1248 12.2898 32.2082 17.2057 27.5063 23.5489C20.1399 33.1429 14.3213 43.6288 10.0504 55.0068L8.6398 58.9316C8.95326 58.9316 9.22754 58.9118 9.46264 58.8722C10.0896 58.8325 10.7557 58.8127 11.461 58.8127C14.7131 58.8127 17.4951 59.9822 19.8069 62.3213C20.1595 62.7177 20.5514 62.9159 20.9824 62.9159ZM13.8119 64.1647C15.1441 64.1647 16.5155 63.9863 17.9261 63.6295C15.8494 61.2509 13.5181 60.0615 10.932 60.0615C10.3442 60.0615 9.71733 60.1408 9.05122 60.2994C8.42429 60.4183 8.03247 60.8346 7.87574 61.5482L7.81696 61.905C7.85614 62.2221 8.07165 62.46 8.46348 62.6186L8.6398 62.797C10.0112 63.7088 11.7352 64.1647 13.8119 64.1647Z" fill="#464545"/>
<path d="M56.8729 69C56.7168 69 56.4437 68.9369 56.0535 68.8107C55.3512 68.634 55 67.7253 55 66.0846C55 64.9993 55.1301 63.9265 55.3902 62.8664C56.1706 59.686 57.4972 56.7454 59.3701 54.0445L59.4091 53.9688C60.2936 52.6563 61.113 52 61.8673 52C62.2315 52 62.5957 52.1388 62.9599 52.4165C63.22 52.6184 63.3501 52.7951 63.3501 52.9465C63.3501 53.0728 63.1159 53.5019 62.6477 54.2339C62.5697 54.3096 62.5046 54.3979 62.4526 54.4989C60.6577 57.0735 59.201 59.7996 58.0825 62.6771C57.5883 63.9391 57.1981 65.2264 56.9119 66.539V66.6526C56.8599 66.7788 56.8339 66.9176 56.8339 67.069C56.8339 67.2205 56.8729 67.3846 56.9509 67.5612C57.2371 67.3593 57.4842 67.1321 57.6923 66.8797L57.8094 66.804C59.2401 65.2643 60.6317 63.6741 61.9844 62.0334C64.2215 59.3578 66.5236 56.8842 68.8907 54.6125C69.2029 54.2843 69.45 54.1203 69.6321 54.1203C69.7882 54.1455 70.0483 54.297 70.4125 54.5746V54.6125C70.9327 55.0163 71.3099 55.4959 71.544 56.0512L71.5831 56.1269C72.5195 58.121 74.0543 59.118 76.1873 59.118C78.7625 58.9918 81.806 58.0327 85.3177 56.2405L86.7224 55.5969L88.9855 54.4989C89.1936 54.3727 89.4147 54.3096 89.6488 54.3096C89.8829 54.3096 90 54.3979 90 54.5746C90 54.6251 89.974 54.6756 89.922 54.7261C89.8699 54.7765 89.7789 54.827 89.6488 54.8775C89.4928 55.0037 89.3237 55.1047 89.1416 55.1804C87.6849 55.9376 85.812 56.8337 83.5229 57.8686C81.728 58.7773 79.8161 59.3957 77.7871 59.7238C77.3188 59.7996 76.8766 59.8374 76.4604 59.8374C74.0152 59.8374 72.0253 58.7899 70.4905 56.6949C70.1784 56.2405 70.0223 55.9629 70.0223 55.8619C69.8922 55.5843 69.7882 55.4328 69.7101 55.4076C69.6061 55.4076 69.476 55.4959 69.32 55.6726C69.1639 55.8241 69.0208 55.9629 68.8907 56.0891C66.1334 58.9918 63.7923 61.6422 61.8673 64.0401C60.0725 66.1604 59.032 67.3593 58.7458 67.637C58.4597 67.9146 58.1865 68.2049 57.9264 68.5078C57.6403 68.8359 57.2891 69 56.8729 69Z" fill="#464545"/>
<path d="M96.7071 64C96.2543 64 95.6152 63.885 94.7896 63.6549C93.964 63.4503 93.1917 62.7345 92.4727 61.5074C92.0466 60.6637 91.8336 59.8073 91.8336 58.9381V58.823C91.8336 58.6441 91.7936 58.4395 91.7137 58.2094C91.5539 58.414 91.1012 58.8358 90.3555 59.4749C89.7696 60.0885 89.1704 60.3953 88.5579 60.3953C88.2916 60.3953 87.972 60.3058 87.5992 60.1268C87.2264 59.9223 87.0266 59.5516 87 59.0147V58.6696C87 55.6018 88.3715 53.2114 91.1145 51.4985C91.7004 51.1662 92.273 51 92.8322 51C93.4714 51 94.0972 51.1917 94.7097 51.5752C94.763 51.6008 94.8296 51.6519 94.9095 51.7286C94.9893 51.7797 95.0692 51.8181 95.1491 51.8437C95.2557 51.8692 95.3356 51.882 95.3888 51.882L95.8282 51.8437C95.988 51.8437 96.1744 51.8948 96.3875 51.997L96.4274 52.0354C96.9068 52.2655 97.1465 52.4956 97.1465 52.7257C97.1465 53.058 96.8668 53.6332 96.3076 54.4513C95.0293 56.4454 94.3901 58.4012 94.3901 60.3186C94.3901 61.06 94.51 61.6991 94.7497 62.236C94.9893 62.7729 95.4021 63.0413 95.988 63.0413C97.1598 62.9902 98.2517 62.6834 99.2636 62.1209C100.569 61.4818 102.379 60.4848 104.696 59.1298C106.401 58.1072 108.132 57.1101 109.889 56.1386C113.218 54.3491 115.376 53.4543 116.361 53.4543C116.76 53.4543 116.96 53.5438 116.96 53.7227L117 53.8761C115.455 54.1062 113.684 54.7837 111.687 55.9086C109.69 57.0334 107.666 58.2606 105.615 59.59C102.952 61.3795 100.688 62.7089 98.8242 63.5782C98.1318 63.8594 97.4261 64 96.7071 64ZM88.5979 59.4366L89.6365 58.708C91.3142 57.174 92.7124 55.4356 93.8309 53.4926C93.8842 53.3904 93.9374 53.2881 93.9907 53.1858C94.0439 53.0836 94.0706 52.9941 94.0706 52.9174C94.0706 52.8918 94.0573 52.8407 94.0306 52.764C94.004 52.6873 93.9507 52.5978 93.8708 52.4956C93.7909 52.3677 93.6844 52.3038 93.5513 52.3038C93.3116 52.3038 92.8855 52.5211 92.273 52.9558C90.7816 54.1829 89.6897 55.6785 88.9973 57.4425C88.731 57.9794 88.5979 58.6441 88.5979 59.4366Z" fill="#464545"/>
</svg>
