<svg width="176" height="100" viewBox="0 0 176 100" fill="none" xmlns="http://www.w3.org/2000/svg">
<path d="M1.73516 99.645H1.60169C0.756354 99.645 0.244703 99.2399 0.0667372 98.4296L0 97.3492L0.0667372 96.2688C1.75741 78.3075 6.07308 58.9283 13.0137 38.131C16.3061 28.1375 20.9332 18.8192 26.895 10.1762C29.0751 6.79999 31.8113 3.964 35.1037 1.66819C35.8156 1.128 36.5942 0.85791 37.4395 0.85791H37.8399C38.1514 0.85791 38.3071 0.970449 38.3071 1.19553C38.3071 1.33058 38.1959 1.46562 37.9734 1.60067C37.9734 1.64569 37.9512 1.66819 37.9067 1.66819C35.5486 3.1087 33.6132 4.97685 32.1005 7.27266C24.9374 16.681 19.0868 30.2757 14.5487 48.0569C14.4152 48.3721 14.3485 48.6872 14.3485 49.0023L14.4819 49.0698L16.2171 46.0312C17.5074 43.8255 18.7754 41.5972 20.0211 39.3464C25.1821 29.713 32.0783 21.5427 40.7096 14.8353C46.449 10.2887 52.9448 7.54276 60.1969 6.59742C61.2646 6.46237 62.3324 6.39485 63.4002 6.39485C66.0697 6.39485 68.6947 6.84501 71.2752 7.74532C76.3917 9.81605 79.1279 13.6424 79.4839 19.2243V19.4944C79.4839 24.2211 78.3716 28.6551 76.147 32.7966C70.5856 43.1502 63.111 51.7933 53.7234 58.7257C44.2912 66.1083 34.859 71.0825 25.4268 73.6484C25.3823 73.6934 25.3156 73.7159 25.2266 73.7159C24.9597 73.7159 24.8262 73.7609 24.8262 73.851C24.8262 73.941 24.8262 74.0085 24.8262 74.0536C24.8262 74.1436 24.8707 74.2786 24.9597 74.4587C26.6503 77.1146 28.0963 79.8831 29.2976 82.7641L30.3654 85.195C32.0116 88.9313 34.1916 90.7994 36.9056 90.7994C37.4395 90.7994 38.0179 90.7094 38.6408 90.5293C41.7107 89.629 44.5136 88.211 47.0497 86.2753C51.3653 82.9892 55.4808 79.4554 59.396 75.6741C62.5994 72.568 64.3346 70.9925 64.6015 70.9475C64.7795 70.9475 64.9352 71.015 65.0687 71.15C65.2021 71.2401 65.2689 71.3301 65.2689 71.4201C65.2689 71.5102 65.1576 71.6677 64.9352 71.8928C64.8907 71.8928 63.5115 73.2658 60.7975 76.0117C51.6323 86.0953 43.6905 91.3846 36.9723 91.8798H36.6387C33.2573 91.8798 30.5878 90.4168 28.6302 87.4908C27.6514 85.9602 26.8061 84.3847 26.0942 82.7641C25.3823 81.1435 24.0921 78.6902 22.2235 75.404C21.8675 74.8638 21.4449 74.5937 20.9554 74.5937L20.4883 74.6613C19.0201 74.9764 17.5741 75.1339 16.1504 75.1339C13.7033 75.1339 11.2786 74.6613 8.87603 73.7159C8.69807 73.6259 8.54235 73.5809 8.40887 73.5809C8.23091 73.5809 8.11968 73.6709 8.07519 73.851C8.0307 73.986 8.00845 74.2111 8.00845 74.5262C7.02964 78.9378 6.11757 83.3268 5.27223 87.6933C4.87181 89.539 4.36016 91.3396 3.73728 93.0952C3.02542 95.301 2.55826 97.0566 2.3358 98.3621L2.40254 98.9698C2.40254 99.1048 2.38029 99.2399 2.3358 99.3749C2.29131 99.51 2.0911 99.6 1.73516 99.645ZM23.8251 72.2979C24.1366 72.2979 24.448 72.2529 24.7595 72.1629C30.9438 70.3623 36.7499 67.7063 42.1778 64.1951C54.9469 56.0923 64.557 46.2788 71.0083 34.7548C73.4998 30.3883 74.9458 25.6841 75.3462 20.6423V19.9671C75.3462 13.7099 72.432 9.83856 66.6036 8.35304C65.5803 8.12796 64.557 8.01542 63.5337 8.01542H62.6661C58.7064 8.2405 54.9469 9.18583 51.3876 10.8514C43.2901 14.8128 36.5719 20.3948 31.233 27.5973C22.8686 38.4911 16.2616 50.3978 11.412 63.3173L9.81035 67.7739C10.1663 67.7739 10.4777 67.7513 10.7447 67.7063C11.4565 67.6613 12.2129 67.6388 13.0137 67.6388C16.7065 67.6388 19.8654 68.9668 22.4904 71.6227C22.8908 72.0729 23.3357 72.2979 23.8251 72.2979ZM15.6832 73.7159C17.1959 73.7159 18.7531 73.5134 20.3548 73.1082C17.9968 70.4073 15.3495 69.0568 12.4131 69.0568C11.7457 69.0568 11.0339 69.1468 10.2775 69.3269C9.56565 69.4619 9.12074 69.9346 8.94277 70.7449L8.87603 71.15C8.92052 71.5102 9.16523 71.7803 9.61014 71.9603L9.81035 72.1629C11.3675 73.1983 13.3252 73.7159 15.6832 73.7159Z" fill="#FEFCF9"/>
<path d="M37.471 32.6514H176V44.0062H37.471V32.6514Z" fill="#799491"/>
<path d="M64.5783 79.2061C64.401 79.2061 64.0909 79.1344 63.6478 78.9911C62.8503 78.7905 62.4516 77.7587 62.4516 75.8957C62.4516 74.6633 62.5993 73.4452 62.8947 72.2414C63.7808 68.6301 65.2871 65.2911 67.4138 62.2244L67.4581 62.1384C68.4624 60.648 69.3928 59.9028 70.2493 59.9028C70.6629 59.9028 71.0764 60.0605 71.4899 60.3757C71.7853 60.605 71.933 60.8057 71.933 60.9776C71.933 61.1209 71.6671 61.6082 71.1355 62.4393C71.0468 62.5253 70.973 62.6256 70.9139 62.7403C68.8759 65.6637 67.2218 68.7591 65.9517 72.0265C65.3905 73.4595 64.9475 74.9212 64.6226 76.4116V76.5406C64.5635 76.6839 64.534 76.8415 64.534 77.0135C64.534 77.1855 64.5783 77.3717 64.6669 77.5724C64.9918 77.3431 65.2724 77.0851 65.5087 76.7985L65.6416 76.7125C67.2661 74.9642 68.8463 73.1586 70.3823 71.2956C72.9224 68.2575 75.5365 65.4487 78.2243 62.8693C78.5788 62.4967 78.8594 62.3104 79.0661 62.3104C79.2433 62.339 79.5387 62.511 79.9522 62.8263V62.8693C80.543 63.3278 80.9713 63.8724 81.2371 64.5029L81.2814 64.5889C82.3447 66.8531 84.0874 67.9853 86.5094 67.9853C89.4336 67.8419 92.8894 66.7528 96.8769 64.7179L98.4719 63.987L101.042 62.7403C101.278 62.597 101.529 62.5253 101.795 62.5253C102.061 62.5253 102.194 62.6256 102.194 62.8263C102.194 62.8836 102.164 62.9409 102.105 62.9982C102.046 63.0555 101.942 63.1129 101.795 63.1702C101.618 63.3135 101.426 63.4281 101.219 63.5141C99.5647 64.374 97.4381 65.3914 94.8388 66.5665C92.8008 67.5983 90.6298 68.3005 88.3259 68.6731C87.7943 68.7591 87.2922 68.8021 86.8196 68.8021C84.0431 68.8021 81.7835 67.6127 80.0408 65.2338C79.6864 64.7179 79.5092 64.4026 79.5092 64.288C79.3615 63.9727 79.2433 63.8007 79.1547 63.7721C79.0366 63.7721 78.8889 63.8724 78.7117 64.073C78.5345 64.245 78.372 64.4026 78.2243 64.5459C75.0934 67.8419 72.4351 70.8514 70.2493 73.5742C68.2113 75.9817 67.0298 77.3431 66.7049 77.6584C66.38 77.9736 66.0699 78.3032 65.7745 78.6472C65.4496 79.0198 65.0508 79.2061 64.5783 79.2061Z" fill="#FEFCF9"/>
<path d="M109.809 73.5289C109.295 73.5289 108.57 73.3982 107.632 73.137C106.695 72.9047 105.818 72.0919 105.001 70.6985C104.517 69.7406 104.276 68.7681 104.276 67.7811V67.6505C104.276 67.4473 104.23 67.215 104.139 66.9538C103.958 67.186 103.444 67.665 102.597 68.3907C101.932 69.0874 101.252 69.4358 100.556 69.4358C100.254 69.4358 99.8908 69.3342 99.4675 69.131C99.0441 68.8987 98.8173 68.4778 98.7871 67.8682V67.4763C98.7871 63.9928 100.344 61.2786 103.459 59.3336C104.124 58.9563 104.774 58.7676 105.41 58.7676C106.135 58.7676 106.846 58.9853 107.541 59.4207C107.602 59.4498 107.677 59.5078 107.768 59.5949C107.859 59.653 107.95 59.6965 108.04 59.7255C108.161 59.7546 108.252 59.7691 108.312 59.7691L108.811 59.7255C108.993 59.7255 109.205 59.7836 109.446 59.8997L109.492 59.9433C110.036 60.2045 110.308 60.4658 110.308 60.727C110.308 61.1044 109.991 61.7576 109.356 62.6865C107.904 64.9508 107.179 67.1715 107.179 69.3487C107.179 70.1905 107.315 70.9163 107.587 71.5259C107.859 72.1355 108.328 72.4403 108.993 72.4403C110.323 72.3822 111.563 72.0339 112.712 71.3952C114.194 70.6695 116.25 69.5374 118.881 67.9988C120.816 66.8377 122.782 65.7055 124.778 64.6024C128.558 62.5704 131.007 61.5544 132.126 61.5544C132.579 61.5544 132.806 61.656 132.806 61.8592L132.852 62.0334C131.098 62.2946 129.087 63.0639 126.819 64.3412C124.551 65.6184 122.253 67.0118 119.924 68.5214C116.9 70.5534 114.33 72.0629 112.213 73.0499C111.427 73.3692 110.626 73.5289 109.809 73.5289ZM100.601 68.3472L101.781 67.5198C103.686 65.7781 105.273 63.8041 106.543 61.5979C106.604 61.4818 106.664 61.3657 106.725 61.2496C106.785 61.1334 106.816 61.0318 106.816 60.9448C106.816 60.9157 106.801 60.8577 106.77 60.7706C106.74 60.6835 106.68 60.5819 106.589 60.4658C106.498 60.3206 106.377 60.2481 106.226 60.2481C105.954 60.2481 105.47 60.4948 104.774 60.9883C103.081 62.3817 101.841 64.0799 101.055 66.0829C100.753 66.6925 100.601 67.4473 100.601 68.3472Z" fill="#FEFCF9"/>
<path d="M73.9337 49.6057V49.4445C74.0303 49.4445 74.1044 49.4184 74.1559 49.3663C74.2074 49.3142 74.2493 49.2426 74.2815 49.1514C74.3169 49.0602 74.3571 48.9543 74.4022 48.8338L75.3973 46.0932H75.5132L76.5903 48.8729C76.6161 48.9413 76.645 49.0293 76.6772 49.1367C76.7095 49.2442 76.7223 49.3354 76.7159 49.4103C76.7706 49.4071 76.8254 49.4038 76.8801 49.4005C76.9349 49.3973 76.9896 49.394 77.0443 49.3908V49.6057H75.9382V49.4445C76.0606 49.4412 76.1411 49.4136 76.1797 49.3615C76.2184 49.3093 76.2329 49.2475 76.2232 49.1758C76.2136 49.1042 76.1975 49.039 76.1749 48.9804L76.0059 48.5212L74.75 48.5505L74.5809 49.0732C74.5584 49.1514 74.5375 49.2133 74.5182 49.2589C74.5021 49.3045 74.4827 49.3549 74.4602 49.4103C74.5246 49.4071 74.5874 49.4038 74.6486 49.4005C74.713 49.3973 74.7758 49.394 74.8369 49.3908V49.6057H73.9337ZM74.8225 48.3404H75.9382L75.5953 47.4073C75.5599 47.3064 75.5228 47.207 75.4842 47.1093C75.4488 47.0084 75.4134 46.9074 75.3779 46.8064H75.3683C75.3361 46.8976 75.3023 46.9888 75.2668 47.08C75.2346 47.1712 75.2008 47.264 75.1654 47.3585L74.8225 48.3404Z" fill="#FEFCF9"/>
<path d="M81.7591 47.2754C81.7269 46.9693 81.6206 46.7315 81.4403 46.5622C81.2632 46.3928 81.0345 46.3081 80.7544 46.3081C80.5837 46.3081 80.4227 46.3456 80.2714 46.4205C80.1232 46.4922 79.9928 46.5964 79.8801 46.7332C79.7674 46.8699 79.6789 47.0344 79.6145 47.2266C79.5501 47.4187 79.5179 47.6353 79.5179 47.8763C79.5179 48.1825 79.5758 48.4528 79.6917 48.6873C79.8077 48.9218 79.9638 49.1042 80.1603 49.2344C80.3567 49.3647 80.5741 49.4298 80.8124 49.4298C81.0217 49.4298 81.2277 49.3826 81.4306 49.2882C81.6335 49.1905 81.7993 49.0504 81.9281 48.868L82.0537 48.9706C81.9152 49.1628 81.7655 49.311 81.6045 49.4152C81.4435 49.5194 81.2825 49.5894 81.1215 49.6253C80.9637 49.6643 80.8188 49.6839 80.6868 49.6839C80.4453 49.6839 80.2231 49.6399 80.0202 49.552C79.8206 49.464 79.6467 49.3419 79.4985 49.1856C79.3536 49.026 79.2409 48.842 79.1604 48.6335C79.0831 48.4218 79.0445 48.1939 79.0445 47.9496C79.0445 47.7184 79.0783 47.4936 79.1459 47.2754C79.2168 47.0572 79.3214 46.8602 79.4599 46.6843C79.5984 46.5084 79.7722 46.3684 79.9816 46.2642C80.1941 46.16 80.4404 46.1078 80.7206 46.1078C80.9009 46.1078 81.0716 46.1323 81.2326 46.1811C81.3936 46.23 81.5481 46.3049 81.6963 46.4058L81.6721 46.142H81.933V47.2754H81.7591Z" fill="#FEFCF9"/>
<path d="M86.9961 47.2754C86.9639 46.9693 86.8576 46.7315 86.6773 46.5622C86.5002 46.3928 86.2715 46.3081 85.9914 46.3081C85.8207 46.3081 85.6597 46.3456 85.5084 46.4205C85.3602 46.4922 85.2298 46.5964 85.1171 46.7332C85.0044 46.8699 84.9158 47.0344 84.8514 47.2266C84.787 47.4187 84.7548 47.6353 84.7548 47.8763C84.7548 48.1825 84.8128 48.4528 84.9287 48.6873C85.0447 48.9218 85.2008 49.1042 85.3973 49.2344C85.5937 49.3647 85.811 49.4298 86.0493 49.4298C86.2586 49.4298 86.4647 49.3826 86.6676 49.2882C86.8705 49.1905 87.0363 49.0504 87.1651 48.868L87.2907 48.9706C87.1522 49.1628 87.0025 49.311 86.8415 49.4152C86.6805 49.5194 86.5195 49.5894 86.3585 49.6253C86.2007 49.6643 86.0558 49.6839 85.9237 49.6839C85.6822 49.6839 85.4601 49.6399 85.2572 49.552C85.0575 49.464 84.8836 49.3419 84.7355 49.1856C84.5906 49.026 84.4779 48.842 84.3974 48.6335C84.3201 48.4218 84.2815 48.1939 84.2815 47.9496C84.2815 47.7184 84.3153 47.4936 84.3829 47.2754C84.4538 47.0572 84.5584 46.8602 84.6969 46.6843C84.8353 46.5084 85.0092 46.3684 85.2185 46.2642C85.4311 46.16 85.6774 46.1078 85.9576 46.1078C86.1379 46.1078 86.3086 46.1323 86.4696 46.1811C86.6306 46.23 86.7851 46.3049 86.9333 46.4058L86.9091 46.142H87.1699V47.2754H86.9961Z" fill="#FEFCF9"/>
<path d="M91.2428 48.3404C91.2428 48.1971 91.2235 48.0945 91.1849 48.0327C91.1462 47.9708 91.0851 47.9333 91.0013 47.9203C90.9176 47.9073 90.8065 47.904 90.6681 47.9105L90.3155 47.9252V49.0439C90.3155 49.1318 90.3138 49.2068 90.3106 49.2686C90.3106 49.3305 90.3074 49.3826 90.301 49.425L91.2235 49.4103C91.3652 49.4071 91.4876 49.3843 91.5906 49.3419C91.6937 49.2963 91.7742 49.2182 91.8321 49.1074C91.8901 48.9967 91.9191 48.8452 91.9191 48.6531H92.0833L92.0543 49.6057H89.5619V49.4445C89.6843 49.438 89.768 49.4103 89.8131 49.3615C89.8582 49.3093 89.8823 49.2393 89.8856 49.1514C89.892 49.0602 89.8952 48.9576 89.8952 48.8436V46.7332C89.8952 46.668 89.8968 46.6061 89.9001 46.5475C89.9033 46.4856 89.9065 46.4303 89.9097 46.3814C89.8518 46.3847 89.7938 46.3879 89.7358 46.3912C89.6779 46.3944 89.6199 46.3977 89.5619 46.401V46.186H91.8853L91.9094 47.0409H91.75C91.75 46.8488 91.721 46.7038 91.6631 46.6061C91.6051 46.5052 91.5262 46.4384 91.4264 46.4058C91.3298 46.37 91.2203 46.3537 91.0979 46.357L90.6825 46.3668C90.5634 46.37 90.4781 46.3928 90.4265 46.4352C90.375 46.4775 90.3428 46.541 90.3299 46.6257C90.3203 46.7071 90.3155 46.8146 90.3155 46.9481V47.7298L91.2235 47.7346L91.1897 47.3145H91.4022V48.3404H91.2428Z" fill="#FEFCF9"/>
<path d="M96.3246 47.2217C96.3149 47.0654 96.2779 46.9172 96.2135 46.7771C96.1491 46.6371 96.0557 46.5231 95.9333 46.4352C95.8109 46.3472 95.6548 46.3033 95.4648 46.3033C95.2651 46.3033 95.1122 46.3603 95.0059 46.4742C94.8996 46.5882 94.8465 46.7218 94.8465 46.8748C94.8465 47.0116 94.8852 47.1272 94.9624 47.2217C95.0397 47.3129 95.1395 47.3943 95.2619 47.466C95.3875 47.5344 95.5195 47.6011 95.658 47.6663C95.7804 47.7216 95.9027 47.7819 96.0251 47.847C96.1474 47.9089 96.2585 47.9805 96.3584 48.062C96.4582 48.1434 96.5371 48.2411 96.595 48.3551C96.6562 48.4658 96.6868 48.5993 96.6868 48.7557C96.6868 48.9348 96.6417 49.0944 96.5516 49.2344C96.4646 49.3745 96.3374 49.4852 96.17 49.5666C96.0025 49.6448 95.7981 49.6839 95.5566 49.6839C95.4116 49.6839 95.2619 49.6627 95.1073 49.6204C94.9528 49.578 94.8159 49.5162 94.6968 49.4347L94.7209 49.6448H94.4698L94.4408 48.6042H94.6292C94.6453 48.8908 94.7435 49.109 94.9238 49.2589C95.1041 49.4054 95.3215 49.4787 95.5759 49.4787C95.7015 49.4787 95.8174 49.4559 95.9236 49.4103C96.0299 49.3615 96.1136 49.2914 96.1748 49.2002C96.2392 49.109 96.2714 48.9983 96.2714 48.868C96.2714 48.7215 96.2328 48.5993 96.1555 48.5016C96.0782 48.4039 95.9784 48.3193 95.856 48.2476C95.7337 48.176 95.6032 48.1076 95.4648 48.0424C95.3424 47.9871 95.2217 47.9284 95.1025 47.8666C94.9834 47.8047 94.8739 47.7346 94.7741 47.6565C94.6775 47.5751 94.5986 47.479 94.5374 47.3683C94.4794 47.2575 94.4504 47.124 94.4504 46.9677C94.4504 46.883 94.4649 46.7918 94.4939 46.6941C94.5229 46.5964 94.5728 46.5036 94.6436 46.4156C94.7177 46.3244 94.8175 46.2511 94.9431 46.1958C95.0719 46.1372 95.2345 46.1078 95.431 46.1078C95.5533 46.1078 95.6902 46.1258 95.8415 46.1616C95.9961 46.1941 96.1394 46.2593 96.2714 46.357L96.2521 46.1469H96.4984V47.2217H96.3246Z" fill="#FEFCF9"/>
<path d="M100.925 47.2217C100.915 47.0654 100.878 46.9172 100.814 46.7771C100.749 46.6371 100.656 46.5231 100.534 46.4352C100.411 46.3472 100.255 46.3033 100.065 46.3033C99.8653 46.3033 99.7124 46.3603 99.6061 46.4742C99.4998 46.5882 99.4467 46.7218 99.4467 46.8748C99.4467 47.0116 99.4853 47.1272 99.5626 47.2217C99.6399 47.3129 99.7397 47.3943 99.8621 47.466C99.9877 47.5344 100.12 47.6011 100.258 47.6663C100.381 47.7216 100.503 47.7819 100.625 47.847C100.748 47.9089 100.859 47.9805 100.959 48.062C101.058 48.1434 101.137 48.2411 101.195 48.3551C101.256 48.4658 101.287 48.5993 101.287 48.7557C101.287 48.9348 101.242 49.0944 101.152 49.2344C101.065 49.3745 100.938 49.4852 100.77 49.5666C100.603 49.6448 100.398 49.6839 100.157 49.6839C100.012 49.6839 99.8621 49.6627 99.7075 49.6204C99.553 49.578 99.4161 49.5162 99.297 49.4347L99.3211 49.6448H99.0699L99.041 48.6042H99.2293C99.2454 48.8908 99.3437 49.109 99.524 49.2589C99.7043 49.4054 99.9217 49.4787 100.176 49.4787C100.302 49.4787 100.418 49.4559 100.524 49.4103C100.63 49.3615 100.714 49.2914 100.775 49.2002C100.839 49.109 100.872 48.9983 100.872 48.868C100.872 48.7215 100.833 48.5993 100.756 48.5016C100.678 48.4039 100.579 48.3193 100.456 48.2476C100.334 48.176 100.203 48.1076 100.065 48.0424C99.9426 47.9871 99.8219 47.9284 99.7027 47.8666C99.5836 47.8047 99.4741 47.7346 99.3743 47.6565C99.2776 47.5751 99.1988 47.479 99.1376 47.3683C99.0796 47.2575 99.0506 47.124 99.0506 46.9677C99.0506 46.883 99.0651 46.7918 99.0941 46.6941C99.1231 46.5964 99.173 46.5036 99.2438 46.4156C99.3179 46.3244 99.4177 46.2511 99.5433 46.1958C99.6721 46.1372 99.8347 46.1078 100.031 46.1078C100.154 46.1078 100.29 46.1258 100.442 46.1616C100.596 46.1941 100.74 46.2593 100.872 46.357L100.852 46.1469H101.099V47.2217H100.925Z" fill="#FEFCF9"/>
<path d="M104.713 46.3472C104.594 46.3505 104.511 46.3782 104.462 46.4303C104.417 46.4824 104.391 46.5524 104.385 46.6403C104.382 46.7283 104.38 46.8309 104.38 46.9481V49.0244C104.38 49.1123 104.379 49.1888 104.375 49.254C104.375 49.3159 104.372 49.368 104.366 49.4103C104.424 49.4071 104.482 49.4038 104.54 49.4005C104.598 49.3973 104.656 49.394 104.713 49.3908V49.6057H103.627V49.4445C103.749 49.438 103.833 49.4103 103.878 49.3615C103.923 49.3093 103.947 49.2393 103.95 49.1514C103.957 49.0602 103.96 48.9576 103.96 48.8436V46.7332C103.96 46.668 103.962 46.6061 103.965 46.5475C103.968 46.4856 103.971 46.4303 103.974 46.3814C103.916 46.3847 103.859 46.3879 103.801 46.3912C103.743 46.3944 103.685 46.3977 103.627 46.401V46.186H104.713V46.3472Z" fill="#FEFCF9"/>
<path d="M107.104 49.6057V49.4445C107.227 49.4412 107.31 49.4136 107.355 49.3615C107.4 49.3061 107.425 49.2328 107.428 49.1416C107.434 49.0472 107.438 48.9397 107.438 48.8192V46.7674C107.438 46.6794 107.439 46.6045 107.442 46.5426C107.446 46.4775 107.449 46.4238 107.452 46.3814C107.394 46.3847 107.336 46.3879 107.278 46.3912C107.22 46.3944 107.162 46.3977 107.104 46.401V46.186C107.281 46.1828 107.458 46.1811 107.636 46.1811C107.816 46.1779 108.003 46.1762 108.196 46.1762C108.569 46.1762 108.861 46.243 109.07 46.3765C109.283 46.5101 109.386 46.7218 109.379 47.0116C109.379 47.1158 109.349 47.2201 109.287 47.3243C109.23 47.4285 109.141 47.5213 109.022 47.6027C108.906 47.6809 108.759 47.7363 108.582 47.7688V47.7786C108.936 47.7786 109.204 47.8617 109.384 48.0278C109.564 48.1906 109.655 48.3974 109.655 48.6482C109.655 48.8469 109.605 49.0179 109.505 49.1612C109.405 49.3045 109.27 49.4152 109.099 49.4934C108.928 49.5683 108.734 49.6057 108.515 49.6057H107.104ZM107.843 49.4103C107.895 49.4136 107.956 49.4168 108.027 49.4201C108.101 49.4201 108.168 49.4201 108.23 49.4201C108.294 49.4201 108.336 49.4201 108.355 49.4201C108.603 49.4201 108.803 49.3582 108.954 49.2344C109.109 49.1074 109.186 48.9218 109.186 48.6775C109.186 48.4788 109.147 48.3241 109.07 48.2134C108.993 48.1027 108.891 48.0245 108.766 47.9789C108.64 47.9333 108.503 47.9105 108.355 47.9105C108.259 47.9105 108.17 47.9121 108.09 47.9154C108.012 47.9154 107.935 47.9187 107.858 47.9252V49.0293C107.858 49.1172 107.856 49.1921 107.853 49.254C107.853 49.3159 107.85 49.368 107.843 49.4103ZM107.858 47.7346L108.21 47.7249C108.394 47.7216 108.539 47.6842 108.645 47.6125C108.751 47.5376 108.827 47.4448 108.872 47.3341C108.92 47.2233 108.943 47.1077 108.94 46.9872C108.936 46.8113 108.896 46.6778 108.819 46.5866C108.745 46.4954 108.653 46.4335 108.544 46.401C108.434 46.3684 108.326 46.3521 108.22 46.3521C108.114 46.3521 108.035 46.3668 107.983 46.3961C107.932 46.4254 107.898 46.4742 107.882 46.5426C107.866 46.611 107.858 46.7055 107.858 46.826V47.7346Z" fill="#FEFCF9"/>
<path d="M111.926 49.6057V49.4445C112.048 49.438 112.132 49.4103 112.177 49.3615C112.222 49.3093 112.247 49.2393 112.25 49.1514C112.256 49.0602 112.259 48.9576 112.259 48.8436V46.7332C112.259 46.668 112.261 46.6061 112.264 46.5475C112.267 46.4856 112.271 46.4303 112.274 46.3814C112.216 46.3847 112.158 46.3879 112.1 46.3912C112.042 46.3944 111.984 46.3977 111.926 46.401V46.186H113.013V46.3472C112.894 46.3505 112.81 46.3782 112.762 46.4303C112.717 46.4824 112.691 46.5524 112.684 46.6403C112.681 46.7283 112.68 46.8309 112.68 46.9481V49.0439C112.68 49.1318 112.678 49.2068 112.675 49.2686C112.675 49.3305 112.672 49.3826 112.665 49.425L113.568 49.4103C113.771 49.4071 113.924 49.3419 114.027 49.2149C114.134 49.0879 114.187 48.8811 114.187 48.5945H114.351L114.322 49.6057H111.926Z" fill="#FEFCF9"/>
<path d="M118.259 48.3404C118.259 48.1971 118.24 48.0945 118.201 48.0327C118.162 47.9708 118.101 47.9333 118.018 47.9203C117.934 47.9073 117.823 47.904 117.684 47.9105L117.332 47.9252V49.0439C117.332 49.1318 117.33 49.2068 117.327 49.2686C117.327 49.3305 117.324 49.3826 117.317 49.425L118.24 49.4103C118.381 49.4071 118.504 49.3843 118.607 49.3419C118.71 49.2963 118.79 49.2182 118.848 49.1074C118.906 48.9967 118.935 48.8452 118.935 48.6531H119.1L119.071 49.6057H116.578V49.4445C116.701 49.438 116.784 49.4103 116.829 49.3615C116.874 49.3093 116.899 49.2393 116.902 49.1514C116.908 49.0602 116.911 48.9576 116.911 48.8436V46.7332C116.911 46.668 116.913 46.6061 116.916 46.5475C116.92 46.4856 116.923 46.4303 116.926 46.3814C116.868 46.3847 116.81 46.3879 116.752 46.3912C116.694 46.3944 116.636 46.3977 116.578 46.401V46.186H118.902L118.926 47.0409H118.766C118.766 46.8488 118.737 46.7038 118.679 46.6061C118.621 46.5052 118.542 46.4384 118.443 46.4058C118.346 46.37 118.237 46.3537 118.114 46.357L117.699 46.3668C117.58 46.37 117.494 46.3928 117.443 46.4352C117.391 46.4775 117.359 46.541 117.346 46.6257C117.337 46.7071 117.332 46.8146 117.332 46.9481V47.7298L118.24 47.7346L118.206 47.3145H118.418V48.3404H118.259Z" fill="#FEFCF9"/>
<path d="M125.537 46.3472C125.431 46.3472 125.354 46.37 125.305 46.4156C125.26 46.4612 125.233 46.515 125.223 46.5768C125.213 46.6355 125.209 46.6876 125.209 46.7332V47.9643C125.209 48.1466 125.22 48.3241 125.242 48.4968C125.268 48.6661 125.315 48.8192 125.382 48.956C125.45 49.0928 125.55 49.2019 125.682 49.2833C125.817 49.3647 125.993 49.4054 126.208 49.4054C126.44 49.4054 126.629 49.3501 126.774 49.2393C126.922 49.1286 127.03 48.9755 127.097 48.7801C127.168 48.5847 127.205 48.36 127.208 48.1059L127.223 46.7332C127.223 46.668 127.224 46.6061 127.228 46.5475C127.231 46.4856 127.234 46.4303 127.237 46.3814C127.179 46.3847 127.121 46.3879 127.063 46.3912C127.009 46.3944 126.952 46.3977 126.894 46.401V46.186H127.793V46.3472C127.67 46.3505 127.585 46.3782 127.537 46.4303C127.492 46.4824 127.466 46.5524 127.459 46.6403C127.456 46.7283 127.455 46.8309 127.455 46.9481L127.445 48.0815C127.445 48.2932 127.422 48.4951 127.377 48.6873C127.332 48.8794 127.258 49.0504 127.155 49.2002C127.055 49.3501 126.922 49.4689 126.754 49.5569C126.59 49.6415 126.387 49.6839 126.146 49.6839C125.888 49.6839 125.671 49.6497 125.494 49.5813C125.32 49.5129 125.18 49.407 125.073 49.2637C124.97 49.1204 124.896 48.9397 124.851 48.7215C124.806 48.5033 124.784 48.2427 124.784 47.9398V46.9481C124.784 46.8634 124.785 46.7641 124.788 46.6501C124.795 46.5329 124.8 46.4433 124.803 46.3814C124.745 46.3847 124.687 46.3879 124.629 46.3912C124.571 46.3912 124.513 46.3928 124.455 46.3961V46.186H125.537V46.3472Z" fill="#FEFCF9"/>
<path d="M129.855 49.6057V49.4445C130.01 49.4119 130.13 49.3468 130.217 49.2491C130.307 49.1481 130.407 49.0179 130.517 48.8583L131.145 47.9496C130.923 47.6337 130.749 47.3878 130.623 47.2119C130.497 47.0328 130.399 46.8927 130.328 46.7918C130.267 46.6973 130.221 46.6224 130.188 46.5671C130.159 46.5117 130.132 46.4531 130.106 46.3912C130.064 46.3944 130.021 46.3961 129.976 46.3961C129.931 46.3961 129.886 46.3977 129.841 46.401V46.186H131.092V46.3472L130.879 46.357C130.763 46.3603 130.692 46.383 130.667 46.4254C130.644 46.4645 130.646 46.5133 130.671 46.5719C130.7 46.6306 130.733 46.6908 130.768 46.7527C130.826 46.8504 130.908 46.9774 131.014 47.1338C131.124 47.2868 131.241 47.4513 131.367 47.6272L131.831 46.9481C131.914 46.8309 131.993 46.7185 132.067 46.611C132.145 46.5036 132.209 46.427 132.26 46.3814C132.193 46.3847 132.125 46.3879 132.058 46.3912C131.99 46.3944 131.922 46.3977 131.855 46.401V46.186H132.806V46.3472C132.703 46.3603 132.607 46.4026 132.516 46.4742C132.426 46.5459 132.343 46.6322 132.265 46.7332C132.188 46.8309 132.116 46.9286 132.048 47.0263L131.502 47.8079C131.618 47.9643 131.731 48.1173 131.84 48.2671C131.953 48.4137 132.054 48.5472 132.145 48.6677C132.235 48.785 132.304 48.8778 132.352 48.9462C132.407 49.0211 132.462 49.0976 132.516 49.1758C132.574 49.2507 132.631 49.3256 132.686 49.4005C132.731 49.3973 132.777 49.3957 132.826 49.3957C132.874 49.3957 132.921 49.394 132.966 49.3908V49.6057H131.782V49.4445C131.908 49.4478 131.99 49.4315 132.029 49.3957C132.067 49.3566 132.079 49.3093 132.062 49.254C132.05 49.1954 132.024 49.14 131.985 49.0879C131.911 48.9869 131.811 48.8566 131.686 48.6971C131.56 48.5342 131.423 48.3486 131.275 48.1401C131.195 48.2574 131.114 48.3763 131.034 48.4968C130.956 48.614 130.877 48.7345 130.797 48.8583C130.739 48.9462 130.678 49.0374 130.613 49.1318C130.552 49.2263 130.481 49.3207 130.401 49.4152C130.468 49.4087 130.534 49.4038 130.599 49.4005C130.667 49.3973 130.734 49.394 130.802 49.3908V49.6057H129.855Z" fill="#FEFCF9"/>
<path d="M138.188 49.4445C138.31 49.438 138.394 49.4103 138.439 49.3615C138.484 49.3093 138.508 49.2393 138.511 49.1514C138.518 49.0602 138.521 48.9576 138.521 48.8436V46.7332C138.521 46.668 138.523 46.6061 138.526 46.5475C138.529 46.4856 138.532 46.4303 138.535 46.3814C138.477 46.3847 138.419 46.3879 138.362 46.3912C138.304 46.3944 138.246 46.3977 138.188 46.401V46.186L139.328 46.1811C139.617 46.1811 139.883 46.2153 140.125 46.2837C140.366 46.3521 140.574 46.458 140.748 46.6013C140.925 46.7413 141.06 46.9204 141.153 47.1386C141.25 47.3536 141.298 47.6076 141.298 47.9007C141.298 48.1255 141.26 48.3404 141.182 48.5456C141.105 48.7508 140.989 48.9332 140.835 49.0928C140.68 49.2491 140.487 49.3745 140.255 49.4689C140.026 49.5601 139.761 49.6057 139.458 49.6057H138.188V49.4445ZM138.941 49.0293C138.941 49.1172 138.94 49.1921 138.936 49.254C138.936 49.3159 138.933 49.368 138.927 49.4103C139.014 49.4136 139.092 49.4168 139.163 49.4201C139.237 49.4201 139.299 49.4201 139.347 49.4201C139.398 49.4201 139.431 49.4201 139.443 49.4201C139.653 49.4201 139.841 49.381 140.009 49.3028C140.179 49.2247 140.324 49.1172 140.443 48.9804C140.566 48.8404 140.659 48.6775 140.723 48.4919C140.791 48.303 140.825 48.0994 140.825 47.8812C140.825 47.5718 140.769 47.3047 140.656 47.08C140.546 46.852 140.377 46.6762 140.149 46.5524C139.92 46.4254 139.629 46.3619 139.274 46.3619C139.155 46.3619 139.072 46.3863 139.023 46.4352C138.978 46.484 138.952 46.5524 138.946 46.6403C138.943 46.7283 138.941 46.8309 138.941 46.9481V49.0293Z" fill="#FEFCF9"/>
<path d="M145.28 48.3404C145.28 48.1971 145.261 48.0945 145.222 48.0327C145.183 47.9708 145.122 47.9333 145.039 47.9203C144.955 47.9073 144.844 47.904 144.705 47.9105L144.353 47.9252V49.0439C144.353 49.1318 144.351 49.2068 144.348 49.2686C144.348 49.3305 144.345 49.3826 144.338 49.425L145.261 49.4103C145.402 49.4071 145.525 49.3843 145.628 49.3419C145.731 49.2963 145.811 49.2182 145.869 49.1074C145.927 48.9967 145.956 48.8452 145.956 48.6531H146.121L146.092 49.6057H143.599V49.4445C143.722 49.438 143.805 49.4103 143.85 49.3615C143.895 49.3093 143.92 49.2393 143.923 49.1514C143.929 49.0602 143.932 48.9576 143.932 48.8436V46.7332C143.932 46.668 143.934 46.6061 143.937 46.5475C143.94 46.4856 143.944 46.4303 143.947 46.3814C143.889 46.3847 143.831 46.3879 143.773 46.3912C143.715 46.3944 143.657 46.3977 143.599 46.401V46.186H145.922L145.947 47.0409H145.787C145.787 46.8488 145.758 46.7038 145.7 46.6061C145.642 46.5052 145.563 46.4384 145.464 46.4058C145.367 46.37 145.258 46.3537 145.135 46.357L144.72 46.3668C144.601 46.37 144.515 46.3928 144.464 46.4352C144.412 46.4775 144.38 46.541 144.367 46.6257C144.357 46.7071 144.353 46.8146 144.353 46.9481V47.7298L145.261 47.7346L145.227 47.3145H145.439V48.3404H145.28Z" fill="#FEFCF9"/>
<path d="M150.362 47.2217C150.352 47.0654 150.315 46.9172 150.251 46.7771C150.186 46.6371 150.093 46.5231 149.971 46.4352C149.848 46.3472 149.692 46.3033 149.502 46.3033C149.302 46.3033 149.149 46.3603 149.043 46.4742C148.937 46.5882 148.884 46.7218 148.884 46.8748C148.884 47.0116 148.922 47.1272 149 47.2217C149.077 47.3129 149.177 47.3943 149.299 47.466C149.425 47.5344 149.557 47.6011 149.695 47.6663C149.818 47.7216 149.94 47.7819 150.062 47.847C150.185 47.9089 150.296 47.9805 150.396 48.062C150.495 48.1434 150.574 48.2411 150.632 48.3551C150.693 48.4658 150.724 48.5993 150.724 48.7557C150.724 48.9348 150.679 49.0944 150.589 49.2344C150.502 49.3745 150.375 49.4852 150.207 49.5666C150.04 49.6448 149.835 49.6839 149.594 49.6839C149.449 49.6839 149.299 49.6627 149.145 49.6204C148.99 49.578 148.853 49.5162 148.734 49.4347L148.758 49.6448H148.507L148.478 48.6042H148.666C148.682 48.8908 148.781 49.109 148.961 49.2589C149.141 49.4054 149.359 49.4787 149.613 49.4787C149.739 49.4787 149.855 49.4559 149.961 49.4103C150.067 49.3615 150.151 49.2914 150.212 49.2002C150.276 49.109 150.309 48.9983 150.309 48.868C150.309 48.7215 150.27 48.5993 150.193 48.5016C150.115 48.4039 150.016 48.3193 149.893 48.2476C149.771 48.176 149.64 48.1076 149.502 48.0424C149.38 47.9871 149.259 47.9284 149.14 47.8666C149.021 47.8047 148.911 47.7346 148.811 47.6565C148.715 47.5751 148.636 47.479 148.575 47.3683C148.517 47.2575 148.488 47.124 148.488 46.9677C148.488 46.883 148.502 46.7918 148.531 46.6941C148.56 46.5964 148.61 46.5036 148.681 46.4156C148.755 46.3244 148.855 46.2511 148.98 46.1958C149.109 46.1372 149.272 46.1078 149.468 46.1078C149.591 46.1078 149.727 46.1258 149.879 46.1616C150.033 46.1941 150.177 46.2593 150.309 46.357L150.289 46.1469H150.536V47.2217H150.362Z" fill="#FEFCF9"/>
<path d="M154.15 46.3472C154.031 46.3505 153.948 46.3782 153.899 46.4303C153.854 46.4824 153.828 46.5524 153.822 46.6403C153.819 46.7283 153.817 46.8309 153.817 46.9481V49.0244C153.817 49.1123 153.816 49.1888 153.812 49.254C153.812 49.3159 153.809 49.368 153.803 49.4103C153.861 49.4071 153.919 49.4038 153.977 49.4005C154.035 49.3973 154.093 49.394 154.15 49.3908V49.6057H153.064V49.4445C153.186 49.438 153.27 49.4103 153.315 49.3615C153.36 49.3093 153.384 49.2393 153.387 49.1514C153.394 49.0602 153.397 48.9576 153.397 48.8436V46.7332C153.397 46.668 153.399 46.6061 153.402 46.5475C153.405 46.4856 153.408 46.4303 153.411 46.3814C153.354 46.3847 153.296 46.3879 153.238 46.3912C153.18 46.3944 153.122 46.3977 153.064 46.401V46.186H154.15V46.3472Z" fill="#FEFCF9"/>
<path d="M158.102 49.6839C157.78 49.6839 157.495 49.6155 157.247 49.4787C157 49.3419 156.806 49.1449 156.668 48.8876C156.529 48.6303 156.46 48.3241 156.46 47.9691C156.46 47.7379 156.494 47.5132 156.562 47.295C156.632 47.0735 156.737 46.8732 156.876 46.6941C157.017 46.515 157.193 46.3733 157.402 46.2691C157.615 46.1616 157.861 46.1078 158.141 46.1078C158.257 46.1078 158.375 46.1192 158.494 46.142C158.613 46.1616 158.727 46.1925 158.837 46.2349C158.949 46.2739 159.051 46.3212 159.141 46.3765L159.122 46.142H159.387V47.2608H159.213C159.2 47.0556 159.146 46.883 159.049 46.7429C158.956 46.5996 158.833 46.4905 158.682 46.4156C158.531 46.3407 158.362 46.3033 158.175 46.3033C158.004 46.3033 157.843 46.3423 157.692 46.4205C157.544 46.4954 157.412 46.6029 157.296 46.7429C157.183 46.8797 157.095 47.0426 157.03 47.2315C156.966 47.4204 156.934 47.6288 156.934 47.8568C156.934 48.1629 156.988 48.4365 157.098 48.6775C157.207 48.9185 157.359 49.1074 157.552 49.2442C157.748 49.381 157.974 49.4494 158.228 49.4494C158.315 49.4494 158.405 49.4412 158.498 49.425C158.595 49.4087 158.69 49.3826 158.783 49.3468C158.88 49.3077 158.97 49.2605 159.054 49.2051V48.6091C159.054 48.531 159.054 48.4528 159.054 48.3746C159.054 48.2932 159.054 48.2134 159.054 48.1352C158.999 48.1385 158.943 48.1418 158.885 48.145C158.827 48.1483 158.771 48.1515 158.716 48.1548V47.9398H159.807V48.101C159.717 48.101 159.648 48.1255 159.6 48.1743C159.551 48.2199 159.518 48.2769 159.498 48.3453C159.479 48.4104 159.468 48.4756 159.465 48.5407C159.461 48.6026 159.46 48.6498 159.46 48.6824V49.4298H159.329C159.278 49.4298 159.207 49.4396 159.117 49.4592C159.027 49.4787 158.924 49.5113 158.808 49.5569C158.708 49.5959 158.592 49.6269 158.46 49.6497C158.328 49.6725 158.209 49.6839 158.102 49.6839Z" fill="#FEFCF9"/>
<path d="M164.675 49.6839L162.748 47.0654C162.719 47.0263 162.69 46.9888 162.661 46.953C162.635 46.9139 162.608 46.8748 162.579 46.8358H162.574L162.588 48.9267C162.588 49.0081 162.588 49.0895 162.588 49.1709C162.588 49.2523 162.585 49.3321 162.579 49.4103C162.637 49.4071 162.695 49.4038 162.753 49.4005C162.811 49.3973 162.869 49.394 162.927 49.3908V49.6057H162.043V49.4445C162.142 49.4445 162.213 49.4233 162.255 49.381C162.3 49.3354 162.329 49.2833 162.342 49.2247C162.355 49.1628 162.361 49.1074 162.361 49.0586L162.366 46.7087C162.366 46.6534 162.366 46.598 162.366 46.5426C162.366 46.4873 162.366 46.4335 162.366 46.3814C162.315 46.3847 162.262 46.3879 162.207 46.3912C162.152 46.3944 162.097 46.3977 162.043 46.401V46.186H162.617L164.429 48.6384C164.471 48.6938 164.511 48.7492 164.549 48.8045C164.591 48.8599 164.633 48.9153 164.675 48.9706H164.68L164.685 46.7332C164.685 46.668 164.686 46.6061 164.69 46.5475C164.693 46.4856 164.696 46.4303 164.699 46.3814C164.641 46.3847 164.583 46.3879 164.525 46.3912C164.467 46.3944 164.409 46.3977 164.351 46.401V46.186H165.24V46.3472C165.121 46.3505 165.039 46.3782 164.994 46.4303C164.949 46.4824 164.925 46.5524 164.921 46.6403C164.918 46.7283 164.917 46.8309 164.917 46.9481L164.907 49.6839H164.675Z" fill="#FEFCF9"/>
<path d="M36.3355 40.8122V40.4897C36.5802 40.4767 36.7477 40.4214 36.8378 40.3236C36.928 40.2194 36.9763 40.0794 36.9827 39.9035C36.9956 39.7211 37.002 39.5159 37.002 39.288V35.0671C37.002 34.9368 37.0053 34.813 37.0117 34.6958C37.0181 34.572 37.0246 34.4613 37.031 34.3636C36.9151 34.3701 36.7992 34.3766 36.6833 34.3831C36.5673 34.3896 36.4514 34.3961 36.3355 34.4027V33.9728C36.6961 33.9662 37.06 33.9597 37.4271 33.9532C37.8006 33.9467 38.1742 33.95 38.5477 33.963C39.1724 33.9695 39.6748 34.0444 40.0547 34.1877C40.4411 34.3245 40.7245 34.5232 40.9048 34.7837C41.0852 35.0377 41.1753 35.3471 41.1753 35.7119C41.1818 35.966 41.1335 36.2265 41.0304 36.4936C40.9338 36.7541 40.7535 36.9886 40.4894 37.1971C40.2318 37.4055 39.8583 37.5618 39.3688 37.666C39.4976 37.7572 39.6104 37.8745 39.707 38.0178C39.8036 38.1611 39.913 38.3272 40.0354 38.5161L40.6923 39.5615C40.8018 39.7374 40.9081 39.897 41.0111 40.0403C41.1142 40.1771 41.2333 40.2878 41.3685 40.3725C41.5038 40.4507 41.6712 40.4897 41.8709 40.4897V40.8122H40.6537C40.4669 40.6428 40.3091 40.4735 40.1803 40.3041C40.0579 40.1347 39.9291 39.9426 39.7939 39.7276L39.1467 38.6822C39.0629 38.5454 38.9663 38.3891 38.8568 38.2132C38.7538 38.0308 38.6347 37.8777 38.4994 37.754C38.3964 37.7605 38.2869 37.7637 38.171 37.7637C38.0615 37.7637 37.952 37.7605 37.8425 37.754V39.6495C37.8425 39.8253 37.8393 39.9784 37.8328 40.1087C37.8328 40.2325 37.8264 40.3367 37.8135 40.4214C37.8908 40.4148 37.9681 40.4116 38.0454 40.4116C38.1227 40.4051 38.1999 40.3986 38.2772 40.392C38.3545 40.3855 38.4318 40.3823 38.5091 40.3823V40.8122H36.3355ZM38.4414 37.3925C38.7957 37.3794 39.1048 37.3208 39.3688 37.2166C39.6393 37.1124 39.8519 36.9463 40.0064 36.7183C40.161 36.4903 40.2383 36.1907 40.2383 35.8194C40.2383 35.5719 40.2029 35.3569 40.132 35.1745C40.0676 34.9856 39.9646 34.8293 39.8229 34.7055C39.6812 34.5818 39.5009 34.4906 39.2819 34.432C39.0629 34.3668 38.8053 34.3343 38.5091 34.3343C38.2708 34.3343 38.1033 34.3831 38.0067 34.4808C37.9166 34.5785 37.865 34.7153 37.8522 34.8912C37.8457 35.0605 37.8425 35.2625 37.8425 35.497V37.3729C37.9455 37.3794 38.0421 37.3859 38.1323 37.3925C38.2289 37.399 38.332 37.399 38.4414 37.3925Z" fill="#FEFCF9"/>
<path d="M48.275 38.2816C48.275 37.995 48.2364 37.7898 48.1591 37.666C48.0818 37.5423 47.9595 37.4674 47.792 37.4413C47.6246 37.4153 47.4024 37.4087 47.1255 37.4218L46.4202 37.4511V39.6886C46.4202 39.8644 46.417 40.0142 46.4106 40.138C46.4106 40.2618 46.4041 40.366 46.3913 40.4507L48.2364 40.4214C48.5198 40.4148 48.7645 40.3692 48.9706 40.2846C49.1767 40.1934 49.3377 40.037 49.4536 39.8156C49.5695 39.5941 49.6275 39.2912 49.6275 38.9069H49.9559L49.898 40.8122H44.9132V40.4897C45.158 40.4767 45.3254 40.4214 45.4156 40.3236C45.5057 40.2194 45.554 40.0794 45.5605 39.9035C45.5733 39.7211 45.5798 39.5159 45.5798 39.288V35.0671C45.5798 34.9368 45.583 34.813 45.5895 34.6958C45.5959 34.572 45.6023 34.4613 45.6088 34.3636C45.4928 34.3701 45.3769 34.3766 45.261 34.3831C45.1451 34.3896 45.0291 34.3961 44.9132 34.4027V33.9728H49.5599L49.6082 35.6826H49.2894C49.2894 35.2983 49.2314 35.0084 49.1155 34.813C48.9996 34.6111 48.8418 34.4776 48.6421 34.4124C48.4489 34.3408 48.23 34.3082 47.9852 34.3147L47.1544 34.3343C46.9161 34.3408 46.7455 34.3864 46.6424 34.4711C46.5394 34.5557 46.475 34.6827 46.4492 34.8521C46.4299 35.0149 46.4202 35.2299 46.4202 35.497V37.0603L48.2364 37.07L48.1688 36.2298H48.5938V38.2816H48.275Z" fill="#FEFCF9"/>
<path d="M53.4344 40.8122V40.4897C53.6791 40.4832 53.8465 40.4279 53.9367 40.3236C54.0269 40.2129 54.0752 40.0664 54.0816 39.884C54.0945 39.6951 54.1009 39.4801 54.1009 39.2391V35.1355C54.1009 34.9596 54.1042 34.8098 54.1106 34.686C54.117 34.5557 54.1235 34.4483 54.1299 34.3636C54.014 34.3701 53.8981 34.3766 53.7821 34.3831C53.6662 34.3896 53.5503 34.3961 53.4344 34.4027V33.9728C53.7886 33.9662 54.1428 33.963 54.497 33.963C54.8577 33.9565 55.2312 33.9532 55.6176 33.9532C56.3647 33.9532 56.9475 34.0867 57.3661 34.3538C57.7912 34.6209 57.9973 35.0443 57.9844 35.624C57.9844 35.8324 57.9232 36.0409 57.8009 36.2493C57.6849 36.4577 57.5078 36.6434 57.2695 36.8062C57.0377 36.9626 56.7447 37.0733 56.3904 37.1384V37.158C57.0989 37.158 57.6334 37.3241 57.9941 37.6563C58.3547 37.982 58.535 38.3956 58.535 38.8971C58.535 39.2945 58.4352 39.6364 58.2356 39.923C58.0359 40.2097 57.7654 40.4311 57.4241 40.5875C57.0828 40.7373 56.6931 40.8122 56.2552 40.8122H53.4344ZM54.9124 40.4214C55.0154 40.4279 55.1378 40.4344 55.2795 40.4409C55.4276 40.4409 55.5629 40.4409 55.6852 40.4409C55.814 40.4409 55.8978 40.4409 55.9364 40.4409C56.4323 40.4409 56.8316 40.3171 57.1343 40.0696C57.4434 39.8156 57.598 39.4443 57.598 38.9558C57.598 38.5584 57.5207 38.249 57.3661 38.0276C57.2116 37.8061 57.0087 37.6498 56.7575 37.5586C56.5064 37.4674 56.2327 37.4218 55.9364 37.4218C55.7432 37.4218 55.5661 37.425 55.4051 37.4315C55.2505 37.4315 55.0959 37.4381 54.9414 37.4511V39.6592C54.9414 39.8351 54.9382 39.9849 54.9317 40.1087C54.9317 40.2325 54.9253 40.3367 54.9124 40.4214ZM54.9414 37.07L55.6466 37.0505C56.0137 37.044 56.3035 36.9691 56.516 36.8258C56.7286 36.676 56.8799 36.4903 56.9701 36.2688C57.0667 36.0474 57.1118 35.8161 57.1053 35.5751C57.0989 35.2234 57.0184 34.9563 56.8638 34.7739C56.7157 34.5916 56.5321 34.4678 56.3132 34.4027C56.0942 34.3375 55.8784 34.305 55.6659 34.305C55.4534 34.305 55.2956 34.3343 55.1926 34.3929C55.0895 34.4515 55.0219 34.5492 54.9897 34.686C54.9575 34.8228 54.9414 35.0117 54.9414 35.2527V37.07Z" fill="#FEFCF9"/>
<path d="M65.2324 38.2816C65.2324 37.995 65.1938 37.7898 65.1165 37.666C65.0392 37.5423 64.9168 37.4674 64.7494 37.4413C64.5819 37.4153 64.3598 37.4087 64.0828 37.4218L63.3776 37.4511V39.6886C63.3776 39.8644 63.3744 40.0142 63.368 40.138C63.368 40.2618 63.3615 40.366 63.3486 40.4507L65.1938 40.4214C65.4771 40.4148 65.7219 40.3692 65.928 40.2846C66.134 40.1934 66.2951 40.037 66.411 39.8156C66.5269 39.5941 66.5849 39.2912 66.5849 38.9069H66.9133L66.8554 40.8122H61.8706V40.4897C62.1153 40.4767 62.2828 40.4214 62.3729 40.3236C62.4631 40.2194 62.5114 40.0794 62.5178 39.9035C62.5307 39.7211 62.5372 39.5159 62.5372 39.288V35.0671C62.5372 34.9368 62.5404 34.813 62.5468 34.6958C62.5533 34.572 62.5597 34.4613 62.5661 34.3636C62.4502 34.3701 62.3343 34.3766 62.2184 34.3831C62.1024 34.3896 61.9865 34.3961 61.8706 34.4027V33.9728H66.5172L66.5655 35.6826H66.2468C66.2468 35.2983 66.1888 35.0084 66.0729 34.813C65.9569 34.6111 65.7992 34.4776 65.5995 34.4124C65.4063 34.3408 65.1873 34.3082 64.9426 34.3147L64.1118 34.3343C63.8735 34.3408 63.7028 34.3864 63.5998 34.4711C63.4968 34.5557 63.4324 34.6827 63.4066 34.8521C63.3873 35.0149 63.3776 35.2299 63.3776 35.497V37.0603L65.1938 37.07L65.1261 36.2298H65.5512V38.2816H65.2324Z" fill="#FEFCF9"/>
<path d="M75.7339 36.1516C75.6695 35.5393 75.457 35.0638 75.0963 34.7251C74.7421 34.3864 74.2849 34.217 73.7246 34.217C73.3832 34.217 73.0612 34.2919 72.7585 34.4417C72.4623 34.585 72.2014 34.7935 71.976 35.0671C71.7506 35.3406 71.5735 35.6696 71.4447 36.0539C71.3159 36.4382 71.2515 36.8714 71.2515 37.3534C71.2515 37.9657 71.3674 38.5063 71.5993 38.9753C71.8311 39.4443 72.1435 39.8091 72.5363 40.0696C72.9292 40.3302 73.3639 40.4604 73.8405 40.4604C74.2591 40.4604 74.6713 40.366 75.077 40.1771C75.4828 39.9817 75.8144 39.7016 76.072 39.3368L76.3232 39.542C76.0463 39.9263 75.7468 40.2227 75.4248 40.4311C75.1028 40.6396 74.7808 40.7796 74.4588 40.8513C74.1432 40.9294 73.8534 40.9685 73.5893 40.9685C73.1063 40.9685 72.6619 40.8806 72.2562 40.7047C71.8569 40.5288 71.5091 40.2846 71.2129 39.9719C70.9231 39.6527 70.6977 39.2847 70.5366 38.8678C70.3821 38.4444 70.3048 37.9885 70.3048 37.4999C70.3048 37.0375 70.3724 36.588 70.5077 36.1516C70.6493 35.7152 70.8587 35.3211 71.1356 34.9694C71.4125 34.6176 71.7603 34.3375 72.1789 34.1291C72.604 33.9206 73.0966 33.8164 73.6569 33.8164C74.0176 33.8164 74.3589 33.8653 74.6809 33.963C75.003 34.0607 75.3121 34.2105 75.6083 34.4124L75.56 33.8848H76.0817V36.1516H75.7339Z" fill="#FEFCF9"/>
<path d="M85.0004 36.1516C84.9359 35.5393 84.7234 35.0638 84.3628 34.7251C84.0086 34.3864 83.5513 34.217 82.991 34.217C82.6497 34.217 82.3276 34.2919 82.025 34.4417C81.7287 34.585 81.4679 34.7935 81.2425 35.0671C81.0171 35.3406 80.8399 35.6696 80.7111 36.0539C80.5823 36.4382 80.5179 36.8714 80.5179 37.3534C80.5179 37.9657 80.6339 38.5063 80.8657 38.9753C81.0976 39.4443 81.4099 39.8091 81.8028 40.0696C82.1956 40.3302 82.6303 40.4604 83.1069 40.4604C83.5255 40.4604 83.9377 40.366 84.3434 40.1771C84.7492 39.9817 85.0809 39.7016 85.3385 39.3368L85.5896 39.542C85.3127 39.9263 85.0132 40.2227 84.6912 40.4311C84.3692 40.6396 84.0472 40.7796 83.7252 40.8513C83.4096 40.9294 83.1198 40.9685 82.8557 40.9685C82.3727 40.9685 81.9284 40.8806 81.5226 40.7047C81.1233 40.5288 80.7755 40.2846 80.4793 39.9719C80.1895 39.6527 79.9641 39.2847 79.8031 38.8678C79.6485 38.4444 79.5712 37.9885 79.5712 37.4999C79.5712 37.0375 79.6388 36.588 79.7741 36.1516C79.9158 35.7152 80.1251 35.3211 80.402 34.9694C80.6789 34.6176 81.0267 34.3375 81.4453 34.1291C81.8704 33.9206 82.3631 33.8164 82.9234 33.8164C83.284 33.8164 83.6254 33.8653 83.9474 33.963C84.2694 34.0607 84.5785 34.2105 84.8748 34.4124L84.8265 33.8848H85.3481V36.1516H85.0004Z" fill="#FEFCF9"/>
<path d="M88.241 40.8122V40.4897C88.4342 40.4897 88.5823 40.4376 88.6853 40.3334C88.7884 40.2292 88.8721 40.0859 88.9365 39.9035C89.0073 39.7211 89.0879 39.5094 89.178 39.2684L91.1681 33.7871H91.3999L93.5542 39.3466C93.6057 39.4834 93.6637 39.6592 93.7281 39.8742C93.7925 40.0892 93.8182 40.2715 93.8053 40.4214C93.9148 40.4148 94.0243 40.4083 94.1338 40.4018C94.2433 40.3953 94.3528 40.3888 94.4622 40.3823V40.8122H92.25V40.4897C92.4947 40.4832 92.6558 40.4279 92.733 40.3236C92.8103 40.2194 92.8393 40.0957 92.82 39.9524C92.8007 39.8091 92.7685 39.6788 92.7234 39.5615L92.3853 38.6431L89.8736 38.7017L89.5354 39.7472C89.4904 39.9035 89.4485 40.0273 89.4099 40.1185C89.3777 40.2097 89.339 40.3106 89.2939 40.4214C89.4227 40.4148 89.5483 40.4083 89.6707 40.4018C89.7995 40.3953 89.9251 40.3888 90.0474 40.3823V40.8122H88.241ZM90.0185 38.2816H92.25L91.5641 36.4154C91.4933 36.2135 91.4192 36.0148 91.3419 35.8194C91.2711 35.6175 91.2003 35.4155 91.1294 35.2136H91.1101C91.0457 35.396 90.9781 35.5784 90.9072 35.7608C90.8428 35.9432 90.7752 36.1288 90.7044 36.3177L90.0185 38.2816Z" fill="#FEFCF9"/>
<path d="M105.018 40.9099L102.825 35.7119C102.683 35.3797 102.583 35.1127 102.525 34.9107C102.468 34.7023 102.429 34.5264 102.41 34.3831C102.319 34.3896 102.229 34.3929 102.139 34.3929C102.049 34.3929 101.959 34.3961 101.869 34.4027V33.9728H104.11L104.1 34.305C103.778 34.3245 103.585 34.4255 103.521 34.6078C103.456 34.7837 103.488 35.0345 103.617 35.3602C103.772 35.7445 103.92 36.1158 104.062 36.474C104.203 36.8323 104.361 37.2198 104.535 37.6367C104.689 38.0015 104.838 38.3532 104.979 38.692C105.127 39.0242 105.24 39.301 105.317 39.5225H105.337C105.408 39.2945 105.478 39.0763 105.549 38.8678C105.626 38.6594 105.717 38.4119 105.82 38.1253C106.013 37.5781 106.174 37.1156 106.303 36.7378C106.438 36.36 106.554 36.0376 106.65 35.7705C106.747 35.5035 106.828 35.2755 106.892 35.0866C106.95 34.9172 107.001 34.7739 107.047 34.6567C107.092 34.5394 107.134 34.4417 107.172 34.3636C107.05 34.3701 106.927 34.3766 106.805 34.3831C106.683 34.3896 106.557 34.3961 106.428 34.4027V33.9728H108.389V34.2952C108.106 34.3082 107.887 34.3831 107.732 34.5199C107.584 34.6567 107.449 34.901 107.327 35.2527C107.314 35.2853 107.298 35.3309 107.278 35.3895C107.259 35.4416 107.227 35.5295 107.182 35.6533C107.137 35.7771 107.072 35.9594 106.989 36.2004C106.905 36.4349 106.789 36.7541 106.641 37.158C106.499 37.5618 106.316 38.0699 106.09 38.6822C105.871 39.2945 105.604 40.037 105.288 40.9099H105.018Z" fill="#FEFCF9"/>
<path d="M110.248 40.8122V40.4897C110.441 40.4897 110.589 40.4376 110.692 40.3334C110.795 40.2292 110.879 40.0859 110.943 39.9035C111.014 39.7211 111.095 39.5094 111.185 39.2684L113.175 33.7871H113.407L115.561 39.3466C115.613 39.4834 115.67 39.6592 115.735 39.8742C115.799 40.0892 115.825 40.2715 115.812 40.4214C115.922 40.4148 116.031 40.4083 116.141 40.4018C116.25 40.3953 116.36 40.3888 116.469 40.3823V40.8122H114.257V40.4897C114.502 40.4832 114.663 40.4279 114.74 40.3236C114.817 40.2194 114.846 40.0957 114.827 39.9524C114.807 39.8091 114.775 39.6788 114.73 39.5615L114.392 38.6431L111.88 38.7017L111.542 39.7472C111.497 39.9035 111.455 40.0273 111.417 40.1185C111.384 40.2097 111.346 40.3106 111.301 40.4214C111.43 40.4148 111.555 40.4083 111.678 40.4018C111.806 40.3953 111.932 40.3888 112.054 40.3823V40.8122H110.248ZM112.025 38.2816H114.257L113.571 36.4154C113.5 36.2135 113.426 36.0148 113.349 35.8194C113.278 35.6175 113.207 35.4155 113.136 35.2136H113.117C113.053 35.396 112.985 35.5784 112.914 35.7608C112.85 35.9432 112.782 36.1288 112.711 36.3177L112.025 38.2816Z" fill="#FEFCF9"/>
<path d="M124.68 40.9685L120.826 35.7315C120.768 35.6533 120.71 35.5784 120.652 35.5067C120.6 35.4286 120.546 35.3504 120.488 35.2722H120.478L120.507 39.4541C120.507 39.6169 120.507 39.7797 120.507 39.9426C120.507 40.1054 120.5 40.265 120.488 40.4214C120.603 40.4148 120.719 40.4083 120.835 40.4018C120.951 40.3953 121.067 40.3888 121.183 40.3823V40.8122H119.415V40.4897C119.615 40.4897 119.757 40.4474 119.84 40.3627C119.93 40.2715 119.988 40.1673 120.014 40.0501C120.04 39.9263 120.053 39.8156 120.053 39.7179L120.062 35.0182C120.062 34.9075 120.062 34.7967 120.062 34.686C120.062 34.5753 120.062 34.4678 120.062 34.3636C119.959 34.3701 119.853 34.3766 119.744 34.3831C119.634 34.3896 119.525 34.3961 119.415 34.4027V33.9728H120.565L124.187 38.8776C124.271 38.9883 124.352 39.0991 124.429 39.2098C124.513 39.3205 124.596 39.4313 124.68 39.542H124.69L124.699 35.0671C124.699 34.9368 124.703 34.813 124.709 34.6958C124.716 34.572 124.722 34.4613 124.728 34.3636C124.613 34.3701 124.497 34.3766 124.381 34.3831C124.265 34.3896 124.149 34.3961 124.033 34.4027V33.9728H125.81V34.2952C125.572 34.3017 125.408 34.3571 125.318 34.4613C125.228 34.5655 125.179 34.7055 125.173 34.8814C125.166 35.0573 125.163 35.2625 125.163 35.497L125.144 40.9685H124.68Z" fill="#FEFCF9"/>
<path d="M133.726 40.8122V40.4897C133.919 40.4897 134.068 40.4376 134.171 40.3334C134.274 40.2292 134.357 40.0859 134.422 39.9035C134.493 39.7211 134.573 39.5094 134.663 39.2684L136.653 33.7871H136.885L139.039 39.3466C139.091 39.4834 139.149 39.6592 139.213 39.8742C139.278 40.0892 139.304 40.2715 139.291 40.4214C139.4 40.4148 139.51 40.4083 139.619 40.4018C139.729 40.3953 139.838 40.3888 139.948 40.3823V40.8122H137.735V40.4897C137.98 40.4832 138.141 40.4279 138.218 40.3236C138.296 40.2194 138.325 40.0957 138.305 39.9524C138.286 39.8091 138.254 39.6788 138.209 39.5615L137.871 38.6431L135.359 38.7017L135.021 39.7472C134.976 39.9035 134.934 40.0273 134.895 40.1185C134.863 40.2097 134.824 40.3106 134.779 40.4214C134.908 40.4148 135.034 40.4083 135.156 40.4018C135.285 40.3953 135.41 40.3888 135.533 40.3823V40.8122H133.726ZM135.504 38.2816H137.735L137.049 36.4154C136.979 36.2135 136.905 36.0148 136.827 35.8194C136.756 35.6175 136.686 35.4155 136.615 35.2136H136.595C136.531 35.396 136.463 35.5784 136.393 35.7608C136.328 35.9432 136.261 36.1288 136.19 36.3177L135.504 38.2816Z" fill="#FEFCF9"/>
<path d="M142.874 40.8122V40.4897C143.119 40.4767 143.287 40.4214 143.377 40.3236C143.467 40.2194 143.515 40.0794 143.522 39.9035C143.535 39.7211 143.541 39.5159 143.541 39.288V35.0671C143.541 34.9368 143.544 34.813 143.551 34.6958C143.557 34.572 143.564 34.4613 143.57 34.3636C143.454 34.3701 143.338 34.3766 143.222 34.3831C143.106 34.3896 142.99 34.3961 142.874 34.4027V33.9728H145.048V34.2952C144.81 34.3017 144.642 34.3571 144.546 34.4613C144.456 34.5655 144.404 34.7055 144.391 34.8814C144.385 35.0573 144.381 35.2625 144.381 35.497V37.0993H145.106L146.314 35.1745C146.397 35.0443 146.5 34.901 146.623 34.7446C146.745 34.5883 146.871 34.458 146.999 34.3538C146.903 34.3603 146.803 34.3636 146.7 34.3636C146.603 34.3636 146.507 34.3668 146.41 34.3733V33.9728H148.487V34.2952C148.217 34.3147 147.975 34.3603 147.763 34.432C147.55 34.5036 147.347 34.6306 147.154 34.813C146.961 34.9889 146.755 35.256 146.536 35.6142L145.589 37.1384C145.776 37.2492 145.927 37.3794 146.043 37.5293C146.159 37.6726 146.275 37.8191 146.391 37.9689L147.473 39.4247C147.718 39.7504 147.917 39.9914 148.072 40.1478C148.233 40.2976 148.374 40.392 148.497 40.4311C148.626 40.4702 148.758 40.4897 148.893 40.4897V40.8122H147.714C147.65 40.8122 147.563 40.7666 147.453 40.6754C147.35 40.5842 147.238 40.4669 147.115 40.3236C146.993 40.1738 146.867 40.0175 146.739 39.8547L145.579 38.2718C145.457 38.109 145.335 37.9559 145.212 37.8126C145.09 37.6628 144.971 37.552 144.855 37.4804L144.381 37.4902V39.6495C144.381 39.8253 144.378 39.9784 144.372 40.1087C144.372 40.2325 144.365 40.3367 144.352 40.4214C144.468 40.4148 144.584 40.4083 144.7 40.4018C144.816 40.3953 144.932 40.3888 145.048 40.3823V40.8122H142.874Z" fill="#FEFCF9"/>
<path d="M155.342 38.2816C155.342 37.995 155.304 37.7898 155.226 37.666C155.149 37.5423 155.027 37.4674 154.859 37.4413C154.692 37.4153 154.47 37.4087 154.193 37.4218L153.488 37.4511V39.6886C153.488 39.8644 153.484 40.0142 153.478 40.138C153.478 40.2618 153.471 40.366 153.459 40.4507L155.304 40.4214C155.587 40.4148 155.832 40.3692 156.038 40.2846C156.244 40.1934 156.405 40.037 156.521 39.8156C156.637 39.5941 156.695 39.2912 156.695 38.9069H157.023L156.965 40.8122H151.98V40.4897C152.225 40.4767 152.393 40.4214 152.483 40.3236C152.573 40.2194 152.621 40.0794 152.628 39.9035C152.641 39.7211 152.647 39.5159 152.647 39.288V35.0671C152.647 34.9368 152.65 34.813 152.657 34.6958C152.663 34.572 152.67 34.4613 152.676 34.3636C152.56 34.3701 152.444 34.3766 152.328 34.3831C152.212 34.3896 152.096 34.3961 151.98 34.4027V33.9728H156.627L156.675 35.6826H156.357C156.357 35.2983 156.299 35.0084 156.183 34.813C156.067 34.6111 155.909 34.4776 155.709 34.4124C155.516 34.3408 155.297 34.3082 155.052 34.3147L154.222 34.3343C153.983 34.3408 153.813 34.3864 153.71 34.4711C153.607 34.5557 153.542 34.6827 153.516 34.8521C153.497 35.0149 153.488 35.2299 153.488 35.497V37.0603L155.304 37.07L155.236 36.2298H155.661V38.2816H155.342Z" fill="#FEFCF9"/>
<path d="M165.786 40.9685L161.931 35.7315C161.873 35.6533 161.815 35.5784 161.757 35.5067C161.706 35.4286 161.651 35.3504 161.593 35.2722H161.584L161.613 39.4541C161.613 39.6169 161.613 39.7797 161.613 39.9426C161.613 40.1054 161.606 40.265 161.593 40.4214C161.709 40.4148 161.825 40.4083 161.941 40.4018C162.057 40.3953 162.173 40.3888 162.289 40.3823V40.8122H160.521V40.4897C160.721 40.4897 160.862 40.4474 160.946 40.3627C161.036 40.2715 161.094 40.1673 161.12 40.0501C161.146 39.9263 161.159 39.8156 161.159 39.7179L161.168 35.0182C161.168 34.9075 161.168 34.7967 161.168 34.686C161.168 34.5753 161.168 34.4678 161.168 34.3636C161.065 34.3701 160.959 34.3766 160.849 34.3831C160.74 34.3896 160.63 34.3961 160.521 34.4027V33.9728H161.671L165.293 38.8776C165.377 38.9883 165.457 39.0991 165.535 39.2098C165.618 39.3205 165.702 39.4313 165.786 39.542H165.796L165.805 35.0671C165.805 34.9368 165.808 34.813 165.815 34.6958C165.821 34.572 165.828 34.4613 165.834 34.3636C165.718 34.3701 165.602 34.3766 165.486 34.3831C165.37 34.3896 165.255 34.3961 165.139 34.4027V33.9728H166.916V34.2952C166.678 34.3017 166.514 34.3571 166.423 34.4613C166.333 34.5655 166.285 34.7055 166.279 34.8814C166.272 35.0573 166.269 35.2625 166.269 35.497L166.25 40.9685H165.786Z" fill="#FEFCF9"/>
</svg>
