<svg width="155" height="87" viewBox="0 0 155 87" fill="none" xmlns="http://www.w3.org/2000/svg">
<path d="M1.52813 87H1.41058C0.666107 87 0.215506 86.6432 0.0587743 85.9296L0 84.9781L0.0587743 84.0267C1.54772 68.2085 5.34845 51.1415 11.461 32.8257C14.3605 24.0246 18.4355 15.8182 23.686 8.20643C25.6059 5.23308 28.0157 2.73547 30.9152 0.7136C31.5421 0.237867 32.2278 0 32.9723 0H33.3249C33.5992 0 33.7364 0.0991113 33.7364 0.297334C33.7364 0.416268 33.6384 0.535203 33.4425 0.654137C33.4425 0.693779 33.4229 0.7136 33.3837 0.7136C31.307 1.98223 29.6026 3.62748 28.2704 5.64935C21.9619 13.9351 16.8094 25.9077 12.8128 41.5673C12.6952 41.8448 12.6364 42.1224 12.6364 42.3999L12.754 42.4593L14.2821 39.7833C15.4184 37.8407 16.5351 35.8783 17.6322 33.8961C22.1774 25.4122 28.2508 18.2167 35.8522 12.3096C40.9068 8.30554 46.6275 5.88722 53.0143 5.05468C53.9547 4.93575 54.895 4.87628 55.8354 4.87628C58.1864 4.87628 60.4982 5.27273 62.7708 6.06562C67.2768 7.88927 69.6865 11.2591 70 16.175V16.4129C70 20.5755 69.0204 24.4805 67.0613 28.1278C62.1635 37.2461 55.5807 44.8578 47.3132 50.9631C39.0064 57.4648 30.6997 61.8455 22.3929 64.1053C22.3538 64.1449 22.295 64.1647 22.2166 64.1647C21.9815 64.1647 21.864 64.2044 21.864 64.2837C21.864 64.363 21.864 64.4224 21.864 64.4621C21.864 64.5414 21.9032 64.6603 21.9815 64.8189C23.4705 67.1579 24.7439 69.596 25.8018 72.1333L26.7422 74.2741C28.192 77.5646 30.1119 79.2098 32.5021 79.2098C32.9723 79.2098 33.4817 79.1306 34.0302 78.972C36.7338 78.1791 39.2024 76.9303 41.4358 75.2256C45.2365 72.3315 48.8609 69.2194 52.309 65.8893C55.1301 63.1538 56.6583 61.7662 56.8934 61.7266C57.0501 61.7266 57.1872 61.7861 57.3048 61.905C57.4223 61.9843 57.4811 62.0636 57.4811 62.1429C57.4811 62.2221 57.3832 62.3609 57.1872 62.5591C57.1481 62.5591 55.9334 63.7683 53.5432 66.1866C45.4716 75.067 38.4775 79.7252 32.5609 80.1613H32.267C29.2891 80.1613 26.9381 78.8729 25.2141 76.296C24.3521 74.9481 23.6076 73.5605 22.9807 72.1333C22.3538 70.7061 21.2175 68.5455 19.5718 65.6514C19.2583 65.1757 18.8861 64.9378 18.4551 64.9378L18.0437 64.9973C16.7506 65.2748 15.4772 65.4135 14.2233 65.4135C12.0683 65.4135 9.93283 64.9973 7.81696 64.1647C7.66023 64.0854 7.52309 64.0458 7.40554 64.0458C7.24881 64.0458 7.15085 64.1251 7.11167 64.2837C7.07249 64.4026 7.0529 64.6008 7.0529 64.8783C6.19088 68.7635 5.38763 72.6288 4.64316 76.4744C4.29051 78.0998 3.83991 79.6856 3.29135 81.2317C2.66443 83.1743 2.25301 84.7204 2.0571 85.8701L2.11587 86.4053C2.11587 86.5243 2.09628 86.6432 2.0571 86.7621C2.01791 86.8811 1.84159 86.9604 1.52813 87ZM20.9824 62.9159C21.2566 62.9159 21.5309 62.8763 21.8052 62.797C27.2516 61.2112 32.365 58.8722 37.1453 55.7799C48.3907 48.6439 56.8542 40.0014 62.5357 29.8524C64.7299 26.0068 66.0034 21.864 66.356 17.4238V16.8291C66.356 11.3185 63.7895 7.90909 58.6566 6.60082C57.7554 6.4026 56.8542 6.30349 55.953 6.30349H55.1889C51.7017 6.50171 48.3907 7.33425 45.2561 8.80109C38.1248 12.2898 32.2082 17.2057 27.5063 23.5489C20.1399 33.1429 14.3213 43.6288 10.0504 55.0068L8.6398 58.9316C8.95326 58.9316 9.22754 58.9118 9.46264 58.8722C10.0896 58.8325 10.7557 58.8127 11.461 58.8127C14.7131 58.8127 17.4951 59.9822 19.8069 62.3213C20.1595 62.7177 20.5514 62.9159 20.9824 62.9159ZM13.8119 64.1647C15.1441 64.1647 16.5155 63.9863 17.9261 63.6295C15.8494 61.2509 13.5181 60.0615 10.932 60.0615C10.3442 60.0615 9.71733 60.1408 9.05122 60.2994C8.42429 60.4183 8.03247 60.8346 7.87574 61.5482L7.81696 61.905C7.85614 62.2221 8.07165 62.46 8.46348 62.6186L8.6398 62.797C10.0112 63.7088 11.7352 64.1647 13.8119 64.1647Z" fill="black"/>
<path d="M33 28H155V38H33V28Z" fill="#FEFCF9"/>
<path d="M56.8729 69C56.7168 69 56.4437 68.9369 56.0535 68.8107C55.3512 68.634 55 67.7253 55 66.0846C55 64.9993 55.1301 63.9265 55.3902 62.8664C56.1706 59.686 57.4972 56.7454 59.3701 54.0445L59.4091 53.9688C60.2936 52.6563 61.113 52 61.8673 52C62.2315 52 62.5957 52.1388 62.9599 52.4165C63.22 52.6184 63.3501 52.7951 63.3501 52.9465C63.3501 53.0728 63.1159 53.5019 62.6477 54.2339C62.5697 54.3096 62.5046 54.3979 62.4526 54.4989C60.6577 57.0735 59.201 59.7996 58.0825 62.6771C57.5883 63.9391 57.1981 65.2264 56.9119 66.539V66.6526C56.8599 66.7788 56.8339 66.9176 56.8339 67.069C56.8339 67.2205 56.8729 67.3846 56.9509 67.5612C57.2371 67.3593 57.4842 67.1321 57.6923 66.8797L57.8094 66.804C59.2401 65.2643 60.6317 63.6741 61.9844 62.0334C64.2215 59.3578 66.5236 56.8842 68.8907 54.6125C69.2029 54.2843 69.45 54.1203 69.6321 54.1203C69.7882 54.1455 70.0483 54.297 70.4125 54.5746V54.6125C70.9327 55.0163 71.3099 55.4959 71.544 56.0512L71.5831 56.1269C72.5195 58.121 74.0543 59.118 76.1873 59.118C78.7625 58.9918 81.806 58.0327 85.3177 56.2405L86.7224 55.5969L88.9855 54.4989C89.1936 54.3727 89.4147 54.3096 89.6488 54.3096C89.8829 54.3096 90 54.3979 90 54.5746C90 54.6251 89.974 54.6756 89.922 54.7261C89.8699 54.7765 89.7789 54.827 89.6488 54.8775C89.4928 55.0037 89.3237 55.1047 89.1416 55.1804C87.6849 55.9376 85.812 56.8337 83.5229 57.8686C81.728 58.7773 79.8161 59.3957 77.7871 59.7238C77.3188 59.7996 76.8766 59.8374 76.4604 59.8374C74.0152 59.8374 72.0253 58.7899 70.4905 56.6949C70.1784 56.2405 70.0223 55.9629 70.0223 55.8619C69.8922 55.5843 69.7882 55.4328 69.7101 55.4076C69.6061 55.4076 69.476 55.4959 69.32 55.6726C69.1639 55.8241 69.0208 55.9629 68.8907 56.0891C66.1334 58.9918 63.7923 61.6422 61.8673 64.0401C60.0725 66.1604 59.032 67.3593 58.7458 67.637C58.4597 67.9146 58.1865 68.2049 57.9264 68.5078C57.6403 68.8359 57.2891 69 56.8729 69Z" fill="black"/>
<path d="M96.7071 64C96.2543 64 95.6152 63.885 94.7896 63.6549C93.964 63.4503 93.1917 62.7345 92.4727 61.5074C92.0466 60.6637 91.8336 59.8073 91.8336 58.9381V58.823C91.8336 58.6441 91.7936 58.4395 91.7137 58.2094C91.5539 58.414 91.1012 58.8358 90.3555 59.4749C89.7696 60.0885 89.1704 60.3953 88.5579 60.3953C88.2916 60.3953 87.972 60.3058 87.5992 60.1268C87.2264 59.9223 87.0266 59.5516 87 59.0147V58.6696C87 55.6018 88.3715 53.2114 91.1145 51.4985C91.7004 51.1662 92.273 51 92.8322 51C93.4714 51 94.0972 51.1917 94.7097 51.5752C94.763 51.6008 94.8296 51.6519 94.9095 51.7286C94.9893 51.7797 95.0692 51.8181 95.1491 51.8437C95.2557 51.8692 95.3356 51.882 95.3888 51.882L95.8282 51.8437C95.988 51.8437 96.1744 51.8948 96.3875 51.997L96.4274 52.0354C96.9068 52.2655 97.1465 52.4956 97.1465 52.7257C97.1465 53.058 96.8668 53.6332 96.3076 54.4513C95.0293 56.4454 94.3901 58.4012 94.3901 60.3186C94.3901 61.06 94.51 61.6991 94.7497 62.236C94.9893 62.7729 95.4021 63.0413 95.988 63.0413C97.1598 62.9902 98.2517 62.6834 99.2636 62.1209C100.569 61.4818 102.379 60.4848 104.696 59.1298C106.401 58.1072 108.132 57.1101 109.889 56.1386C113.218 54.3491 115.375 53.4543 116.361 53.4543C116.76 53.4543 116.96 53.5438 116.96 53.7227L117 53.8761C115.455 54.1062 113.684 54.7837 111.687 55.9086C109.69 57.0334 107.666 58.2606 105.615 59.59C102.952 61.3795 100.688 62.7089 98.8242 63.5782C98.1318 63.8594 97.4261 64 96.7071 64ZM88.5979 59.4366L89.6365 58.708C91.3142 57.174 92.7124 55.4356 93.8309 53.4926C93.8842 53.3904 93.9374 53.2881 93.9907 53.1858C94.0439 53.0836 94.0706 52.9941 94.0706 52.9174C94.0706 52.8918 94.0573 52.8407 94.0306 52.764C94.004 52.6873 93.9507 52.5978 93.8708 52.4956C93.7909 52.3677 93.6844 52.3038 93.5513 52.3038C93.3116 52.3038 92.8855 52.5211 92.273 52.9558C90.7816 54.1829 89.6897 55.6785 88.9973 57.4425C88.731 57.9794 88.5979 58.6441 88.5979 59.4366Z" fill="black"/>
<path d="M65.1121 42.9312V42.7892C65.1971 42.7892 65.2624 42.7662 65.3078 42.7203C65.3531 42.6745 65.39 42.6114 65.4183 42.531C65.4495 42.4507 65.485 42.3575 65.5247 42.2514L66.401 39.8377H66.5031L67.4517 42.2858C67.4744 42.346 67.4999 42.4235 67.5283 42.5181C67.5566 42.6128 67.568 42.6931 67.5623 42.7591C67.6105 42.7562 67.6587 42.7533 67.7069 42.7505C67.7551 42.7476 67.8033 42.7447 67.8516 42.7419V42.9312H66.8774V42.7892C66.9852 42.7863 67.0561 42.7619 67.0901 42.716C67.1241 42.6701 67.1369 42.6157 67.1284 42.5526C67.1199 42.4894 67.1057 42.4321 67.0859 42.3805L66.937 41.976L65.831 42.0018L65.6821 42.4622C65.6622 42.531 65.6438 42.5855 65.6268 42.6257C65.6126 42.6658 65.5956 42.7103 65.5757 42.7591C65.6325 42.7562 65.6878 42.7533 65.7416 42.7505C65.7984 42.7476 65.8537 42.7447 65.9075 42.7419V42.9312H65.1121ZM65.8948 41.8168H66.8774L66.5754 40.9951C66.5442 40.9062 66.5116 40.8187 66.4776 40.7326C66.4464 40.6437 66.4152 40.5548 66.384 40.4659H66.3755C66.3471 40.5462 66.3173 40.6265 66.2861 40.7068C66.2578 40.7871 66.228 40.8689 66.1968 40.9521L65.8948 41.8168Z" fill="black"/>
<path d="M72.0037 40.8789C71.9754 40.6093 71.8818 40.3999 71.723 40.2508C71.567 40.1016 71.3656 40.027 71.1189 40.027C70.9686 40.027 70.8268 40.06 70.6935 40.126C70.5631 40.1891 70.4482 40.2809 70.349 40.4014C70.2497 40.5218 70.1717 40.6667 70.115 40.8359C70.0583 41.0051 70.0299 41.1959 70.0299 41.4081C70.0299 41.6777 70.081 41.9158 70.1831 42.1223C70.2852 42.3288 70.4227 42.4894 70.5957 42.6042C70.7687 42.7189 70.9601 42.7763 71.17 42.7763C71.3543 42.7763 71.5358 42.7347 71.7145 42.6515C71.8931 42.5655 72.0392 42.4421 72.1526 42.2815L72.2632 42.3719C72.1413 42.5411 72.0094 42.6716 71.8676 42.7634C71.7258 42.8552 71.584 42.9168 71.4422 42.9484C71.3033 42.9828 71.1756 43 71.0594 43C70.8467 43 70.651 42.9613 70.4723 42.8838C70.2965 42.8064 70.1434 42.6988 70.0129 42.5612C69.8853 42.4206 69.786 42.2586 69.7151 42.075C69.6471 41.8885 69.6131 41.6878 69.6131 41.4726C69.6131 41.269 69.6428 41.0711 69.7024 40.8789C69.7648 40.6867 69.8569 40.5132 69.9789 40.3583C70.1008 40.2034 70.254 40.0801 70.4383 39.9883C70.6255 39.8965 70.8424 39.8506 71.0891 39.8506C71.248 39.8506 71.3983 39.8722 71.5401 39.9152C71.6819 39.9582 71.818 40.0242 71.9484 40.1131L71.9272 39.8808H72.1569V40.8789H72.0037Z" fill="black"/>
<path d="M76.6158 40.8789C76.5875 40.6093 76.4939 40.3999 76.3351 40.2508C76.1791 40.1016 75.9778 40.027 75.731 40.027C75.5807 40.027 75.4389 40.06 75.3057 40.126C75.1752 40.1891 75.0603 40.2809 74.9611 40.4014C74.8618 40.5218 74.7838 40.6667 74.7271 40.8359C74.6704 41.0051 74.6421 41.1959 74.6421 41.4081C74.6421 41.6777 74.6931 41.9158 74.7952 42.1223C74.8973 42.3288 75.0348 42.4894 75.2078 42.6042C75.3808 42.7189 75.5722 42.7763 75.7821 42.7763C75.9664 42.7763 76.1479 42.7347 76.3266 42.6515C76.5052 42.5655 76.6513 42.4421 76.7647 42.2815L76.8753 42.3719C76.7534 42.5411 76.6215 42.6716 76.4797 42.7634C76.3379 42.8552 76.1961 42.9168 76.0543 42.9484C75.9154 42.9828 75.7878 43 75.6715 43C75.4588 43 75.2631 42.9613 75.0845 42.8838C74.9086 42.8064 74.7555 42.6988 74.625 42.5612C74.4974 42.4206 74.3982 42.2586 74.3273 42.075C74.2592 41.8885 74.2252 41.6878 74.2252 41.4726C74.2252 41.269 74.255 41.0711 74.3145 40.8789C74.3769 40.6867 74.4691 40.5132 74.591 40.3583C74.713 40.2034 74.8661 40.0801 75.0504 39.9883C75.2376 39.8965 75.4545 39.8506 75.7013 39.8506C75.8601 39.8506 76.0104 39.8722 76.1522 39.9152C76.294 39.9582 76.4301 40.0242 76.5605 40.1131L76.5393 39.8808H76.769V40.8789H76.6158Z" fill="black"/>
<path d="M80.3559 41.8168C80.3559 41.6906 80.3389 41.6003 80.3049 41.5458C80.2708 41.4913 80.217 41.4583 80.1432 41.4468C80.0695 41.4354 79.9717 41.4325 79.8497 41.4382L79.5392 41.4511V42.4364C79.5392 42.5138 79.5378 42.5798 79.5349 42.6343C79.5349 42.6888 79.5321 42.7347 79.5264 42.772L80.3389 42.7591C80.4637 42.7562 80.5714 42.7361 80.6622 42.6988C80.7529 42.6587 80.8238 42.5898 80.8749 42.4923C80.9259 42.3948 80.9515 42.2614 80.9515 42.0922H81.0961L81.0706 42.9312H78.8756V42.7892C78.9833 42.7834 79.0571 42.7591 79.0968 42.716C79.1365 42.6701 79.1577 42.6085 79.1606 42.531C79.1663 42.4507 79.1691 42.3604 79.1691 42.26V40.4014C79.1691 40.344 79.1705 40.2895 79.1733 40.2379C79.1762 40.1834 79.179 40.1346 79.1819 40.0916C79.1308 40.0944 79.0798 40.0973 79.0287 40.1002C78.9777 40.1031 78.9266 40.1059 78.8756 40.1088V39.9195H80.9217L80.943 40.6724H80.8026C80.8026 40.5032 80.7771 40.3755 80.726 40.2895C80.675 40.2006 80.6055 40.1418 80.5176 40.1131C80.4325 40.0815 80.3361 40.0672 80.2283 40.0701L79.8625 40.0787C79.7575 40.0815 79.6824 40.1016 79.637 40.1389C79.5916 40.1762 79.5633 40.2321 79.5519 40.3067C79.5434 40.3784 79.5392 40.4731 79.5392 40.5907V41.279L80.3389 41.2833L80.3091 40.9133H80.4963V41.8168H80.3559Z" fill="black"/>
<path d="M84.8313 40.8316C84.8228 40.6939 84.7902 40.5634 84.7334 40.4401C84.6767 40.3167 84.5945 40.2163 84.4867 40.1389C84.379 40.0615 84.2414 40.0227 84.0741 40.0227C83.8983 40.0227 83.7636 40.0729 83.67 40.1733C83.5764 40.2737 83.5296 40.3913 83.5296 40.5261C83.5296 40.6466 83.5636 40.7484 83.6317 40.8316C83.6998 40.9119 83.7877 40.9836 83.8954 41.0467C84.006 41.1069 84.1223 41.1657 84.2443 41.2231C84.352 41.2719 84.4598 41.3249 84.5675 41.3823C84.6753 41.4368 84.7731 41.4999 84.8611 41.5716C84.949 41.6433 85.0185 41.7294 85.0695 41.8297C85.1234 41.9273 85.1503 42.0449 85.1503 42.1825C85.1503 42.3403 85.1106 42.4808 85.0312 42.6042C84.9546 42.7275 84.8426 42.825 84.6952 42.8967C84.5477 42.9656 84.3676 43 84.1549 43C84.0273 43 83.8954 42.9814 83.7593 42.9441C83.6232 42.9068 83.5027 42.8523 83.3977 42.7806L83.419 42.9656H83.1978L83.1723 42.0492H83.3382C83.3524 42.3016 83.4389 42.4938 83.5977 42.6257C83.7565 42.7548 83.9479 42.8193 84.1719 42.8193C84.2825 42.8193 84.3846 42.7992 84.4782 42.7591C84.5718 42.716 84.6455 42.6544 84.6994 42.5741C84.7561 42.4938 84.7845 42.3962 84.7845 42.2815C84.7845 42.1524 84.7505 42.0449 84.6824 41.9588C84.6143 41.8728 84.5264 41.7982 84.4187 41.7351C84.3109 41.672 84.196 41.6118 84.0741 41.5544C83.9663 41.5056 83.86 41.454 83.7551 41.3995C83.6501 41.345 83.5537 41.2833 83.4658 41.2145C83.3807 41.1428 83.3112 41.0582 83.2574 40.9607C83.2063 40.8631 83.1808 40.7455 83.1808 40.6079C83.1808 40.5333 83.1935 40.453 83.2191 40.3669C83.2446 40.2809 83.2886 40.1991 83.3509 40.1217C83.4162 40.0414 83.5041 39.9768 83.6147 39.9281C83.7281 39.8765 83.8713 39.8506 84.0443 39.8506C84.1521 39.8506 84.2726 39.8664 84.4059 39.898C84.542 39.9267 84.6682 39.984 84.7845 40.0701L84.7675 39.8851H84.9844V40.8316H84.8313Z" fill="black"/>
<path d="M88.8826 40.8316C88.8741 40.6939 88.8415 40.5634 88.7847 40.4401C88.728 40.3167 88.6458 40.2163 88.538 40.1389C88.4303 40.0615 88.2927 40.0227 88.1254 40.0227C87.9496 40.0227 87.8149 40.0729 87.7213 40.1733C87.6277 40.2737 87.5809 40.3913 87.5809 40.5261C87.5809 40.6466 87.6149 40.7484 87.683 40.8316C87.7511 40.9119 87.839 40.9836 87.9467 41.0467C88.0573 41.1069 88.1736 41.1657 88.2956 41.2231C88.4033 41.2719 88.5111 41.3249 88.6189 41.3823C88.7266 41.4368 88.8245 41.4999 88.9124 41.5716C89.0003 41.6433 89.0698 41.7294 89.1208 41.8297C89.1747 41.9273 89.2016 42.0449 89.2016 42.1825C89.2016 42.3403 89.1619 42.4808 89.0825 42.6042C89.006 42.7275 88.8939 42.825 88.7465 42.8967C88.599 42.9656 88.4189 43 88.2062 43C88.0786 43 87.9467 42.9814 87.8106 42.9441C87.6745 42.9068 87.554 42.8523 87.449 42.7806L87.4703 42.9656H87.2491L87.2236 42.0492H87.3895C87.4037 42.3016 87.4902 42.4938 87.649 42.6257C87.8078 42.7548 87.9992 42.8193 88.2232 42.8193C88.3338 42.8193 88.4359 42.7992 88.5295 42.7591C88.6231 42.716 88.6968 42.6544 88.7507 42.5741C88.8074 42.4938 88.8358 42.3962 88.8358 42.2815C88.8358 42.1524 88.8018 42.0449 88.7337 41.9588C88.6656 41.8728 88.5777 41.7982 88.47 41.7351C88.3622 41.672 88.2473 41.6118 88.1254 41.5544C88.0176 41.5056 87.9113 41.454 87.8064 41.3995C87.7014 41.345 87.605 41.2833 87.5171 41.2145C87.432 41.1428 87.3625 41.0582 87.3087 40.9607C87.2576 40.8631 87.2321 40.7455 87.2321 40.6079C87.2321 40.5333 87.2449 40.453 87.2704 40.3669C87.2959 40.2809 87.3399 40.1991 87.4022 40.1217C87.4675 40.0414 87.5554 39.9768 87.666 39.9281C87.7794 39.8765 87.9226 39.8506 88.0956 39.8506C88.2034 39.8506 88.3239 39.8664 88.4572 39.898C88.5933 39.9267 88.7195 39.984 88.8358 40.0701L88.8188 39.8851H89.0357V40.8316H88.8826Z" fill="black"/>
<path d="M92.2192 40.0615C92.1143 40.0643 92.0406 40.0887 91.998 40.1346C91.9583 40.1805 91.9357 40.2422 91.93 40.3196C91.9271 40.397 91.9257 40.4874 91.9257 40.5907V42.4192C91.9257 42.4966 91.9243 42.564 91.9215 42.6214C91.9215 42.6759 91.9186 42.7218 91.913 42.7591C91.964 42.7562 92.0151 42.7533 92.0661 42.7505C92.1172 42.7476 92.1682 42.7447 92.2192 42.7419V42.9312H91.2621V42.7892C91.3699 42.7834 91.4436 42.7591 91.4833 42.716C91.523 42.6701 91.5443 42.6085 91.5471 42.531C91.5528 42.4507 91.5556 42.3604 91.5556 42.26V40.4014C91.5556 40.344 91.5571 40.2895 91.5599 40.2379C91.5627 40.1834 91.5656 40.1346 91.5684 40.0916C91.5174 40.0944 91.4663 40.0973 91.4153 40.1002C91.3642 40.1031 91.3132 40.1059 91.2621 40.1088V39.9195H92.2192V40.0615Z" fill="black"/>
<path d="M94.3247 42.9312V42.7892C94.4325 42.7863 94.5062 42.7619 94.5459 42.716C94.5856 42.6673 94.6069 42.6027 94.6097 42.5224C94.6154 42.4393 94.6183 42.3446 94.6183 42.2385V40.4315C94.6183 40.354 94.6197 40.2881 94.6225 40.2336C94.6253 40.1762 94.6282 40.1289 94.631 40.0916C94.58 40.0944 94.5289 40.0973 94.4779 40.1002C94.4268 40.1031 94.3758 40.1059 94.3247 40.1088V39.9195C94.4807 39.9166 94.6367 39.9152 94.7927 39.9152C94.9515 39.9123 95.116 39.9109 95.2861 39.9109C95.6151 39.9109 95.8717 39.9697 96.0561 40.0873C96.2432 40.2049 96.334 40.3913 96.3283 40.6466C96.3283 40.7384 96.3014 40.8302 96.2475 40.9219C96.1964 41.0137 96.1185 41.0955 96.0135 41.1672C95.9114 41.236 95.7824 41.2848 95.6264 41.3135V41.3221C95.9384 41.3221 96.1738 41.3952 96.3326 41.5415C96.4914 41.6849 96.5708 41.867 96.5708 42.0879C96.5708 42.2629 96.5268 42.4134 96.4389 42.5396C96.351 42.6658 96.2319 42.7634 96.0816 42.8322C95.9313 42.8982 95.7597 42.9312 95.5669 42.9312H94.3247ZM94.9756 42.7591C95.021 42.7619 95.0748 42.7648 95.1372 42.7677C95.2025 42.7677 95.262 42.7677 95.3159 42.7677C95.3726 42.7677 95.4095 42.7677 95.4265 42.7677C95.6449 42.7677 95.8207 42.7132 95.954 42.6042C96.0901 42.4923 96.1582 42.3288 96.1582 42.1137C96.1582 41.9387 96.1241 41.8025 96.0561 41.705C95.988 41.6075 95.8987 41.5386 95.7881 41.4985C95.6775 41.4583 95.5569 41.4382 95.4265 41.4382C95.3414 41.4382 95.2634 41.4397 95.1925 41.4425C95.1245 41.4425 95.0564 41.4454 94.9883 41.4511V42.4235C94.9883 42.5009 94.9869 42.5669 94.9841 42.6214C94.9841 42.6759 94.9813 42.7218 94.9756 42.7591ZM94.9883 41.2833L95.2989 41.2747C95.4605 41.2719 95.5881 41.2389 95.6817 41.1758C95.7753 41.1098 95.842 41.0281 95.8817 40.9305C95.9242 40.833 95.944 40.7312 95.9412 40.6251C95.9384 40.4702 95.9029 40.3526 95.8349 40.2723C95.7696 40.192 95.6888 40.1375 95.5924 40.1088C95.496 40.0801 95.401 40.0658 95.3074 40.0658C95.2138 40.0658 95.1443 40.0787 95.0989 40.1045C95.0536 40.1303 95.0238 40.1733 95.0096 40.2336C94.9954 40.2938 94.9883 40.377 94.9883 40.4831V41.2833Z" fill="black"/>
<path d="M98.5713 42.9312V42.7892C98.6791 42.7834 98.7528 42.7591 98.7925 42.716C98.8322 42.6701 98.8535 42.6085 98.8563 42.531C98.862 42.4507 98.8648 42.3604 98.8648 42.26V40.4014C98.8648 40.344 98.8662 40.2895 98.8691 40.2379C98.8719 40.1834 98.8747 40.1346 98.8776 40.0916C98.8265 40.0944 98.7755 40.0973 98.7244 40.1002C98.6734 40.1031 98.6223 40.1059 98.5713 40.1088V39.9195H99.5284V40.0615C99.4235 40.0643 99.3498 40.0887 99.3072 40.1346C99.2675 40.1805 99.2448 40.2422 99.2392 40.3196C99.2363 40.397 99.2349 40.4874 99.2349 40.5907V42.4364C99.2349 42.5138 99.2335 42.5798 99.2306 42.6343C99.2306 42.6888 99.2278 42.7347 99.2221 42.772L100.018 42.7591C100.196 42.7562 100.331 42.6988 100.422 42.587C100.515 42.4751 100.562 42.293 100.562 42.0406H100.707L100.681 42.9312H98.5713Z" fill="black"/>
<path d="M104.149 41.8168C104.149 41.6906 104.132 41.6003 104.098 41.5458C104.064 41.4913 104.01 41.4583 103.936 41.4468C103.862 41.4354 103.764 41.4325 103.642 41.4382L103.332 41.4511V42.4364C103.332 42.5138 103.33 42.5798 103.328 42.6343C103.328 42.6888 103.325 42.7347 103.319 42.772L104.132 42.7591C104.256 42.7562 104.364 42.7361 104.455 42.6988C104.546 42.6587 104.617 42.5898 104.668 42.4923C104.719 42.3948 104.744 42.2614 104.744 42.0922H104.889L104.863 42.9312H102.668V42.7892C102.776 42.7834 102.85 42.7591 102.889 42.716C102.929 42.6701 102.95 42.6085 102.953 42.531C102.959 42.4507 102.962 42.3604 102.962 42.26V40.4014C102.962 40.344 102.963 40.2895 102.966 40.2379C102.969 40.1834 102.972 40.1346 102.975 40.0916C102.924 40.0944 102.872 40.0973 102.821 40.1002C102.77 40.1031 102.719 40.1059 102.668 40.1088V39.9195H104.714L104.736 40.6724H104.595C104.595 40.5032 104.57 40.3755 104.519 40.2895C104.468 40.2006 104.398 40.1418 104.31 40.1131C104.225 40.0815 104.129 40.0672 104.021 40.0701L103.655 40.0787C103.55 40.0815 103.475 40.1016 103.43 40.1389C103.384 40.1762 103.356 40.2321 103.345 40.3067C103.336 40.3784 103.332 40.4731 103.332 40.5907V41.279L104.132 41.2833L104.102 40.9133H104.289V41.8168H104.149Z" fill="black"/>
<path d="M110.558 40.0615C110.465 40.0615 110.397 40.0815 110.354 40.1217C110.314 40.1619 110.29 40.2092 110.282 40.2637C110.273 40.3153 110.269 40.3612 110.269 40.4014V41.4856C110.269 41.6462 110.279 41.8025 110.299 41.9545C110.321 42.1037 110.363 42.2385 110.422 42.3589C110.482 42.4794 110.57 42.5755 110.686 42.6472C110.805 42.7189 110.959 42.7548 111.15 42.7548C111.354 42.7548 111.52 42.706 111.647 42.6085C111.778 42.511 111.873 42.3762 111.932 42.2041C111.995 42.032 112.027 41.8341 112.03 41.6103L112.043 40.4014C112.043 40.344 112.044 40.2895 112.047 40.2379C112.05 40.1834 112.053 40.1346 112.056 40.0916C112.005 40.0944 111.953 40.0973 111.902 40.1002C111.854 40.1031 111.805 40.1059 111.754 40.1088V39.9195H112.545V40.0615C112.437 40.0643 112.362 40.0887 112.319 40.1346C112.28 40.1805 112.257 40.2422 112.251 40.3196C112.248 40.397 112.247 40.4874 112.247 40.5907L112.238 41.5888C112.238 41.7753 112.219 41.9531 112.179 42.1223C112.139 42.2915 112.074 42.4421 111.983 42.5741C111.895 42.706 111.778 42.8107 111.63 42.8881C111.486 42.9627 111.307 43 111.094 43C110.867 43 110.676 42.9699 110.52 42.9097C110.367 42.8494 110.243 42.7562 110.15 42.63C110.059 42.5038 109.994 42.3446 109.954 42.1524C109.914 41.9603 109.895 41.7308 109.895 41.464V40.5907C109.895 40.5161 109.896 40.4286 109.899 40.3282C109.905 40.225 109.909 40.1461 109.912 40.0916C109.861 40.0944 109.81 40.0973 109.758 40.1002C109.707 40.1002 109.656 40.1016 109.605 40.1045V39.9195H110.558V40.0615Z" fill="black"/>
<path d="M114.361 42.9312V42.7892C114.497 42.7605 114.603 42.7031 114.68 42.6171C114.759 42.5282 114.847 42.4134 114.944 42.2729L115.497 41.4726C115.301 41.1944 115.148 40.9779 115.037 40.823C114.927 40.6652 114.84 40.5419 114.778 40.453C114.724 40.3698 114.683 40.3038 114.654 40.2551C114.629 40.2063 114.605 40.1547 114.582 40.1002C114.545 40.1031 114.507 40.1045 114.467 40.1045C114.428 40.1045 114.388 40.1059 114.348 40.1088V39.9195H115.45V40.0615L115.263 40.0701C115.161 40.0729 115.098 40.093 115.076 40.1303C115.056 40.1647 115.057 40.2077 115.08 40.2594C115.105 40.311 115.134 40.3641 115.165 40.4186C115.216 40.5046 115.288 40.6165 115.382 40.7541C115.478 40.889 115.582 41.0338 115.692 41.1887L116.101 40.5907C116.175 40.4874 116.244 40.3884 116.309 40.2938C116.377 40.1991 116.434 40.1317 116.479 40.0916C116.42 40.0944 116.36 40.0973 116.301 40.1002C116.241 40.1031 116.182 40.1059 116.122 40.1088V39.9195H116.96V40.0615C116.869 40.0729 116.784 40.1102 116.705 40.1733C116.625 40.2364 116.552 40.3124 116.484 40.4014C116.416 40.4874 116.352 40.5734 116.292 40.6595L115.812 41.3479C115.914 41.4856 116.013 41.6204 116.109 41.7523C116.209 41.8814 116.298 41.999 116.377 42.1051C116.457 42.2084 116.518 42.2901 116.56 42.3503C116.608 42.4163 116.657 42.4837 116.705 42.5526C116.756 42.6185 116.806 42.6845 116.854 42.7505C116.893 42.7476 116.935 42.7462 116.977 42.7462C117.02 42.7462 117.061 42.7447 117.1 42.7419V42.9312H116.058V42.7892C116.169 42.7921 116.241 42.7777 116.275 42.7462C116.309 42.7117 116.319 42.6701 116.305 42.6214C116.294 42.5698 116.271 42.521 116.237 42.4751C116.172 42.3862 116.084 42.2715 115.973 42.1309C115.863 41.9875 115.742 41.824 115.612 41.6404C115.541 41.7437 115.47 41.8484 115.399 41.9545C115.331 42.0578 115.261 42.1639 115.19 42.2729C115.139 42.3503 115.086 42.4306 115.029 42.5138C114.975 42.597 114.913 42.6802 114.842 42.7634C114.901 42.7576 114.959 42.7533 115.016 42.7505C115.076 42.7476 115.135 42.7447 115.195 42.7419V42.9312H114.361Z" fill="black"/>
<path d="M121.699 42.7892C121.807 42.7834 121.881 42.7591 121.921 42.716C121.96 42.6701 121.982 42.6085 121.984 42.531C121.99 42.4507 121.993 42.3604 121.993 42.26V40.4014C121.993 40.344 121.994 40.2895 121.997 40.2379C122 40.1834 122.003 40.1346 122.006 40.0916C121.955 40.0944 121.904 40.0973 121.852 40.1002C121.801 40.1031 121.75 40.1059 121.699 40.1088V39.9195L122.703 39.9152C122.958 39.9152 123.192 39.9453 123.405 40.0055C123.618 40.0658 123.801 40.159 123.954 40.2852C124.11 40.4085 124.229 40.5663 124.311 40.7585C124.396 40.9478 124.439 41.1715 124.439 41.4296C124.439 41.6275 124.405 41.8168 124.337 41.9975C124.269 42.1782 124.167 42.3389 124.03 42.4794C123.894 42.6171 123.724 42.7275 123.52 42.8107C123.319 42.891 123.085 42.9312 122.818 42.9312H121.699V42.7892ZM122.363 42.4235C122.363 42.5009 122.362 42.5669 122.359 42.6214C122.359 42.6759 122.356 42.7218 122.35 42.7591C122.427 42.7619 122.496 42.7648 122.559 42.7677C122.624 42.7677 122.678 42.7677 122.72 42.7677C122.766 42.7677 122.794 42.7677 122.805 42.7677C122.99 42.7677 123.156 42.7333 123.303 42.6644C123.453 42.5956 123.581 42.5009 123.686 42.3805C123.794 42.2571 123.876 42.1137 123.933 41.9502C123.992 41.7839 124.022 41.6046 124.022 41.4124C124.022 41.1399 123.972 40.9047 123.873 40.7068C123.777 40.506 123.628 40.3512 123.426 40.2422C123.225 40.1303 122.968 40.0744 122.656 40.0744C122.552 40.0744 122.478 40.0959 122.435 40.1389C122.396 40.1819 122.373 40.2422 122.367 40.3196C122.364 40.397 122.363 40.4874 122.363 40.5907V42.4235Z" fill="black"/>
<path d="M127.946 41.8168C127.946 41.6906 127.928 41.6003 127.894 41.5458C127.86 41.4913 127.807 41.4583 127.733 41.4468C127.659 41.4354 127.561 41.4325 127.439 41.4382L127.129 41.4511V42.4364C127.129 42.5138 127.127 42.5798 127.125 42.6343C127.125 42.6888 127.122 42.7347 127.116 42.772L127.928 42.7591C128.053 42.7562 128.161 42.7361 128.252 42.6988C128.343 42.6587 128.413 42.5898 128.464 42.4923C128.516 42.3948 128.541 42.2614 128.541 42.0922H128.686L128.66 42.9312H126.465V42.7892C126.573 42.7834 126.647 42.7591 126.686 42.716C126.726 42.6701 126.747 42.6085 126.75 42.531C126.756 42.4507 126.759 42.3604 126.759 42.26V40.4014C126.759 40.344 126.76 40.2895 126.763 40.2379C126.766 40.1834 126.769 40.1346 126.771 40.0916C126.72 40.0944 126.669 40.0973 126.618 40.1002C126.567 40.1031 126.516 40.1059 126.465 40.1088V39.9195H128.511L128.533 40.6724H128.392C128.392 40.5032 128.367 40.3755 128.316 40.2895C128.265 40.2006 128.195 40.1418 128.107 40.1131C128.022 40.0815 127.926 40.0672 127.818 40.0701L127.452 40.0787C127.347 40.0815 127.272 40.1016 127.227 40.1389C127.181 40.1762 127.153 40.2321 127.142 40.3067C127.133 40.3784 127.129 40.4731 127.129 40.5907V41.279L127.928 41.2833L127.899 40.9133H128.086V41.8168H127.946Z" fill="black"/>
<path d="M132.421 40.8316C132.412 40.6939 132.38 40.5634 132.323 40.4401C132.266 40.3167 132.184 40.2163 132.076 40.1389C131.969 40.0615 131.831 40.0227 131.664 40.0227C131.488 40.0227 131.353 40.0729 131.26 40.1733C131.166 40.2737 131.119 40.3913 131.119 40.5261C131.119 40.6466 131.153 40.7484 131.221 40.8316C131.289 40.9119 131.377 40.9836 131.485 41.0467C131.596 41.1069 131.712 41.1657 131.834 41.2231C131.942 41.2719 132.049 41.3249 132.157 41.3823C132.265 41.4368 132.363 41.4999 132.451 41.5716C132.539 41.6433 132.608 41.7294 132.659 41.8297C132.713 41.9273 132.74 42.0449 132.74 42.1825C132.74 42.3403 132.7 42.4808 132.621 42.6042C132.544 42.7275 132.432 42.825 132.285 42.8967C132.137 42.9656 131.957 43 131.745 43C131.617 43 131.485 42.9814 131.349 42.9441C131.213 42.9068 131.092 42.8523 130.987 42.7806L131.009 42.9656H130.787L130.762 42.0492H130.928C130.942 42.3016 131.028 42.4938 131.187 42.6257C131.346 42.7548 131.537 42.8193 131.762 42.8193C131.872 42.8193 131.974 42.7992 132.068 42.7591C132.161 42.716 132.235 42.6544 132.289 42.5741C132.346 42.4938 132.374 42.3962 132.374 42.2815C132.374 42.1524 132.34 42.0449 132.272 41.9588C132.204 41.8728 132.116 41.7982 132.008 41.7351C131.9 41.672 131.786 41.6118 131.664 41.5544C131.556 41.5056 131.45 41.454 131.345 41.3995C131.24 41.345 131.143 41.2833 131.055 41.2145C130.97 41.1428 130.901 41.0582 130.847 40.9607C130.796 40.8631 130.77 40.7455 130.77 40.6079C130.77 40.5333 130.783 40.453 130.809 40.3669C130.834 40.2809 130.878 40.1991 130.941 40.1217C131.006 40.0414 131.094 39.9768 131.204 39.9281C131.318 39.8765 131.461 39.8506 131.634 39.8506C131.742 39.8506 131.862 39.8664 131.995 39.898C132.132 39.9267 132.258 39.984 132.374 40.0701L132.357 39.8851H132.574V40.8316H132.421Z" fill="black"/>
<path d="M135.758 40.0615C135.653 40.0643 135.579 40.0887 135.536 40.1346C135.497 40.1805 135.474 40.2422 135.468 40.3196C135.465 40.397 135.464 40.4874 135.464 40.5907V42.4192C135.464 42.4966 135.463 42.564 135.46 42.6214C135.46 42.6759 135.457 42.7218 135.451 42.7591C135.502 42.7562 135.553 42.7533 135.604 42.7505C135.655 42.7476 135.706 42.7447 135.758 42.7419V42.9312H134.8V42.7892C134.908 42.7834 134.982 42.7591 135.022 42.716C135.061 42.6701 135.083 42.6085 135.085 42.531C135.091 42.4507 135.094 42.3604 135.094 42.26V40.4014C135.094 40.344 135.095 40.2895 135.098 40.2379C135.101 40.1834 135.104 40.1346 135.107 40.0916C135.056 40.0944 135.005 40.0973 134.954 40.1002C134.903 40.1031 134.851 40.1059 134.8 40.1088V39.9195H135.758V40.0615Z" fill="black"/>
<path d="M139.238 43C138.954 43 138.703 42.9398 138.485 42.8193C138.267 42.6988 138.096 42.5253 137.975 42.2987C137.853 42.0721 137.792 41.8025 137.792 41.4899C137.792 41.2862 137.821 41.0883 137.881 40.8961C137.943 40.7011 138.035 40.5247 138.157 40.3669C138.282 40.2092 138.437 40.0844 138.621 39.9926C138.808 39.898 139.025 39.8506 139.272 39.8506C139.374 39.8506 139.478 39.8607 139.582 39.8808C139.687 39.898 139.788 39.9252 139.885 39.9625C139.984 39.9969 140.073 40.0385 140.153 40.0873L140.135 39.8808H140.369V40.866H140.216C140.205 40.6853 140.157 40.5333 140.072 40.41C139.989 40.2838 139.882 40.1877 139.748 40.1217C139.615 40.0557 139.466 40.0227 139.302 40.0227C139.151 40.0227 139.01 40.0572 138.876 40.126C138.746 40.192 138.63 40.2866 138.528 40.41C138.428 40.5304 138.35 40.6738 138.294 40.8402C138.237 41.0066 138.208 41.1901 138.208 41.3909C138.208 41.6605 138.257 41.9015 138.353 42.1137C138.45 42.326 138.583 42.4923 138.753 42.6128C138.926 42.7333 139.124 42.7935 139.349 42.7935C139.425 42.7935 139.505 42.7863 139.587 42.772C139.672 42.7576 139.755 42.7347 139.838 42.7031C139.923 42.6687 140.002 42.6271 140.076 42.5784V42.0535C140.076 41.9846 140.076 41.9158 140.076 41.847C140.076 41.7753 140.076 41.705 140.076 41.6361C140.028 41.639 139.978 41.6419 139.927 41.6447C139.876 41.6476 139.826 41.6505 139.778 41.6533V41.464H140.74V41.606C140.66 41.606 140.599 41.6275 140.557 41.6706C140.514 41.7107 140.484 41.7609 140.467 41.8211C140.45 41.8785 140.44 41.9359 140.438 41.9932C140.435 42.0477 140.433 42.0893 140.433 42.118V42.7763H140.318C140.273 42.7763 140.211 42.7849 140.131 42.8021C140.052 42.8193 139.961 42.848 139.859 42.8881C139.771 42.9226 139.669 42.9498 139.553 42.9699C139.436 42.99 139.332 43 139.238 43Z" fill="black"/>
<path d="M145.026 43L143.329 40.6939C143.304 40.6595 143.278 40.6265 143.252 40.595C143.23 40.5605 143.206 40.5261 143.18 40.4917H143.176L143.189 42.3331C143.189 42.4048 143.189 42.4765 143.189 42.5482C143.189 42.62 143.186 42.6902 143.18 42.7591C143.231 42.7562 143.282 42.7533 143.333 42.7505C143.384 42.7476 143.435 42.7447 143.486 42.7419V42.9312H142.708V42.7892C142.796 42.7892 142.858 42.7705 142.895 42.7333C142.935 42.6931 142.96 42.6472 142.972 42.5956C142.983 42.5411 142.989 42.4923 142.989 42.4493L142.993 40.3798C142.993 40.3311 142.993 40.2823 142.993 40.2336C142.993 40.1848 142.993 40.1375 142.993 40.0916C142.948 40.0944 142.901 40.0973 142.853 40.1002C142.804 40.1031 142.756 40.1059 142.708 40.1088V39.9195H143.214L144.809 42.0793C144.846 42.128 144.882 42.1768 144.916 42.2256C144.953 42.2743 144.989 42.3231 145.026 42.3719H145.031L145.035 40.4014C145.035 40.344 145.036 40.2895 145.039 40.2379C145.042 40.1834 145.045 40.1346 145.048 40.0916C144.997 40.0944 144.946 40.0973 144.894 40.1002C144.843 40.1031 144.792 40.1059 144.741 40.1088V39.9195H145.524V40.0615C145.419 40.0643 145.347 40.0887 145.307 40.1346C145.267 40.1805 145.246 40.2422 145.243 40.3196C145.24 40.397 145.239 40.4874 145.239 40.5907L145.231 43H145.026Z" fill="black"/>
<path d="M32 35.1868V34.9029C32.2155 34.8914 32.363 34.8427 32.4424 34.7566C32.5218 34.6648 32.5643 34.5415 32.57 34.3866C32.5814 34.226 32.587 34.0453 32.587 33.8445V30.1272C32.587 30.0125 32.5899 29.9035 32.5955 29.8002C32.6012 29.6913 32.6069 29.5937 32.6126 29.5077C32.5105 29.5134 32.4084 29.5192 32.3063 29.5249C32.2042 29.5306 32.1021 29.5364 32 29.5421V29.1635C32.3176 29.1578 32.6381 29.152 32.9614 29.1463C33.2903 29.1405 33.6193 29.1434 33.9483 29.1549C34.4984 29.1606 34.9408 29.2266 35.2755 29.3528C35.6158 29.4733 35.8653 29.6482 36.0242 29.8777C36.183 30.1014 36.2624 30.3739 36.2624 30.6951C36.268 30.9189 36.2255 31.1483 36.1348 31.3835C36.0497 31.613 35.8909 31.8195 35.6583 32.0031C35.4314 32.1866 35.1025 32.3243 34.6714 32.4161C34.7849 32.4964 34.8841 32.5997 34.9692 32.7259C35.0543 32.8521 35.1507 32.9984 35.2585 33.1647L35.837 34.0854C35.9334 34.2403 36.027 34.3809 36.1177 34.5071C36.2085 34.6275 36.3134 34.7251 36.4325 34.7996C36.5516 34.8685 36.6991 34.9029 36.8749 34.9029V35.1868H35.803C35.6385 35.0377 35.4995 34.8885 35.3861 34.7394C35.2783 34.5902 35.1649 34.421 35.0458 34.2317L34.4757 33.311C34.402 33.1905 34.3169 33.0529 34.2205 32.898C34.1298 32.7373 34.0248 32.6025 33.9057 32.4935C33.815 32.4993 33.7186 32.5022 33.6165 32.5022C33.52 32.5022 33.4236 32.4993 33.3272 32.4935V34.1629C33.3272 34.3178 33.3244 34.4526 33.3187 34.5673C33.3187 34.6763 33.313 34.7681 33.3017 34.8427C33.3697 34.8369 33.4378 34.8341 33.5059 34.8341C33.5739 34.8283 33.642 34.8226 33.7101 34.8168C33.7781 34.8111 33.8462 34.8082 33.9142 34.8082V35.1868H32ZM33.8547 32.1752C34.1666 32.1637 34.4389 32.1121 34.6714 32.0203C34.9096 31.9285 35.0968 31.7822 35.2329 31.5814C35.3691 31.3807 35.4371 31.1168 35.4371 30.7898C35.4371 30.5718 35.4059 30.3825 35.3435 30.2219C35.2868 30.0555 35.1961 29.9178 35.0713 29.8089C34.9465 29.6999 34.7877 29.6195 34.5949 29.5679C34.402 29.5106 34.1751 29.4819 33.9142 29.4819C33.7044 29.4819 33.5569 29.5249 33.4718 29.6109C33.3924 29.697 33.3471 29.8175 33.3357 29.9723C33.33 30.1215 33.3272 30.2993 33.3272 30.5058V32.158C33.418 32.1637 33.503 32.1694 33.5824 32.1752C33.6675 32.1809 33.7583 32.1809 33.8547 32.1752Z" fill="black"/>
<path d="M42.515 32.9582C42.515 32.7058 42.4809 32.5251 42.4129 32.4161C42.3448 32.3071 42.237 32.2411 42.0896 32.2182C41.9421 32.1952 41.7464 32.1895 41.5025 32.201L40.8815 32.2268V34.1973C40.8815 34.3522 40.8786 34.4841 40.873 34.5931C40.873 34.7021 40.8673 34.7939 40.8559 34.8685L42.4809 34.8427C42.7305 34.8369 42.946 34.7968 43.1275 34.7222C43.309 34.6419 43.4508 34.5042 43.5529 34.3092C43.655 34.1141 43.706 33.8474 43.706 33.5089H43.9953L43.9443 35.1868H39.5543V34.9029C39.7698 34.8914 39.9173 34.8427 39.9967 34.7566C40.0761 34.6648 40.1186 34.5415 40.1243 34.3866C40.1356 34.226 40.1413 34.0453 40.1413 33.8445V30.1272C40.1413 30.0125 40.1441 29.9035 40.1498 29.8002C40.1555 29.6913 40.1611 29.5937 40.1668 29.5077C40.0647 29.5134 39.9626 29.5192 39.8605 29.5249C39.7584 29.5306 39.6564 29.5364 39.5543 29.5421V29.1635H43.6465L43.689 30.6693H43.4083C43.4083 30.3309 43.3572 30.0756 43.2551 29.9035C43.153 29.7257 43.0141 29.6081 42.8382 29.5507C42.6681 29.4876 42.4752 29.4589 42.2597 29.4647L41.5281 29.4819C41.3182 29.4876 41.1679 29.5278 41.0771 29.6023C40.9864 29.6769 40.9297 29.7888 40.907 29.9379C40.89 30.0813 40.8815 30.2706 40.8815 30.5058V31.8826L42.4809 31.8912L42.4214 31.1512H42.7957V32.9582H42.515Z" fill="black"/>
<path d="M47.0587 35.1868V34.9029C47.2742 34.8972 47.4217 34.8484 47.5011 34.7566C47.5805 34.6591 47.623 34.53 47.6287 34.3694C47.64 34.203 47.6457 34.0137 47.6457 33.8015V30.1875C47.6457 30.0326 47.6485 29.9006 47.6542 29.7916C47.6599 29.6769 47.6656 29.5823 47.6712 29.5077C47.5691 29.5134 47.467 29.5192 47.365 29.5249C47.2629 29.5306 47.1608 29.5364 47.0587 29.5421V29.1635C47.3706 29.1578 47.6826 29.1549 47.9945 29.1549C48.3121 29.1491 48.6411 29.1463 48.9814 29.1463C49.6394 29.1463 50.1527 29.2639 50.5213 29.4991C50.8957 29.7343 51.0772 30.1072 51.0658 30.6177C51.0658 30.8013 51.0119 30.9848 50.9042 31.1684C50.8021 31.352 50.6461 31.5155 50.4362 31.6589C50.2321 31.7966 49.974 31.8941 49.662 31.9514V31.9687C50.2859 31.9687 50.7567 32.1149 51.0743 32.4075C51.3919 32.6943 51.5508 33.0586 51.5508 33.5003C51.5508 33.8502 51.4628 34.1514 51.287 34.4038C51.1112 34.6562 50.873 34.8513 50.5724 34.9889C50.2718 35.1209 49.9286 35.1868 49.5429 35.1868H47.0587ZM48.3604 34.8427C48.4511 34.8484 48.5589 34.8541 48.6837 34.8599C48.8141 34.8599 48.9332 34.8599 49.041 34.8599C49.1544 34.8599 49.2281 34.8599 49.2622 34.8599C49.6989 34.8599 50.0506 34.7509 50.3171 34.5329C50.5894 34.3092 50.7255 33.9822 50.7255 33.5519C50.7255 33.202 50.6574 32.9295 50.5213 32.7345C50.3852 32.5394 50.2065 32.4018 49.9853 32.3215C49.7641 32.2411 49.5231 32.201 49.2622 32.201C49.092 32.201 48.936 32.2039 48.7943 32.2096C48.6581 32.2096 48.522 32.2153 48.3859 32.2268V34.1715C48.3859 34.3264 48.383 34.4583 48.3774 34.5673C48.3774 34.6763 48.3717 34.7681 48.3604 34.8427ZM48.3859 31.8912L49.0069 31.874C49.3302 31.8683 49.5855 31.8023 49.7726 31.6761C49.9598 31.5442 50.0931 31.3807 50.1725 31.1856C50.2576 30.9906 50.2973 30.7869 50.2916 30.5747C50.2859 30.2649 50.215 30.0297 50.0789 29.8691C49.9485 29.7085 49.7868 29.5995 49.594 29.5421C49.4011 29.4847 49.2111 29.4561 49.024 29.4561C48.8368 29.4561 48.6978 29.4819 48.6071 29.5335C48.5163 29.5851 48.4568 29.6712 48.4284 29.7916C48.4001 29.9121 48.3859 30.0785 48.3859 30.2907V31.8912Z" fill="black"/>
<path d="M57.449 32.9582C57.449 32.7058 57.415 32.5251 57.3469 32.4161C57.2788 32.3071 57.1711 32.2411 57.0236 32.2182C56.8761 32.1952 56.6805 32.1895 56.4366 32.201L55.8155 32.2268V34.1973C55.8155 34.3522 55.8127 34.4841 55.807 34.5931C55.807 34.7021 55.8013 34.7939 55.79 34.8685L57.415 34.8427C57.6645 34.8369 57.8801 34.7968 58.0616 34.7222C58.2431 34.6419 58.3849 34.5042 58.4869 34.3092C58.589 34.1141 58.6401 33.8474 58.6401 33.5089H58.9293L58.8783 35.1868H54.4883V34.9029C54.7038 34.8914 54.8513 34.8427 54.9307 34.7566C55.0101 34.6648 55.0527 34.5415 55.0583 34.3866C55.0697 34.226 55.0753 34.0453 55.0753 33.8445V30.1272C55.0753 30.0125 55.0782 29.9035 55.0839 29.8002C55.0895 29.6913 55.0952 29.5937 55.1009 29.5077C54.9988 29.5134 54.8967 29.5192 54.7946 29.5249C54.6925 29.5306 54.5904 29.5364 54.4883 29.5421V29.1635H58.5805L58.6231 30.6693H58.3423C58.3423 30.3309 58.2913 30.0756 58.1892 29.9035C58.0871 29.7257 57.9481 29.6081 57.7723 29.5507C57.6021 29.4876 57.4093 29.4589 57.1938 29.4647L56.4621 29.4819C56.2522 29.4876 56.1019 29.5278 56.0112 29.6023C55.9204 29.6769 55.8637 29.7888 55.841 29.9379C55.824 30.0813 55.8155 30.2706 55.8155 30.5058V31.8826L57.415 31.8912L57.3554 31.1512H57.7298V32.9582H57.449Z" fill="black"/>
<path d="M66.6975 31.0824C66.6408 30.5431 66.4536 30.1244 66.136 29.8261C65.824 29.5278 65.4213 29.3786 64.9279 29.3786C64.6273 29.3786 64.3437 29.4446 64.0771 29.5765C63.8162 29.7027 63.5865 29.8863 63.388 30.1272C63.1895 30.3682 63.0335 30.6579 62.9201 30.9963C62.8066 31.3348 62.7499 31.7162 62.7499 32.1408C62.7499 32.68 62.852 33.1561 63.0562 33.5691C63.2604 33.9822 63.5355 34.3034 63.8814 34.5329C64.2274 34.7623 64.6103 34.8771 65.03 34.8771C65.3987 34.8771 65.7617 34.7939 66.119 34.6275C66.4763 34.4554 66.7684 34.2088 66.9953 33.8875L67.2165 34.0682C66.9726 34.4067 66.7088 34.6677 66.4253 34.8513C66.1417 35.0348 65.8581 35.1582 65.5745 35.2213C65.2966 35.2901 65.0413 35.3245 64.8088 35.3245C64.3834 35.3245 63.992 35.2471 63.6347 35.0922C63.2831 34.9373 62.9768 34.7222 62.7159 34.4468C62.4607 34.1657 62.2621 33.8416 62.1203 33.4745C61.9842 33.1016 61.9162 32.7001 61.9162 32.2698C61.9162 31.8625 61.9757 31.4667 62.0948 31.0824C62.2196 30.698 62.4039 30.351 62.6478 30.0412C62.8917 29.7314 63.198 29.4847 63.5667 29.3012C63.941 29.1176 64.3749 29.0258 64.8683 29.0258C65.186 29.0258 65.4866 29.0688 65.7702 29.1549C66.0537 29.2409 66.326 29.3729 66.5869 29.5507L66.5444 29.086H67.0038V31.0824H66.6975Z" fill="black"/>
<path d="M74.8583 31.0824C74.8015 30.5431 74.6144 30.1244 74.2968 29.8261C73.9848 29.5278 73.5821 29.3786 73.0887 29.3786C72.7881 29.3786 72.5045 29.4446 72.2379 29.5765C71.977 29.7027 71.7473 29.8863 71.5488 30.1272C71.3503 30.3682 71.1943 30.6579 71.0808 30.9963C70.9674 31.3348 70.9107 31.7162 70.9107 32.1408C70.9107 32.68 71.0128 33.1561 71.217 33.5691C71.4211 33.9822 71.6962 34.3034 72.0422 34.5329C72.3882 34.7623 72.771 34.8771 73.1908 34.8771C73.5594 34.8771 73.9224 34.7939 74.2797 34.6275C74.6371 34.4554 74.9292 34.2088 75.156 33.8875L75.3772 34.0682C75.1334 34.4067 74.8696 34.6677 74.586 34.8513C74.3024 35.0348 74.0188 35.1582 73.7352 35.2213C73.4573 35.2901 73.2021 35.3245 72.9696 35.3245C72.5442 35.3245 72.1528 35.2471 71.7955 35.0922C71.4438 34.9373 71.1376 34.7222 70.8767 34.4468C70.6214 34.1657 70.4229 33.8416 70.2811 33.4745C70.145 33.1016 70.0769 32.7001 70.0769 32.2698C70.0769 31.8625 70.1365 31.4667 70.2556 31.0824C70.3804 30.698 70.5647 30.351 70.8086 30.0412C71.0525 29.7314 71.3588 29.4847 71.7274 29.3012C72.1018 29.1176 72.5357 29.0258 73.0291 29.0258C73.3467 29.0258 73.6473 29.0688 73.9309 29.1549C74.2145 29.2409 74.4868 29.3729 74.7477 29.5507L74.7051 29.086H75.1645V31.0824H74.8583Z" fill="black"/>
<path d="M77.7122 35.1868V34.9029C77.8824 34.9029 78.0128 34.857 78.1036 34.7652C78.1943 34.6734 78.2681 34.5472 78.3248 34.3866C78.3872 34.226 78.4581 34.0395 78.5375 33.8273L80.2901 29H80.4942L82.3915 33.8961C82.4368 34.0166 82.4879 34.1715 82.5446 34.3608C82.6013 34.5501 82.624 34.7107 82.6127 34.8427C82.7091 34.8369 82.8055 34.8312 82.9019 34.8254C82.9983 34.8197 83.0948 34.814 83.1912 34.8082V35.1868H81.2429V34.9029C81.4584 34.8972 81.6002 34.8484 81.6683 34.7566C81.7364 34.6648 81.7619 34.5558 81.7449 34.4296C81.7279 34.3034 81.6995 34.1887 81.6598 34.0854L81.362 33.2766L79.15 33.3282L78.8522 34.2489C78.8125 34.3866 78.7757 34.4956 78.7416 34.5759C78.7133 34.6562 78.6793 34.7451 78.6396 34.8427C78.753 34.8369 78.8636 34.8312 78.9714 34.8254C79.0848 34.8197 79.1954 34.814 79.3032 34.8082V35.1868H77.7122ZM79.2776 32.9582H81.2429L80.6389 31.3147C80.5765 31.1369 80.5113 30.9619 80.4432 30.7898C80.3808 30.612 80.3184 30.4341 80.256 30.2563H80.239C80.1823 30.4169 80.1227 30.5775 80.0603 30.7382C80.0036 30.8988 79.9441 31.0623 79.8817 31.2286L79.2776 32.9582Z" fill="black"/>
<path d="M92.4873 35.2729L90.5561 30.6951C90.4313 30.4026 90.3434 30.1674 90.2923 29.9896C90.2413 29.806 90.2073 29.6511 90.1903 29.5249C90.1109 29.5306 90.0314 29.5335 89.952 29.5335C89.8726 29.5335 89.7932 29.5364 89.7138 29.5421V29.1635H91.6876L91.6791 29.4561C91.3955 29.4733 91.2254 29.5622 91.1686 29.7228C91.1119 29.8777 91.1403 30.0985 91.2537 30.3854C91.3898 30.7238 91.5203 31.0508 91.6451 31.3663C91.7699 31.6818 91.9088 32.0232 92.062 32.3903C92.1981 32.7115 92.3285 33.0213 92.4533 33.3196C92.5838 33.6122 92.683 33.856 92.7511 34.051H92.7681C92.8305 33.8502 92.8929 33.6581 92.9553 33.4745C93.0233 33.2909 93.1027 33.0729 93.1935 32.8205C93.3636 32.3387 93.5054 31.9314 93.6189 31.5986C93.738 31.2659 93.8401 30.982 93.9251 30.7468C94.0102 30.5116 94.0811 30.3108 94.1378 30.1444C94.1889 29.9953 94.2343 29.8691 94.274 29.7658C94.3137 29.6626 94.3505 29.5765 94.3846 29.5077C94.2768 29.5134 94.169 29.5192 94.0613 29.5249C93.9535 29.5306 93.8429 29.5364 93.7295 29.5421V29.1635H95.4565V29.4474C95.207 29.4589 95.0141 29.5249 94.878 29.6454C94.7476 29.7658 94.6285 29.9809 94.5207 30.2907C94.5093 30.3194 94.4952 30.3596 94.4782 30.4112C94.4611 30.4571 94.4328 30.5345 94.3931 30.6435C94.3534 30.7525 94.2967 30.9131 94.2229 31.1254C94.1492 31.3319 94.0471 31.613 93.9166 31.9687C93.7919 32.3243 93.6302 32.7718 93.4317 33.311C93.2389 33.8502 93.0035 34.5042 92.7256 35.2729H92.4873Z" fill="black"/>
<path d="M97.0932 35.1868V34.9029C97.2634 34.9029 97.3938 34.857 97.4846 34.7652C97.5753 34.6734 97.649 34.5472 97.7058 34.3866C97.7682 34.226 97.8391 34.0395 97.9185 33.8273L99.6711 29H99.8752L101.772 33.8961C101.818 34.0166 101.869 34.1715 101.926 34.3608C101.982 34.5501 102.005 34.7107 101.994 34.8427C102.09 34.8369 102.187 34.8312 102.283 34.8254C102.379 34.8197 102.476 34.814 102.572 34.8082V35.1868H100.624V34.9029C100.839 34.8972 100.981 34.8484 101.049 34.7566C101.117 34.6648 101.143 34.5558 101.126 34.4296C101.109 34.3034 101.08 34.1887 101.041 34.0854L100.743 33.2766L98.531 33.3282L98.2333 34.2489C98.1936 34.3866 98.1567 34.4956 98.1226 34.5759C98.0943 34.6562 98.0603 34.7451 98.0206 34.8427C98.134 34.8369 98.2446 34.8312 98.3524 34.8254C98.4658 34.8197 98.5764 34.814 98.6842 34.8082V35.1868H97.0932ZM98.6586 32.9582H100.624L100.02 31.3147C99.9575 31.1369 99.8923 30.9619 99.8242 30.7898C99.7618 30.612 99.6994 30.4341 99.637 30.2563H99.62C99.5633 30.4169 99.5037 30.5775 99.4413 30.7382C99.3846 30.8988 99.3251 31.0623 99.2627 31.2286L98.6586 32.9582Z" fill="black"/>
<path d="M109.804 35.3245L106.409 30.7124C106.358 30.6435 106.307 30.5775 106.256 30.5144C106.21 30.4456 106.162 30.3768 106.111 30.3079H106.103L106.128 33.9908C106.128 34.1342 106.128 34.2776 106.128 34.421C106.128 34.5644 106.123 34.705 106.111 34.8427C106.213 34.8369 106.315 34.8312 106.417 34.8254C106.52 34.8197 106.622 34.814 106.724 34.8082V35.1868H105.167V34.9029C105.343 34.9029 105.467 34.8656 105.541 34.791C105.621 34.7107 105.672 34.6189 105.694 34.5157C105.717 34.4067 105.728 34.3092 105.728 34.2231L105.737 30.0842C105.737 29.9867 105.737 29.8892 105.737 29.7916C105.737 29.6941 105.737 29.5995 105.737 29.5077C105.646 29.5134 105.553 29.5192 105.456 29.5249C105.36 29.5306 105.263 29.5364 105.167 29.5421V29.1635H106.179L109.37 33.4831C109.443 33.5806 109.514 33.6781 109.582 33.7757C109.656 33.8732 109.73 33.9707 109.804 34.0682H109.812L109.821 30.1272C109.821 30.0125 109.823 29.9035 109.829 29.8002C109.835 29.6913 109.84 29.5937 109.846 29.5077C109.744 29.5134 109.642 29.5192 109.54 29.5249C109.438 29.5306 109.336 29.5364 109.234 29.5421V29.1635H110.799V29.4474C110.589 29.4532 110.444 29.5019 110.365 29.5937C110.286 29.6855 110.243 29.8089 110.237 29.9637C110.232 30.1186 110.229 30.2993 110.229 30.5058L110.212 35.3245H109.804Z" fill="black"/>
<path d="M117.77 35.1868V34.9029C117.94 34.9029 118.071 34.857 118.162 34.7652C118.252 34.6734 118.326 34.5472 118.383 34.3866C118.445 34.226 118.516 34.0395 118.596 33.8273L120.348 29H120.552L122.45 33.8961C122.495 34.0166 122.546 34.1715 122.603 34.3608C122.659 34.5501 122.682 34.7107 122.671 34.8427C122.767 34.8369 122.864 34.8312 122.96 34.8254C123.056 34.8197 123.153 34.814 123.249 34.8082V35.1868H121.301V34.9029C121.517 34.8972 121.658 34.8484 121.726 34.7566C121.794 34.6648 121.82 34.5558 121.803 34.4296C121.786 34.3034 121.758 34.1887 121.718 34.0854L121.42 33.2766L119.208 33.3282L118.91 34.2489C118.871 34.3866 118.834 34.4956 118.8 34.5759C118.771 34.6562 118.737 34.7451 118.698 34.8427C118.811 34.8369 118.922 34.8312 119.029 34.8254C119.143 34.8197 119.253 34.814 119.361 34.8082V35.1868H117.77ZM119.336 32.9582H121.301L120.697 31.3147C120.635 31.1369 120.569 30.9619 120.501 30.7898C120.439 30.612 120.377 30.4341 120.314 30.2563H120.297C120.24 30.4169 120.181 30.5775 120.118 30.7382C120.062 30.8988 120.002 31.0623 119.94 31.2286L119.336 32.9582Z" fill="black"/>
<path d="M125.827 35.1868V34.9029C126.042 34.8914 126.19 34.8427 126.269 34.7566C126.349 34.6648 126.391 34.5415 126.397 34.3866C126.408 34.226 126.414 34.0453 126.414 33.8445V30.1272C126.414 30.0125 126.417 29.9035 126.422 29.8002C126.428 29.6913 126.434 29.5937 126.439 29.5077C126.337 29.5134 126.235 29.5192 126.133 29.5249C126.031 29.5306 125.929 29.5364 125.827 29.5421V29.1635H127.741V29.4474C127.531 29.4532 127.384 29.5019 127.299 29.5937C127.219 29.6855 127.174 29.8089 127.163 29.9637C127.157 30.1186 127.154 30.2993 127.154 30.5058V31.917H127.792L128.856 30.2219C128.929 30.1072 129.02 29.9809 129.128 29.8433C129.236 29.7056 129.346 29.5909 129.46 29.4991C129.375 29.5048 129.287 29.5077 129.196 29.5077C129.111 29.5077 129.026 29.5106 128.941 29.5163V29.1635H130.77V29.4474C130.532 29.4647 130.319 29.5048 130.132 29.5679C129.945 29.631 129.766 29.7429 129.596 29.9035C129.426 30.0584 129.244 30.2936 129.051 30.6091L128.218 31.9514C128.382 32.049 128.515 32.1637 128.617 32.2956C128.72 32.4218 128.822 32.5509 128.924 32.6829L129.877 33.965C130.092 34.2518 130.268 34.464 130.404 34.6017C130.546 34.7337 130.671 34.8168 130.778 34.8513C130.892 34.8857 131.008 34.9029 131.127 34.9029V35.1868H130.089C130.033 35.1868 129.956 35.1467 129.86 35.0664C129.769 34.9861 129.67 34.8828 129.562 34.7566C129.454 34.6247 129.343 34.487 129.23 34.3436L128.209 32.9496C128.101 32.8062 127.994 32.6714 127.886 32.5452C127.778 32.4132 127.673 32.3157 127.571 32.2526L127.154 32.2612V34.1629C127.154 34.3178 127.151 34.4526 127.146 34.5673C127.146 34.6763 127.14 34.7681 127.129 34.8427C127.231 34.8369 127.333 34.8312 127.435 34.8254C127.537 34.8197 127.639 34.814 127.741 34.8082V35.1868H125.827Z" fill="black"/>
<path d="M136.807 32.9582C136.807 32.7058 136.773 32.5251 136.705 32.4161C136.637 32.3071 136.529 32.2411 136.382 32.2182C136.234 32.1952 136.039 32.1895 135.795 32.201L135.174 32.2268V34.1973C135.174 34.3522 135.171 34.4841 135.165 34.5931C135.165 34.7021 135.159 34.7939 135.148 34.8685L136.773 34.8427C137.023 34.8369 137.238 34.7968 137.42 34.7222C137.601 34.6419 137.743 34.5042 137.845 34.3092C137.947 34.1141 137.998 33.8474 137.998 33.5089H138.287L138.236 35.1868H133.846V34.9029C134.062 34.8914 134.209 34.8427 134.289 34.7566C134.368 34.6648 134.411 34.5415 134.416 34.3866C134.428 34.226 134.433 34.0453 134.433 33.8445V30.1272C134.433 30.0125 134.436 29.9035 134.442 29.8002C134.448 29.6913 134.453 29.5937 134.459 29.5077C134.357 29.5134 134.255 29.5192 134.153 29.5249C134.051 29.5306 133.949 29.5364 133.846 29.5421V29.1635H137.939L137.981 30.6693H137.7C137.7 30.3309 137.649 30.0756 137.547 29.9035C137.445 29.7257 137.306 29.6081 137.13 29.5507C136.96 29.4876 136.767 29.4589 136.552 29.4647L135.82 29.4819C135.61 29.4876 135.46 29.5278 135.369 29.6023C135.279 29.6769 135.222 29.7888 135.199 29.9379C135.182 30.0813 135.174 30.2706 135.174 30.5058V31.8826L136.773 31.8912L136.714 31.1512H137.088V32.9582H136.807Z" fill="black"/>
<path d="M146.005 35.3245L142.61 30.7124C142.559 30.6435 142.508 30.5775 142.457 30.5144C142.411 30.4456 142.363 30.3768 142.312 30.3079H142.304L142.329 33.9908C142.329 34.1342 142.329 34.2776 142.329 34.421C142.329 34.5644 142.324 34.705 142.312 34.8427C142.414 34.8369 142.516 34.8312 142.619 34.8254C142.721 34.8197 142.823 34.814 142.925 34.8082V35.1868H141.368V34.9029C141.544 34.9029 141.668 34.8656 141.742 34.791C141.822 34.7107 141.873 34.6189 141.895 34.5157C141.918 34.4067 141.929 34.3092 141.929 34.2231L141.938 30.0842C141.938 29.9867 141.938 29.8892 141.938 29.7916C141.938 29.6941 141.938 29.5995 141.938 29.5077C141.847 29.5134 141.754 29.5192 141.657 29.5249C141.561 29.5306 141.464 29.5364 141.368 29.5421V29.1635H142.38L145.571 33.4831C145.644 33.5806 145.715 33.6781 145.783 33.7757C145.857 33.8732 145.931 33.9707 146.005 34.0682H146.013L146.022 30.1272C146.022 30.0125 146.024 29.9035 146.03 29.8002C146.036 29.6913 146.041 29.5937 146.047 29.5077C145.945 29.5134 145.843 29.5192 145.741 29.5249C145.639 29.5306 145.537 29.5364 145.435 29.5421V29.1635H147V29.4474C146.79 29.4532 146.646 29.5019 146.566 29.5937C146.487 29.6855 146.444 29.8089 146.438 29.9637C146.433 30.1186 146.43 30.2993 146.43 30.5058L146.413 35.3245H146.005Z" fill="black"/>
</svg>
