<svg width="245" height="240" viewBox="0 0 245 240" fill="none" xmlns="http://www.w3.org/2000/svg">
<path d="M7.77441 60.1887H28.0883V226.65C28.0883 227.501 27.7505 228.316 27.1492 228.917C26.548 229.519 25.7325 229.856 24.8822 229.856H10.9805C10.1302 229.856 9.3147 229.519 8.71345 228.917C8.11219 228.316 7.77441 227.501 7.77441 226.65V60.1887Z" fill="#543889"/>
<path d="M24.8823 231.619H10.9806C9.66359 231.618 8.40096 231.094 7.46951 230.163C6.53806 229.232 6.01382 227.969 6.01172 226.652V60.1886C6.01172 59.721 6.19745 59.2727 6.52803 58.9421C6.85862 58.6115 7.30698 58.4258 7.7745 58.4258H28.0906C28.5581 58.4258 29.0064 58.6115 29.337 58.9421C29.6676 59.2727 29.8533 59.721 29.8533 60.1886V226.652C29.8512 227.97 29.3267 229.233 28.3948 230.164C27.4629 231.095 26.1997 231.618 24.8823 231.619V231.619ZM9.53728 61.9513V226.652C9.53775 227.035 9.68996 227.402 9.96053 227.672C10.2311 227.943 10.5979 228.095 10.9806 228.096H24.8823C25.2649 228.095 25.6318 227.943 25.9023 227.672C26.1729 227.402 26.3251 227.035 26.3256 226.652V61.9513H9.53728Z" fill="#543889"/>
<path d="M24.3637 31.5435H11.4976L10.7568 60.1887H25.1046L24.3637 31.5435Z" fill="#543889"/>
<path opacity="0.5" d="M11.4976 31.5435L10.7568 60.1887H15.4965L16.2373 31.5435H11.4976Z" fill="#543889"/>
<path d="M25.1052 61.9515H10.7575C10.5222 61.9516 10.2893 61.9046 10.0725 61.8133C9.85575 61.7219 9.65943 61.5881 9.49515 61.4197C9.33088 61.2514 9.20196 61.0518 9.11601 60.8328C9.03006 60.6138 8.98881 60.3798 8.99469 60.1447L9.73506 31.4995C9.74656 31.0396 9.93734 30.6025 10.2667 30.2814C10.596 29.9603 11.0379 29.7806 11.4978 29.7808H24.3639C24.8239 29.7806 25.2657 29.9603 25.5951 30.2814C25.9244 30.6025 26.1152 31.0396 26.1267 31.4995L26.8671 60.1447C26.873 60.3798 26.8317 60.6138 26.7458 60.8328C26.6598 61.0518 26.5309 61.2514 26.3666 61.4197C26.2023 61.5881 26.006 61.7219 25.7892 61.8133C25.5724 61.9046 25.3396 61.9516 25.1043 61.9515H25.1052ZM12.5665 58.426H23.2961L22.6466 33.3063H13.2157L12.5665 58.426Z" fill="#543889"/>
<path d="M28.0765 210.523H7.7627V219.337H28.0765V210.523Z" fill="#543889"/>
<path d="M15.4962 210.633H7.76953V219.447H15.4962V210.633Z" fill="#543889"/>
<path d="M28.0766 221.1H7.76278C7.29526 221.1 6.8469 220.914 6.51631 220.583C6.18573 220.253 6 219.804 6 219.337V210.523C6 210.056 6.18573 209.607 6.51631 209.277C6.8469 208.946 7.29526 208.76 7.76278 208.76H28.0766C28.5442 208.76 28.9925 208.946 29.3231 209.277C29.6537 209.607 29.8394 210.056 29.8394 210.523V219.337C29.8394 219.804 29.6537 220.253 29.3231 220.583C28.9925 220.914 28.5442 221.1 28.0766 221.1ZM9.52601 217.574H26.3139V212.286H9.52556L9.52601 217.574Z" fill="#543889"/>
<path d="M28.0834 77.3757H7.76953V86.1896H28.0834V77.3757Z" fill="#543889"/>
<path d="M15.4962 77.3757H7.76953V86.1896H15.4962V77.3757Z" fill="#543889"/>
<path d="M28.0835 87.9525H7.76962C7.3021 87.9525 6.85373 87.7668 6.52314 87.4362C6.19256 87.1056 6.00684 86.6572 6.00684 86.1897V77.3758C6.00684 76.9083 6.19256 76.4599 6.52314 76.1293C6.85373 75.7988 7.3021 75.613 7.76962 75.613H28.0835C28.551 75.613 28.9994 75.7988 29.3299 76.1293C29.6605 76.4599 29.8462 76.9083 29.8462 77.3758V86.1897C29.8462 86.4212 29.8007 86.6504 29.7121 86.8643C29.6235 87.0782 29.4936 87.2725 29.3299 87.4362C29.1662 87.5999 28.9719 87.7297 28.758 87.8183C28.5442 87.9069 28.315 87.9525 28.0835 87.9525ZM9.5324 84.4269H26.3207V79.1386H9.5324V84.4269Z" fill="#543889"/>
<path d="M24.364 33.3062H11.4979C11.1341 33.306 10.7793 33.1932 10.4822 32.9833C10.1851 32.7735 9.96012 32.4768 9.83823 32.1341C9.71634 31.7914 9.70347 31.4193 9.80138 31.069C9.89929 30.7187 10.1032 30.4072 10.3851 30.1773L14.1751 27.0924C14.4893 26.8362 14.8823 26.6961 15.2878 26.6958H20.5722C20.9777 26.6961 21.3707 26.8362 21.685 27.0924L25.475 30.1773C25.7569 30.4072 25.9608 30.7187 26.0587 31.069C26.1566 31.4193 26.1437 31.7914 26.0218 32.1341C25.8999 32.4768 25.675 32.7735 25.3779 32.9833C25.0807 33.1932 24.726 33.306 24.3622 33.3062H24.364Z" fill="#543889"/>
<path d="M20.9942 17.0005H14.8672V28.9729H20.9942V17.0005Z" fill="#543889"/>
<path d="M20.9939 30.7357H14.8683C14.4007 30.7357 13.9524 30.55 13.6218 30.2194C13.2912 29.8888 13.1055 29.4405 13.1055 28.9729V17.0006C13.1055 16.5331 13.2912 16.0847 13.6218 15.7541C13.9524 15.4235 14.4007 15.2378 14.8683 15.2378H20.9939C21.4614 15.2378 21.9098 15.4235 22.2404 15.7541C22.571 16.0847 22.7567 16.5331 22.7567 17.0006V28.9729C22.7567 29.4405 22.571 29.8888 22.2404 30.2194C21.9098 30.55 21.4614 30.7357 20.9939 30.7357V30.7357ZM16.631 27.2102H19.2311V18.7634H16.631V27.2102Z" fill="#543889"/>
<path d="M17.931 18.8207C17.3466 18.8207 16.7862 18.5885 16.3729 18.1753C15.9597 17.7621 15.7275 17.2016 15.7275 16.6172V8.84776C15.7275 8.26337 15.9597 7.70291 16.3729 7.28968C16.7862 6.87644 17.3466 6.64429 17.931 6.64429C18.5154 6.64429 19.0759 6.87644 19.4891 7.28968C19.9023 7.70291 20.1345 8.26337 20.1345 8.84776V16.6172C20.1345 17.2016 19.9023 17.7621 19.4891 18.1753C19.0759 18.5885 18.5154 18.8207 17.931 18.8207Z" fill="#543889"/>
<path d="M96.8913 224.941H94.0118C93.5443 224.941 93.0959 224.756 92.7653 224.425C92.4347 224.095 92.249 223.646 92.249 223.179C92.249 222.711 92.4347 222.263 92.7653 221.932C93.0959 221.602 93.5443 221.416 94.0118 221.416H96.8913C99.7732 221.412 102.536 220.266 104.574 218.228C106.612 216.19 107.758 213.427 107.762 210.545V168.935L103.814 163.217C103.654 162.985 103.551 162.717 103.516 162.437C103.48 162.157 103.513 161.873 103.61 161.608L107.87 150.003C108.013 149.614 108.288 149.288 108.647 149.082C109.006 148.876 109.426 148.802 109.833 148.875C110.241 148.947 110.61 149.161 110.876 149.478C111.142 149.796 111.288 150.197 111.288 150.611V168.36C111.288 168.376 111.288 168.391 111.288 168.407V210.545C111.284 214.362 109.766 218.022 107.067 220.721C104.368 223.42 100.708 224.938 96.8913 224.941V224.941ZM107.234 161.966L107.763 162.731V160.527L107.234 161.966Z" fill="#543889"/>
<path d="M98.0395 181.173H77.909C73.5311 146.517 77.2854 82.3107 81.2041 56.6631H94.7449C98.6636 82.3107 102.417 146.517 98.0395 181.173Z" fill="#543889"/>
<g style="mix-blend-mode:lighten" opacity="0.68">
<path d="M89.94 179.202C85.6957 145.604 86.1112 89.442 87.9745 56.6631H81.2041C77.2854 82.3116 73.5311 146.517 77.909 181.173H98.0395C98.1211 180.527 98.1991 179.867 98.2749 179.202H89.94Z" fill="#543889"/>
</g>
<path d="M98.0388 182.936H77.9082C77.4789 182.936 77.0644 182.779 76.7424 182.495C76.4205 182.211 76.2132 181.819 76.1595 181.393C71.8614 147.372 75.3002 83.6276 79.4608 56.3966C79.524 55.9797 79.7346 55.5993 80.0543 55.3244C80.374 55.0495 80.7817 54.8983 81.2033 54.8982H94.7441C95.1658 54.8983 95.5734 55.0495 95.8931 55.3244C96.2128 55.5993 96.4234 55.9797 96.4866 56.3966C100.647 83.6276 104.086 147.37 99.7879 181.393C99.7342 181.819 99.5269 182.211 99.2048 182.495C98.8828 182.779 98.4681 182.936 98.0388 182.936V182.936ZM79.47 179.41H96.4769C100.376 145.951 97.1917 85.8112 93.2237 58.426H82.7219C78.7557 85.8112 75.5712 145.951 79.47 179.41Z" fill="#543889"/>
<path d="M101.652 200.204C98.8057 223.731 92.0163 238.06 87.9747 238.06C83.9331 238.06 77.1433 223.733 74.2973 200.204C72.0542 179.576 72.6936 158.911 73.5481 138.399H102.401C103.255 158.912 103.895 179.576 101.652 200.204Z" fill="#543889"/>
<g style="mix-blend-mode:lighten" opacity="0.68">
<path d="M74.2973 200.204C75.1355 207.563 76.5889 214.838 78.6421 221.954C87.2 220.134 90.2725 191.453 90.2725 153.097C90.2725 148.982 90.1183 142.324 89.9676 138.399H73.5481C72.6936 158.912 72.0542 179.576 74.2973 200.204Z" fill="#543889"/>
</g>
<path d="M87.9742 239.82C81.897 239.82 75.2645 222.881 72.5472 200.415C70.312 179.865 70.9122 159.32 71.7865 138.326C71.8054 137.872 71.9995 137.442 72.328 137.127C72.6566 136.812 73.0942 136.636 73.5493 136.637H102.402C102.857 136.636 103.295 136.812 103.623 137.127C103.952 137.442 104.146 137.872 104.165 138.326C105.039 159.32 105.639 179.865 103.407 200.395V200.415C100.684 222.879 94.0513 239.82 87.9742 239.82ZM75.2381 140.162C74.4091 160.429 73.9019 180.275 76.0481 200.013C77.3129 210.467 79.5269 220.126 82.2804 227.191C85.196 234.671 87.5132 236.275 87.9742 236.295C88.4334 236.275 90.7505 234.671 93.6657 227.191C96.4183 220.129 98.6319 210.474 99.8989 200.003C102.044 180.268 101.537 160.425 100.708 140.162H75.2381Z" fill="#543889"/>
<path d="M98.1375 32.2309C91.8157 23.3019 87.9746 5.7627 87.9746 5.7627C87.9746 5.7627 84.1331 23.3024 77.8113 32.2309C77.6631 32.4392 77.5824 32.688 77.5801 32.9437C77.5778 33.1993 77.6541 33.4495 77.7985 33.6605C80.0018 37.0183 81.4966 40.7903 82.1915 44.7459C82.8865 48.7014 82.7669 52.7571 81.8402 56.6648H94.1091C93.1823 52.7571 93.0626 48.7013 93.7576 44.7458C94.4525 40.7903 95.9474 37.0182 98.1507 33.6605C98.2951 33.4495 98.3713 33.1992 98.3689 32.9436C98.3666 32.6879 98.2858 32.4391 98.1375 32.2309V32.2309Z" fill="#543889"/>
<path d="M94.1087 58.4259H81.8411C81.5727 58.4259 81.308 58.3647 81.0669 58.2468C80.8259 58.129 80.6149 57.9577 80.4501 57.746C80.2852 57.5343 80.1709 57.2878 80.1158 57.0252C80.0607 56.7626 80.0662 56.4909 80.132 56.2308C81.0035 52.564 81.1164 48.7578 80.4637 45.0458C79.8111 41.3338 78.4067 37.7943 76.3368 34.6447C75.991 34.1376 75.8091 33.5366 75.8156 32.9228C75.8221 32.3091 76.0168 31.7121 76.3734 31.2125C82.4109 22.6824 86.2158 5.55744 86.2537 5.38512C86.3399 4.9926 86.5576 4.6413 86.8707 4.38943C87.1839 4.13756 87.5737 4.00024 87.9755 4.00024C88.3774 4.00024 88.7672 4.13756 89.0803 4.38943C89.3935 4.6413 89.6112 4.9926 89.6973 5.38512C89.7352 5.55744 93.538 22.6829 99.5773 31.2121C99.9337 31.7117 100.128 32.3087 100.135 32.9224C100.141 33.5361 99.9595 34.1371 99.6139 34.6442C97.5439 37.7938 96.1395 41.3333 95.4868 45.0453C94.8342 48.7573 94.9471 52.5635 95.8186 56.2303C95.8844 56.4905 95.89 56.7622 95.8348 57.0248C95.7797 57.2873 95.6654 57.5339 95.5006 57.7456C95.3358 57.9573 95.1248 58.1286 94.8837 58.2464C94.6426 58.3642 94.3779 58.4255 94.1096 58.4254L94.1087 58.4259ZM84.0088 54.9003H91.9414C90.7178 47.276 92.3402 39.4679 96.4999 32.9621C92.6028 27.3106 89.6832 18.7342 87.976 12.8025C86.2683 18.7342 83.3487 27.3106 79.452 32.9621C83.6107 39.4682 85.2325 47.2762 84.0088 54.9003V54.9003Z" fill="#543889"/>
<path d="M87.9737 32.9757C87.5062 32.9757 87.0578 32.79 86.7273 32.4594C86.3967 32.1288 86.2109 31.6805 86.2109 31.2129V5.76278C86.2109 5.29526 86.3967 4.84689 86.7273 4.51631C87.0578 4.18572 87.5062 4 87.9737 4C88.4412 4 88.8896 4.18572 89.2202 4.51631C89.5508 4.84689 89.7365 5.29526 89.7365 5.76278V31.2129C89.7365 31.6805 89.5508 32.1288 89.2202 32.4594C88.8896 32.79 88.4412 32.9757 87.9737 32.9757Z" fill="#543889"/>
<path d="M87.9828 35.6167C89.8766 35.6167 91.4118 34.0814 91.4118 32.1876C91.4118 30.2938 89.8766 28.7585 87.9828 28.7585C86.089 28.7585 84.5537 30.2938 84.5537 32.1876C84.5537 34.0814 86.089 35.6167 87.9828 35.6167Z" fill="#543889"/>
<path d="M242.742 50.1052H218.945V203.848H242.742V50.1052Z" fill="#543889"/>
<path d="M242.742 205.611H218.944C218.477 205.611 218.029 205.425 217.698 205.094C217.367 204.764 217.182 204.315 217.182 203.848V50.1051C217.182 49.6375 217.367 49.1892 217.698 48.8586C218.029 48.528 218.477 48.3423 218.944 48.3423H242.742C243.209 48.3423 243.658 48.528 243.988 48.8586C244.319 49.1892 244.505 49.6375 244.505 50.1051V203.848C244.505 204.315 244.319 204.764 243.988 205.094C243.658 205.425 243.209 205.611 242.742 205.611ZM220.707 202.085H240.979V51.8678H220.707V202.085Z" fill="#543889"/>
<path d="M235.25 205.611H226.436C225.968 205.611 225.52 205.425 225.189 205.094C224.859 204.764 224.673 204.315 224.673 203.848V50.1051C224.673 49.6375 224.859 49.1892 225.189 48.8586C225.52 48.528 225.968 48.3423 226.436 48.3423H235.25C235.717 48.3423 236.165 48.528 236.496 48.8586C236.827 49.1892 237.012 49.6375 237.012 50.1051V203.848C237.012 204.315 236.827 204.764 236.496 205.094C236.165 205.425 235.717 205.611 235.25 205.611ZM228.198 202.085H233.487V51.8678H228.198V202.085Z" fill="#543889"/>
<path d="M242.742 50.1051H218.945L230.844 14.5723L242.742 50.1051Z" fill="#543889"/>
<path d="M242.742 51.8679H218.944C218.665 51.8679 218.389 51.8014 218.141 51.674C217.892 51.5465 217.677 51.3617 217.514 51.1349C217.35 50.908 217.243 50.6456 217.202 50.3692C217.16 50.0929 217.184 49.8105 217.273 49.5454L229.172 14.0126C229.289 13.6622 229.513 13.3575 229.813 13.1416C230.113 12.9257 230.474 12.8096 230.843 12.8096C231.213 12.8096 231.573 12.9257 231.873 13.1416C232.173 13.3575 232.397 13.6622 232.515 14.0126L244.414 49.5454C244.502 49.8105 244.527 50.0929 244.485 50.3692C244.443 50.6456 244.336 50.908 244.173 51.1349C244.009 51.3617 243.795 51.5465 243.546 51.674C243.297 51.8014 243.021 51.8679 242.742 51.8679ZM221.395 48.3424H240.293L230.844 20.1242L221.395 48.3424Z" fill="#543889"/>
<path d="M218.945 203.848H242.743V211.732C242.743 214.103 241.801 216.378 240.124 218.054C238.447 219.731 236.173 220.673 233.801 220.673H227.888C225.516 220.673 223.242 219.731 221.565 218.054C219.888 216.378 218.946 214.103 218.946 211.732V203.848H218.945Z" fill="#543889"/>
<path d="M233.8 222.436H227.888C225.05 222.433 222.329 221.304 220.322 219.297C218.315 217.291 217.187 214.57 217.184 211.732V203.848C217.184 203.38 217.369 202.932 217.7 202.601C218.03 202.271 218.479 202.085 218.946 202.085H242.744C243.211 202.085 243.66 202.271 243.99 202.601C244.321 202.932 244.507 203.38 244.507 203.848V211.732C244.503 214.57 243.374 217.291 241.367 219.298C239.36 221.305 236.638 222.434 233.8 222.436V222.436ZM220.708 205.611V211.732C220.71 213.635 221.467 215.46 222.813 216.806C224.159 218.152 225.983 218.909 227.887 218.911H233.8C235.703 218.909 237.528 218.152 238.874 216.806C240.22 215.46 240.977 213.635 240.979 211.732V205.611H220.708Z" fill="#543889"/>
<path d="M242.742 188.229H218.945V203.847H242.742V188.229Z" fill="#543889"/>
<path d="M242.742 205.611H218.944C218.477 205.611 218.029 205.425 217.698 205.094C217.367 204.764 217.182 204.315 217.182 203.848V188.229C217.182 187.761 217.367 187.313 217.698 186.982C218.029 186.652 218.477 186.466 218.944 186.466H242.742C243.209 186.466 243.658 186.652 243.988 186.982C244.319 187.313 244.505 187.761 244.505 188.229V203.848C244.505 204.315 244.319 204.764 243.988 205.094C243.658 205.425 243.209 205.611 242.742 205.611ZM220.707 202.085H240.979V189.991H220.707V202.085Z" fill="#543889"/>
<path d="M230.843 14.5723L226.042 28.9094H235.644L230.843 14.5723Z" fill="#543889"/>
<path d="M171.819 226.099H153.735C152.803 226.099 151.908 225.729 151.248 225.071C150.587 224.413 150.214 223.52 150.21 222.588L149.557 64.3884H175.998L175.345 222.59C175.34 223.522 174.967 224.414 174.306 225.072C173.646 225.729 172.751 226.099 171.819 226.099V226.099Z" fill="#543889"/>
<path d="M171.819 227.862H153.735C152.338 227.859 150.997 227.304 150.007 226.317C149.016 225.331 148.456 223.993 148.447 222.595L147.794 64.3941C147.793 64.1619 147.838 63.9319 147.926 63.7172C148.014 63.5024 148.144 63.3072 148.308 63.1427C148.471 62.9783 148.666 62.8477 148.88 62.7587C149.095 62.6696 149.325 62.6238 149.557 62.6238H175.998C176.231 62.6238 176.46 62.6696 176.675 62.7587C176.889 62.8477 177.084 62.9783 177.248 63.1427C177.411 63.3072 177.541 63.5024 177.629 63.7172C177.717 63.9319 177.762 64.1619 177.761 64.3941L177.108 222.595C177.099 223.993 176.538 225.331 175.548 226.317C174.557 227.304 173.217 227.859 171.819 227.862V227.862ZM151.327 66.1511L151.973 222.582C151.975 223.048 152.162 223.494 152.492 223.823C152.823 224.152 153.269 224.337 153.735 224.338H171.819C172.285 224.337 172.732 224.152 173.062 223.823C173.392 223.494 173.579 223.048 173.582 222.582L174.228 66.1511H151.327Z" fill="#543889"/>
<path d="M173.795 64.3867H151.76L152.797 56.3691H172.757L173.795 64.3867Z" fill="#543889"/>
<path d="M173.795 66.1513H151.76C151.509 66.1513 151.262 66.0979 151.033 65.9946C150.805 65.8913 150.601 65.7405 150.436 65.5523C150.27 65.3641 150.147 65.1428 150.074 64.9031C150.001 64.6635 149.979 64.4109 150.012 64.1624L151.049 56.1449C151.104 55.72 151.312 55.3297 151.633 55.0469C151.955 54.7641 152.369 54.6082 152.797 54.6082H172.756C173.185 54.6082 173.598 54.7641 173.92 55.0469C174.242 55.3297 174.45 55.72 174.505 56.1449L175.542 64.1624C175.574 64.4109 175.553 64.6634 175.48 64.903C175.407 65.1427 175.283 65.3639 175.118 65.5521C174.953 65.7403 174.749 65.8911 174.521 65.9944C174.292 66.0978 174.045 66.1512 173.794 66.1513H173.795ZM153.765 62.6257H171.789L171.208 58.1306H154.347L153.765 62.6257Z" fill="#543889"/>
<path d="M171.36 56.3691H154.195L155.331 35.2893H170.224L171.36 56.3691Z" fill="#543889"/>
<path d="M171.36 58.1307H154.195C153.956 58.1307 153.719 58.0819 153.499 57.9873C153.279 57.8927 153.081 57.7543 152.916 57.5804C152.751 57.4066 152.624 57.2011 152.541 56.9763C152.458 56.7516 152.422 56.5123 152.435 56.2732L153.571 35.193C153.595 34.7426 153.791 34.3187 154.119 34.0085C154.446 33.6983 154.88 33.5254 155.331 33.5254H170.224C170.675 33.5254 171.109 33.6983 171.437 34.0085C171.764 34.3187 171.96 34.7426 171.984 35.193L173.12 56.2732C173.133 56.5123 173.097 56.7516 173.014 56.9763C172.932 57.2011 172.804 57.4066 172.639 57.5804C172.475 57.7543 172.276 57.8927 172.056 57.9873C171.836 58.0819 171.599 58.1307 171.36 58.1307V58.1307ZM156.056 54.6052H169.5L168.554 37.051H157.001L156.056 54.6052Z" fill="#543889"/>
<path d="M171.36 58.1307H154.195C153.956 58.1307 153.719 58.0819 153.499 57.9873C153.279 57.8927 153.081 57.7543 152.916 57.5804C152.751 57.4066 152.624 57.2011 152.541 56.9763C152.458 56.7516 152.422 56.5123 152.435 56.2732L153.571 35.193C153.595 34.7426 153.791 34.3187 154.119 34.0085C154.446 33.6983 154.88 33.5254 155.331 33.5254H170.224C170.675 33.5254 171.109 33.6983 171.437 34.0085C171.764 34.3187 171.96 34.7426 171.984 35.193L173.12 56.2732C173.133 56.5123 173.097 56.7516 173.014 56.9763C172.932 57.2011 172.804 57.4066 172.639 57.5804C172.475 57.7543 172.276 57.8927 172.056 57.9873C171.836 58.0819 171.599 58.1307 171.36 58.1307V58.1307ZM156.056 54.6052H169.5L168.554 37.051H157.001L156.056 54.6052Z" fill="#543889"/>
<path d="M171.36 58.1307H154.195C153.956 58.1307 153.719 58.0819 153.499 57.9873C153.279 57.8927 153.081 57.7543 152.916 57.5804C152.751 57.4066 152.624 57.2011 152.541 56.9763C152.458 56.7516 152.422 56.5123 152.435 56.2732L153.571 35.193C153.595 34.7426 153.791 34.3187 154.119 34.0085C154.446 33.6983 154.88 33.5254 155.331 33.5254H170.224C170.675 33.5254 171.109 33.6983 171.437 34.0085C171.764 34.3187 171.96 34.7426 171.984 35.193L173.12 56.2732C173.133 56.5123 173.097 56.7516 173.014 56.9763C172.932 57.2011 172.804 57.4066 172.639 57.5804C172.475 57.7543 172.276 57.8927 172.056 57.9873C171.836 58.0819 171.599 58.1307 171.36 58.1307V58.1307ZM156.056 54.6052H169.5L168.554 37.051H157.001L156.056 54.6052Z" fill="#543889"/>
<path d="M171.36 58.1307H154.195C153.956 58.1307 153.719 58.0819 153.499 57.9873C153.279 57.8927 153.081 57.7543 152.916 57.5804C152.751 57.4066 152.624 57.2011 152.541 56.9763C152.458 56.7516 152.422 56.5123 152.435 56.2732L153.571 35.193C153.595 34.7426 153.791 34.3187 154.119 34.0085C154.446 33.6983 154.88 33.5254 155.331 33.5254H170.224C170.675 33.5254 171.109 33.6983 171.437 34.0085C171.764 34.3187 171.96 34.7426 171.984 35.193L173.12 56.2732C173.133 56.5123 173.097 56.7516 173.014 56.9763C172.932 57.2011 172.804 57.4066 172.639 57.5804C172.475 57.7543 172.276 57.8927 172.056 57.9873C171.836 58.0819 171.599 58.1307 171.36 58.1307V58.1307ZM156.056 54.6052H169.5L168.554 37.051H157.001L156.056 54.6052Z" fill="#543889"/>
<path d="M167.724 35.2894H157.698V22.8398L167.724 14.0259V35.2894Z" fill="#543889"/>
<path d="M167.723 37.0523H157.697C157.23 37.0523 156.781 36.8665 156.451 36.536C156.12 36.2054 155.935 35.757 155.935 35.2895V22.8398C155.935 22.5896 155.988 22.3422 156.092 22.1142C156.195 21.8863 156.346 21.6829 156.534 21.5178L166.56 12.7039C166.814 12.4803 167.128 12.3347 167.463 12.2847C167.798 12.2347 168.14 12.2822 168.449 12.4217C168.758 12.5612 169.02 12.7867 169.204 13.0712C169.387 13.3557 169.486 13.6872 169.486 14.0259V35.2895C169.486 35.757 169.3 36.2054 168.97 36.536C168.639 36.8665 168.191 37.0523 167.723 37.0523ZM159.46 33.5267H165.96V17.9226L159.46 23.6371V33.5267Z" fill="#543889"/>
<path d="M150.164 211.551L150.208 222.588C150.212 223.52 150.585 224.413 151.246 225.071C151.907 225.729 152.801 226.099 153.734 226.099H171.818C172.75 226.099 173.645 225.729 174.305 225.071C174.966 224.413 175.339 223.52 175.343 222.588L175.387 211.551H150.164Z" fill="#543889"/>
<path d="M171.819 227.862H153.735C152.337 227.859 150.997 227.304 150.006 226.318C149.016 225.331 148.455 223.993 148.446 222.596L148.402 211.558C148.401 211.326 148.446 211.096 148.534 210.881C148.623 210.667 148.752 210.472 148.916 210.307C149.08 210.143 149.274 210.012 149.489 209.923C149.703 209.834 149.933 209.788 150.165 209.788H175.391C175.624 209.788 175.853 209.834 176.068 209.923C176.282 210.012 176.477 210.143 176.641 210.307C176.804 210.472 176.934 210.667 177.022 210.881C177.11 211.096 177.155 211.326 177.154 211.558L177.11 222.596C177.102 223.994 176.54 225.332 175.549 226.319C174.558 227.305 173.217 227.86 171.819 227.862V227.862ZM151.934 213.314L151.972 222.581C151.975 223.047 152.162 223.493 152.492 223.822C152.822 224.15 153.269 224.335 153.735 224.336H171.819C172.285 224.335 172.732 224.15 173.062 223.822C173.392 223.493 173.579 223.047 173.581 222.581L173.62 213.314H151.934Z" fill="#543889"/>
<path d="M1.77441 56.1887H22.0883V222.65C22.0883 223.501 21.7505 224.316 21.1492 224.917C20.548 225.519 19.7325 225.856 18.8822 225.856H4.98048C4.13018 225.856 3.3147 225.519 2.71345 224.917C2.11219 224.316 1.77441 223.501 1.77441 222.65V56.1887Z" fill="#FFA124"/>
<g style="mix-blend-mode:multiply" opacity="0.34">
<path d="M15.6758 56.1887H22.0879V222.65C22.0879 223.501 21.7501 224.316 21.1489 224.917C20.5476 225.519 19.7321 225.856 18.8818 225.856V225.856C18.0315 225.856 17.2161 225.519 16.6148 224.917C16.0136 224.316 15.6758 223.501 15.6758 222.65V56.1887V56.1887Z" fill="#3F4545"/>
</g>
<g style="mix-blend-mode:screen" opacity="0.78">
<path d="M1.77378 56.1887H8.53713V222.65C8.53713 223.501 8.19935 224.316 7.5981 224.917C6.99684 225.519 6.18137 225.856 5.33107 225.856H4.97852C4.12822 225.856 3.31275 225.519 2.71149 224.917C2.11024 224.316 1.77246 223.501 1.77246 222.65V56.1887H1.77378Z" fill="#3F4545"/>
</g>
<path d="M18.8823 227.619H4.98056C3.66359 227.618 2.40096 227.094 1.46951 226.163C0.538065 225.232 0.0138179 223.969 0.0117188 222.652V56.1886C0.0117188 55.721 0.197445 55.2727 0.528031 54.9421C0.858616 54.6115 1.30698 54.4258 1.7745 54.4258H22.0906C22.5581 54.4258 23.0064 54.6115 23.337 54.9421C23.6676 55.2727 23.8533 55.721 23.8533 56.1886V222.652C23.8512 223.97 23.3267 225.233 22.3948 226.164C21.4629 227.095 20.1997 227.618 18.8823 227.619V227.619ZM3.53728 57.9513V222.652C3.53775 223.035 3.68996 223.402 3.96053 223.672C4.23109 223.943 4.59793 224.095 4.98056 224.096H18.8823C19.2649 224.095 19.6318 223.943 19.9023 223.672C20.1729 223.402 20.3251 223.035 20.3256 222.652V57.9513H3.53728Z" fill="#1F2120"/>
<path d="M18.3637 27.5435H5.49764L4.75684 56.1887H19.1046L18.3637 27.5435Z" fill="#B5B4B4"/>
<g style="mix-blend-mode:multiply" opacity="0.39">
<path d="M18.3641 27.5435H13.9307L14.671 56.1887H19.1049L18.3641 27.5435Z" fill="#B5B4B4"/>
</g>
<path opacity="0.5" d="M5.49764 27.5435L4.75684 56.1887H9.49652L10.2373 27.5435H5.49764Z" fill="white"/>
<path d="M19.1052 57.9515H4.75747C4.52223 57.9516 4.28934 57.9046 4.07254 57.8133C3.85575 57.7219 3.65943 57.5881 3.49515 57.4197C3.33088 57.2514 3.20196 57.0518 3.11601 56.8328C3.03006 56.6138 2.98881 56.3798 2.99469 56.1447L3.73506 27.4995C3.74656 27.0396 3.93734 26.6025 4.26669 26.2814C4.59603 25.9603 5.03786 25.7806 5.49784 25.7808H18.3639C18.8239 25.7806 19.2657 25.9603 19.5951 26.2814C19.9244 26.6025 20.1152 27.0396 20.1267 27.4995L20.8671 56.1447C20.873 56.3798 20.8317 56.6138 20.7458 56.8328C20.6598 57.0518 20.5309 57.2514 20.3666 57.4197C20.2023 57.5881 20.006 57.7219 19.7892 57.8133C19.5724 57.9046 19.3396 57.9516 19.1043 57.9515H19.1052ZM6.56653 54.426H17.2961L16.6466 29.3063H7.21567L6.56653 54.426Z" fill="#1F2120"/>
<path d="M22.0765 206.523H1.7627V215.337H22.0765V206.523Z" fill="#FF1A1A"/>
<g style="mix-blend-mode:multiply" opacity="0.63">
<path d="M22.086 206.964H17.9629V215.778H22.086V206.964Z" fill="#E02F2F"/>
</g>
<path d="M9.49624 206.633H1.76953V215.447H9.49624V206.633Z" fill="#EA4949"/>
<path d="M22.0766 217.1H1.76278C1.29526 217.1 0.846898 216.914 0.516312 216.583C0.185726 216.253 0 215.804 0 215.337V206.523C0 206.056 0.185726 205.607 0.516312 205.277C0.846898 204.946 1.29526 204.76 1.76278 204.76H22.0766C22.5442 204.76 22.9925 204.946 23.3231 205.277C23.6537 205.607 23.8394 206.056 23.8394 206.523V215.337C23.8394 215.804 23.6537 216.253 23.3231 216.583C22.9925 216.914 22.5442 217.1 22.0766 217.1ZM3.52601 213.574H20.3139V208.286H3.52556L3.52601 213.574Z" fill="#1F2120"/>
<path d="M22.0834 73.3757H1.76953V82.1896H22.0834V73.3757Z" fill="#E02F2F"/>
<g style="mix-blend-mode:multiply" opacity="0.63">
<path d="M22.0841 73.3757H17.9609V82.1896H22.0841V73.3757Z" fill="#E02F2F"/>
</g>
<path d="M9.49624 73.3757H1.76953V82.1896H9.49624V73.3757Z" fill="#EA4949"/>
<path d="M22.0835 83.9525H1.76962C1.3021 83.9525 0.853727 83.7668 0.523141 83.4362C0.192556 83.1056 0.00683594 82.6572 0.00683594 82.1897V73.3758C0.00683594 72.9083 0.192556 72.4599 0.523141 72.1293C0.853727 71.7988 1.3021 71.613 1.76962 71.613H22.0835C22.551 71.613 22.9994 71.7988 23.3299 72.1293C23.6605 72.4599 23.8462 72.9083 23.8462 73.3758V82.1897C23.8462 82.4212 23.8007 82.6504 23.7121 82.8643C23.6235 83.0782 23.4936 83.2725 23.3299 83.4362C23.1662 83.5999 22.9719 83.7297 22.758 83.8183C22.5442 83.9069 22.315 83.9525 22.0835 83.9525ZM3.5324 80.4269H20.3207V75.1386H3.5324V80.4269Z" fill="#1F2120"/>
<path d="M18.364 29.3062H5.49786C5.1341 29.306 4.77932 29.1932 4.48219 28.9833C4.18506 28.7735 3.96012 28.4768 3.83823 28.1341C3.71634 27.7914 3.70347 27.4193 3.80138 27.069C3.89929 26.7187 4.10318 26.4072 4.3851 26.1773L8.17508 23.0924C8.48934 22.8362 8.88235 22.6961 9.28784 22.6958H14.5722C14.9777 22.6961 15.3707 22.8362 15.685 23.0924L19.475 26.1773C19.7569 26.4072 19.9608 26.7187 20.0587 27.069C20.1566 27.4193 20.1437 27.7914 20.0218 28.1341C19.8999 28.4768 19.675 28.7735 19.3779 28.9833C19.0807 29.1932 18.726 29.306 18.3622 29.3062H18.364Z" fill="#1F2120"/>
<path d="M14.9942 13.0005H8.86719V24.9729H14.9942V13.0005Z" fill="#B5B4B4"/>
<path d="M14.9939 26.7357H8.86825C8.40073 26.7357 7.95237 26.55 7.62178 26.2194C7.2912 25.8888 7.10547 25.4405 7.10547 24.9729V13.0006C7.10547 12.5331 7.2912 12.0847 7.62178 11.7541C7.95237 11.4235 8.40073 11.2378 8.86825 11.2378H14.9939C15.4614 11.2378 15.9098 11.4235 16.2404 11.7541C16.571 12.0847 16.7567 12.5331 16.7567 13.0006V24.9729C16.7567 25.4405 16.571 25.8888 16.2404 26.2194C15.9098 26.55 15.4614 26.7357 14.9939 26.7357V26.7357ZM10.631 23.2102H13.2311V14.7634H10.631V23.2102Z" fill="#1F2120"/>
<path d="M11.931 14.8207C11.3466 14.8207 10.7862 14.5885 10.3729 14.1753C9.9597 13.7621 9.72754 13.2016 9.72754 12.6172V4.84776C9.72754 4.26337 9.9597 3.70291 10.3729 3.28968C10.7862 2.87644 11.3466 2.64429 11.931 2.64429C12.5154 2.64429 13.0759 2.87644 13.4891 3.28968C13.9023 3.70291 14.1345 4.26337 14.1345 4.84776V12.6172C14.1345 13.2016 13.9023 13.7621 13.4891 14.1753C13.0759 14.5885 12.5154 14.8207 11.931 14.8207Z" fill="#1F2120"/>
<path d="M90.8913 220.941H88.0118C87.5443 220.941 87.0959 220.756 86.7653 220.425C86.4347 220.095 86.249 219.646 86.249 219.179C86.249 218.711 86.4347 218.263 86.7653 217.932C87.0959 217.602 87.5443 217.416 88.0118 217.416H90.8913C93.7732 217.412 96.536 216.266 98.5738 214.228C100.612 212.19 101.758 209.427 101.762 206.545V164.935L97.8142 159.217C97.6538 158.985 97.5515 158.717 97.5159 158.437C97.4803 158.157 97.5125 157.873 97.6097 157.608L101.87 146.003C102.013 145.614 102.288 145.288 102.647 145.082C103.006 144.876 103.426 144.802 103.833 144.875C104.241 144.947 104.61 145.161 104.876 145.478C105.142 145.796 105.288 146.197 105.288 146.611V164.36C105.288 164.376 105.288 164.391 105.288 164.407V206.545C105.284 210.362 103.766 214.022 101.067 216.721C98.3677 219.42 94.7082 220.938 90.8913 220.941V220.941ZM101.234 157.966L101.763 158.731V156.527L101.234 157.966Z" fill="#1F2120"/>
<path d="M92.0395 177.173H71.909C67.5311 142.517 71.2854 78.3107 75.2041 52.6631H88.7449C92.6636 78.3107 96.4174 142.517 92.0395 177.173Z" fill="#FF1A1A"/>
<g style="mix-blend-mode:difference" opacity="0.2">
<path d="M88.7446 52.6631H85.9043C88.0113 79.8231 92.5588 142.517 88.1831 177.173H92.0392C96.4171 142.517 92.6632 78.3107 88.7446 52.6631Z" fill="#FF1A1A"/>
</g>
<g style="mix-blend-mode:lighten" opacity="0.68">
<path d="M83.94 175.202C79.6957 141.604 80.1112 85.442 81.9745 52.6631H75.2041C71.2854 78.3116 67.5311 142.517 71.909 177.173H92.0395C92.1211 176.527 92.1991 175.867 92.2749 175.202H83.94Z" fill="#3F4545"/>
</g>
<path d="M92.0388 178.936H71.9082C71.4789 178.936 71.0644 178.779 70.7424 178.495C70.4205 178.211 70.2132 177.819 70.1595 177.393C65.8614 143.372 69.3002 79.6276 73.4608 52.3966C73.524 51.9797 73.7346 51.5993 74.0543 51.3244C74.374 51.0495 74.7817 50.8983 75.2033 50.8982H88.7441C89.1658 50.8983 89.5734 51.0495 89.8931 51.3244C90.2128 51.5993 90.4234 51.9797 90.4866 52.3966C94.6472 79.6276 98.0855 143.37 93.7879 177.393C93.7342 177.819 93.5269 178.211 93.2048 178.495C92.8828 178.779 92.4681 178.936 92.0388 178.936V178.936ZM73.47 175.41H90.4769C94.3758 141.951 91.1917 81.8112 87.2237 54.426H76.7219C72.7557 81.8112 69.5712 141.951 73.47 175.41Z" fill="#1F2120"/>
<path d="M95.6522 196.204C92.8057 219.731 86.0163 234.06 81.9747 234.06C77.9331 234.06 71.1433 219.733 68.2973 196.204C66.0542 175.576 66.6936 154.911 67.5481 134.399H96.4009C97.2554 154.912 97.8949 175.576 95.6522 196.204Z" fill="#FF1A1A"/>
<g style="mix-blend-mode:difference" opacity="0.2">
<path d="M96.4004 134.399H91.4858C92.3403 154.912 92.9798 175.576 90.7366 196.204C88.4115 215.423 83.4563 228.497 79.5156 232.643C80.397 233.573 81.2321 234.058 81.9725 234.058C86.0141 234.058 92.8035 219.731 95.6499 196.202C97.8944 175.576 97.2549 154.912 96.4004 134.399Z" fill="#FF1A1A"/>
</g>
<g style="mix-blend-mode:lighten" opacity="0.68">
<path d="M68.2973 196.204C69.1355 203.563 70.5889 210.838 72.6421 217.954C81.2 216.134 84.2725 187.453 84.2725 149.097C84.2725 144.982 84.1183 138.324 83.9676 134.399H67.5481C66.6936 154.912 66.0542 175.576 68.2973 196.204Z" fill="#3F4545"/>
</g>
<path d="M81.9742 235.82C75.897 235.82 69.2645 218.881 66.5472 196.415C64.312 175.865 64.9122 155.32 65.7865 134.326C65.8054 133.872 65.9995 133.442 66.328 133.127C66.6566 132.812 67.0942 132.636 67.5493 132.637H96.4021C96.8572 132.636 97.2948 132.812 97.6234 133.127C97.952 133.442 98.146 133.872 98.1649 134.326C99.0392 155.32 99.6394 175.865 97.4069 196.395V196.415C94.6838 218.879 88.0513 235.82 81.9742 235.82ZM69.2381 136.162C68.4091 156.429 67.9019 176.275 70.0481 196.013C71.3129 206.467 73.5269 216.126 76.2804 223.191C79.196 230.671 81.5132 232.275 81.9742 232.295C82.4334 232.275 84.7505 230.671 87.6657 223.191C90.4183 216.129 92.6319 206.474 93.8989 196.003C96.0442 176.268 95.537 156.425 94.7081 136.162H69.2381Z" fill="#1F2120"/>
<path d="M92.1375 28.2309C85.8157 19.3019 81.9746 1.7627 81.9746 1.7627C81.9746 1.7627 78.1331 19.3024 71.8113 28.2309C71.6631 28.4392 71.5824 28.688 71.5801 28.9437C71.5778 29.1993 71.6541 29.4495 71.7985 29.6605C74.0018 33.0183 75.4966 36.7903 76.1915 40.7459C76.8865 44.7014 76.7669 48.7571 75.8402 52.6648H88.1091C87.1823 48.7571 87.0626 44.7013 87.7576 40.7458C88.4525 36.7903 89.9474 33.0182 92.1507 29.6605C92.2951 29.4495 92.3713 29.1992 92.3689 28.9436C92.3666 28.6879 92.2858 28.4391 92.1375 28.2309V28.2309Z" fill="#EAEAEA"/>
<g style="mix-blend-mode:multiply" opacity="0.37">
<path d="M92.1373 28.2309C85.8155 19.3019 81.9744 1.7627 81.9744 1.7627C81.9744 1.7627 81.0785 5.85235 79.4404 11.0874C81.1948 16.6935 83.8002 23.6132 87.0693 28.2304C87.2176 28.4387 87.2984 28.6875 87.3007 28.9432C87.3031 29.1988 87.2269 29.449 87.0825 29.66C84.8792 33.0178 83.3843 36.7899 82.6894 40.7454C81.9944 44.7009 82.1141 48.7566 83.0409 52.6643H88.1089C87.1821 48.7566 87.0624 44.7009 87.7574 40.7454C88.4523 36.7899 89.9472 33.0178 92.1505 29.66C92.2948 29.4491 92.3709 29.1989 92.3686 28.9434C92.3662 28.6878 92.2855 28.4391 92.1373 28.2309V28.2309Z" fill="#B5B4B4"/>
</g>
<path d="M88.1087 54.4259H75.8411C75.5727 54.4259 75.308 54.3647 75.0669 54.2468C74.8259 54.129 74.6149 53.9577 74.4501 53.746C74.2852 53.5343 74.1709 53.2878 74.1158 53.0252C74.0607 52.7626 74.0662 52.4909 74.132 52.2308C75.0035 48.564 75.1164 44.7578 74.4637 41.0458C73.8111 37.3338 72.4067 33.7943 70.3368 30.6447C69.991 30.1376 69.8091 29.5366 69.8156 28.9228C69.8221 28.3091 70.0168 27.7121 70.3734 27.2125C76.4109 18.6824 80.2158 1.55744 80.2537 1.38512C80.3399 0.9926 80.5576 0.641298 80.8707 0.38943C81.1839 0.137562 81.5737 0.000244141 81.9755 0.000244141C82.3774 0.000244141 82.7672 0.137562 83.0803 0.38943C83.3935 0.641298 83.6112 0.9926 83.6973 1.38512C83.7352 1.55744 87.538 18.6829 93.5773 27.2121C93.9337 27.7117 94.1283 28.3087 94.1348 28.9224C94.1414 29.5361 93.9595 30.1371 93.6139 30.6442C91.5439 33.7938 90.1395 37.3333 89.4868 41.0453C88.8342 44.7573 88.9471 48.5635 89.8186 52.2303C89.8844 52.4905 89.89 52.7622 89.8348 53.0248C89.7797 53.2873 89.6654 53.5339 89.5006 53.7456C89.3358 53.9573 89.1248 54.1286 88.8837 54.2464C88.6426 54.3642 88.3779 54.4255 88.1096 54.4254L88.1087 54.4259ZM78.0088 50.9003H85.9414C84.7178 43.276 86.3402 35.4679 90.4999 28.9621C86.6028 23.3106 83.6832 14.7342 81.976 8.80246C80.2683 14.7342 77.3487 23.3106 73.452 28.9621C77.6107 35.4682 79.2325 43.2762 78.0088 50.9003V50.9003Z" fill="#1F2120"/>
<path d="M81.9737 28.9757C81.5062 28.9757 81.0578 28.79 80.7273 28.4594C80.3967 28.1288 80.2109 27.6805 80.2109 27.2129V1.76278C80.2109 1.29526 80.3967 0.846891 80.7273 0.516305C81.0578 0.18572 81.5062 0 81.9737 0C82.4412 0 82.8896 0.18572 83.2202 0.516305C83.5508 0.846891 83.7365 1.29526 83.7365 1.76278V27.2129C83.7365 27.6805 83.5508 28.1288 83.2202 28.4594C82.8896 28.79 82.4412 28.9757 81.9737 28.9757Z" fill="#1F2120"/>
<path d="M81.9828 31.6167C83.8766 31.6167 85.4118 30.0814 85.4118 28.1876C85.4118 26.2938 83.8766 24.7585 81.9828 24.7585C80.089 24.7585 78.5537 26.2938 78.5537 28.1876C78.5537 30.0814 80.089 31.6167 81.9828 31.6167Z" fill="#1F2120"/>
<path d="M236.742 46.1052H212.945V199.848H236.742V46.1052Z" fill="#47A942"/>
<path d="M236.742 201.611H212.944C212.477 201.611 212.029 201.425 211.698 201.094C211.367 200.764 211.182 200.315 211.182 199.848V46.1051C211.182 45.6375 211.367 45.1892 211.698 44.8586C212.029 44.528 212.477 44.3423 212.944 44.3423H236.742C237.209 44.3423 237.658 44.528 237.988 44.8586C238.319 45.1892 238.505 45.6375 238.505 46.1051V199.848C238.505 200.315 238.319 200.764 237.988 201.094C237.658 201.425 237.209 201.611 236.742 201.611ZM214.707 198.085H234.979V47.8678H214.707V198.085Z" fill="#1F2120"/>
<path d="M229.25 201.611H220.436C219.968 201.611 219.52 201.425 219.189 201.094C218.859 200.764 218.673 200.315 218.673 199.848V46.1051C218.673 45.6375 218.859 45.1892 219.189 44.8586C219.52 44.528 219.968 44.3423 220.436 44.3423H229.25C229.717 44.3423 230.165 44.528 230.496 44.8586C230.827 45.1892 231.012 45.6375 231.012 46.1051V199.848C231.012 200.315 230.827 200.764 230.496 201.094C230.165 201.425 229.717 201.611 229.25 201.611ZM222.198 198.085H227.487V47.8678H222.198V198.085Z" fill="#1F2120"/>
<path d="M236.742 46.1051H212.945L224.844 10.5723L236.742 46.1051Z" fill="#C4C4C4"/>
<path d="M236.742 47.8679H212.944C212.665 47.8679 212.389 47.8014 212.141 47.674C211.892 47.5465 211.677 47.3617 211.514 47.1349C211.35 46.908 211.243 46.6456 211.202 46.3692C211.16 46.0929 211.184 45.8105 211.273 45.5454L223.172 10.0126C223.289 9.66218 223.513 9.35748 223.813 9.1416C224.113 8.92571 224.474 8.80957 224.843 8.80957C225.213 8.80957 225.573 8.92571 225.873 9.1416C226.173 9.35748 226.397 9.66218 226.515 10.0126L238.414 45.5454C238.502 45.8105 238.527 46.0929 238.485 46.3692C238.443 46.6456 238.336 46.908 238.173 47.1349C238.009 47.3617 237.795 47.5465 237.546 47.674C237.297 47.8014 237.021 47.8679 236.742 47.8679ZM215.395 44.3424H234.293L224.844 16.1242L215.395 44.3424Z" fill="#1F2120"/>
<path d="M212.945 199.848H236.743V207.732C236.743 210.103 235.801 212.378 234.124 214.054C232.447 215.731 230.173 216.673 227.801 216.673H221.888C219.516 216.673 217.242 215.731 215.565 214.054C213.888 212.378 212.946 210.103 212.946 207.732V199.848H212.945Z" fill="#C4C4C4"/>
<path d="M227.8 218.436H221.888C219.05 218.433 216.329 217.304 214.322 215.297C212.315 213.291 211.187 210.57 211.184 207.732V199.848C211.184 199.38 211.369 198.932 211.7 198.601C212.03 198.271 212.479 198.085 212.946 198.085H236.744C237.211 198.085 237.66 198.271 237.99 198.601C238.321 198.932 238.507 199.38 238.507 199.848V207.732C238.503 210.57 237.374 213.291 235.367 215.298C233.36 217.305 230.638 218.434 227.8 218.436V218.436ZM214.708 201.611V207.732C214.71 209.635 215.467 211.46 216.813 212.806C218.159 214.152 219.983 214.909 221.887 214.911H227.8C229.703 214.909 231.528 214.152 232.874 212.806C234.22 211.46 234.977 209.635 234.979 207.732V201.611H214.708Z" fill="#1F2120"/>
<path d="M236.742 184.229H212.945V199.847H236.742V184.229Z" fill="#CCCC00"/>
<path d="M236.742 201.611H212.944C212.477 201.611 212.029 201.425 211.698 201.094C211.367 200.764 211.182 200.315 211.182 199.848V184.229C211.182 183.761 211.367 183.313 211.698 182.982C212.029 182.652 212.477 182.466 212.944 182.466H236.742C237.209 182.466 237.658 182.652 237.988 182.982C238.319 183.313 238.505 183.761 238.505 184.229V199.848C238.505 200.315 238.319 200.764 237.988 201.094C237.658 201.425 237.209 201.611 236.742 201.611ZM214.707 198.085H234.979V185.991H214.707V198.085Z" fill="#1F2120"/>
<path d="M224.843 10.5723L220.042 24.9094H229.644L224.843 10.5723Z" fill="#1F2120"/>
<path d="M165.819 222.099H147.735C146.803 222.099 145.908 221.729 145.248 221.071C144.587 220.413 144.214 219.52 144.21 218.588L143.557 60.3884H169.998L169.345 218.59C169.34 219.522 168.967 220.414 168.306 221.072C167.646 221.729 166.751 222.099 165.819 222.099V222.099Z" fill="#00B3C6"/>
<g style="mix-blend-mode:screen">
<path d="M152.792 218.587L152.139 60.3884H143.557L144.21 218.589C144.214 219.522 144.587 220.415 145.248 221.073C145.909 221.731 146.803 222.1 147.736 222.1H156.318C155.385 222.1 154.49 221.731 153.83 221.072C153.169 220.414 152.796 219.52 152.792 218.587Z" fill="#00B3C6"/>
</g>
<g style="mix-blend-mode:multiply" opacity="0.53">
<path d="M160.763 218.588L161.416 60.3867H169.999L169.345 218.588C169.342 219.52 168.968 220.413 168.308 221.071C167.647 221.729 166.752 222.099 165.82 222.099H157.237C158.17 222.099 159.064 221.729 159.725 221.071C160.386 220.413 160.759 219.52 160.763 218.588V218.588Z" fill="#00B3C6"/>
</g>
<path d="M165.819 223.862H147.735C146.338 223.859 144.997 223.304 144.007 222.317C143.016 221.331 142.456 219.993 142.447 218.595L141.794 60.3941C141.793 60.1619 141.838 59.9319 141.926 59.7172C142.014 59.5024 142.144 59.3072 142.308 59.1427C142.471 58.9783 142.666 58.8477 142.88 58.7587C143.095 58.6696 143.325 58.6238 143.557 58.6238H169.998C170.231 58.6238 170.46 58.6696 170.675 58.7587C170.889 58.8477 171.084 58.9783 171.248 59.1427C171.411 59.3072 171.541 59.5024 171.629 59.7172C171.717 59.9319 171.762 60.1619 171.761 60.3941L171.108 218.595C171.099 219.993 170.538 221.331 169.548 222.317C168.557 223.304 167.217 223.859 165.819 223.862V223.862ZM145.327 62.1511L145.973 218.582C145.975 219.048 146.162 219.494 146.492 219.823C146.823 220.152 147.269 220.337 147.735 220.338H165.819C166.285 220.337 166.732 220.152 167.062 219.823C167.392 219.494 167.579 219.048 167.582 218.582L168.228 62.1511H145.327Z" fill="#1F2120"/>
<path d="M167.795 60.3867H145.76L146.797 52.3691H166.757L167.795 60.3867Z" fill="#414141"/>
<path d="M167.795 62.1513H145.76C145.509 62.1513 145.262 62.0979 145.033 61.9946C144.805 61.8913 144.601 61.7405 144.436 61.5523C144.27 61.3641 144.147 61.1428 144.074 60.9031C144.001 60.6635 143.979 60.4109 144.012 60.1624L145.049 52.1449C145.104 51.72 145.312 51.3297 145.633 51.0469C145.955 50.7641 146.369 50.6082 146.797 50.6082H166.756C167.185 50.6082 167.598 50.7641 167.92 51.0469C168.242 51.3297 168.45 51.72 168.505 52.1449L169.542 60.1624C169.574 60.4109 169.553 60.6634 169.48 60.903C169.407 61.1427 169.283 61.3639 169.118 61.5521C168.953 61.7403 168.749 61.8911 168.521 61.9944C168.292 62.0978 168.045 62.1512 167.794 62.1513H167.795ZM147.765 58.6257H165.789L165.208 54.1306H148.347L147.765 58.6257Z" fill="#1F2120"/>
<path d="M165.36 52.3691H148.195L149.331 31.2893H164.224L165.36 52.3691Z" fill="#00B3C6"/>
<g style="mix-blend-mode:screen">
<path d="M149.331 31.2893L148.195 52.3691H154.218L154.332 31.2893H149.331Z" fill="#00B3C6"/>
</g>
<g style="mix-blend-mode:multiply" opacity="0.53">
<path d="M164.669 31.2893L165.805 52.3691H159.782L159.18 31.2893H164.669Z" fill="#00B3C6"/>
</g>
<path d="M165.36 54.1307H148.195C147.956 54.1307 147.719 54.0819 147.499 53.9873C147.279 53.8927 147.081 53.7543 146.916 53.5804C146.751 53.4066 146.624 53.2011 146.541 52.9763C146.458 52.7516 146.422 52.5123 146.435 52.2732L147.571 31.193C147.595 30.7426 147.791 30.3187 148.119 30.0085C148.446 29.6983 148.88 29.5254 149.331 29.5254H164.224C164.675 29.5254 165.109 29.6983 165.437 30.0085C165.764 30.3187 165.96 30.7426 165.984 31.193L167.12 52.2732C167.133 52.5123 167.097 52.7516 167.014 52.9763C166.932 53.2011 166.804 53.4066 166.639 53.5804C166.475 53.7543 166.276 53.8927 166.056 53.9873C165.836 54.0819 165.599 54.1307 165.36 54.1307V54.1307ZM150.056 50.6052H163.5L162.554 33.051H151.001L150.056 50.6052Z" fill="#1F2120"/>
<path d="M165.36 54.1307H148.195C147.956 54.1307 147.719 54.0819 147.499 53.9873C147.279 53.8927 147.081 53.7543 146.916 53.5804C146.751 53.4066 146.624 53.2011 146.541 52.9763C146.458 52.7516 146.422 52.5123 146.435 52.2732L147.571 31.193C147.595 30.7426 147.791 30.3187 148.119 30.0085C148.446 29.6983 148.88 29.5254 149.331 29.5254H164.224C164.675 29.5254 165.109 29.6983 165.437 30.0085C165.764 30.3187 165.96 30.7426 165.984 31.193L167.12 52.2732C167.133 52.5123 167.097 52.7516 167.014 52.9763C166.932 53.2011 166.804 53.4066 166.639 53.5804C166.475 53.7543 166.276 53.8927 166.056 53.9873C165.836 54.0819 165.599 54.1307 165.36 54.1307V54.1307ZM150.056 50.6052H163.5L162.554 33.051H151.001L150.056 50.6052Z" fill="#1F2120"/>
<path d="M165.36 54.1307H148.195C147.956 54.1307 147.719 54.0819 147.499 53.9873C147.279 53.8927 147.081 53.7543 146.916 53.5804C146.751 53.4066 146.624 53.2011 146.541 52.9763C146.458 52.7516 146.422 52.5123 146.435 52.2732L147.571 31.193C147.595 30.7426 147.791 30.3187 148.119 30.0085C148.446 29.6983 148.88 29.5254 149.331 29.5254H164.224C164.675 29.5254 165.109 29.6983 165.437 30.0085C165.764 30.3187 165.96 30.7426 165.984 31.193L167.12 52.2732C167.133 52.5123 167.097 52.7516 167.014 52.9763C166.932 53.2011 166.804 53.4066 166.639 53.5804C166.475 53.7543 166.276 53.8927 166.056 53.9873C165.836 54.0819 165.599 54.1307 165.36 54.1307V54.1307ZM150.056 50.6052H163.5L162.554 33.051H151.001L150.056 50.6052Z" fill="#1F2120"/>
<path d="M165.36 54.1307H148.195C147.956 54.1307 147.719 54.0819 147.499 53.9873C147.279 53.8927 147.081 53.7543 146.916 53.5804C146.751 53.4066 146.624 53.2011 146.541 52.9763C146.458 52.7516 146.422 52.5123 146.435 52.2732L147.571 31.193C147.595 30.7426 147.791 30.3187 148.119 30.0085C148.446 29.6983 148.88 29.5254 149.331 29.5254H164.224C164.675 29.5254 165.109 29.6983 165.437 30.0085C165.764 30.3187 165.96 30.7426 165.984 31.193L167.12 52.2732C167.133 52.5123 167.097 52.7516 167.014 52.9763C166.932 53.2011 166.804 53.4066 166.639 53.5804C166.475 53.7543 166.276 53.8927 166.056 53.9873C165.836 54.0819 165.599 54.1307 165.36 54.1307V54.1307ZM150.056 50.6052H163.5L162.554 33.051H151.001L150.056 50.6052Z" fill="#1F2120"/>
<path d="M161.724 31.2894H151.698V18.8398L161.724 10.0259V31.2894Z" fill="#FFC41D"/>
<path d="M161.723 33.0523H151.697C151.23 33.0523 150.781 32.8665 150.451 32.536C150.12 32.2054 149.935 31.757 149.935 31.2895V18.8398C149.935 18.5896 149.988 18.3422 150.092 18.1142C150.195 17.8863 150.346 17.6829 150.534 17.5178L160.56 8.70385C160.814 8.48026 161.128 8.33475 161.463 8.28471C161.798 8.23468 162.14 8.28225 162.449 8.42173C162.758 8.56121 163.02 8.78671 163.204 9.07121C163.387 9.35571 163.486 9.68717 163.486 10.0259V31.2895C163.486 31.757 163.3 32.2054 162.97 32.536C162.639 32.8665 162.191 33.0523 161.723 33.0523ZM153.46 29.5267H159.96V13.9226L153.46 19.6371V29.5267Z" fill="#1F2120"/>
<path d="M144.164 207.551L144.208 218.588C144.212 219.52 144.585 220.413 145.246 221.071C145.907 221.729 146.801 222.099 147.734 222.099H165.818C166.75 222.099 167.645 221.729 168.305 221.071C168.966 220.413 169.339 219.52 169.343 218.588L169.387 207.551H144.164Z" fill="#414141"/>
<g style="mix-blend-mode:multiply" opacity="0.4">
<path d="M160.87 207.551L160.826 218.588C160.822 219.52 160.449 220.413 159.789 221.071C159.128 221.729 158.233 222.099 157.301 222.099H165.821C166.753 222.099 167.648 221.729 168.309 221.071C168.969 220.413 169.342 219.52 169.346 218.588L169.39 207.551H160.87Z" fill="#414141"/>
</g>
<g style="mix-blend-mode:screen">
<path d="M153.024 218.588L152.98 207.551H144.166L144.21 218.588C144.214 219.52 144.587 220.413 145.248 221.071C145.909 221.729 146.803 222.099 147.736 222.099H156.55C155.617 222.099 154.722 221.729 154.062 221.071C153.401 220.413 153.028 219.52 153.024 218.588V218.588Z" fill="#414141"/>
</g>
<path d="M165.819 223.862H147.735C146.337 223.859 144.997 223.304 144.006 222.318C143.016 221.331 142.455 219.993 142.446 218.596L142.402 207.558C142.401 207.326 142.446 207.096 142.534 206.881C142.623 206.667 142.752 206.472 142.916 206.307C143.08 206.143 143.274 206.012 143.489 205.923C143.703 205.834 143.933 205.788 144.165 205.788H169.391C169.624 205.788 169.853 205.834 170.068 205.923C170.282 206.012 170.477 206.143 170.641 206.307C170.804 206.472 170.934 206.667 171.022 206.881C171.11 207.096 171.155 207.326 171.154 207.558L171.11 218.596C171.102 219.994 170.54 221.332 169.549 222.319C168.558 223.305 167.217 223.86 165.819 223.862V223.862ZM145.934 209.314L145.972 218.581C145.975 219.047 146.162 219.493 146.492 219.822C146.822 220.15 147.269 220.335 147.735 220.336H165.819C166.285 220.335 166.732 220.15 167.062 219.822C167.392 219.493 167.579 219.047 167.581 218.581L167.62 209.314H145.934Z" fill="#1F2120"/>
</svg>
