<svg width="80" height="77" viewBox="0 0 80 77" fill="none" xmlns="http://www.w3.org/2000/svg">
<g clip-path="url(#clip0_711_1443)">
<path d="M3.00684 19.3105H9.55703V72.7169C9.55703 72.9899 9.44811 73.2514 9.25422 73.4442C9.06036 73.6374 8.7974 73.7455 8.52323 73.7455H4.04064C3.76646 73.7455 3.5035 73.6374 3.30963 73.4442C3.11575 73.2514 3.00684 72.9899 3.00684 72.7169V19.3105Z" fill="#663399"/>
<path d="M8.52328 74.3113H4.04069C3.61602 74.3109 3.20888 74.1428 2.90854 73.8441C2.60819 73.5454 2.43915 73.1402 2.43848 72.7177V19.3107C2.43848 19.1607 2.49836 19.0168 2.60496 18.9108C2.71156 18.8047 2.85613 18.7451 3.00688 18.7451H9.55779C9.70853 18.7451 9.85309 18.8047 9.95969 18.9108C10.0663 19.0168 10.1262 19.1607 10.1262 19.3107V72.7177C10.1255 73.1405 9.95637 73.5458 9.65588 73.8445C9.35539 74.1432 8.94804 74.3109 8.52328 74.3113ZM3.57529 19.8762V72.7177C3.57544 72.8406 3.62452 72.9583 3.71177 73.0449C3.79901 73.1319 3.91729 73.1806 4.04069 73.181H8.52328C8.64664 73.1806 8.76495 73.1319 8.85217 73.0449C8.93943 72.9583 8.98851 72.8406 8.98867 72.7177V19.8762H3.57529Z" fill="#663399"/>
<path d="M8.35604 10.1201H4.20738L3.96851 19.3105H8.59494L8.35604 10.1201Z" fill="#663399"/>
<path opacity="0.5" d="M4.20738 10.1201L3.96851 19.3105H5.49682L5.73569 10.1201H4.20738Z" fill="#663399"/>
<path d="M8.59514 19.8761H3.96874C3.89287 19.8762 3.81777 19.8611 3.74786 19.8318C3.67797 19.8025 3.61467 19.7595 3.5617 19.7055C3.50873 19.6515 3.46716 19.5875 3.43944 19.5172C3.41173 19.4469 3.39843 19.3719 3.40032 19.2964L3.63906 10.1061C3.64276 9.95855 3.70428 9.81832 3.81048 9.7153C3.91666 9.61228 4.05916 9.55462 4.20745 9.55469H8.35611C8.50444 9.55462 8.6469 9.61228 8.75311 9.7153C8.85929 9.81832 8.92082 9.95855 8.92452 10.1061L9.16326 19.2964C9.16517 19.3719 9.15185 19.4469 9.12415 19.5172C9.09642 19.5875 9.05486 19.6515 9.00188 19.7055C8.9489 19.7595 8.8856 19.8025 8.8157 19.8318C8.74579 19.8611 8.67072 19.8762 8.59485 19.8761H8.59514ZM4.55205 18.745H8.0118L7.80237 10.6858H4.76138L4.55205 18.745Z" fill="#663399"/>
<path d="M9.55334 67.543H3.00317V70.3708H9.55334V67.543Z" fill="#663399"/>
<path d="M5.49683 67.5781H3.00537V70.406H5.49683V67.5781Z" fill="#663399"/>
<path d="M9.55339 70.9361H3.00322C2.85247 70.9361 2.7079 70.8765 2.6013 70.7703C2.4947 70.6644 2.43481 70.5203 2.43481 70.3705V67.5427C2.43481 67.3929 2.4947 67.2488 2.6013 67.1429C2.7079 67.0367 2.85247 66.9771 3.00322 66.9771H9.55339C9.70417 66.9771 9.84872 67.0367 9.95532 67.1429C10.0619 67.2488 10.1218 67.3929 10.1218 67.5427V70.3705C10.1218 70.5203 10.0619 70.6644 9.95532 70.7703C9.84872 70.8765 9.70417 70.9361 9.55339 70.9361ZM3.57177 69.8049H8.98501V68.1083H3.57163L3.57177 69.8049Z" fill="#663399"/>
<path d="M9.55556 24.8247H3.00537V27.6525H9.55556V24.8247Z" fill="#663399"/>
<path d="M5.49683 24.8247H3.00537V27.6525H5.49683V24.8247Z" fill="#663399"/>
<path d="M9.55561 28.2182H3.00542C2.85467 28.2182 2.71009 28.1586 2.60349 28.0526C2.4969 27.9465 2.43701 27.8026 2.43701 27.6526V24.8248C2.43701 24.6749 2.4969 24.531 2.60349 24.4249C2.71009 24.3189 2.85467 24.2593 3.00542 24.2593H9.55561C9.70635 24.2593 9.85094 24.3189 9.95751 24.4249C10.0641 24.531 10.124 24.6749 10.124 24.8248V27.6526C10.124 27.7269 10.1093 27.8004 10.0807 27.8691C10.0522 27.9377 10.0103 28 9.95751 28.0526C9.90476 28.1051 9.84207 28.1467 9.7731 28.1751C9.70416 28.2036 9.63026 28.2182 9.55561 28.2182ZM3.57383 27.0871H8.9872V25.3904H3.57383V27.0871Z" fill="#663399"/>
<path d="M8.35608 10.6858H4.20742C4.09012 10.6857 3.97571 10.6495 3.87991 10.5822C3.78411 10.5149 3.71157 10.4197 3.67226 10.3097C3.63296 10.1998 3.62881 10.0804 3.66038 9.96801C3.69195 9.85562 3.7577 9.75568 3.8486 9.68192L5.07068 8.69218C5.172 8.60999 5.29872 8.56504 5.42947 8.56494H7.13342C7.26417 8.56504 7.3909 8.60999 7.49224 8.69218L8.71432 9.68192C8.80522 9.75568 8.87097 9.85562 8.90254 9.96801C8.93411 10.0804 8.92995 10.1998 8.89064 10.3097C8.85133 10.4197 8.77881 10.5149 8.68301 10.5822C8.58718 10.6495 8.47281 10.6857 8.3555 10.6858H8.35608Z" fill="#663399"/>
<path d="M7.26959 5.4541H5.29395V9.29525H7.26959V5.4541Z" fill="#663399"/>
<path d="M7.26944 9.86092H5.29424C5.14347 9.86092 4.99891 9.80134 4.89231 9.69527C4.78571 9.5892 4.72583 9.44537 4.72583 9.29535V5.45424C4.72583 5.30425 4.78571 5.16039 4.89231 5.05432C4.99891 4.94825 5.14347 4.88867 5.29424 4.88867H7.26944C7.42018 4.88867 7.56477 4.94825 7.67137 5.05432C7.77797 5.16039 7.83785 5.30425 7.83785 5.45424V9.29535C7.83785 9.44537 7.77797 9.5892 7.67137 9.69527C7.56477 9.80134 7.42018 9.86092 7.26944 9.86092ZM5.86262 8.72982H6.70102V6.0198H5.86262V8.72982Z" fill="#663399"/>
<path d="M6.28181 6.03843C6.09337 6.03843 5.91267 5.96394 5.7794 5.83137C5.64616 5.6988 5.57129 5.51897 5.57129 5.33148V2.83878C5.57129 2.65129 5.64616 2.47148 5.7794 2.3389C5.91267 2.20632 6.09337 2.13184 6.28181 2.13184C6.47024 2.13184 6.65098 2.20632 6.78421 2.3389C6.91745 2.47148 6.99232 2.65129 6.99232 2.83878V5.33148C6.99232 5.51897 6.91745 5.6988 6.78421 5.83137C6.65098 5.96394 6.47024 6.03843 6.28181 6.03843Z" fill="#663399"/>
<path d="M31.7425 72.1687H30.814C30.6633 72.1687 30.5187 72.1093 30.4121 72.0031C30.3055 71.8973 30.2456 71.7532 30.2456 71.6034C30.2456 71.4532 30.3055 71.3095 30.4121 71.2033C30.5187 71.0974 30.6633 71.0377 30.814 71.0377H31.7425C32.6718 71.0365 33.5626 70.6688 34.2198 70.0149C34.8769 69.3611 35.2465 68.4746 35.2478 67.55V54.2001L33.9747 52.3656C33.9231 52.2911 33.8899 52.2051 33.8786 52.1153C33.867 52.0255 33.8777 51.9344 33.9089 51.8493L35.2826 48.1261C35.3287 48.0013 35.4174 47.8967 35.5331 47.8306C35.6489 47.7645 35.7843 47.7407 35.9155 47.7642C36.0471 47.7873 36.1661 47.8559 36.2519 47.9576C36.3376 48.0597 36.3847 48.1883 36.3847 48.3211V54.0156C36.3847 54.0207 36.3847 54.0256 36.3847 54.0307V67.55C36.3834 68.7746 35.8939 69.9488 35.0237 70.8148C34.1534 71.6807 32.9732 72.1677 31.7425 72.1687ZM35.0775 51.9642L35.2481 52.2096V51.5025L35.0775 51.9642Z" fill="#663399"/>
<path d="M32.1127 58.1261H25.6216C24.21 47.0073 25.4205 26.4078 26.6841 18.1792H31.0503C32.3139 26.4078 33.5242 47.0073 32.1127 58.1261Z" fill="#663399"/>
<g style="mix-blend-mode:lighten" opacity="0.68">
<path d="M29.501 57.4938C28.1324 46.7144 28.2664 28.6958 28.8672 18.1792H26.6841C25.4205 26.4081 24.21 47.0073 25.6216 58.1261H32.1127C32.139 57.9189 32.1641 57.7071 32.1886 57.4938H29.501Z" fill="#663399"/>
</g>
<path d="M32.1125 58.6921H25.6215C25.483 58.6921 25.3494 58.6417 25.2455 58.5506C25.1417 58.4595 25.0749 58.3337 25.0576 58.197C23.6717 47.282 24.7805 26.8306 26.1221 18.094C26.1425 17.9603 26.2104 17.8382 26.3135 17.75C26.4165 17.6618 26.548 17.6133 26.684 17.6133H31.0502C31.1862 17.6133 31.3176 17.6618 31.4207 17.75C31.5238 17.8382 31.5917 17.9603 31.612 18.094C32.9536 26.8306 34.0625 47.2813 32.6765 58.197C32.6592 58.3337 32.5924 58.4595 32.4885 58.5506C32.3847 58.6417 32.251 58.6921 32.1125 58.6921ZM26.1251 57.5608H31.6089C32.8662 46.8261 31.8394 27.5312 30.5599 18.7451H27.1736C25.8947 27.5312 24.8679 46.8261 26.1251 57.5608Z" fill="#663399"/>
<path d="M33.2776 64.2319C32.3598 71.7802 30.1706 76.3774 28.8674 76.3774C27.5642 76.3774 25.3748 71.7808 24.4571 64.2319C23.7338 57.6138 23.94 50.9838 24.2156 44.4028H33.5191C33.7945 50.9841 34.0009 57.6138 33.2776 64.2319Z" fill="#663399"/>
<g style="mix-blend-mode:lighten" opacity="0.68">
<path d="M24.4571 64.2319C24.7274 66.5929 25.1961 68.927 25.8581 71.2101C28.6176 70.6261 29.6083 61.4243 29.6083 49.1184C29.6083 47.7982 29.5586 45.6621 29.51 44.4028H24.2156C23.94 50.9841 23.7338 57.6138 24.4571 64.2319Z" fill="#663399"/>
</g>
<path d="M28.8671 76.9424C26.9075 76.9424 24.7689 71.5078 23.8927 64.3C23.172 57.7069 23.3655 51.1154 23.6474 44.3798C23.6535 44.2341 23.7161 44.0962 23.822 43.9951C23.928 43.894 24.0691 43.8376 24.2158 43.8379H33.5193C33.6661 43.8376 33.8073 43.894 33.9131 43.9951C34.0191 44.0962 34.0817 44.2341 34.0878 44.3798C34.3696 51.1154 34.5631 57.7069 33.8434 64.2936V64.3C32.9654 71.5072 30.8267 76.9424 28.8671 76.9424ZM24.7604 44.9688C24.4931 51.4712 24.3295 57.8384 25.0216 64.171C25.4294 67.525 26.1433 70.6239 27.0312 72.8906C27.9713 75.2905 28.7185 75.8051 28.8671 75.8115C29.0152 75.8051 29.7623 75.2905 30.7023 72.8906C31.5899 70.6249 32.3037 67.5273 32.7122 64.1678C33.4039 57.8362 33.2404 51.4699 32.9731 44.9688H24.7604Z" fill="#663399"/>
<path d="M32.1444 10.3405C30.1059 7.47579 28.8673 1.84863 28.8673 1.84863C28.8673 1.84863 27.6286 7.47595 25.5902 10.3405C25.5424 10.4073 25.5164 10.4872 25.5156 10.5692C25.5149 10.6512 25.5395 10.7315 25.5861 10.7992C26.2965 11.8765 26.7785 13.0867 27.0026 14.3557C27.2267 15.6248 27.1881 16.926 26.8893 18.1797H30.8454C30.5466 16.926 30.508 15.6248 30.7321 14.3557C30.9561 13.0867 31.4382 11.8764 32.1486 10.7992C32.1952 10.7315 32.2197 10.6512 32.219 10.5692C32.2182 10.4871 32.1922 10.4073 32.1444 10.3405Z" fill="#663399"/>
<path d="M30.8452 18.7448H26.8895C26.803 18.7448 26.7176 18.7251 26.6399 18.6873C26.5622 18.6495 26.4941 18.5946 26.441 18.5266C26.3878 18.4587 26.3509 18.3796 26.3332 18.2954C26.3154 18.2111 26.3172 18.124 26.3384 18.0405C26.6194 16.8641 26.6558 15.6429 26.4454 14.452C26.2349 13.2611 25.7821 12.1255 25.1146 11.115C25.0031 10.9523 24.9445 10.7595 24.9466 10.5625C24.9487 10.3656 25.0115 10.1741 25.1264 10.0138C27.0732 7.27706 28.3001 1.7828 28.3123 1.72752C28.3401 1.60159 28.4103 1.48888 28.5113 1.40807C28.6123 1.32726 28.738 1.2832 28.8675 1.2832C28.9971 1.2832 29.1228 1.32726 29.2238 1.40807C29.3248 1.48888 29.395 1.60159 29.4227 1.72752C29.4349 1.7828 30.6612 7.27722 32.6085 10.0137C32.7234 10.174 32.7861 10.3655 32.7884 10.5624C32.7903 10.7593 32.7318 10.9521 32.6203 11.1148C31.9529 12.1253 31.5 13.2609 31.2895 14.4518C31.0791 15.6428 31.1155 16.8639 31.3965 18.0404C31.4178 18.1238 31.4195 18.211 31.4018 18.2952C31.384 18.3795 31.3471 18.4586 31.294 18.5265C31.2409 18.5944 31.1728 18.6494 31.0951 18.6872C31.0173 18.725 30.932 18.7446 30.8455 18.7446L30.8452 18.7448ZM27.5885 17.6136H30.1463C29.7518 15.1675 30.2749 12.6624 31.6162 10.5751C30.3596 8.76194 29.4182 6.01035 28.8677 4.10726C28.317 6.01035 27.3756 8.76194 26.1191 10.5751C27.4601 12.6625 27.9831 15.1676 27.5885 17.6136Z" fill="#663399"/>
<path d="M28.867 10.5796C28.7163 10.5796 28.5717 10.52 28.4651 10.4139C28.3585 10.3079 28.2986 10.164 28.2986 10.014V1.84876C28.2986 1.69877 28.3585 1.55491 28.4651 1.44885C28.5717 1.34279 28.7163 1.2832 28.867 1.2832C29.0177 1.2832 29.1623 1.34279 29.2689 1.44885C29.3755 1.55491 29.4354 1.69877 29.4354 1.84876V10.014C29.4354 10.164 29.3755 10.3079 29.2689 10.4139C29.1623 10.52 29.0177 10.5796 28.867 10.5796Z" fill="#663399"/>
<path d="M28.8699 11.4269C29.4805 11.4269 29.9755 10.9343 29.9755 10.3267C29.9755 9.71914 29.4805 9.22656 28.8699 9.22656C28.2592 9.22656 27.7642 9.71914 27.7642 10.3267C27.7642 10.9343 28.2592 11.4269 28.8699 11.4269Z" fill="#663399"/>
<path d="M78.7719 16.0752H71.0986V65.401H78.7719V16.0752Z" fill="#663399"/>
<path d="M78.7718 65.9668H71.0982C70.9476 65.9668 70.8031 65.9071 70.6964 65.8009C70.5897 65.6951 70.53 65.551 70.53 65.4012V16.0753C70.53 15.9253 70.5897 15.7815 70.6964 15.6754C70.8031 15.5693 70.9476 15.5098 71.0982 15.5098H78.7718C78.9224 15.5098 79.0672 15.5693 79.1736 15.6754C79.2803 15.7815 79.3403 15.9253 79.3403 16.0753V65.4012C79.3403 65.551 79.2803 65.6951 79.1736 65.8009C79.0672 65.9071 78.9224 65.9668 78.7718 65.9668ZM71.6667 64.8355H78.2033V16.6409H71.6667V64.8355Z" fill="#663399"/>
<path d="M76.3561 65.9668H73.514C73.3631 65.9668 73.2187 65.9071 73.1119 65.8009C73.0055 65.6951 72.9456 65.551 72.9456 65.4012V16.0753C72.9456 15.9253 73.0055 15.7815 73.1119 15.6754C73.2187 15.5693 73.3631 15.5098 73.514 15.5098H76.3561C76.5067 15.5098 76.6511 15.5693 76.7579 15.6754C76.8646 15.7815 76.9243 15.9253 76.9243 16.0753V65.4012C76.9243 65.551 76.8646 65.6951 76.7579 65.8009C76.6511 65.9071 76.5067 65.9668 76.3561 65.9668ZM74.0822 64.8355H75.7876V16.6409H74.0822V64.8355Z" fill="#663399"/>
<path d="M78.7719 16.0754H71.0986L74.9354 4.67529L78.7719 16.0754Z" fill="#663399"/>
<path d="M78.7719 16.6411H71.0982C71.0082 16.6411 70.9193 16.6197 70.8393 16.5789C70.759 16.538 70.6897 16.4787 70.6371 16.4059C70.5842 16.3331 70.5497 16.2489 70.5365 16.1602C70.523 16.0716 70.5307 15.981 70.5594 15.8959L74.3962 4.49583C74.4339 4.38341 74.5062 4.28565 74.6029 4.21638C74.6996 4.14711 74.816 4.10986 74.935 4.10986C75.0543 4.10986 75.1704 4.14711 75.2672 4.21638C75.3639 4.28565 75.4361 4.38341 75.4742 4.49583L79.311 15.8959C79.3394 15.981 79.3474 16.0716 79.3339 16.1602C79.3203 16.2489 79.2858 16.3331 79.2333 16.4059C79.1804 16.4787 79.1114 16.538 79.0311 16.5789C78.9508 16.6197 78.8618 16.6411 78.7719 16.6411ZM71.8885 15.51H77.9822L74.9354 6.45663L71.8885 15.51Z" fill="#663399"/>
<path d="M71.0986 65.4014H78.7723V67.9308C78.7723 68.6915 78.4685 69.4214 77.9278 69.9591C77.387 70.4972 76.6538 70.7994 75.8889 70.7994H73.9823C73.2174 70.7994 72.4842 70.4972 71.9434 69.9591C71.4027 69.4214 71.099 68.6915 71.099 67.9308V65.4014H71.0986Z" fill="#663399"/>
<path d="M75.8886 71.3647H73.9823C73.0671 71.3638 72.1898 71.0015 71.5426 70.3576C70.8955 69.714 70.5317 68.841 70.5308 67.9305V65.4011C70.5308 65.2509 70.5904 65.1072 70.6971 65.001C70.8036 64.8951 70.9483 64.8354 71.0989 64.8354H78.7726C78.9231 64.8354 79.0679 64.8951 79.1743 65.001C79.2811 65.1072 79.341 65.2509 79.341 65.4011V67.9305C79.3397 68.841 78.9757 69.714 78.3285 70.358C77.6814 71.0019 76.8037 71.3641 75.8886 71.3647ZM71.6671 65.9667V67.9305C71.6677 68.5411 71.9118 69.1266 72.3458 69.5584C72.7798 69.9903 73.368 70.2331 73.9819 70.2338H75.8886C76.5022 70.2331 77.0907 69.9903 77.5247 69.5584C77.9587 69.1266 78.2028 68.5411 78.2034 67.9305V65.9667H71.6671Z" fill="#663399"/>
<path d="M78.7719 60.3901H71.0986V65.4009H78.7719V60.3901Z" fill="#663399"/>
<path d="M78.7718 65.9671H71.0982C70.9476 65.9671 70.8031 65.9074 70.6964 65.8012C70.5897 65.6953 70.53 65.5513 70.53 65.4014V60.3903C70.53 60.2402 70.5897 60.0965 70.6964 59.9903C70.8031 59.8844 70.9476 59.8247 71.0982 59.8247H78.7718C78.9224 59.8247 79.0672 59.8844 79.1736 59.9903C79.2803 60.0965 79.3403 60.2402 79.3403 60.3903V65.4014C79.3403 65.5513 79.2803 65.6953 79.1736 65.8012C79.0672 65.9074 78.9224 65.9671 78.7718 65.9671ZM71.6667 64.8358H78.2033V60.9556H71.6667V64.8358Z" fill="#663399"/>
<path d="M74.935 4.67529L73.387 9.27511H76.4831L74.935 4.67529Z" fill="#663399"/>
<path d="M55.903 72.5399H50.0718C49.7713 72.5399 49.4827 72.4212 49.2699 72.2101C49.0567 71.9989 48.9365 71.7124 48.9352 71.4134L48.7246 20.6577H57.2505L57.0399 71.4141C57.0383 71.7131 56.918 71.9993 56.7049 72.2104C56.4921 72.4212 56.2035 72.5399 55.903 72.5399Z" fill="#663399"/>
<path d="M55.9028 73.1057H50.0717C49.6212 73.1048 49.1888 72.9267 48.8696 72.61C48.55 72.2937 48.3695 71.8644 48.3666 71.4159L48.156 20.6598C48.1557 20.5853 48.1702 20.5115 48.1986 20.4426C48.2269 20.3737 48.2689 20.3111 48.3217 20.2583C48.3743 20.2055 48.4372 20.1636 48.5062 20.1351C48.5755 20.1065 48.6497 20.0918 48.7245 20.0918H57.2504C57.3255 20.0918 57.3993 20.1065 57.4687 20.1351C57.5377 20.1636 57.6005 20.2055 57.6534 20.2583C57.706 20.3111 57.7479 20.3737 57.7763 20.4426C57.8046 20.5115 57.8192 20.5853 57.8188 20.6598L57.6083 71.4159C57.6054 71.8644 57.4245 72.2937 57.1053 72.61C56.7857 72.9267 56.3536 73.1048 55.9028 73.1057ZM49.2952 21.2235L49.5035 71.4117C49.5042 71.5612 49.5645 71.7043 49.6709 71.8099C49.7776 71.9154 49.9214 71.9748 50.0717 71.9751H55.9028C56.0531 71.9748 56.1972 71.9154 56.3036 71.8099C56.4101 71.7043 56.4704 71.5612 56.4713 71.4117L56.6796 21.2235H49.2952Z" fill="#663399"/>
<path d="M56.54 20.6573H49.4348L49.7692 18.085H56.2053L56.54 20.6573Z" fill="#663399"/>
<path d="M56.5401 21.2234H49.4349C49.354 21.2234 49.2743 21.2063 49.2005 21.1732C49.127 21.14 49.0612 21.0916 49.008 21.0313C48.9545 20.9709 48.9148 20.8999 48.8913 20.823C48.8677 20.7461 48.8606 20.6651 48.8713 20.5853L49.2057 18.013C49.2234 17.8767 49.2905 17.7515 49.394 17.6608C49.4978 17.57 49.6313 17.52 49.7693 17.52H56.2051C56.3434 17.52 56.4766 17.57 56.5804 17.6608C56.6842 17.7515 56.7513 17.8767 56.769 18.013L57.1034 20.5853C57.1137 20.6651 57.1069 20.7461 57.0834 20.8229C57.0599 20.8998 57.0199 20.9708 56.9667 21.0312C56.9135 21.0916 56.8477 21.14 56.7742 21.1731C56.7003 21.2063 56.6207 21.2234 56.5398 21.2234H56.5401ZM50.0814 20.0923H55.8933L55.7059 18.6501H50.2691L50.0814 20.0923Z" fill="#663399"/>
<path d="M55.7548 18.0849H50.22L50.5863 11.3218H55.3885L55.7548 18.0849Z" fill="#663399"/>
<path d="M55.7548 18.6501H50.22C50.1429 18.6501 50.0665 18.6344 49.9955 18.6041C49.9246 18.5737 49.8607 18.5293 49.8075 18.4735C49.7543 18.4177 49.7134 18.3518 49.6866 18.2797C49.6599 18.2076 49.6483 18.1308 49.6524 18.0541L50.0187 11.2909C50.0265 11.1464 50.0897 11.0104 50.1955 10.9109C50.3009 10.8113 50.4408 10.7559 50.5863 10.7559H55.3885C55.5339 10.7559 55.6739 10.8113 55.7796 10.9109C55.8851 11.0104 55.9483 11.1464 55.956 11.2909L56.3223 18.0541C56.3265 18.1308 56.3149 18.2076 56.2881 18.2797C56.2617 18.3518 56.2204 18.4177 56.1672 18.4735C56.1143 18.5293 56.0502 18.5737 55.9792 18.6041C55.9083 18.6344 55.8319 18.6501 55.7548 18.6501ZM50.82 17.519H55.155L54.85 11.887H51.1248L50.82 17.519Z" fill="#663399"/>
<path d="M55.7548 18.6501H50.22C50.1429 18.6501 50.0665 18.6344 49.9955 18.6041C49.9246 18.5737 49.8607 18.5293 49.8075 18.4735C49.7543 18.4177 49.7134 18.3518 49.6866 18.2797C49.6599 18.2076 49.6483 18.1308 49.6524 18.0541L50.0187 11.2909C50.0265 11.1464 50.0897 11.0104 50.1955 10.9109C50.3009 10.8113 50.4408 10.7559 50.5863 10.7559H55.3885C55.5339 10.7559 55.6739 10.8113 55.7796 10.9109C55.8851 11.0104 55.9483 11.1464 55.956 11.2909L56.3223 18.0541C56.3265 18.1308 56.3149 18.2076 56.2881 18.2797C56.2617 18.3518 56.2204 18.4177 56.1672 18.4735C56.1143 18.5293 56.0502 18.5737 55.9792 18.6041C55.9083 18.6344 55.8319 18.6501 55.7548 18.6501ZM50.82 17.519H55.155L54.85 11.887H51.1248L50.82 17.519Z" fill="#663399"/>
<path d="M55.7548 18.6501H50.22C50.1429 18.6501 50.0665 18.6344 49.9955 18.6041C49.9246 18.5737 49.8607 18.5293 49.8075 18.4735C49.7543 18.4177 49.7134 18.3518 49.6866 18.2797C49.6599 18.2076 49.6483 18.1308 49.6524 18.0541L50.0187 11.2909C50.0265 11.1464 50.0897 11.0104 50.1955 10.9109C50.3009 10.8113 50.4408 10.7559 50.5863 10.7559H55.3885C55.5339 10.7559 55.6739 10.8113 55.7796 10.9109C55.8851 11.0104 55.9483 11.1464 55.956 11.2909L56.3223 18.0541C56.3265 18.1308 56.3149 18.2076 56.2881 18.2797C56.2617 18.3518 56.2204 18.4177 56.1672 18.4735C56.1143 18.5293 56.0502 18.5737 55.9792 18.6041C55.9083 18.6344 55.8319 18.6501 55.7548 18.6501ZM50.82 17.519H55.155L54.85 11.887H51.1248L50.82 17.519Z" fill="#663399"/>
<path d="M55.7548 18.6501H50.22C50.1429 18.6501 50.0665 18.6344 49.9955 18.6041C49.9246 18.5737 49.8607 18.5293 49.8075 18.4735C49.7543 18.4177 49.7134 18.3518 49.6866 18.2797C49.6599 18.2076 49.6483 18.1308 49.6524 18.0541L50.0187 11.2909C50.0265 11.1464 50.0897 11.0104 50.1955 10.9109C50.3009 10.8113 50.4408 10.7559 50.5863 10.7559H55.3885C55.5339 10.7559 55.6739 10.8113 55.7796 10.9109C55.8851 11.0104 55.9483 11.1464 55.956 11.2909L56.3223 18.0541C56.3265 18.1308 56.3149 18.2076 56.2881 18.2797C56.2617 18.3518 56.2204 18.4177 56.1672 18.4735C56.1143 18.5293 56.0502 18.5737 55.9792 18.6041C55.9083 18.6344 55.8319 18.6501 55.7548 18.6501ZM50.82 17.519H55.155L54.85 11.887H51.1248L50.82 17.519Z" fill="#663399"/>
<path d="M54.5825 11.322H51.3496V7.32779L54.5825 4.5V11.322Z" fill="#663399"/>
<path d="M54.582 11.8875H51.3492C51.1986 11.8875 51.0538 11.8279 50.9474 11.7219C50.8407 11.6158 50.781 11.472 50.781 11.322V7.32769C50.781 7.24741 50.7981 7.16804 50.8316 7.09489C50.8648 7.02177 50.9135 6.95651 50.9742 6.90354L54.207 4.07575C54.2889 4.00401 54.3902 3.9573 54.4982 3.94126C54.6062 3.92522 54.7165 3.94046 54.8161 3.98521C54.9158 4.02997 55.0002 4.10232 55.0596 4.19359C55.1186 4.28487 55.1505 4.39123 55.1505 4.49989V11.322C55.1505 11.472 55.0905 11.6158 54.9841 11.7219C54.8774 11.8279 54.7329 11.8875 54.582 11.8875ZM51.9176 10.7564H54.0136V5.75008L51.9176 7.58349V10.7564Z" fill="#663399"/>
<path d="M48.9202 67.8726L48.9344 71.4136C48.9356 71.7126 49.0559 71.9991 49.2691 72.2102C49.4822 72.4213 49.7705 72.54 50.0713 72.54H55.9025C56.203 72.54 56.4916 72.4213 56.7044 72.2102C56.9175 71.9991 57.0378 71.7126 57.0391 71.4136L57.0533 67.8726H48.9202Z" fill="#663399"/>
<path d="M55.9028 73.1059H50.0717C49.6209 73.1049 49.1888 72.9268 48.8693 72.6105C48.55 72.2938 48.3691 71.8646 48.3662 71.4164L48.3521 67.875C48.3517 67.8006 48.3662 67.7268 48.3946 67.6578C48.4233 67.5891 48.4649 67.5266 48.5178 67.4736C48.5707 67.421 48.6332 67.379 48.7026 67.3504C48.7716 67.3219 48.8457 67.3071 48.9205 67.3071H57.0546C57.1298 67.3071 57.2036 67.3219 57.2729 67.3504C57.3419 67.379 57.4048 67.421 57.4577 67.4736C57.5103 67.5266 57.5522 67.5891 57.5805 67.6578C57.6089 67.7268 57.6234 67.8006 57.6231 67.875L57.6089 71.4164C57.6063 71.8649 57.4251 72.2942 57.1056 72.6108C56.786 72.9272 56.3536 73.1052 55.9028 73.1059ZM49.4909 68.4384L49.5032 71.4115C49.5042 71.5611 49.5645 71.7042 49.6709 71.8097C49.7773 71.9149 49.9214 71.9743 50.0717 71.9746H55.9028C56.0531 71.9743 56.1972 71.9149 56.3036 71.8097C56.4101 71.7042 56.4704 71.5611 56.471 71.4115L56.4836 68.4384H49.4909Z" fill="#663399"/>
<path d="M1.07227 18.0273H7.62246V71.4337C7.62246 71.7067 7.51354 71.9682 7.31965 72.161C7.12579 72.3541 6.86283 72.4623 6.58865 72.4623H2.10606C1.83188 72.4623 1.56893 72.3541 1.37506 72.161C1.18118 71.9682 1.07227 71.7067 1.07227 71.4337V18.0273Z" fill="#A2798F"/>
<g style="mix-blend-mode:multiply" opacity="0.34">
<path d="M5.55469 18.0273H7.62226V71.4337C7.62226 71.7067 7.51334 71.9682 7.31948 72.161C7.12559 72.3541 6.86264 72.4623 6.58846 72.4623C6.31428 72.4623 6.05136 72.3541 5.85747 72.161C5.66361 71.9682 5.55469 71.7067 5.55469 71.4337V18.0273Z" fill="#3F4545"/>
</g>
<g style="mix-blend-mode:screen" opacity="0.78">
<path d="M1.07196 18.0273H3.25279V71.4337C3.25279 71.7067 3.14388 71.9682 2.95 72.161C2.75613 72.3541 2.49318 72.4623 2.219 72.4623H2.10532C1.83115 72.4623 1.5682 72.3541 1.37432 72.161C1.18045 71.9682 1.07153 71.7067 1.07153 71.4337V18.0273H1.07196Z" fill="#3F4545"/>
</g>
<path d="M6.58846 73.0276H2.10586C1.6812 73.0273 1.27407 72.8591 0.973725 72.5604C0.673382 72.2617 0.504339 71.8565 0.503662 71.434V18.027C0.503662 17.877 0.563549 17.7331 0.670146 17.6271C0.776743 17.521 0.921318 17.4614 1.07207 17.4614H7.62297C7.77372 17.4614 7.91827 17.521 8.02488 17.6271C8.13148 17.7331 8.19136 17.877 8.19136 18.027V71.434C8.19068 71.8569 8.02155 72.2621 7.72106 72.5608C7.42057 72.8595 7.01322 73.0273 6.58846 73.0276ZM1.64048 18.5925V71.434C1.64063 71.5569 1.68971 71.6746 1.77695 71.7612C1.86419 71.8482 1.98248 71.897 2.10586 71.8973H6.58846C6.71183 71.897 6.83014 71.8482 6.91736 71.7612C7.00461 71.6746 7.05369 71.5569 7.05385 71.434V18.5925H1.64048Z" fill="#1F2120"/>
<path d="M6.42145 8.83691H2.27281L2.03394 18.0272H6.66036L6.42145 8.83691Z" fill="#B5B4B4"/>
<g style="mix-blend-mode:multiply" opacity="0.39">
<path d="M6.42149 8.83691H4.99194L5.23065 18.0272H6.66036L6.42149 8.83691Z" fill="#B5B4B4"/>
</g>
<path opacity="0.5" d="M2.27281 8.83691L2.03394 18.0272H3.56224L3.8011 8.83691H2.27281Z" fill="white"/>
<path d="M6.66057 18.5929H2.03416C1.95831 18.5929 1.88321 18.5779 1.81331 18.5486C1.7434 18.5193 1.6801 18.4763 1.62713 18.4223C1.57416 18.3683 1.53259 18.3043 1.50487 18.234C1.47716 18.1637 1.46386 18.0887 1.46575 18.0132L1.70449 8.8229C1.70819 8.67535 1.76971 8.53511 1.87591 8.43209C1.9821 8.32907 2.12457 8.27142 2.27289 8.27148H6.42154C6.56987 8.27142 6.71233 8.32907 6.81854 8.43209C6.92472 8.53511 6.98625 8.67535 6.98995 8.8229L7.22869 18.0132C7.2306 18.0887 7.21728 18.1637 7.18958 18.234C7.16185 18.3043 7.12029 18.3683 7.06731 18.4223C7.01433 18.4763 6.95103 18.5193 6.88113 18.5486C6.81122 18.5779 6.73615 18.5929 6.66028 18.5929H6.66057ZM2.61749 17.4618H6.07723L5.8678 9.40258H2.8268L2.61749 17.4618Z" fill="#1F2120"/>
<path d="M6.42151 9.40257H2.27284C2.15554 9.40251 2.04115 9.36632 1.94534 9.29898C1.84953 9.23167 1.777 9.13648 1.73769 9.02653C1.69839 8.91658 1.69424 8.79719 1.72581 8.68481C1.75738 8.57242 1.82313 8.47248 1.91403 8.39872L3.13611 7.40898C3.23744 7.32678 3.36416 7.28183 3.49491 7.28174H5.19885C5.3296 7.28183 5.45633 7.32678 5.55767 7.40898L6.77975 8.39872C6.87065 8.47248 6.9364 8.57242 6.96797 8.68481C6.99954 8.79719 6.99538 8.91658 6.95607 9.02653C6.91676 9.13648 6.84424 9.23167 6.74844 9.29898C6.65261 9.36632 6.53824 9.40251 6.42093 9.40257H6.42151Z" fill="#1F2120"/>
<path d="M5.33478 4.1709H3.35913V8.01204H5.33478V4.1709Z" fill="#B5B4B4"/>
<path d="M5.33488 8.57771H3.35967C3.20891 8.57771 3.06434 8.51813 2.95774 8.41207C2.85115 8.306 2.79126 8.16217 2.79126 8.01215V4.17103C2.79126 4.02104 2.85115 3.87718 2.95774 3.77112C3.06434 3.66505 3.20891 3.60547 3.35967 3.60547H5.33488C5.48562 3.60547 5.63021 3.66505 5.73681 3.77112C5.84341 3.87718 5.90329 4.02104 5.90329 4.17103V8.01215C5.90329 8.16217 5.84341 8.306 5.73681 8.41207C5.63021 8.51813 5.48562 8.57771 5.33488 8.57771ZM3.92806 7.44661H4.76646V4.7366H3.92806V7.44661Z" fill="#1F2120"/>
<path d="M4.34722 4.75474C4.15878 4.75474 3.97808 4.68024 3.84481 4.54768C3.71158 4.41511 3.63672 4.23528 3.63672 4.04779V1.55509C3.63672 1.3676 3.71158 1.18779 3.84481 1.05521C3.97808 0.922626 4.15878 0.848145 4.34722 0.848145C4.53566 0.848145 4.71639 0.922626 4.84963 1.05521C4.98287 1.18779 5.05774 1.3676 5.05774 1.55509V4.04779C5.05774 4.23528 4.98287 4.41511 4.84963 4.54768C4.71639 4.68024 4.53566 4.75474 4.34722 4.75474Z" fill="#1F2120"/>
<path d="M29.8077 70.8855H28.8792C28.7285 70.8855 28.5839 70.8261 28.4773 70.7199C28.3707 70.614 28.3108 70.47 28.3108 70.3202C28.3108 70.17 28.3707 70.0263 28.4773 69.9201C28.5839 69.8142 28.7285 69.7545 28.8792 69.7545H29.8077C30.737 69.7533 31.6278 69.3856 32.2849 68.7317C32.9421 68.0779 33.3117 67.1914 33.3129 66.2668V52.9169L32.04 51.0824C31.9883 51.0079 31.9553 50.9219 31.9438 50.8321C31.9323 50.7423 31.9427 50.6512 31.974 50.5661L33.3478 46.8429C33.3939 46.7181 33.4826 46.6135 33.5983 46.5474C33.7141 46.4813 33.8495 46.4575 33.9807 46.481C34.1123 46.5041 34.2313 46.5727 34.317 46.6744C34.4028 46.7765 34.4499 46.9051 34.4499 47.0379V52.7324C34.4499 52.7375 34.4499 52.7423 34.4499 52.7475V66.2668C34.4486 67.4914 33.9591 68.6656 33.0888 69.5316C32.2185 70.3975 31.0385 70.8845 29.8077 70.8855ZM33.1427 50.681L33.3133 50.9264V50.2193L33.1427 50.681Z" fill="#1F2120"/>
<path d="M30.1781 56.8429H23.6871C22.2754 45.7241 23.486 25.1246 24.7496 16.896H29.1158C30.3794 25.1246 31.5898 45.7241 30.1781 56.8429Z" fill="#EBDADA"/>
<g style="mix-blend-mode:difference" opacity="0.2">
<path d="M29.1156 16.896H28.1997C28.8791 25.6098 30.3454 45.7241 28.9345 56.8429H30.1779C31.5895 45.7241 30.3791 25.1246 29.1156 16.896Z" fill="#EBDADA"/>
</g>
<g style="mix-blend-mode:screen" opacity="0.68">
<path d="M27.5664 56.2106C26.1979 45.4312 26.3318 27.4126 26.9327 16.896H24.7496C23.486 25.1249 22.2754 45.7241 23.6871 56.8429H30.1781C30.2044 56.6357 30.2296 56.4239 30.254 56.2106H27.5664Z" fill="#3F4545"/>
</g>
<path d="M30.1777 57.4089H23.6866C23.5482 57.4089 23.4146 57.3585 23.3107 57.2674C23.2069 57.1763 23.1401 57.0505 23.1228 56.9138C21.7369 45.9988 22.8457 25.5474 24.1873 16.8108C24.2077 16.6771 24.2756 16.555 24.3786 16.4668C24.4817 16.3786 24.6132 16.3301 24.7491 16.3301H29.1154C29.2513 16.3301 29.3828 16.3786 29.4859 16.4668C29.5889 16.555 29.6568 16.6771 29.6772 16.8108C31.0188 25.5474 32.1275 45.9981 30.7417 56.9138C30.7244 57.0505 30.6576 57.1763 30.5537 57.2674C30.4499 57.3585 30.3162 57.4089 30.1777 57.4089ZM24.1902 56.2776H29.6741C30.9313 45.5429 29.9046 26.248 28.6251 17.4619H25.2388C23.9599 26.248 22.9331 45.5429 24.1902 56.2776Z" fill="#1F2120"/>
<path d="M31.3429 62.9487C30.425 70.497 28.2358 75.0942 26.9326 75.0942C25.6294 75.0942 23.44 70.4976 22.5223 62.9487C21.799 56.3306 22.0052 49.7006 22.2807 43.1196H31.5843C31.8598 49.7009 32.066 56.3306 31.3429 62.9487Z" fill="#EBDADA"/>
<g style="mix-blend-mode:difference" opacity="0.2">
<path d="M31.5841 43.1196H29.9994C30.275 49.7009 30.4812 56.3306 29.7578 62.9487C29.0081 69.1148 27.4103 73.3094 26.1396 74.6396C26.4239 74.938 26.6931 75.0936 26.9319 75.0936C28.2351 75.0936 30.4243 70.497 31.3421 62.9481C32.0659 56.3306 31.8597 49.7009 31.5841 43.1196Z" fill="#EBDADA"/>
</g>
<g style="mix-blend-mode:lighten" opacity="0.68">
<path d="M22.5223 62.9487C22.7926 65.3097 23.2612 67.6438 23.9233 69.9269C26.6828 69.3429 27.6735 60.1411 27.6735 47.8352C27.6735 46.515 27.6238 44.3789 27.5752 43.1196H22.2807C22.0052 49.7009 21.799 56.3306 22.5223 62.9487Z" fill="#3F4545"/>
</g>
<path d="M26.9325 75.6588C24.973 75.6588 22.8343 70.2241 21.9581 63.0163C21.2374 56.4232 21.4309 49.8317 21.7128 43.0961C21.7189 42.9504 21.7815 42.8125 21.8874 42.7114C21.9934 42.6103 22.1345 42.5539 22.2812 42.5542H31.5848C31.7315 42.5539 31.8727 42.6103 31.9786 42.7114C32.0846 42.8125 32.1471 42.9504 32.1532 43.0961C32.4351 49.8317 32.6287 56.4232 31.9088 63.0099V63.0163C31.0307 70.2235 28.8921 75.6588 26.9325 75.6588ZM22.8258 43.6851C22.5585 50.1875 22.3949 56.5547 23.087 62.8873C23.4948 66.2413 24.2087 69.3403 25.0966 71.6069C26.0367 74.0068 26.7839 74.5214 26.9325 74.5278C27.0806 74.5214 27.8278 74.0068 28.7678 71.6069C29.6553 69.3412 30.3691 66.2436 30.7776 62.8841C31.4694 56.5525 31.3059 50.1862 31.0386 43.6851H22.8258Z" fill="#1F2120"/>
<path d="M30.2095 9.05731C28.1711 6.19259 26.9325 0.56543 26.9325 0.56543C26.9325 0.56543 25.6938 6.19275 23.6554 9.05731C23.6076 9.12414 23.5816 9.20396 23.5808 9.286C23.5801 9.36801 23.6047 9.44828 23.6512 9.51597C24.3617 10.5933 24.8437 11.8035 25.0678 13.0725C25.2919 14.3416 25.2533 15.6428 24.9545 16.8965H28.9106C28.6117 15.6428 28.5731 14.3416 28.7972 13.0725C29.0213 11.8035 29.5033 10.5932 30.2138 9.51597C30.2604 9.44828 30.2849 9.36797 30.2842 9.28597C30.2834 9.20393 30.2574 9.12411 30.2095 9.05731Z" fill="#EAEAEA"/>
<g style="mix-blend-mode:multiply" opacity="0.37">
<path d="M30.2096 9.05731C28.1711 6.19259 26.9326 0.56543 26.9326 0.56543C26.9326 0.56543 26.6437 1.87753 26.1155 3.5571C26.6812 5.35573 27.5213 7.5758 28.5754 9.05715C28.6232 9.12398 28.6493 9.2038 28.65 9.28584C28.6508 9.36785 28.6262 9.44812 28.5797 9.51581C27.8692 10.5931 27.3872 11.8033 27.1631 13.0724C26.939 14.3414 26.9776 15.6426 27.2765 16.8964H28.9106C28.6118 15.6426 28.5732 14.3414 28.7973 13.0724C29.0214 11.8033 29.5034 10.5931 30.2138 9.51581C30.2604 9.44815 30.2849 9.36788 30.2842 9.2859C30.2834 9.2039 30.2574 9.12411 30.2096 9.05731Z" fill="#B5B4B4"/>
</g>
<path d="M28.9106 17.4616H24.9549C24.8684 17.4616 24.783 17.4419 24.7053 17.4041C24.6276 17.3663 24.5595 17.3114 24.5064 17.2434C24.4532 17.1755 24.4164 17.0964 24.3986 17.0122C24.3808 16.9279 24.3826 16.8408 24.4038 16.7573C24.6849 15.5809 24.7213 14.3597 24.5108 13.1688C24.3004 11.9778 23.8475 10.8423 23.1801 9.83176C23.0686 9.66907 23.0099 9.47625 23.012 9.27932C23.0141 9.08243 23.0769 8.89089 23.1919 8.7306C25.1387 5.99386 26.3656 0.4996 26.3778 0.444314C26.4056 0.318381 26.4758 0.205671 26.5767 0.124864C26.6777 0.0440561 26.8034 0 26.933 0C27.0626 0 27.1882 0.0440561 27.2892 0.124864C27.3902 0.205671 27.4604 0.318381 27.4882 0.444314C27.5004 0.4996 28.7266 5.99402 30.674 8.73047C30.7889 8.89076 30.8516 9.0823 30.8537 9.27919C30.8558 9.47609 30.7972 9.66891 30.6858 9.8316C30.0183 10.8421 29.5654 11.9777 29.355 13.1686C29.1445 14.3596 29.181 15.5807 29.462 16.7572C29.4832 16.8406 29.485 16.9278 29.4672 17.012C29.4494 17.0963 29.4126 17.1754 29.3594 17.2433C29.3063 17.3112 29.2382 17.3662 29.1605 17.404C29.0828 17.4418 28.9974 17.4614 28.9109 17.4614L28.9106 17.4616ZM25.6539 16.3304H28.2118C27.8172 13.8843 28.3404 11.3792 29.6816 9.29193C28.425 7.47874 27.4836 4.72714 26.9331 2.82404C26.3825 4.72714 25.4411 7.47874 24.1846 9.29193C25.5255 11.3793 26.0485 13.8844 25.6539 16.3304Z" fill="#1F2120"/>
<path d="M26.9324 9.29637C26.7817 9.29637 26.6371 9.23679 26.5305 9.13072C26.4239 9.02466 26.364 8.88083 26.364 8.73081V0.565559C26.364 0.415563 26.4239 0.271711 26.5305 0.165648C26.6371 0.0595852 26.7817 0 26.9324 0C27.0832 0 27.2278 0.0595852 27.3344 0.165648C27.441 0.271711 27.5008 0.415563 27.5008 0.565559V8.73081C27.5008 8.88083 27.441 9.02466 27.3344 9.13072C27.2278 9.23679 27.0832 9.29637 26.9324 9.29637Z" fill="#1F2120"/>
<path d="M26.9353 10.1437C27.546 10.1437 28.041 9.65112 28.041 9.04353C28.041 8.43593 27.546 7.94336 26.9353 7.94336C26.3246 7.94336 25.8296 8.43593 25.8296 9.04353C25.8296 9.65112 26.3246 10.1437 26.9353 10.1437Z" fill="#1F2120"/>
<path d="M76.8371 14.792H69.1638V64.1178H76.8371V14.792Z" fill="#EBDADA"/>
<path d="M76.8373 64.6836H69.1636C69.013 64.6836 68.8686 64.6239 68.7618 64.5177C68.6551 64.4119 68.5955 64.2678 68.5955 64.118V14.7921C68.5955 14.6421 68.6551 14.4983 68.7618 14.3922C68.8686 14.2861 69.013 14.2266 69.1636 14.2266H76.8373C76.9878 14.2266 77.1326 14.2861 77.239 14.3922C77.3458 14.4983 77.4057 14.6421 77.4057 14.7921V64.118C77.4057 64.2678 77.3458 64.4119 77.239 64.5177C77.1326 64.6239 76.9878 64.6836 76.8373 64.6836ZM69.7321 63.5523H76.2688V15.3577H69.7321V63.5523Z" fill="#1F2120"/>
<path d="M74.4215 64.6836H71.5795C71.4286 64.6836 71.2841 64.6239 71.1774 64.5177C71.071 64.4119 71.011 64.2678 71.011 64.118V14.7921C71.011 14.6421 71.071 14.4983 71.1774 14.3922C71.2841 14.2861 71.4286 14.2266 71.5795 14.2266H74.4215C74.5721 14.2266 74.7166 14.2861 74.8233 14.3922C74.93 14.4983 74.9897 14.6421 74.9897 14.7921V64.118C74.9897 64.2678 74.93 64.4119 74.8233 64.5177C74.7166 64.6239 74.5721 64.6836 74.4215 64.6836ZM72.1476 63.5523H73.853V15.3577H72.1476V63.5523Z" fill="#1F2120"/>
<path d="M76.8371 14.7922H69.1638L73.0006 3.39209L76.8371 14.7922Z" fill="#C4C4C4"/>
<path d="M76.8373 15.3574H69.1636C69.0737 15.3574 68.9847 15.3361 68.9047 15.2952C68.8244 15.2543 68.7551 15.195 68.7025 15.1222C68.6497 15.0494 68.6152 14.9652 68.6019 14.8766C68.5884 14.7879 68.5961 14.6973 68.6248 14.6123L72.4616 3.21214C72.4994 3.09972 72.5716 3.00196 72.6683 2.9327C72.7651 2.86343 72.8815 2.82617 73.0005 2.82617C73.1198 2.82617 73.2358 2.86343 73.3326 2.9327C73.4293 3.00196 73.5015 3.09972 73.5396 3.21214L77.3764 14.6123C77.4048 14.6973 77.4129 14.7879 77.3993 14.8766C77.3858 14.9652 77.3513 15.0494 77.2987 15.1222C77.2458 15.195 77.1768 15.2543 77.0965 15.2952C77.0162 15.3361 76.9272 15.3574 76.8373 15.3574ZM69.954 14.2263H76.0476L73.0008 5.17295L69.954 14.2263Z" fill="#1F2120"/>
<path d="M69.1638 64.1177H76.8375V66.6471C76.8375 67.4078 76.5337 68.1377 75.993 68.6754C75.4522 69.2135 74.719 69.5157 73.9541 69.5157H72.0475C71.2826 69.5157 70.5494 69.2135 70.0086 68.6754C69.4679 68.1377 69.1641 67.4078 69.1641 66.6471L69.1638 64.1177Z" fill="#A2798F"/>
<path d="M73.954 70.0815H72.0477C71.1326 70.0806 70.2552 69.7183 69.608 69.0744C68.9609 68.4308 68.5972 67.5578 68.5962 66.6473V64.1179C68.5962 63.9677 68.6558 63.824 68.7626 63.7178C68.869 63.6119 69.0138 63.5522 69.1643 63.5522H76.838C76.9886 63.5522 77.1334 63.6119 77.2398 63.7178C77.3465 63.824 77.4065 63.9677 77.4065 64.1179V66.6473C77.4052 67.5578 77.0411 68.4308 76.394 69.0747C75.7468 69.7187 74.8691 70.0809 73.954 70.0815ZM69.7325 64.6835V66.6473C69.7331 67.2579 69.9772 67.8434 70.4113 68.2752C70.8453 68.7071 71.4334 68.9499 72.0474 68.9506H73.954C74.5676 68.9499 75.1561 68.7071 75.5901 68.2752C76.0241 67.8434 76.2682 67.2579 76.2689 66.6473V64.6835H69.7325Z" fill="#1F2120"/>
<path d="M76.8371 59.1069H69.1638V64.1177H76.8371V59.1069Z" fill="#B5B4B4"/>
<path d="M76.8373 64.6834H69.1636C69.013 64.6834 68.8686 64.6237 68.7618 64.5175C68.6551 64.4116 68.5955 64.2676 68.5955 64.1177V59.1066C68.5955 58.9565 68.6551 58.8128 68.7618 58.7066C68.8686 58.6007 69.013 58.541 69.1636 58.541H76.8373C76.9878 58.541 77.1326 58.6007 77.239 58.7066C77.3458 58.8128 77.4057 58.9565 77.4057 59.1066V64.1177C77.4057 64.2676 77.3458 64.4116 77.239 64.5175C77.1326 64.6237 76.9878 64.6834 76.8373 64.6834ZM69.7321 63.5521H76.2688V59.672H69.7321V63.5521Z" fill="#1F2120"/>
<path d="M73.0005 3.39209L71.4524 7.99191H74.5485L73.0005 3.39209Z" fill="#1F2120"/>
<path d="M53.9682 71.2567H48.137C47.8365 71.2567 47.5479 71.138 47.3351 70.9268C47.1219 70.7157 47.0016 70.4292 47.0004 70.1302L46.7898 19.3745H55.3157L55.1051 70.1309C55.1035 70.4299 54.9832 70.7161 54.7701 70.9272C54.5573 71.138 54.2687 71.2567 53.9682 71.2567Z" fill="#799491"/>
<g style="mix-blend-mode:screen">
<path d="M49.7676 70.1299L49.5571 19.3745H46.7898L47.0004 70.1305C47.0016 70.4299 47.1219 70.7164 47.3351 70.9275C47.5482 71.1386 47.8365 71.257 48.1373 71.257H50.9046C50.6037 71.257 50.3151 71.1386 50.1023 70.9272C49.8892 70.7161 49.7689 70.4292 49.7676 70.1299Z" fill="#799491"/>
</g>
<g style="mix-blend-mode:multiply" opacity="0.53">
<path d="M52.3379 70.1303L52.5484 19.374H55.316L55.1051 70.1303C55.1042 70.4293 54.9836 70.7158 54.7708 70.9269C54.5576 71.138 54.269 71.2567 53.9685 71.2567H51.2009C51.5018 71.2567 51.79 71.138 52.0032 70.9269C52.2163 70.7158 52.3366 70.4293 52.3379 70.1303Z" fill="#799491"/>
</g>
<path d="M53.9683 71.8225H48.1371C47.6866 71.8216 47.2542 71.6435 46.935 71.3268C46.6155 71.0105 46.4349 70.5812 46.432 70.1327L46.2214 19.3766C46.2211 19.3021 46.2356 19.2283 46.264 19.1594C46.2924 19.0905 46.3343 19.0279 46.3872 18.9751C46.4397 18.9223 46.5026 18.8804 46.5716 18.8519C46.6409 18.8233 46.7151 18.8086 46.7899 18.8086H55.3158C55.3909 18.8086 55.4648 18.8233 55.5341 18.8519C55.6031 18.8804 55.666 18.9223 55.7189 18.9751C55.7714 19.0279 55.8133 19.0905 55.8417 19.1594C55.8701 19.2283 55.8846 19.3021 55.8843 19.3766L55.6737 70.1327C55.6708 70.5812 55.4899 71.0105 55.1707 71.3268C54.8511 71.6435 54.4191 71.8216 53.9683 71.8225ZM47.3606 19.9403L47.569 70.1285C47.5696 70.278 47.6299 70.4211 47.7363 70.5267C47.843 70.6322 47.9868 70.6916 48.1371 70.6919H53.9683C54.1185 70.6916 54.2627 70.6322 54.3691 70.5267C54.4755 70.4211 54.5358 70.278 54.5368 70.1285L54.7451 19.9403H47.3606Z" fill="#1F2120"/>
<path d="M54.6054 19.3741H47.5002L47.8346 16.8018H54.2707L54.6054 19.3741Z" fill="#414141"/>
<path d="M54.6053 19.9402H47.5001C47.4192 19.9402 47.3395 19.9231 47.2657 19.89C47.1922 19.8568 47.1264 19.8084 47.0732 19.748C47.0197 19.6877 46.98 19.6167 46.9565 19.5398C46.9329 19.4629 46.9258 19.3818 46.9365 19.3021L47.2708 16.7298C47.2886 16.5935 47.3556 16.4683 47.4592 16.3776C47.563 16.2868 47.6965 16.2368 47.8345 16.2368H54.2702C54.4086 16.2368 54.5417 16.2868 54.6456 16.3776C54.7494 16.4683 54.8165 16.5935 54.8342 16.7298L55.1686 19.3021C55.1789 19.3818 55.1721 19.4629 55.1486 19.5397C55.1251 19.6166 55.0851 19.6876 55.0319 19.748C54.9787 19.8084 54.9129 19.8567 54.8394 19.8899C54.7655 19.9231 54.6859 19.9402 54.6049 19.9402H54.6053ZM48.1466 18.8091H53.9584L53.7711 17.3669H48.3343L48.1466 18.8091Z" fill="#1F2120"/>
<path d="M53.8202 16.8017H48.2854L48.6517 10.0386H53.4539L53.8202 16.8017Z" fill="#799491"/>
<g style="mix-blend-mode:screen">
<path d="M48.6517 10.0386L48.2854 16.8017H50.2275L50.2643 10.0386H48.6517Z" fill="#799491"/>
</g>
<g style="mix-blend-mode:multiply" opacity="0.53">
<path d="M53.5973 10.0386L53.9636 16.8017H52.0215L51.8274 10.0386H53.5973Z" fill="#799491"/>
</g>
<path d="M53.8202 17.3669H48.2854C48.2083 17.3669 48.1319 17.3512 48.061 17.3208C47.99 17.2905 47.9262 17.2461 47.873 17.1903C47.8198 17.1345 47.7788 17.0686 47.7521 16.9965C47.7253 16.9244 47.7137 16.8476 47.7179 16.7709L48.0842 10.0077C48.0919 9.86317 48.1551 9.72717 48.2609 9.62765C48.3663 9.52813 48.5063 9.47266 48.6517 9.47266H53.4539C53.5993 9.47266 53.7393 9.52813 53.8451 9.62765C53.9505 9.72717 54.0137 9.86317 54.0214 10.0077L54.3877 16.7709C54.3919 16.8476 54.3803 16.9244 54.3536 16.9965C54.3271 17.0686 54.2858 17.1345 54.2326 17.1903C54.1798 17.2461 54.1156 17.2905 54.0446 17.3208C53.9737 17.3512 53.8973 17.3669 53.8202 17.3669ZM48.8855 16.2358H53.2205L52.9154 10.6038H49.1902L48.8855 16.2358Z" fill="#1F2120"/>
<path d="M53.8202 17.3669H48.2854C48.2083 17.3669 48.1319 17.3512 48.061 17.3208C47.99 17.2905 47.9262 17.2461 47.873 17.1903C47.8198 17.1345 47.7788 17.0686 47.7521 16.9965C47.7253 16.9244 47.7137 16.8476 47.7179 16.7709L48.0842 10.0077C48.0919 9.86317 48.1551 9.72717 48.2609 9.62765C48.3663 9.52813 48.5063 9.47266 48.6517 9.47266H53.4539C53.5993 9.47266 53.7393 9.52813 53.8451 9.62765C53.9505 9.72717 54.0137 9.86317 54.0214 10.0077L54.3877 16.7709C54.3919 16.8476 54.3803 16.9244 54.3536 16.9965C54.3271 17.0686 54.2858 17.1345 54.2326 17.1903C54.1798 17.2461 54.1156 17.2905 54.0446 17.3208C53.9737 17.3512 53.8973 17.3669 53.8202 17.3669ZM48.8855 16.2358H53.2205L52.9154 10.6038H49.1902L48.8855 16.2358Z" fill="#1F2120"/>
<path d="M53.8202 17.3669H48.2854C48.2083 17.3669 48.1319 17.3512 48.061 17.3208C47.99 17.2905 47.9262 17.2461 47.873 17.1903C47.8198 17.1345 47.7788 17.0686 47.7521 16.9965C47.7253 16.9244 47.7137 16.8476 47.7179 16.7709L48.0842 10.0077C48.0919 9.86317 48.1551 9.72717 48.2609 9.62765C48.3663 9.52813 48.5063 9.47266 48.6517 9.47266H53.4539C53.5993 9.47266 53.7393 9.52813 53.8451 9.62765C53.9505 9.72717 54.0137 9.86317 54.0214 10.0077L54.3877 16.7709C54.3919 16.8476 54.3803 16.9244 54.3536 16.9965C54.3271 17.0686 54.2858 17.1345 54.2326 17.1903C54.1798 17.2461 54.1156 17.2905 54.0446 17.3208C53.9737 17.3512 53.8973 17.3669 53.8202 17.3669ZM48.8855 16.2358H53.2205L52.9154 10.6038H49.1902L48.8855 16.2358Z" fill="#1F2120"/>
<path d="M53.8202 17.3669H48.2854C48.2083 17.3669 48.1319 17.3512 48.061 17.3208C47.99 17.2905 47.9262 17.2461 47.873 17.1903C47.8198 17.1345 47.7788 17.0686 47.7521 16.9965C47.7253 16.9244 47.7137 16.8476 47.7179 16.7709L48.0842 10.0077C48.0919 9.86317 48.1551 9.72717 48.2609 9.62765C48.3663 9.52813 48.5063 9.47266 48.6517 9.47266H53.4539C53.5993 9.47266 53.7393 9.52813 53.8451 9.62765C53.9505 9.72717 54.0137 9.86317 54.0214 10.0077L54.3877 16.7709C54.3919 16.8476 54.3803 16.9244 54.3536 16.9965C54.3271 17.0686 54.2858 17.1345 54.2326 17.1903C54.1798 17.2461 54.1156 17.2905 54.0446 17.3208C53.9737 17.3512 53.8973 17.3669 53.8202 17.3669ZM48.8855 16.2358H53.2205L52.9154 10.6038H49.1902L48.8855 16.2358Z" fill="#1F2120"/>
<path d="M52.6477 10.0388H49.4148V6.04459L52.6477 3.2168V10.0388Z" fill="#FFE9AB"/>
<path d="M52.6475 10.6043H49.4146C49.264 10.6043 49.1192 10.5447 49.0128 10.4387C48.9061 10.3326 48.8464 10.1888 48.8464 10.0388V6.04448C48.8464 5.96421 48.8635 5.88484 48.8971 5.81169C48.9303 5.73857 48.979 5.67331 49.0396 5.62034L52.2725 2.79253C52.3544 2.7208 52.4556 2.67411 52.5636 2.65806C52.6716 2.64201 52.7819 2.65727 52.8816 2.70202C52.9812 2.74677 53.0657 2.81912 53.125 2.91039C53.184 3.00167 53.2159 3.10801 53.2159 3.21669V10.0388C53.2159 10.1888 53.156 10.3326 53.0496 10.4387C52.9428 10.5447 52.7984 10.6043 52.6475 10.6043ZM49.9831 9.4732H52.079V4.46688L49.9831 6.30028V9.4732Z" fill="#1F2120"/>
<path d="M46.9856 66.5894L46.9998 70.1304C47.0011 70.4294 47.1213 70.7159 47.3345 70.927C47.5476 71.1381 47.8359 71.2568 48.1367 71.2568H53.9679C54.2684 71.2568 54.557 71.1381 54.7698 70.927C54.983 70.7159 55.1032 70.4294 55.1045 70.1304L55.1187 66.5894H46.9856Z" fill="#414141"/>
<g style="mix-blend-mode:multiply" opacity="0.4">
<path d="M52.3723 66.5894L52.3581 70.1304C52.3568 70.4294 52.2365 70.7159 52.0237 70.927C51.8106 71.1381 51.522 71.2568 51.2214 71.2568H53.9687C54.2692 71.2568 54.5578 71.1381 54.771 70.927C54.9838 70.7159 55.104 70.4294 55.1053 70.1304L55.1195 66.5894H52.3723Z" fill="#414141"/>
</g>
<g style="mix-blend-mode:screen">
<path d="M49.8423 70.1304L49.8281 66.5894H46.9861L47.0003 70.1304C47.0016 70.4294 47.1218 70.7159 47.335 70.927C47.5481 71.1381 47.8364 71.2568 48.1372 71.2568H50.9793C50.6784 71.2568 50.3899 71.1381 50.177 70.927C49.9639 70.7159 49.8436 70.4294 49.8423 70.1304Z" fill="#414141"/>
</g>
<path d="M53.9683 71.8222H48.1371C47.6863 71.8212 47.2542 71.6432 46.9347 71.3268C46.6155 71.0101 46.4346 70.5809 46.4317 70.1327L46.4175 66.5913C46.4172 66.5169 46.4317 66.4431 46.4601 66.3741C46.4887 66.3055 46.5303 66.2429 46.5832 66.19C46.6361 66.1373 46.6987 66.0953 46.768 66.0668C46.837 66.0382 46.9112 66.0234 46.986 66.0234H55.1201C55.1952 66.0234 55.269 66.0382 55.3384 66.0668C55.4074 66.0953 55.4702 66.1373 55.5231 66.19C55.5757 66.2429 55.6176 66.3055 55.646 66.3741C55.6744 66.4431 55.6889 66.5169 55.6885 66.5913L55.6744 70.1327C55.6718 70.5812 55.4906 71.0105 55.171 71.3271C54.8515 71.6435 54.4191 71.8215 53.9683 71.8222ZM47.5564 67.1547L47.5686 70.1279C47.5696 70.2774 47.6299 70.4205 47.7363 70.526C47.8427 70.6312 47.9868 70.6906 48.1371 70.6909H53.9683C54.1185 70.6906 54.2627 70.6312 54.3691 70.526C54.4755 70.4205 54.5358 70.2774 54.5364 70.1279L54.549 67.1547H47.5564Z" fill="#1F2120"/>
</g>
<defs>
<clipPath id="clip0_711_1443">
<rect width="79" height="77" fill="white" transform="translate(0.5)"/>
</clipPath>
</defs>
</svg>
