<svg width="75" height="74" viewBox="0 0 75 74" fill="none" xmlns="http://www.w3.org/2000/svg">
<path d="M72.8488 20.5L66.1501 27.1506C65.4671 27.8286 64.3628 27.8286 63.6798 27.1506L47.5507 11.1372C46.8677 10.4591 46.8677 9.36271 47.5507 8.68467L54.2494 2.03406C56.9666 -0.663696 61.384 -0.663696 64.1158 2.03406L72.8488 10.7044C75.5805 13.4021 75.5805 17.7878 72.8488 20.5ZM41.7965 14.3976L3.63865 52.2815L0.558129 69.8097C0.136736 72.1757 2.21464 74.2242 4.59769 73.8203L22.2526 70.7474L60.4104 32.8635C61.0934 32.1854 61.0934 31.089 60.4104 30.411L44.2812 14.3976C43.5838 13.7195 42.4794 13.7195 41.7965 14.3976V14.3976ZM18.5327 49.0356C17.7335 48.2421 17.7335 46.9726 18.5327 46.1791L40.9101 23.9623C41.7093 23.1689 42.988 23.1689 43.7872 23.9623C44.5864 24.7558 44.5864 26.0253 43.7872 26.8188L21.4098 49.0356C20.6106 49.829 19.3319 49.829 18.5327 49.0356V49.0356ZM13.2871 61.1682H20.2619V66.4051L10.8895 68.0353L6.37044 63.5486L8.01242 54.2435H13.2871V61.1682Z" fill="#A2798F"/>
</svg>
