<svg width="84" height="67" viewBox="0 0 84 67" fill="none" xmlns="http://www.w3.org/2000/svg">
<path d="M54.2944 5.25909L37.6944 63.0104C37.0589 65.2018 34.7634 66.4651 32.5588 65.8463C30.3541 65.2147 29.0831 62.933 29.7056 60.7416L46.3056 2.99292C46.9411 0.802287 49.2366 -0.46615 51.4412 0.159819C53.6459 0.785659 54.9169 3.06898 54.2944 5.25909ZM67.7559 15.6502L82.2809 30.0877C83.902 31.6991 83.902 34.303 82.2809 35.9143L67.7559 50.3518C66.1348 51.9631 63.5152 51.9631 61.8941 50.3518C60.273 48.7405 60.273 46.1366 61.8941 44.5252L73.4752 33.001L61.8941 21.4768C60.273 19.8655 60.273 17.2616 61.8941 15.6502C63.5152 14.0389 66.1348 14.0389 67.7559 15.6502ZM22.1059 21.4768L10.5184 33.001L22.1059 44.5252C23.727 46.1366 23.727 48.7405 22.1059 50.3518C20.4848 51.9631 17.8652 51.9631 16.2441 50.3518L1.71543 35.9143C0.0948562 34.303 0.0948562 31.6991 1.71543 30.0877L16.2441 15.6502C17.8652 14.0389 20.4848 14.0389 22.1059 15.6502C23.727 17.2616 23.727 19.8655 22.1059 21.4768Z" fill="#A2798F"/>
</svg>
