<svg width="20" height="21" viewBox="0 0 20 21" fill="none" xmlns="http://www.w3.org/2000/svg">
<path d="M17.0342 9.25277L17.86 10.0786C18.2097 10.4282 18.2097 10.9936 17.86 11.3396L10.6324 18.5709C10.2827 18.9206 9.71731 18.9206 9.37136 18.5709L2.14002 11.3396C1.79036 10.9899 1.79036 10.4245 2.14002 10.0786L2.96583 9.25277C3.31921 8.89938 3.89578 8.90682 4.24172 9.26765L8.51208 13.75V3.05926C8.51208 2.56453 8.9101 2.1665 9.40484 2.1665H10.5952C11.0899 2.1665 11.4879 2.56453 11.4879 3.05926V13.75L15.7583 9.26765C16.1042 8.9031 16.6808 8.89566 17.0342 9.25277Z" fill="#FEFCF9"/>
</svg>
