<svg width="32" height="32" viewBox="0 0 32 32" fill="none" xmlns="http://www.w3.org/2000/svg">
<path d="M13.7678 18.2022C13.7678 19.351 12.9345 19.7141 11.9107 19.7141H9.22615V16.5653H11.9642C13.0714 16.5713 13.7678 17.0296 13.7678 18.2022V18.2022ZM13.3095 13.3034C13.3095 12.2498 12.494 11.9998 11.5892 11.9998H9.2321V14.6665H11.7738C12.6726 14.6665 13.3095 14.2736 13.3095 13.3034V13.3034ZM21.1845 14.6844C20.0952 14.6844 19.369 15.3629 19.2976 16.4522H23C22.8988 15.351 22.3273 14.6844 21.1845 14.6844ZM29.3333 5.52365V26.476C29.3333 28.0534 28.0535 29.3332 26.4762 29.3332H5.52377C3.94639 29.3332 2.66663 28.0534 2.66663 26.476V5.52365C2.66663 3.94627 3.94639 2.6665 5.52377 2.6665H26.4762C28.0535 2.6665 29.3333 3.94627 29.3333 5.52365ZM18.8392 11.7736H23.4702V10.6486H18.8392V11.7736ZM16.2797 18.3391C16.2797 16.9046 15.6012 15.6665 14.1964 15.2677C15.2202 14.7796 15.7559 14.2141 15.7559 13.0653C15.7559 10.7915 14.0595 10.2379 12.1012 10.2379H6.71425V21.6665H12.2559C14.3333 21.6546 16.2797 20.6606 16.2797 18.3391V18.3391ZM25.2857 17.4582C25.2857 15.0117 23.8512 12.9701 21.2619 12.9701C18.7381 12.9701 17.0297 14.8629 17.0297 17.351C17.0297 19.9284 18.6547 21.6963 21.2619 21.6963C23.2381 21.6963 24.5178 20.8094 25.1369 18.9106H23.1309C22.9107 19.6189 22.0238 19.9879 21.3333 19.9879C20 19.9879 19.3035 19.2082 19.3035 17.8867H25.2678C25.2738 17.7498 25.2857 17.601 25.2857 17.4582Z" fill="#FEFCF9"/>
</svg>
