<svg width="32" height="32" viewBox="0 0 32 32" fill="none" xmlns="http://www.w3.org/2000/svg">
<path d="M26.4762 2.6665H5.52377C3.94579 2.6665 2.66663 3.94567 2.66663 5.52365V26.476C2.66663 28.054 3.94579 29.3332 5.52377 29.3332H26.4762C28.0541 29.3332 29.3333 28.054 29.3333 26.476V5.52365C29.3333 3.94567 28.0541 2.6665 26.4762 2.6665ZM13.2688 16.3632C7.87073 12.4455 7.92573 12.4356 6.47615 11.3074V9.80936C6.47615 9.02037 7.11573 8.38079 7.90472 8.38079H24.0952C24.8842 8.38079 25.5238 9.02037 25.5238 9.80936V11.3074C24.0731 12.4365 24.1289 12.4457 18.7311 16.3632C18.1061 16.8189 16.8625 17.918 16 17.9045C15.1367 17.9175 13.8948 16.8196 13.2688 16.3632V16.3632ZM25.5238 13.7245V22.1903C25.5238 22.9793 24.8842 23.6189 24.0952 23.6189H7.90472C7.11573 23.6189 6.47615 22.9793 6.47615 22.1903V13.7245C7.30698 14.367 8.46002 15.2267 12.1489 17.9039C12.9919 18.5195 14.4094 19.8173 15.9998 19.8093C17.6002 19.8173 19.0377 18.4973 19.8522 17.9031C23.5401 15.2266 24.6929 14.367 25.5238 13.7245V13.7245Z" fill="#FEFCF9"/>
</svg>
