<svg width="32" height="32" viewBox="0 0 32 32" fill="none" xmlns="http://www.w3.org/2000/svg">
<path d="M27.4285 2.6665H4.56544C3.51782 2.6665 2.66663 3.5296 2.66663 4.58912V27.4106C2.66663 28.4701 3.51782 29.3332 4.56544 29.3332H27.4285C28.4762 29.3332 29.3333 28.4701 29.3333 27.4106V4.58912C29.3333 3.5296 28.4762 2.6665 27.4285 2.6665ZM10.7261 25.5236H6.77377V12.7975H10.7321V25.5236H10.7261ZM8.74996 11.0594C7.4821 11.0594 6.45829 10.0296 6.45829 8.76769C6.45829 7.50579 7.4821 6.47603 8.74996 6.47603C10.0119 6.47603 11.0416 7.50579 11.0416 8.76769C11.0416 10.0356 10.0178 11.0594 8.74996 11.0594V11.0594ZM25.5416 25.5236H21.5892V19.3332C21.5892 17.857 21.5595 15.9582 19.5357 15.9582C17.4762 15.9582 17.1607 17.5653 17.1607 19.226V25.5236H13.2083V12.7975H17V14.5356H17.0535C17.5833 13.5356 18.875 12.482 20.7976 12.482C24.7976 12.482 25.5416 15.1189 25.5416 18.5475V25.5236V25.5236Z" fill="#FEFCF9"/>
</svg>
