<svg width="20" height="21" viewBox="0 0 20 21" fill="none" xmlns="http://www.w3.org/2000/svg">
<path d="M17.7279 2.96762L14.3425 2.18639C13.9747 2.10175 13.5971 2.29381 13.4474 2.63885L11.8849 6.28461C11.7482 6.60361 11.8393 6.97795 12.1095 7.19605L14.0821 8.8106C12.9103 11.3073 10.8628 13.3841 8.31402 14.5787L6.69947 12.6061C6.47812 12.3359 6.10704 12.2448 5.78803 12.3815L2.14228 13.944C1.79398 14.0969 1.60192 14.4745 1.68656 14.8424L2.46779 18.2277C2.54917 18.5793 2.86166 18.8332 3.22949 18.8332C11.5659 18.8332 18.3333 12.0788 18.3333 3.72932C18.3333 3.36475 18.0827 3.049 17.7279 2.96762Z" fill="#799491"/>
</svg>
